<svg width="214" height="54" viewBox="0 0 214 54" fill="none" xmlns="http://www.w3.org/2000/svg">
<rect x="3" y="3" width="206" height="48" fill="white"/>
<path d="M35.852 30.148L35.024 32.578H36.104C36.284 32.578 36.374 32.668 36.374 32.848V33.73C36.374 33.91 36.284 34 36.104 34H32.27C32.09 34 32 33.91 32 33.73V32.848C32 32.668 32.09 32.578 32.27 32.578H33.332L36.932 22.03C37.004 21.862 37.124 21.778 37.292 21.778H39.038C39.206 21.778 39.326 21.862 39.398 22.03L43.034 32.578H44.258C44.438 32.578 44.528 32.668 44.528 32.848V33.73C44.528 33.91 44.438 34 44.258 34H39.74C39.56 34 39.47 33.91 39.47 33.73V32.848C39.47 32.668 39.56 32.578 39.74 32.578H40.856L40.01 30.148H35.852ZM37.922 23.506L36.212 28.798H39.614L37.922 23.506ZM53.4516 32.578H54.2256C54.4056 32.578 54.4956 32.668 54.4956 32.848V33.73C54.4956 33.91 54.4056 34 54.2256 34H52.1916C52.0356 34 51.9456 33.91 51.9216 33.73L51.7776 32.668C51.1656 33.7 50.1876 34.216 48.8436 34.216C47.6676 34.216 46.7616 33.85 46.1256 33.118C45.4896 32.374 45.1716 31.228 45.1716 29.68C45.1716 28.12 45.5376 26.932 46.2696 26.116C47.0136 25.3 47.9676 24.892 49.1316 24.892C49.6596 24.892 50.1276 24.994 50.5356 25.198C50.9436 25.39 51.2436 25.624 51.4356 25.9V22.066H50.4816C50.3016 22.066 50.2116 21.976 50.2116 21.796V20.842C50.2116 20.662 50.3016 20.572 50.4816 20.572H53.1816C53.3616 20.572 53.4516 20.662 53.4516 20.842V32.578ZM51.4356 30.616V27.448C51.2796 27.208 51.0036 26.986 50.6076 26.782C50.2236 26.578 49.8336 26.476 49.4376 26.476C47.9496 26.476 47.2056 27.484 47.2056 29.5C47.2056 31.048 47.5416 32.014 48.2136 32.398C48.5016 32.566 48.8976 32.65 49.4016 32.65C49.9056 32.65 50.3676 32.464 50.7876 32.092C51.2196 31.72 51.4356 31.228 51.4356 30.616ZM64.3058 32.578H65.0798C65.2598 32.578 65.3498 32.668 65.3498 32.848V33.73C65.3498 33.91 65.2598 34 65.0798 34H63.0458C62.8898 34 62.7998 33.91 62.7758 33.73L62.6318 32.668C62.0198 33.7 61.0418 34.216 59.6978 34.216C58.5218 34.216 57.6158 33.85 56.9798 33.118C56.3438 32.374 56.0258 31.228 56.0258 29.68C56.0258 28.12 56.3918 26.932 57.1238 26.116C57.8678 25.3 58.8218 24.892 59.9858 24.892C60.5138 24.892 60.9818 24.994 61.3898 25.198C61.7978 25.39 62.0978 25.624 62.2898 25.9V22.066H61.3358C61.1558 22.066 61.0658 21.976 61.0658 21.796V20.842C61.0658 20.662 61.1558 20.572 61.3358 20.572H64.0358C64.2158 20.572 64.3058 20.662 64.3058 20.842V32.578ZM62.2898 30.616V27.448C62.1338 27.208 61.8578 26.986 61.4618 26.782C61.0778 26.578 60.6878 26.476 60.2918 26.476C58.8038 26.476 58.0598 27.484 58.0598 29.5C58.0598 31.048 58.3958 32.014 59.0678 32.398C59.3558 32.566 59.7518 32.65 60.2558 32.65C60.7598 32.65 61.2218 32.464 61.6418 32.092C62.0738 31.72 62.2898 31.228 62.2898 30.616ZM73.7954 26.566V31.102C73.7954 31.666 73.8674 32.074 74.0114 32.326C74.1554 32.578 74.4254 32.704 74.8214 32.704C75.2174 32.704 75.6014 32.62 75.9734 32.452C76.1054 32.404 76.2014 32.452 76.2614 32.596L76.5854 33.424C76.5974 33.46 76.6034 33.514 76.6034 33.586C76.6034 33.646 76.5434 33.712 76.4234 33.784C75.8474 34.072 75.1634 34.216 74.3714 34.216C73.3034 34.216 72.6014 33.94 72.2654 33.388C72.0254 33.028 71.8874 32.68 71.8514 32.344C71.8034 31.888 71.7794 31.408 71.7794 30.904V26.566H70.7534C70.5734 26.566 70.4834 26.476 70.4834 26.296V25.36C70.4834 25.18 70.5734 25.09 70.7534 25.09H71.7794V22.66C71.7794 22.48 71.8694 22.39 72.0494 22.39H73.5254C73.7054 22.39 73.7954 22.48 73.7954 22.66V25.09H75.6134C75.7934 25.09 75.8834 25.18 75.8834 25.36V26.296C75.8834 26.476 75.7934 26.566 75.6134 26.566H73.7954ZM77.848 29.68C77.848 28.78 77.986 28 78.262 27.34C78.538 26.68 78.898 26.182 79.342 25.846C80.194 25.21 81.118 24.892 82.114 24.892C82.846 24.892 83.464 25.006 83.968 25.234C84.472 25.462 84.862 25.726 85.138 26.026C85.426 26.326 85.666 26.758 85.858 27.322C86.062 27.886 86.164 28.546 86.164 29.302C86.164 30.91 85.756 32.134 84.94 32.974C84.136 33.802 83.104 34.216 81.844 34.216C80.584 34.216 79.6 33.838 78.892 33.082C78.196 32.314 77.848 31.18 77.848 29.68ZM81.988 32.74C82.708 32.74 83.23 32.476 83.554 31.948C83.89 31.408 84.058 30.61 84.058 29.554C84.058 28.498 83.89 27.706 83.554 27.178C83.23 26.638 82.696 26.368 81.952 26.368C80.572 26.368 79.882 27.34 79.882 29.284C79.882 31.588 80.584 32.74 81.988 32.74ZM95.0096 33.73L92.4176 23.236H91.4816C91.3016 23.236 91.2116 23.146 91.2116 22.966V22.048C91.2116 21.868 91.3016 21.778 91.4816 21.778H95.9816C96.1616 21.778 96.2516 21.868 96.2516 22.048V22.966C96.2516 23.146 96.1616 23.236 95.9816 23.236H94.7036L96.6296 31.606L99.2576 22.03C99.3056 21.862 99.4196 21.778 99.5996 21.778H101.076C101.256 21.778 101.37 21.862 101.418 22.03L104.028 31.66L106.098 23.236H104.91C104.73 23.236 104.64 23.146 104.64 22.966V22.048C104.64 21.868 104.73 21.778 104.91 21.778H108.708C108.888 21.778 108.978 21.868 108.978 22.048V22.966C108.978 23.146 108.888 23.236 108.708 23.236H107.754L104.982 33.73C104.934 33.91 104.82 34 104.64 34H102.948C102.768 34 102.654 33.916 102.606 33.748L100.086 24.784L97.6736 33.748C97.6256 33.916 97.5116 34 97.3316 34H95.3516C95.1716 34 95.0576 33.91 95.0096 33.73ZM113.891 28.654V28.024C113.891 27.172 113.651 26.638 113.171 26.422C112.943 26.326 112.613 26.278 112.181 26.278C111.365 26.278 110.873 26.662 110.705 27.43C110.669 27.61 110.579 27.7 110.435 27.7H109.283C109.091 27.7 109.007 27.61 109.031 27.43C109.079 26.554 109.433 25.912 110.093 25.504C110.753 25.096 111.593 24.892 112.613 24.892C114.761 24.892 115.835 25.876 115.835 27.844V32.578H116.609C116.789 32.578 116.879 32.668 116.879 32.848V33.73C116.879 33.91 116.789 34 116.609 34H114.485C114.329 34 114.239 33.91 114.215 33.73L114.089 32.902C113.441 33.778 112.505 34.216 111.281 34.216C110.513 34.216 109.877 34.018 109.373 33.622C108.869 33.214 108.617 32.566 108.617 31.678C108.617 30.514 109.103 29.716 110.075 29.284C110.879 28.912 111.839 28.708 112.955 28.672C113.183 28.672 113.495 28.666 113.891 28.654ZM113.927 31.282V29.896C112.775 29.896 112.067 29.95 111.803 30.058C111.539 30.166 111.305 30.274 111.101 30.382C110.717 30.586 110.525 30.958 110.525 31.498C110.525 32.326 110.999 32.74 111.947 32.74C112.571 32.74 113.057 32.596 113.405 32.308C113.753 32.008 113.927 31.666 113.927 31.282ZM121.017 26.566V31.102C121.017 31.666 121.089 32.074 121.233 32.326C121.377 32.578 121.647 32.704 122.043 32.704C122.439 32.704 122.823 32.62 123.195 32.452C123.327 32.404 123.423 32.452 123.483 32.596L123.807 33.424C123.819 33.46 123.825 33.514 123.825 33.586C123.825 33.646 123.765 33.712 123.645 33.784C123.069 34.072 122.385 34.216 121.593 34.216C120.525 34.216 119.823 33.94 119.487 33.388C119.247 33.028 119.109 32.68 119.073 32.344C119.025 31.888 119.001 31.408 119.001 30.904V26.566H117.975C117.795 26.566 117.705 26.476 117.705 26.296V25.36C117.705 25.18 117.795 25.09 117.975 25.09H119.001V22.66C119.001 22.48 119.091 22.39 119.271 22.39H120.747C120.927 22.39 121.017 22.48 121.017 22.66V25.09H122.835C123.015 25.09 123.105 25.18 123.105 25.36V26.296C123.105 26.476 123.015 26.566 122.835 26.566H121.017ZM126.577 29.428C126.577 31.612 127.423 32.704 129.115 32.704C129.655 32.704 130.285 32.542 131.005 32.218C131.185 32.146 131.311 32.2 131.383 32.38L131.707 33.172C131.767 33.34 131.719 33.466 131.563 33.55C130.831 33.994 129.907 34.216 128.791 34.216C127.339 34.216 126.265 33.808 125.569 32.992C124.873 32.164 124.525 31.048 124.525 29.644C124.525 28.228 124.879 27.082 125.587 26.206C126.307 25.33 127.375 24.892 128.791 24.892C129.871 24.892 130.669 25.186 131.185 25.774C131.701 26.362 131.959 27.112 131.959 28.024C131.959 28.18 131.857 28.258 131.653 28.258H130.573C130.381 28.258 130.279 28.168 130.267 27.988C130.207 26.932 129.673 26.404 128.665 26.404C127.945 26.404 127.417 26.656 127.081 27.16C126.745 27.652 126.577 28.408 126.577 29.428ZM133.035 21.778V20.842C133.035 20.662 133.125 20.572 133.305 20.572H136.023C136.203 20.572 136.293 20.662 136.293 20.842V26.386C136.965 25.39 137.895 24.892 139.083 24.892C140.943 24.892 141.873 25.912 141.873 27.952V32.578H142.935C143.115 32.578 143.205 32.668 143.205 32.848V33.73C143.205 33.91 143.115 34 142.935 34H138.993C138.813 34 138.723 33.91 138.723 33.73V32.848C138.723 32.668 138.813 32.578 138.993 32.578H139.857V28.852C139.857 28.096 139.761 27.544 139.569 27.196C139.377 26.848 138.981 26.674 138.381 26.674C137.781 26.674 137.283 26.854 136.887 27.214C136.491 27.574 136.293 27.982 136.293 28.438V32.578H137.391C137.571 32.578 137.661 32.668 137.661 32.848V33.73C137.661 33.91 137.571 34 137.391 34H133.305C133.125 34 133.035 33.91 133.035 33.73V32.848C133.035 32.668 133.125 32.578 133.305 32.578H134.277V22.048H133.305C133.125 22.048 133.035 21.958 133.035 21.778ZM147.518 20.842V32.578H148.652C148.832 32.578 148.922 32.668 148.922 32.848V33.73C148.922 33.91 148.832 34 148.652 34H144.368C144.188 34 144.098 33.91 144.098 33.73V32.848C144.098 32.668 144.188 32.578 144.368 32.578H145.502V22.048H144.53C144.35 22.048 144.26 21.958 144.26 21.778V20.842C144.26 20.662 144.35 20.572 144.53 20.572H147.248C147.428 20.572 147.518 20.662 147.518 20.842ZM153.169 32.578H154.303C154.483 32.578 154.573 32.668 154.573 32.848V33.73C154.573 33.91 154.483 34 154.303 34H150.019C149.839 34 149.749 33.91 149.749 33.73V32.848C149.749 32.668 149.839 32.578 150.019 32.578C150.019 32.578 150.397 32.578 151.153 32.578V26.566H150.181C150.001 26.566 149.911 26.476 149.911 26.296V25.36C149.911 25.18 150.001 25.09 150.181 25.09H152.899C153.079 25.09 153.169 25.18 153.169 25.36V32.578ZM150.991 23.488C150.763 23.248 150.649 22.942 150.649 22.57C150.649 22.198 150.763 21.892 150.991 21.652C151.231 21.4 151.543 21.274 151.927 21.274C152.323 21.274 152.635 21.4 152.863 21.652C153.103 21.892 153.223 22.198 153.223 22.57C153.223 22.942 153.103 23.248 152.863 23.488C152.623 23.728 152.305 23.848 151.909 23.848C151.525 23.848 151.219 23.728 150.991 23.488ZM156.12 27.664C156.12 26.872 156.426 26.212 157.038 25.684C157.65 25.156 158.424 24.892 159.36 24.892C160.296 24.892 161.106 25 161.79 25.216C161.958 25.264 162.042 25.372 162.042 25.54V27.448C162.042 27.628 161.952 27.718 161.772 27.718H160.728C160.536 27.718 160.458 27.628 160.494 27.448L160.584 26.53C160.224 26.338 159.828 26.242 159.396 26.242C158.436 26.242 157.956 26.578 157.956 27.25C157.956 27.598 158.112 27.874 158.424 28.078C158.736 28.282 159.114 28.45 159.558 28.582C160.002 28.702 160.446 28.846 160.89 29.014C161.346 29.17 161.73 29.446 162.042 29.842C162.354 30.226 162.51 30.718 162.51 31.318C162.51 32.23 162.192 32.944 161.556 33.46C160.92 33.964 160.026 34.216 158.874 34.216C158.07 34.216 157.224 34.096 156.336 33.856C156.18 33.808 156.102 33.694 156.102 33.514V31.606C156.102 31.426 156.192 31.336 156.372 31.336H157.416C157.596 31.336 157.68 31.426 157.668 31.606L157.614 32.542C157.938 32.782 158.4 32.902 159 32.902C160.068 32.902 160.602 32.524 160.602 31.768C160.602 31.384 160.446 31.084 160.134 30.868C159.834 30.64 159.462 30.466 159.018 30.346C158.586 30.226 158.148 30.094 157.704 29.95C157.26 29.794 156.882 29.53 156.57 29.158C156.27 28.774 156.12 28.276 156.12 27.664ZM166.824 26.566V31.102C166.824 31.666 166.896 32.074 167.04 32.326C167.184 32.578 167.454 32.704 167.85 32.704C168.246 32.704 168.63 32.62 169.002 32.452C169.134 32.404 169.23 32.452 169.29 32.596L169.614 33.424C169.626 33.46 169.632 33.514 169.632 33.586C169.632 33.646 169.572 33.712 169.452 33.784C168.876 34.072 168.192 34.216 167.4 34.216C166.332 34.216 165.63 33.94 165.294 33.388C165.054 33.028 164.916 32.68 164.88 32.344C164.832 31.888 164.808 31.408 164.808 30.904V26.566H163.782C163.602 26.566 163.512 26.476 163.512 26.296V25.36C163.512 25.18 163.602 25.09 163.782 25.09H164.808V22.66C164.808 22.48 164.898 22.39 165.078 22.39H166.554C166.734 22.39 166.824 22.48 166.824 22.66V25.09H168.642C168.822 25.09 168.912 25.18 168.912 25.36V26.296C168.912 26.476 168.822 26.566 168.642 26.566H166.824Z" fill="#06387F"/>
<path d="M1.61328 7C2.16553 7 2.61322 7.44777 2.61328 8V51.9873C2.64942 51.9833 2.68644 51.9815 2.72363 51.9814H212.338C212.89 51.9815 213.338 52.4292 213.338 52.9814C213.337 53.5334 212.89 53.9814 212.338 53.9814H2.72363C2.51795 53.9813 2.32685 53.9181 2.16797 53.8115C2.00921 53.9176 1.81854 53.9805 1.61328 53.9805C1.06129 53.9803 0.613479 53.5325 0.613281 52.9805V8C0.613347 7.4479 1.06121 7.00021 1.61328 7ZM211.152 0C211.301 3.76318e-05 211.441 0.0329411 211.567 0.0908203H211.603C212.155 0.0908858 212.603 0.538576 212.603 1.09082C212.602 1.43974 212.423 1.74704 212.152 1.92578V50.9541C212.152 51.5057 211.704 51.954 211.152 51.9541C210.601 51.9539 210.153 51.5057 210.152 50.9541V2.09082H1C0.448177 2.09054 0.000362503 1.64262 0 1.09082C0 0.538709 0.447954 0.0911008 1 0.0908203H210.736C210.863 0.0328052 211.004 4.56742e-05 211.152 0Z" fill="#06387F"/>
</svg>
