<svg width="214" height="54" viewBox="0 0 214 54" fill="none" xmlns="http://www.w3.org/2000/svg">
<rect x="2.97461" y="3" width="206" height="48" fill="#06387F"/>
<path d="M55.4624 30.148L54.6344 32.578H55.7144C55.8944 32.578 55.9844 32.668 55.9844 32.848V33.73C55.9844 33.91 55.8944 34 55.7144 34H51.8804C51.7004 34 51.6104 33.91 51.6104 33.73V32.848C51.6104 32.668 51.7004 32.578 51.8804 32.578H52.9424L56.5424 22.03C56.6144 21.862 56.7344 21.778 56.9024 21.778H58.6484C58.8164 21.778 58.9364 21.862 59.0084 22.03L62.6444 32.578H63.8684C64.0484 32.578 64.1384 32.668 64.1384 32.848V33.73C64.1384 33.91 64.0484 34 63.8684 34H59.3504C59.1704 34 59.0804 33.91 59.0804 33.73V32.848C59.0804 32.668 59.1704 32.578 59.3504 32.578H60.4664L59.6204 30.148H55.4624ZM57.5324 23.506L55.8224 28.798H59.2244L57.5324 23.506ZM65.4936 21.778C67.0296 21.706 68.1696 21.67 68.9136 21.67C69.6576 21.67 70.2096 21.688 70.5696 21.724C70.9416 21.748 71.3616 21.808 71.8296 21.904C72.2976 22 72.7116 22.132 73.0716 22.3C73.4436 22.456 73.8156 22.684 74.1876 22.984C74.5596 23.284 74.8716 23.632 75.1236 24.028C75.6756 24.94 75.9516 26.116 75.9516 27.556C75.9516 29.728 75.3516 31.348 74.1516 32.416C72.9516 33.472 71.3136 34 69.2376 34H65.4936C65.3136 34 65.2236 33.91 65.2236 33.73V32.848C65.2236 32.668 65.3136 32.578 65.4936 32.578H66.4296V23.236H65.4936C65.3136 23.236 65.2236 23.146 65.2236 22.966V22.048C65.2236 21.868 65.3136 21.778 65.4936 21.778ZM69.6336 32.596C70.9536 32.596 71.9736 32.164 72.6936 31.3C73.4256 30.436 73.7916 29.254 73.7916 27.754C73.7916 26.254 73.4496 25.114 72.7656 24.334C72.0936 23.554 71.0376 23.164 69.5976 23.164H68.4456V32.596H69.6336ZM78.0704 21.778C79.6064 21.706 80.7464 21.67 81.4904 21.67C82.2344 21.67 82.7864 21.688 83.1464 21.724C83.5184 21.748 83.9384 21.808 84.4064 21.904C84.8744 22 85.2884 22.132 85.6484 22.3C86.0204 22.456 86.3924 22.684 86.7644 22.984C87.1364 23.284 87.4484 23.632 87.7004 24.028C88.2524 24.94 88.5284 26.116 88.5284 27.556C88.5284 29.728 87.9284 31.348 86.7284 32.416C85.5284 33.472 83.8904 34 81.8144 34H78.0704C77.8904 34 77.8004 33.91 77.8004 33.73V32.848C77.8004 32.668 77.8904 32.578 78.0704 32.578H79.0064V23.236H78.0704C77.8904 23.236 77.8004 23.146 77.8004 22.966V22.048C77.8004 21.868 77.8904 21.778 78.0704 21.778ZM82.2104 32.596C83.5304 32.596 84.5504 32.164 85.2704 31.3C86.0024 30.436 86.3684 29.254 86.3684 27.754C86.3684 26.254 86.0264 25.114 85.3424 24.334C84.6704 23.554 83.6144 23.164 82.1744 23.164H81.0224V32.596H82.2104ZM101.469 34H96.4647C96.2847 34 96.1947 33.91 96.1947 33.73V32.848C96.1947 32.668 96.2847 32.578 96.4647 32.578H97.9407V23.218H95.5107L95.6007 24.622C95.6127 24.802 95.5287 24.892 95.3487 24.892H94.2507C94.0707 24.892 93.9807 24.802 93.9807 24.622V22.048C93.9807 21.868 94.0707 21.778 94.2507 21.778H103.665C103.845 21.778 103.935 21.868 103.935 22.048V24.622C103.935 24.802 103.845 24.892 103.665 24.892H102.567C102.387 24.892 102.303 24.802 102.315 24.622L102.405 23.218H99.9747V32.578H101.469C101.649 32.578 101.739 32.668 101.739 32.848V33.73C101.739 33.91 101.649 34 101.469 34ZM105.425 28.006C105.425 26.806 105.605 25.762 105.965 24.874C106.325 23.974 106.799 23.29 107.387 22.822C108.503 21.922 109.715 21.472 111.023 21.472C111.467 21.472 111.893 21.508 112.301 21.58C112.709 21.652 113.171 21.814 113.687 22.066C114.203 22.306 114.641 22.636 115.001 23.056C115.373 23.464 115.685 24.052 115.937 24.82C116.201 25.588 116.333 26.482 116.333 27.502C116.333 29.662 115.799 31.324 114.731 32.488C113.675 33.64 112.313 34.216 110.645 34.216C108.989 34.216 107.705 33.688 106.793 32.632C105.881 31.576 105.425 30.034 105.425 28.006ZM110.861 32.524C113.009 32.524 114.083 30.946 114.083 27.79C114.083 24.634 112.991 23.056 110.807 23.056C110.039 23.056 109.403 23.266 108.899 23.686C108.407 24.094 108.065 24.61 107.873 25.234C107.681 25.846 107.585 26.56 107.585 27.376C107.585 30.808 108.677 32.524 110.861 32.524ZM122.211 27.952C122.211 26.8 122.379 25.786 122.715 24.91C123.063 24.034 123.519 23.356 124.083 22.876C125.187 21.94 126.435 21.472 127.827 21.472C129.231 21.472 130.491 21.778 131.607 22.39C131.763 22.474 131.841 22.594 131.841 22.75V25.072C131.841 25.252 131.751 25.342 131.571 25.342H130.563C130.383 25.342 130.299 25.252 130.311 25.072L130.365 23.812C129.621 23.308 128.775 23.056 127.827 23.056C125.523 23.056 124.371 24.592 124.371 27.664C124.371 28.624 124.485 29.464 124.713 30.184C124.941 30.892 125.343 31.48 125.919 31.948C126.495 32.416 127.263 32.65 128.223 32.65C129.183 32.65 129.903 32.458 130.383 32.074L130.311 30.814C130.299 30.634 130.383 30.544 130.563 30.544H131.589C131.769 30.544 131.859 30.634 131.859 30.814V33.1C131.859 33.268 131.799 33.382 131.679 33.442C130.623 33.958 129.417 34.216 128.061 34.216C126.093 34.216 124.623 33.658 123.651 32.542C122.691 31.426 122.211 29.896 122.211 27.952ZM136.969 30.148L136.141 32.578H137.221C137.401 32.578 137.491 32.668 137.491 32.848V33.73C137.491 33.91 137.401 34 137.221 34H133.387C133.207 34 133.117 33.91 133.117 33.73V32.848C133.117 32.668 133.207 32.578 133.387 32.578H134.449L138.049 22.03C138.121 21.862 138.241 21.778 138.409 21.778H140.155C140.323 21.778 140.443 21.862 140.515 22.03L144.151 32.578H145.375C145.555 32.578 145.645 32.668 145.645 32.848V33.73C145.645 33.91 145.555 34 145.375 34H140.857C140.677 34 140.587 33.91 140.587 33.73V32.848C140.587 32.668 140.677 32.578 140.857 32.578H141.973L141.127 30.148H136.969ZM139.039 23.506L137.329 28.798H140.731L139.039 23.506ZM146.731 33.73V32.848C146.731 32.668 146.821 32.578 147.001 32.578H147.937V23.218H147.001C146.821 23.218 146.731 23.128 146.731 22.948V22.048C146.731 21.868 146.821 21.778 147.001 21.778C148.537 21.706 149.815 21.67 150.835 21.67C153.955 21.67 155.515 22.786 155.515 25.018C155.515 25.798 155.317 26.488 154.921 27.088C154.525 27.676 153.997 28.126 153.337 28.438L155.443 32.578H156.559C156.739 32.578 156.829 32.668 156.829 32.848V33.73C156.829 33.91 156.739 34 156.559 34H154.183C154.003 34 153.871 33.922 153.787 33.766L151.339 28.924H150.979C150.595 28.924 150.253 28.906 149.953 28.87V32.578H151.087C151.267 32.578 151.357 32.668 151.357 32.848V33.73C151.357 33.91 151.267 34 151.087 34H147.001C146.821 34 146.731 33.91 146.731 33.73ZM149.953 23.164V27.502C150.049 27.514 150.187 27.52 150.367 27.52C151.339 27.52 152.095 27.328 152.635 26.944C153.175 26.56 153.445 25.984 153.445 25.216C153.445 23.848 152.497 23.164 150.601 23.164H149.953ZM164.853 34H159.849C159.669 34 159.579 33.91 159.579 33.73V32.848C159.579 32.668 159.669 32.578 159.849 32.578H161.325V23.218H158.895L158.985 24.622C158.997 24.802 158.913 24.892 158.733 24.892H157.635C157.455 24.892 157.365 24.802 157.365 24.622V22.048C157.365 21.868 157.455 21.778 157.635 21.778H167.049C167.229 21.778 167.319 21.868 167.319 22.048V24.622C167.319 24.802 167.229 24.892 167.049 24.892H165.951C165.771 24.892 165.687 24.802 165.699 24.622L165.789 23.218H163.359V32.578H164.853C165.033 32.578 165.123 32.668 165.123 32.848V33.73C165.123 33.91 165.033 34 164.853 34Z" fill="white"/>
<path d="M1.61328 7C2.16553 7 2.61322 7.44777 2.61328 8V51.9873C2.64942 51.9833 2.68644 51.9815 2.72363 51.9814H212.338C212.89 51.9815 213.338 52.4292 213.338 52.9814C213.337 53.5334 212.89 53.9814 212.338 53.9814H2.72363C2.51795 53.9813 2.32685 53.9181 2.16797 53.8115C2.00921 53.9176 1.81854 53.9805 1.61328 53.9805C1.06129 53.9803 0.613479 53.5325 0.613281 52.9805V8C0.613347 7.4479 1.06121 7.00021 1.61328 7ZM211.152 0C211.301 3.76318e-05 211.441 0.0329411 211.567 0.0908203H211.603C212.155 0.0908858 212.603 0.538576 212.603 1.09082C212.602 1.43974 212.423 1.74704 212.152 1.92578V50.9541C212.152 51.5057 211.704 51.954 211.152 51.9541C210.601 51.9539 210.153 51.5057 210.152 50.9541V2.09082H1C0.448177 2.09054 0.000362503 1.64262 0 1.09082C0 0.538709 0.447954 0.0911008 1 0.0908203H210.736C210.863 0.0328052 211.004 4.56742e-05 211.152 0Z" fill="#06387F"/>
</svg>
