<svg width="24" height="24" viewBox="0 0 24 24" fill="none" xmlns="http://www.w3.org/2000/svg">
<mask id="mask0_279_998" style="mask-type:alpha" maskUnits="userSpaceOnUse" x="0" y="0" width="24" height="24">
<rect x="1.04907e-06" y="24" width="24" height="24" transform="rotate(-90 1.04907e-06 24)" fill="#D9D9D9"/>
</mask>
<g mask="url(#mask0_279_998)">
<path d="M11.9996 14.45L19.3496 7.09999C19.5996 6.84999 19.8913 6.72915 20.2246 6.73749C20.558 6.74582 20.8496 6.87499 21.0996 7.12499C21.3496 7.37499 21.4746 7.66665 21.4746 7.99999C21.4746 8.33332 21.3496 8.62499 21.0996 8.87499L13.4246 16.575C13.2246 16.775 12.9996 16.925 12.7496 17.025C12.4996 17.125 12.2496 17.175 11.9996 17.175C11.7496 17.175 11.4996 17.125 11.2496 17.025C10.9996 16.925 10.7746 16.775 10.5746 16.575L2.87462 8.87499C2.62462 8.62499 2.50379 8.32916 2.51212 7.98749C2.52046 7.64582 2.64962 7.34999 2.89962 7.09999C3.14962 6.84999 3.44129 6.72499 3.77462 6.72499C4.10796 6.72499 4.39962 6.84999 4.64962 7.09999L11.9996 14.45Z" fill="#06387F"/>
</g>
</svg>
