<svg width="51" height="52" viewBox="0 0 51 52" fill="none" xmlns="http://www.w3.org/2000/svg">
<path d="M40.5444 17.2308L44.7364 18.5797L46.0709 19.0075L47.7944 19.5642C47.8333 19.5806 47.8742 19.5806 47.9131 19.5806C47.9929 19.5806 48.0728 19.556 48.1424 19.509C48.2447 19.4373 48.302 19.3186 48.302 19.1999V5.79723C48.302 5.65395 48.2222 5.52705 48.1035 5.4636L45.0393 3.76471L39.2345 0.557312C39.2263 0.549124 39.2182 0.549124 39.21 0.549124C39.1936 0.540937 39.1854 0.540937 39.1711 0.532749C39.1383 0.524562 39.1076 0.516375 39.0687 0.508187C39.0606 0.508187 39.0524 0.5 39.0442 0.5H35.7487H35.7406H32.7399C32.5495 0.5 32.3817 0.64328 32.3592 0.833636C32.3203 1.1202 32.263 1.39038 32.1934 1.6585L18.8069 1.66055C18.7353 1.39037 18.68 1.11198 18.6411 0.835682C18.6166 0.645327 18.4508 0.502047 18.2604 0.502047H15.2577H15.2495H11.9541C11.9459 0.502047 11.9377 0.510235 11.9295 0.510235C11.8967 0.510235 11.8579 0.518421 11.8272 0.534796C11.8108 0.542984 11.8026 0.542984 11.7883 0.551171C11.7801 0.551171 11.7719 0.559359 11.7637 0.559359L5.96101 3.76472L2.90509 5.45543C2.77818 5.52707 2.70654 5.65397 2.70654 5.79725V19.1978C2.70654 19.3165 2.76181 19.4352 2.8662 19.5069C2.91328 19.5396 2.9624 19.5539 3.00948 19.5703C3.02585 19.5703 3.03404 19.5785 3.04837 19.5785C3.06474 19.5785 3.07293 19.5867 3.08726 19.5867C3.12615 19.5867 3.16708 19.5785 3.20597 19.5703L4.92944 19.0136L6.26399 18.5858L10.4478 17.2369L4.62882 45.5099C4.59607 45.6614 4.66157 45.8108 4.78029 45.8988C4.81918 45.9316 4.8683 45.9459 4.91538 45.9623L23.6051 50.5185C23.6379 50.5267 23.6686 50.5267 23.6931 50.5267C23.7013 50.5267 23.7177 50.5267 23.7259 50.5185H23.7505C23.7832 50.5104 23.8221 50.5022 23.8528 50.4858C23.861 50.4858 23.8692 50.4776 23.8774 50.4776C23.9101 50.4612 23.9408 50.4387 23.9654 50.4142L23.9736 50.406C24.0063 50.3732 24.0288 50.3425 24.0452 50.3036L25.2917 47.5322C25.2917 47.524 25.2917 47.5158 25.2999 47.5076L25.5005 47.0409L25.7072 47.5097V47.5179L26.9538 50.2893C27.0172 50.4326 27.1523 50.5185 27.3038 50.5185C27.3365 50.5185 27.3672 50.5185 27.3918 50.5104L46.0815 45.9541C46.1286 45.9377 46.1777 45.9213 46.2166 45.8906C46.3353 45.8026 46.3988 45.6532 46.3681 45.5017L40.5444 17.2308ZM45.5469 45.3031L27.5326 49.6936L26.6115 47.6365L45.1027 43.1273L45.5469 45.3031ZM36.1313 1.27949H38.6551V11.4648H36.1313V1.27949ZM47.524 6.01998V18.6676L46.5394 18.3503L45.2295 17.9286V4.75708L47.524 6.01998ZM44.466 17.6908L40.3703 16.3727L39.4328 11.8083V1.54955L44.466 4.3353V17.6908ZM31.9473 2.44584C31.9473 2.45403 31.9391 2.46221 31.9391 2.4704C31.9227 2.50929 31.9002 2.55842 31.8839 2.59731H31.892C30.842 5.12106 28.349 6.86904 25.4999 6.86904C22.6097 6.86904 20.086 5.06782 19.0689 2.47857V2.47038C19.0689 2.4622 19.0607 2.45401 19.0607 2.44582L31.9473 2.44584ZM25.4996 7.6387C29.2392 7.6387 32.4383 4.93071 33.0728 1.27902H35.3673V11.4722H15.6401V1.27902H17.9346C18.5609 4.93061 21.7597 7.6387 25.4996 7.6387ZM14.8683 1.27902V11.4644H12.3446V1.27902H14.8683ZM4.45187 18.3559L3.46734 18.6731V6.01981L5.75367 4.75689V17.9363L4.45187 18.3559ZM6.53353 17.6907V4.32891L11.5667 1.54316V11.7998L10.6293 16.356L6.53353 17.6907ZM23.4752 49.6929L5.45253 45.3025L5.8967 43.1267L24.3879 47.6359L23.4752 49.6929ZM25.4996 45.7159C25.3481 45.7159 25.213 45.804 25.1496 45.9452L24.7136 46.9215L6.05685 42.3714L11.3356 16.7509V16.7427L12.2648 12.2417H38.7348L44.943 42.3712L26.2863 46.9213L25.8503 45.945C25.7869 45.8017 25.651 45.7159 25.4996 45.7159Z" fill="#2F4074" stroke="#2F4074"/>
<path d="M25.1992 20.2312C26.3659 20.2312 27.3197 19.2794 27.3197 18.1107C27.3197 16.9439 26.3679 15.9901 25.1992 15.9901C24.0324 15.9901 23.0786 16.9419 23.0786 18.1107C23.0786 19.2774 24.0304 20.2312 25.1992 20.2312ZM25.1992 16.7536C25.9463 16.7536 26.548 17.3656 26.548 18.1107C26.548 18.8578 25.9442 19.4595 25.1992 19.4595C24.452 19.4595 23.8421 18.8557 23.8421 18.1107C23.8483 17.3635 24.4521 16.7536 25.1992 16.7536Z" fill="#19B8F1" stroke="#19B8F1"/>
<path d="M25.1992 27.6468C26.3659 27.6468 27.3197 26.6951 27.3197 25.5263C27.3197 24.3596 26.3679 23.4058 25.1992 23.4058C24.0324 23.4058 23.0786 24.3575 23.0786 25.5263C23.0786 26.693 24.0304 27.6468 25.1992 27.6468ZM25.1992 24.1693C25.9463 24.1693 26.548 24.7731 26.548 25.5263C26.548 26.2734 25.9442 26.8752 25.1992 26.8752C24.452 26.8752 23.8421 26.2714 23.8421 25.5263C23.8483 24.7792 24.4521 24.1693 25.1992 24.1693Z" fill="#19B8F1" stroke="#19B8F1"/>
<path d="M25.1992 34.8536C26.3659 34.8536 27.3197 33.9019 27.3197 32.7331C27.3197 31.5664 26.3679 30.6125 25.1992 30.6125C24.0324 30.6125 23.0786 31.5643 23.0786 32.7331C23.0786 33.9019 24.0304 34.8536 25.1992 34.8536ZM25.1992 31.3842C25.9463 31.3842 26.548 31.988 26.548 32.7413C26.548 33.4884 25.9442 34.0901 25.1992 34.0901C24.452 34.0901 23.8421 33.4863 23.8421 32.7413C23.8483 31.988 24.4521 31.3842 25.1992 31.3842Z" fill="#19B8F1" stroke="#19B8F1"/>
<path d="M27.3173 39.9527C27.3173 38.786 26.3655 37.8322 25.1967 37.8322C24.03 37.8322 23.0762 38.7839 23.0762 39.9527C23.0762 41.1194 24.028 42.0732 25.1967 42.0732C26.3655 42.063 27.3173 41.1194 27.3173 39.9527ZM25.1988 41.3016C24.4517 41.3016 23.8417 40.6978 23.8417 39.9527C23.8417 39.2056 24.4455 38.5957 25.1988 38.5957C25.9459 38.5957 26.5476 39.1995 26.5476 39.9527C26.5476 40.6895 25.9438 41.3016 25.1988 41.3016Z" fill="#19B8F1" stroke="#19B8F1"/>
<path d="M47.8581 25.7886L45.6741 27.9726C45.5227 28.1241 45.5227 28.3697 45.6741 28.5212C45.7458 28.5929 45.8481 28.6317 45.9443 28.6317C46.0405 28.6317 46.1429 28.5929 46.2145 28.5212L48.3985 26.3372C48.55 26.1857 48.55 25.9401 48.3985 25.7886C48.2552 25.6372 48.0075 25.6372 47.8581 25.7886Z" fill="#2F4074" stroke="#2F4074"/>
<path d="M44.4193 23.6843C44.2044 23.6843 44.0386 23.8583 44.0386 24.065V26.7096C44.0386 26.9245 44.2126 27.0903 44.4193 27.0903C44.6342 27.0903 44.8 26.9163 44.8 26.7096V24.065C44.8 23.8583 44.6342 23.6843 44.4193 23.6843Z" fill="#2F4074" stroke="#2F4074"/>
<path d="M50.119 29.3933H47.4745C47.2595 29.3933 47.0938 29.5673 47.0938 29.774C47.0938 29.9889 47.2677 30.1547 47.4745 30.1547H50.119C50.3339 30.1547 50.4997 29.9808 50.4997 29.774C50.5079 29.5673 50.3339 29.3933 50.119 29.3933Z" fill="#2F4074" stroke="#2F4074"/>
<path d="M49.1351 25.4464C49.2313 25.4464 49.3337 25.4075 49.4053 25.3359L49.8106 24.9306C49.9621 24.7791 49.9621 24.5335 49.8106 24.382C49.6591 24.2306 49.4135 24.2306 49.262 24.382L48.8568 24.7873C48.7053 24.9388 48.7053 25.1844 48.8568 25.3359C48.9366 25.4075 49.0328 25.4464 49.1351 25.4464Z" fill="#2F4074" stroke="#2F4074"/>
<path d="M4.77797 28.5191C4.84961 28.5908 4.95195 28.6297 5.04815 28.6297C5.14435 28.6297 5.2467 28.5908 5.31833 28.5191C5.4698 28.3677 5.4698 28.122 5.31833 27.9706L3.13433 25.7866C2.98287 25.6351 2.73725 25.6351 2.58577 25.7866C2.4343 25.938 2.4343 26.1837 2.58577 26.3351L4.77797 28.5191Z" fill="#2F4074" stroke="#2F4074"/>
<path d="M6.96992 26.7175V24.073C6.96992 23.8581 6.79594 23.6923 6.58921 23.6923C6.37429 23.6923 6.2085 23.8662 6.2085 24.073V26.7175C6.2085 26.9324 6.38248 27.0982 6.58921 27.0982C6.79594 27.0982 6.96992 26.9304 6.96992 26.7175Z" fill="#2F4074" stroke="#2F4074"/>
<path d="M3.52525 29.3933H0.880712C0.665791 29.3933 0.5 29.5673 0.5 29.774C0.5 29.9889 0.673981 30.1547 0.880712 30.1547H3.52525C3.74017 30.1547 3.90596 29.9808 3.90596 29.774C3.90596 29.5591 3.72993 29.3933 3.52525 29.3933Z" fill="#2F4074" stroke="#2F4074"/>
<path d="M1.59544 25.3359C1.66708 25.4075 1.76942 25.4464 1.86562 25.4464C1.96182 25.4464 2.06417 25.4075 2.1358 25.3359C2.28727 25.1844 2.28727 24.9388 2.1358 24.7873L1.73053 24.382C1.57906 24.2306 1.33344 24.2306 1.18196 24.382C1.03049 24.5335 1.03049 24.7791 1.18196 24.9306L1.59544 25.3359Z" fill="#2F4074" stroke="#2F4074"/>
</svg>
