<svg width="410" height="450" viewBox="0 0 410 450" fill="none" xmlns="http://www.w3.org/2000/svg">
<path d="M409.005 435.813C409.051 436.5 408.863 437.216 408.377 437.842L399.97 448.651C398.769 450.195 396.435 450.195 395.233 448.651L387.23 438.362L379.228 448.651C378.027 450.195 375.693 450.194 374.492 448.651L366.982 438.997L359.474 448.651C358.273 450.195 355.939 450.194 354.738 448.651L346.734 438.362L338.732 448.651C337.531 450.195 335.197 450.195 333.996 448.651L326.749 439.334L319.502 448.651C318.301 450.195 315.967 450.195 314.766 448.651L306.763 438.362L298.761 448.651C297.56 450.195 295.226 450.195 294.024 448.651L286.516 438.997L279.007 448.651C277.806 450.195 275.472 450.195 274.271 448.651L266.268 438.362L258.266 448.651C257.065 450.195 254.73 450.195 253.529 448.651L245.758 438.66L237.986 448.651C236.785 450.195 234.452 450.195 233.251 448.651L225.248 438.362L217.245 448.651C216.044 450.195 213.71 450.195 212.509 448.651L205 438.998L197.491 448.651C196.29 450.195 193.957 450.195 192.756 448.651L184.752 438.362L176.75 448.651C175.549 450.195 173.215 450.195 172.014 448.651L164.272 438.7L156.532 448.651C155.331 450.195 152.998 450.194 151.797 448.651L143.793 438.362L135.791 448.651C134.59 450.195 132.256 450.195 131.055 448.651L123.546 438.997L116.037 448.651C114.836 450.195 112.502 450.195 111.301 448.651L103.298 438.362L95.2959 448.651C94.0951 450.195 91.7608 450.195 90.5596 448.651L82.7881 438.66L75.0176 448.651C73.8166 450.195 71.4823 450.195 70.2812 448.651L62.2783 438.362L54.2764 448.651C53.0754 450.195 50.7411 450.195 49.54 448.651L42.0312 438.997L34.5225 448.651C33.3215 450.195 30.9872 450.195 29.7861 448.651L21.7832 438.362L13.7812 448.651C12.5804 450.195 10.2461 450.195 9.04492 448.651L0.637695 437.842C0.158986 437.226 -0.0333565 436.522 0.00488281 435.846V0H409.005V435.813Z" fill="#FFF3D4"/>
</svg>
