<svg width="410" height="450" viewBox="0 0 410 450" fill="none" xmlns="http://www.w3.org/2000/svg">
<path d="M409.005 435.803C409.054 436.492 408.865 437.213 408.376 437.842L399.969 448.651C398.768 450.195 396.433 450.195 395.232 448.651L387.229 438.362L379.227 448.651C378.025 450.195 375.692 450.195 374.491 448.651L366.981 438.997L359.473 448.651C358.272 450.195 355.938 450.195 354.737 448.651L346.733 438.362L338.731 448.651C337.53 450.195 335.196 450.195 333.995 448.651L326.748 439.334L319.501 448.651C318.3 450.195 315.966 450.195 314.765 448.651L306.762 438.362L298.76 448.651C297.559 450.195 295.224 450.195 294.023 448.651L286.515 438.997L279.006 448.651C277.805 450.195 275.471 450.195 274.27 448.651L266.267 438.362L258.265 448.651C257.064 450.195 254.729 450.195 253.528 448.651L245.757 438.66L237.985 448.651C236.784 450.195 234.451 450.195 233.25 448.651L225.247 438.362L217.244 448.651C216.043 450.195 213.709 450.195 212.508 448.651L204.999 438.998L197.49 448.651C196.289 450.195 193.956 450.195 192.755 448.651L184.751 438.362L176.749 448.651C175.548 450.195 173.214 450.195 172.013 448.651L164.271 438.7L156.531 448.651C155.33 450.195 152.997 450.195 151.796 448.651L143.792 438.362L135.79 448.651C134.589 450.195 132.255 450.195 131.054 448.651L123.545 438.997L116.036 448.651C114.835 450.195 112.501 450.195 111.3 448.651L103.297 438.362L95.2949 448.651C94.0939 450.195 91.7597 450.195 90.5586 448.651L82.7871 438.66L75.0166 448.651C73.8154 450.195 71.4812 450.195 70.2803 448.651L62.2773 438.362L54.2754 448.651C53.0742 450.195 50.74 450.195 49.5391 448.651L42.0303 438.997L34.5215 448.651C33.3203 450.195 30.9861 450.195 29.7852 448.651L21.7822 438.362L13.7803 448.651C12.5792 450.195 10.245 450.195 9.04395 448.651L0.636719 437.842C0.157958 437.226 -0.0334336 436.522 0.00488281 435.846V0H409.005V435.803Z" fill="#F9ECDE"/>
</svg>
