<svg width="90" height="54" viewBox="0 0 90 54" fill="none" xmlns="http://www.w3.org/2000/svg">
<path d="M1.25488 7C1.80687 7.00029 2.2548 7.44797 2.25488 8V51.9814H88.6309C89.1829 51.9818 89.6309 52.4294 89.6309 52.9814C89.6305 53.5332 89.1826 53.9811 88.6309 53.9814H1.71484C1.63482 53.9814 1.557 53.9699 1.48242 53.9521C1.40926 53.9692 1.33324 53.9804 1.25488 53.9805C0.70272 53.9805 0.255081 53.5326 0.254883 52.9805V8C0.254965 7.44779 0.702649 7 1.25488 7ZM88.1396 0C88.3339 5.85513e-05 88.5155 0.0554938 88.6689 0.151367C89.0519 0.291577 89.3252 0.659273 89.3252 1.09082C89.3251 1.30647 89.2558 1.50561 89.1396 1.66895V50.9541C89.139 51.5057 88.6914 51.9539 88.1396 51.9541C87.5879 51.9539 87.1403 51.5057 87.1396 50.9541V2.09082H1C0.448151 2.09057 0.000362807 1.64264 0 1.09082C0 0.538689 0.447928 0.0910698 1 0.0908203H87.7246C87.8511 0.0329306 87.9914 4.64889e-05 88.1396 0Z" fill="#06387F"/>
</svg>
