<svg width="214" height="54" viewBox="0 0 214 54" fill="none" xmlns="http://www.w3.org/2000/svg">
<rect x="4" y="3.12012" width="206" height="47" fill="#CDECFF"/>
<path d="M36.228 34.1201L33.492 34.2281C33.048 34.2281 32.676 34.0841 32.376 33.7961C32.088 33.5081 31.944 33.1241 31.944 32.6441L32.052 28.1261C31.308 28.0181 30.936 27.6281 30.936 26.9561C30.936 26.6321 31.038 26.3681 31.242 26.1641C31.446 25.9601 31.71 25.8281 32.034 25.7681L31.944 22.4741C31.812 22.2221 31.746 21.9281 31.746 21.5921C31.746 20.8721 32.316 20.5121 33.456 20.5121L36.192 20.6201L39.018 20.5121C39.474 20.5121 39.834 20.6261 40.098 20.8541C40.374 21.0701 40.512 21.3641 40.512 21.7361C40.512 22.1081 40.374 22.4021 40.098 22.6181C39.834 22.8221 39.474 22.9241 39.018 22.9241L36.192 22.8161C35.544 22.8161 34.98 22.8341 34.5 22.8701V25.8581C34.692 25.8701 34.95 25.8761 35.274 25.8761L38.172 25.7501C38.604 25.7501 38.958 25.8641 39.234 26.0921C39.51 26.3081 39.648 26.6021 39.648 26.9741C39.648 27.3341 39.51 27.6221 39.234 27.8381C38.958 28.0421 38.604 28.1441 38.172 28.1441L35.328 28.0361H35.076C34.908 28.0481 34.716 28.0541 34.5 28.0541C34.5 29.7221 34.512 31.0001 34.536 31.8881C34.86 31.9121 35.424 31.9241 36.228 31.9241L39.054 31.8161C39.51 31.8161 39.87 31.9241 40.134 32.1401C40.41 32.3441 40.548 32.6321 40.548 33.0041C40.548 33.3761 40.41 33.6761 40.134 33.9041C39.87 34.1201 39.51 34.2281 39.054 34.2281L36.228 34.1201ZM46.4323 27.0461C45.2683 25.1861 44.4043 23.9321 43.8403 23.2841C43.5643 22.9361 43.2283 22.7321 42.8323 22.6721C42.7243 22.6481 42.6403 22.6241 42.5803 22.6001C42.4363 22.5281 42.3643 22.3061 42.3643 21.9341C42.3643 21.5621 42.4963 21.2141 42.7603 20.8901C43.0363 20.5661 43.3723 20.4041 43.7683 20.4041C44.4523 20.4041 45.0883 20.8301 45.6763 21.6821L47.8183 25.0481C48.1783 24.5081 48.5503 23.8961 48.9343 23.2121C49.3183 22.5161 49.6063 22.0061 49.7983 21.6821C49.9903 21.3461 50.2183 21.0581 50.4823 20.8181C50.7463 20.5661 51.0283 20.4401 51.3283 20.4401C51.6403 20.4401 51.9043 20.5601 52.1203 20.8001C52.3483 21.0281 52.4623 21.2981 52.4623 21.6101C52.4623 21.9101 52.3663 22.2221 52.1743 22.5461C51.9823 22.8701 51.5803 23.4701 50.9683 24.3461C50.3683 25.2221 49.7743 26.1581 49.1863 27.1541C50.5543 29.2421 51.5803 30.6821 52.2643 31.4741C52.5403 31.8221 52.8763 32.0321 53.2723 32.1041C53.3803 32.1161 53.4643 32.1341 53.5243 32.1581C53.6683 32.2301 53.7403 32.4521 53.7403 32.8241C53.7403 33.1961 53.6023 33.5441 53.3263 33.8681C53.0623 34.1921 52.7323 34.3541 52.3363 34.3541C51.6643 34.3541 51.0343 33.9281 50.4463 33.0761L47.7643 29.1521C47.4043 29.6921 46.9663 30.4241 46.4503 31.3481C45.9343 32.2601 45.5563 32.8961 45.3163 33.2561C44.8603 33.9401 44.4043 34.2821 43.9483 34.2821C43.6243 34.2821 43.3483 34.1681 43.1203 33.9401C42.9043 33.7001 42.7963 33.4301 42.7963 33.1301C42.7963 32.8301 42.9223 32.4701 43.1743 32.0501C43.4263 31.6301 43.8823 30.9401 44.5423 29.9801C45.2143 29.0201 45.8443 28.0421 46.4323 27.0461ZM56.5305 32.3561L56.6745 27.4601C56.6745 26.9081 56.6325 25.5821 56.5485 23.4821C56.1165 23.2421 55.9005 22.8581 55.9005 22.3301C55.9005 21.9581 56.0805 21.6341 56.4405 21.3581C56.8005 21.0821 57.2505 20.8721 57.7905 20.7281C58.7985 20.4761 59.7345 20.3501 60.5985 20.3501C62.4585 20.3501 63.8745 20.7941 64.8465 21.6821C65.8185 22.5581 66.3045 23.6321 66.3045 24.9041C66.3045 26.1761 65.8185 27.2561 64.8465 28.1441C63.8865 29.0321 62.6445 29.4761 61.1205 29.4761C60.2085 29.4761 59.5545 29.4521 59.1585 29.4041L59.2665 32.3561C59.2665 33.6521 58.8105 34.3001 57.8985 34.3001C56.9865 34.3001 56.5305 33.6521 56.5305 32.3561ZM59.1225 27.0281C59.8305 27.1601 60.5205 27.2261 61.1925 27.2261C61.8765 27.2261 62.4705 27.0161 62.9745 26.5961C63.4905 26.1641 63.7485 25.6121 63.7485 24.9401C63.7485 24.2561 63.4785 23.7041 62.9385 23.2841C62.3985 22.8521 61.6485 22.6361 60.6885 22.6361C60.1605 22.6361 59.6685 22.7081 59.2125 22.8521C59.1525 24.3281 59.1225 25.7201 59.1225 27.0281ZM73.1125 31.9241L75.5785 31.8161C76.0345 31.8161 76.3945 31.9241 76.6585 32.1401C76.9345 32.3441 77.0725 32.6321 77.0725 33.0041C77.0725 33.3761 76.9345 33.6761 76.6585 33.9041C76.3945 34.1201 76.0345 34.2281 75.5785 34.2281L73.1125 34.1201L70.3945 34.2281C69.9505 34.2281 69.5785 34.0841 69.2785 33.7961C68.9905 33.5081 68.8465 33.1241 68.8465 32.6441L68.9545 27.2801L68.8105 22.4021C68.8105 21.0941 69.2665 20.4401 70.1785 20.4401C71.0905 20.4401 71.5465 21.0941 71.5465 22.4021L71.4025 27.2801C71.4025 27.8921 71.4445 29.4281 71.5285 31.8881C72.1525 31.9121 72.6805 31.9241 73.1125 31.9241ZM85.4376 32.1221C86.5056 32.1221 87.3936 31.6421 88.1016 30.6821C88.8096 29.7221 89.1636 28.6121 89.1636 27.3521C89.1636 26.0801 88.8096 24.9761 88.1016 24.0401C87.4056 23.0921 86.5176 22.6181 85.4376 22.6181C84.3696 22.6181 83.4816 23.0921 82.7736 24.0401C82.0776 24.9761 81.7296 26.0801 81.7296 27.3521C81.7296 28.6121 82.0836 29.7221 82.7916 30.6821C83.4996 31.6421 84.3816 32.1221 85.4376 32.1221ZM85.4556 20.3501C87.2436 20.3501 88.7316 21.0341 89.9196 22.4021C91.1196 23.7581 91.7196 25.4141 91.7196 27.3701C91.7196 29.3141 91.1196 30.9701 89.9196 32.3381C88.7196 33.7061 87.2256 34.3901 85.4376 34.3901C83.6616 34.3901 82.1736 33.7061 80.9736 32.3381C79.7736 30.9701 79.1736 29.3141 79.1736 27.3701C79.1736 25.4141 79.7736 23.7581 80.9736 22.4021C82.1856 21.0341 83.6796 20.3501 85.4556 20.3501ZM97.232 27.7841C97.232 27.7841 97.28 29.3201 97.376 32.3921C97.376 33.6881 96.926 34.3361 96.026 34.3361C95.018 34.3361 94.514 33.5741 94.514 32.0501C94.514 30.9701 94.67 29.3441 94.982 27.1721C94.982 26.6081 94.916 25.7501 94.784 24.5981C94.652 23.4461 94.586 22.6061 94.586 22.0781C94.586 21.5381 94.706 21.1301 94.946 20.8541C95.186 20.5661 95.516 20.4221 95.936 20.4221C96.368 20.4221 96.698 20.5841 96.926 20.9081C97.166 21.2321 97.286 21.6821 97.286 22.2581C97.658 21.6941 98.12 21.2381 98.672 20.8901C99.236 20.5421 99.872 20.3681 100.58 20.3681C101.288 20.3681 101.864 20.5481 102.308 20.9081C102.752 21.2681 102.974 21.6641 102.974 22.0961C102.974 22.5161 102.842 22.8581 102.578 23.1221C102.314 23.3861 102.02 23.5181 101.696 23.5181C101.372 23.5181 101.036 23.3801 100.688 23.1041C100.352 22.8161 100.124 22.6721 100.004 22.6721C99.584 22.6721 99.062 23.2481 98.438 24.4001C97.814 25.5401 97.412 26.6681 97.232 27.7841ZM113.818 24.3641C113.818 23.9321 113.644 23.5361 113.296 23.1761C112.948 22.8161 112.45 22.6361 111.802 22.6361C110.95 22.6361 110.224 22.9961 109.624 23.7161C109.036 24.4361 108.622 25.3001 108.382 26.3081C109.102 26.4761 109.906 26.5601 110.794 26.5601C111.694 26.5601 112.42 26.3681 112.972 25.9841C113.536 25.6001 113.818 25.0601 113.818 24.3641ZM115.96 31.9421C115.96 32.4101 115.516 32.9381 114.628 33.5261C113.74 34.1021 112.792 34.3901 111.784 34.3901C110.776 34.3901 109.906 34.2161 109.174 33.8681C108.454 33.5081 107.86 33.0281 107.392 32.4281C106.408 31.1921 105.856 29.7341 105.736 28.0541C104.92 27.7301 104.512 27.2321 104.512 26.5601C104.512 26.2241 104.62 25.9541 104.836 25.7501C105.064 25.5341 105.34 25.4261 105.664 25.4261C105.76 25.4261 105.868 25.4441 105.988 25.4801C106.408 23.9921 107.122 22.7681 108.13 21.8081C109.138 20.8361 110.314 20.3501 111.658 20.3501C113.014 20.3501 114.136 20.7401 115.024 21.5201C115.924 22.2881 116.374 23.2121 116.374 24.2921C116.374 25.3601 116.104 26.2361 115.564 26.9201C114.544 28.1681 112.966 28.7921 110.83 28.7921C110.122 28.7921 109.3 28.7141 108.364 28.5581C108.544 29.5661 108.922 30.4121 109.498 31.0961C110.074 31.7801 110.734 32.1221 111.478 32.1221C112.306 32.1221 113.188 31.8401 114.124 31.2761C114.436 31.0841 114.724 30.9881 114.988 30.9881C115.252 30.9881 115.48 31.0781 115.672 31.2581C115.864 31.4381 115.96 31.6661 115.96 31.9421ZM127.581 27.0641L127.689 32.3561C127.689 33.6521 127.239 34.3001 126.339 34.3001C125.331 34.3001 124.827 33.5381 124.827 32.0141C124.827 30.8141 124.983 29.1881 125.295 27.1361C125.295 26.5721 125.229 25.7141 125.097 24.5621C124.965 23.4101 124.899 22.5701 124.899 22.0421C124.899 21.5021 125.019 21.0941 125.259 20.8181C125.499 20.5301 125.835 20.3861 126.267 20.3861C127.143 20.3861 127.581 21.0641 127.581 22.4201C128.577 21.1001 129.801 20.4401 131.253 20.4401C132.117 20.4401 132.867 20.6501 133.503 21.0701C134.151 21.4901 134.649 22.0481 134.997 22.7441C135.429 22.0961 135.993 21.5501 136.689 21.1061C137.385 20.6621 138.135 20.4401 138.939 20.4401C140.295 20.4401 141.345 20.9141 142.089 21.8621C142.845 22.7981 143.223 23.9441 143.223 25.3001L143.115 29.8901C143.115 31.0421 143.187 31.6841 143.331 31.8161C143.451 31.9241 143.607 31.9961 143.799 32.0321C143.991 32.0681 144.117 32.1281 144.177 32.2121C144.249 32.2841 144.285 32.3921 144.285 32.5361C144.285 33.0401 144.111 33.4661 143.763 33.8141C143.427 34.1621 143.031 34.3361 142.575 34.3361C141.819 34.3361 141.297 34.0781 141.009 33.5621C140.721 33.0341 140.577 32.2601 140.577 31.2401L140.667 26.4161C140.667 25.3121 140.499 24.4241 140.163 23.7521C139.839 23.0801 139.347 22.7441 138.687 22.7441C138.039 22.7441 137.373 23.1821 136.689 24.0581C136.017 24.9221 135.543 25.9241 135.267 27.0641L135.375 32.3561C135.375 33.6521 134.925 34.3001 134.025 34.3001C133.017 34.3001 132.513 33.5381 132.513 32.0141C132.513 30.8141 132.669 29.1881 132.981 27.1361C132.981 25.7681 132.819 24.6941 132.495 23.9141C132.171 23.1341 131.679 22.7441 131.019 22.7441C130.359 22.7441 129.687 23.1821 129.003 24.0581C128.331 24.9221 127.857 25.9241 127.581 27.0641ZM153.156 32.1221C154.224 32.1221 155.112 31.6421 155.82 30.6821C156.528 29.7221 156.882 28.6121 156.882 27.3521C156.882 26.0801 156.528 24.9761 155.82 24.0401C155.124 23.0921 154.236 22.6181 153.156 22.6181C152.088 22.6181 151.2 23.0921 150.492 24.0401C149.796 24.9761 149.448 26.0801 149.448 27.3521C149.448 28.6121 149.802 29.7221 150.51 30.6821C151.218 31.6421 152.1 32.1221 153.156 32.1221ZM153.174 20.3501C154.962 20.3501 156.45 21.0341 157.638 22.4021C158.838 23.7581 159.438 25.4141 159.438 27.3701C159.438 29.3141 158.838 30.9701 157.638 32.3381C156.438 33.7061 154.944 34.3901 153.156 34.3901C151.38 34.3901 149.892 33.7061 148.692 32.3381C147.492 30.9701 146.892 29.3141 146.892 27.3701C146.892 25.4141 147.492 23.7581 148.692 22.4021C149.904 21.0341 151.398 20.3501 153.174 20.3501ZM164.95 27.7841C164.95 27.7841 164.998 29.3201 165.094 32.3921C165.094 33.6881 164.644 34.3361 163.744 34.3361C162.736 34.3361 162.232 33.5741 162.232 32.0501C162.232 30.9701 162.388 29.3441 162.7 27.1721C162.7 26.6081 162.634 25.7501 162.502 24.5981C162.37 23.4461 162.304 22.6061 162.304 22.0781C162.304 21.5381 162.424 21.1301 162.664 20.8541C162.904 20.5661 163.234 20.4221 163.654 20.4221C164.086 20.4221 164.416 20.5841 164.644 20.9081C164.884 21.2321 165.004 21.6821 165.004 22.2581C165.376 21.6941 165.838 21.2381 166.39 20.8901C166.954 20.5421 167.59 20.3681 168.298 20.3681C169.006 20.3681 169.582 20.5481 170.026 20.9081C170.47 21.2681 170.692 21.6641 170.692 22.0961C170.692 22.5161 170.56 22.8581 170.296 23.1221C170.032 23.3861 169.738 23.5181 169.414 23.5181C169.09 23.5181 168.754 23.3801 168.406 23.1041C168.07 22.8161 167.842 22.6721 167.722 22.6721C167.302 22.6721 166.78 23.2481 166.156 24.4001C165.532 25.5401 165.13 26.6681 164.95 27.7841ZM181.536 24.3641C181.536 23.9321 181.362 23.5361 181.014 23.1761C180.666 22.8161 180.168 22.6361 179.52 22.6361C178.668 22.6361 177.942 22.9961 177.342 23.7161C176.754 24.4361 176.34 25.3001 176.1 26.3081C176.82 26.4761 177.624 26.5601 178.512 26.5601C179.412 26.5601 180.138 26.3681 180.69 25.9841C181.254 25.6001 181.536 25.0601 181.536 24.3641ZM183.678 31.9421C183.678 32.4101 183.234 32.9381 182.346 33.5261C181.458 34.1021 180.51 34.3901 179.502 34.3901C178.494 34.3901 177.624 34.2161 176.892 33.8681C176.172 33.5081 175.578 33.0281 175.11 32.4281C174.126 31.1921 173.574 29.7341 173.454 28.0541C172.638 27.7301 172.23 27.2321 172.23 26.5601C172.23 26.2241 172.338 25.9541 172.554 25.7501C172.782 25.5341 173.058 25.4261 173.382 25.4261C173.478 25.4261 173.586 25.4441 173.706 25.4801C174.126 23.9921 174.84 22.7681 175.848 21.8081C176.856 20.8361 178.032 20.3501 179.376 20.3501C180.732 20.3501 181.854 20.7401 182.742 21.5201C183.642 22.2881 184.092 23.2121 184.092 24.2921C184.092 25.3601 183.822 26.2361 183.282 26.9201C182.262 28.1681 180.684 28.7921 178.548 28.7921C177.84 28.7921 177.018 28.7141 176.082 28.5581C176.262 29.5661 176.64 30.4121 177.216 31.0961C177.792 31.7801 178.452 32.1221 179.196 32.1221C180.024 32.1221 180.906 31.8401 181.842 31.2761C182.154 31.0841 182.442 30.9881 182.706 30.9881C182.97 30.9881 183.198 31.0781 183.39 31.2581C183.582 31.4381 183.678 31.6661 183.678 31.9421Z" fill="#06387F"/>
<path d="M1.61328 6.93848C2.16557 6.93848 2.61328 7.38619 2.61328 7.93848V51.5244C2.65142 51.52 2.69017 51.5176 2.72949 51.5176H213C213.552 51.5176 214 51.9653 214 52.5176C214 53.0696 213.552 53.5176 213 53.5176H2.72949C2.52261 53.5176 2.3304 53.4543 2.1709 53.3467C2.01154 53.454 1.81986 53.5176 1.61328 53.5176C1.06118 53.5176 0.613578 53.0696 0.613281 52.5176V7.93848C0.613281 7.38619 1.061 6.93848 1.61328 6.93848ZM211.81 0C211.957 7.04777e-05 212.097 0.0334264 212.223 0.0908203H212.262C212.814 0.0908203 213.262 0.538536 213.262 1.09082C213.261 1.44045 213.082 1.74821 212.81 1.92676V50.5078L212.805 50.6094C212.753 51.1134 212.327 51.5076 211.81 51.5078C211.292 51.5078 210.866 51.1136 210.814 50.6094L210.81 50.5078V2.09082H1C0.44798 2.09082 0.000428571 1.64274 0 1.09082C0 0.538536 0.447715 0.0908203 1 0.0908203H211.396C211.522 0.033363 211.662 0 211.81 0Z" fill="#06387F"/>
</svg>
