<svg width="60" height="51" viewBox="0 0 60 51" fill="none" xmlns="http://www.w3.org/2000/svg">
<path d="M59.1039 13.3572L46.5433 3.75707C46.5169 3.73707 46.4865 3.72029 46.4549 3.70931L37.4388 0.514639C37.433 0.512703 37.4266 0.513994 37.4201 0.512058C37.3988 0.506249 37.3782 0.504959 37.3556 0.503022C37.3349 0.501732 37.3156 0.498505 37.2949 0.501086C37.2743 0.503668 37.2542 0.511412 37.2336 0.517866C37.2175 0.523029 37.2 0.523675 37.1845 0.530774C37.18 0.533356 37.1768 0.537874 37.1723 0.540455C37.1678 0.543037 37.1626 0.543037 37.1581 0.545618C37.1297 0.563044 34.2674 2.33012 29.8639 2.33012C25.4598 2.33012 22.5988 0.563689 22.5704 0.545618C22.5658 0.543037 22.5607 0.543037 22.5562 0.540455C22.5516 0.537874 22.5484 0.533356 22.5439 0.530774C22.5284 0.52303 22.5103 0.522384 22.4942 0.517221C22.4748 0.511413 22.4568 0.503668 22.4368 0.501086C22.4142 0.498505 22.3929 0.501086 22.3703 0.503022C22.3503 0.504959 22.3309 0.50625 22.3116 0.511413C22.3045 0.513349 22.2974 0.512058 22.2909 0.514639L20.4903 1.15293C20.4851 1.15422 20.4799 1.15293 20.4748 1.15487C20.467 1.15745 20.4625 1.16261 20.4554 1.16584L13.2755 3.70996C13.2438 3.72093 13.2142 3.73707 13.1871 3.75772L0.626496 13.3572C0.547113 13.4185 0.5 13.5134 0.5 13.6141C0.5 13.7625 0.561958 17.3277 5.94515 23.1936C6.04002 23.2975 6.19168 23.3278 6.31947 23.2678L13.0612 20.1215V49.4577C13.0612 49.6274 13.1922 49.7675 13.3613 49.7797C13.4646 49.7868 23.7637 50.5 29.8652 50.5C35.9667 50.5 46.2665 49.7868 46.3697 49.7797C46.5388 49.7675 46.6698 49.6274 46.6698 49.4577V20.1215L53.4109 23.2678C53.54 23.3272 53.6904 23.2969 53.7852 23.1936C59.1684 17.3277 59.2304 13.7625 59.2304 13.6141C59.2304 13.5134 59.1839 13.4185 59.1039 13.3572ZM22.2006 1.23167C22.6762 2.51147 24.7421 7.10729 29.8652 7.10729C34.9838 7.10729 37.0535 2.51083 37.5298 1.23167L38.7477 1.66279C37.8132 4.29791 35.0135 8.39806 29.8652 8.39806C24.7137 8.39806 21.9159 4.29855 20.9833 1.66279L22.2006 1.23167ZM36.7199 1.50789C36.0306 3.07941 34.0628 6.46254 29.8652 6.46254C25.6631 6.46254 23.6972 3.07877 23.0099 1.50789C24.1774 2.06357 26.5911 2.97615 29.8652 2.97615C33.1386 2.97615 35.5524 2.06293 36.7199 1.50789ZM6.26139 22.5824C1.82821 17.6923 1.23574 14.4789 1.15765 13.7645L2.34258 12.8583C2.38131 13.2875 2.43358 13.578 2.43552 13.578C2.43746 13.6089 2.65366 16.7429 7.38049 21.8938L7.49343 22.0074L6.26139 22.5824ZM29.8652 49.8546C24.3716 49.8546 15.4498 49.2738 13.7059 49.1563V47.8623C15.1865 47.9623 24.2994 48.5638 29.8652 48.5638C35.3852 48.5638 44.5407 47.9623 46.0244 47.8623V49.1563C44.2806 49.2738 35.3587 49.8546 29.8652 49.8546ZM46.484 19.3226C46.3839 19.2761 46.2665 19.2838 46.1742 19.3426C46.0806 19.4019 46.0251 19.5046 46.0251 19.6149V47.2156C44.6962 47.306 35.4201 47.9191 29.8658 47.9191C24.2606 47.9191 15.0335 47.3066 13.7066 47.2156V19.6149C13.7066 19.5046 13.6504 19.4019 13.5575 19.3426C13.4646 19.2832 13.3478 19.2761 13.2477 19.3226L8.11559 21.7176L7.84711 21.4485C3.34746 16.5448 3.0822 13.5696 3.0751 13.5018C3.07381 13.4966 2.98668 13.0178 2.95764 12.3885L13.5394 4.30114L20.3754 1.87899C21.3693 4.6845 24.3549 9.0441 29.8652 9.0441C35.3716 9.0441 38.3598 4.68256 39.355 1.87899L46.1916 4.30114L56.7727 12.3885C56.7437 13.0158 56.6553 13.4999 56.6501 13.5412C56.6482 13.5709 56.3862 16.5416 51.8923 21.4388L51.6154 21.7176L46.484 19.3226ZM53.469 22.5824L52.2363 22.0074L52.3583 21.8841C57.0987 16.7197 57.2923 13.6205 57.289 13.6205C57.2923 13.6031 57.3478 13.2998 57.3878 12.8583L58.5734 13.7645C58.494 14.4815 57.8996 17.6942 53.469 22.5824Z" fill="#2F4074" stroke="#2F4074"/>
<path d="M40.1267 19.6898C39.9485 19.6898 39.804 19.8344 39.804 20.0125V20.9806H38.8359C38.6578 20.9806 38.5132 21.1252 38.5132 21.3033C38.5132 21.4814 38.6578 21.626 38.8359 21.626H40.1267C40.3048 21.626 40.4493 21.4814 40.4493 21.3033V20.0125C40.4493 19.8344 40.3054 19.6898 40.1267 19.6898Z" fill="#2F4074" stroke="#2F4074"/>
<path d="M37.1725 20.9806H35.5087C35.3306 20.9806 35.186 21.1252 35.186 21.3033C35.186 21.4814 35.3306 21.626 35.5087 21.626H37.1725C37.3507 21.626 37.4952 21.4814 37.4952 21.3033C37.4952 21.1252 37.3513 20.9806 37.1725 20.9806Z" fill="#2F4074" stroke="#2F4074"/>
<path d="M33.8454 20.9806H32.8773V20.0125C32.8773 19.8344 32.7328 19.6898 32.5546 19.6898C32.3765 19.6898 32.2319 19.8344 32.2319 20.0125V21.3033C32.2319 21.4814 32.3765 21.626 32.5546 21.626H33.8454C34.0235 21.626 34.1681 21.4814 34.1681 21.3033C34.1681 21.1252 34.0235 20.9806 33.8454 20.9806Z" fill="#2F4074" stroke="#2F4074"/>
<path d="M32.5546 18.6714C32.7328 18.6714 32.8773 18.5268 32.8773 18.3487V16.6849C32.8773 16.5067 32.7328 16.3622 32.5546 16.3622C32.3765 16.3622 32.2319 16.5067 32.2319 16.6849V18.3487C32.2319 18.5268 32.3765 18.6714 32.5546 18.6714Z" fill="#2F4074" stroke="#2F4074"/>
<path d="M33.8454 13.4076H32.5546C32.3765 13.4076 32.2319 13.5522 32.2319 13.7303V15.0211C32.2319 15.1992 32.3765 15.3438 32.5546 15.3438C32.7328 15.3438 32.8773 15.1992 32.8773 15.0211V14.053H33.8454C34.0235 14.053 34.1681 13.9084 34.1681 13.7303C34.1681 13.5522 34.0235 13.4076 33.8454 13.4076Z" fill="#2F4074" stroke="#2F4074"/>
<path d="M37.1725 13.4076H35.5087C35.3306 13.4076 35.186 13.5522 35.186 13.7303C35.186 13.9084 35.3306 14.053 35.5087 14.053H37.1725C37.3507 14.053 37.4952 13.9084 37.4952 13.7303C37.4952 13.5522 37.3513 13.4076 37.1725 13.4076Z" fill="#2F4074" stroke="#2F4074"/>
<path d="M40.1267 13.4076H38.8359C38.6578 13.4076 38.5132 13.5522 38.5132 13.7303C38.5132 13.9084 38.6578 14.053 38.8359 14.053H39.804V15.0211C39.804 15.1992 39.9485 15.3438 40.1267 15.3438C40.3048 15.3438 40.4493 15.1992 40.4493 15.0211V13.7303C40.4493 13.5522 40.3054 13.4076 40.1267 13.4076Z" fill="#2F4074" stroke="#2F4074"/>
<path d="M40.1269 16.3622C39.9488 16.3622 39.8042 16.5067 39.8042 16.6849V18.3487C39.8042 18.5268 39.9488 18.6714 40.1269 18.6714C40.305 18.6714 40.4496 18.5268 40.4496 18.3487V16.6849C40.4496 16.5067 40.3057 16.3622 40.1269 16.3622Z" fill="#2F4074" stroke="#2F4074"/>
</svg>
