<svg width="50" height="50" viewBox="0 0 50 50" fill="none" xmlns="http://www.w3.org/2000/svg">
<path d="M0.178956 11.6217C-0.059652 11.8604 -0.059652 12.2486 0.178956 12.4873L2.26134 14.5697C2.37847 14.6869 2.53248 14.7476 2.69517 14.7476C2.85568 14.7476 3.01186 14.6804 3.129 14.5697L6.85558 10.843L8.1115 12.099C4.89031 16.2075 3.12028 21.3185 3.12028 26.5591C3.12028 39.4816 13.6322 50 26.5601 50C39.482 50 50 39.4877 50 26.5591C50 13.6367 39.4881 3.11825 26.5601 3.11825C21.3238 3.11825 16.2088 4.89052 12.1051 8.10969L10.8491 6.85371L12.4977 5.20505C12.6149 5.08791 12.6756 4.9339 12.6756 4.77121C12.6756 4.61068 12.6084 4.4545 12.4977 4.33736L11.8926 3.73216L14.5801 1.04449C14.8187 0.805877 14.8187 0.417587 14.5801 0.178964C14.3415 -0.0596545 13.9532 -0.0596545 13.7146 0.178964L11.0271 2.86663L10.4219 2.26144C10.1833 2.02282 9.79501 2.02282 9.5564 2.26144L7.90782 3.91009L7.30265 3.30489C7.06404 3.06628 6.67577 3.06628 6.43716 3.30489C6.19855 3.54351 6.19855 3.9318 6.43716 4.17043L8.08574 5.81908L5.83199 8.07293L4.18341 6.42427C3.9448 6.18566 3.55653 6.18566 3.31791 6.42427C3.0793 6.66289 3.0793 7.05118 3.31791 7.2898L3.92308 7.895L0.196503 11.6217H0.178956ZM8.93607 6.68022L13.257 11.0013C12.4457 11.6955 11.6974 12.4461 11.0032 13.2552L6.68232 8.93407L8.93607 6.68022ZM26.5558 7.30713C37.1737 7.30713 45.8092 15.943 45.8092 26.5614C45.8092 37.1798 37.1737 45.8157 26.5558 45.8157C15.9379 45.8157 7.30237 37.1798 7.30237 26.5614C7.30237 15.943 15.9379 7.30713 26.5558 7.30713ZM9.97504 5.98606L8.76465 4.77562L9.98154 3.55868L11.1919 4.76912L9.97504 5.98606ZM8.98594 12.971L10.2289 14.2139C7.62373 17.6457 6.08143 21.9213 6.08143 26.5527C6.08143 37.8414 15.2656 47.0282 26.556 47.0282C37.8442 47.0282 47.0305 37.8436 47.0305 26.5527C47.0305 15.2641 37.8464 6.0773 26.556 6.0773C21.9249 6.0773 17.6495 7.62178 14.2177 10.2249L12.9748 8.98194C16.8446 5.9884 21.6425 4.34408 26.558 4.34408C38.803 4.34408 48.7701 14.3072 48.7701 26.5571C48.7701 38.8071 38.8074 48.7702 26.558 48.7702C14.3131 48.7702 4.34594 38.8071 4.34594 26.5571C4.34594 21.6416 5.99014 16.8456 8.98361 12.9733L8.98594 12.971ZM1.47825 12.0556L4.77103 8.76264L5.98792 9.97958L2.69514 13.2725L1.47825 12.0556ZM24.5516 23.7002L23.081 26.249C22.9703 26.4378 22.9703 26.672 23.081 26.8608L24.5516 29.4096C24.6622 29.5983 24.8618 29.7155 25.0852 29.7155H28.0288C28.2457 29.7155 28.4518 29.5983 28.5624 29.4096L30.033 26.8608C30.1437 26.6721 30.1437 26.4378 30.033 26.249L28.5624 23.7002C28.4518 23.5115 28.2522 23.3943 28.0288 23.3943H25.0852C24.8683 23.3943 24.6622 23.5115 24.5516 23.7002ZM24.3173 26.5549L25.4344 24.6178H27.673L28.7901 26.5549L27.673 28.4921H25.4344L24.3173 26.5549ZM25.3954 15.4811C25.9615 14.492 25.6796 13.2533 24.7403 12.6481C24.2566 12.3379 23.6796 12.2381 23.1178 12.3769C22.569 12.5093 22.0896 12.8715 21.8011 13.3596L21.5733 13.7587L20.6514 12.1643C20.0788 11.1752 18.864 10.8042 17.8684 11.314C17.3565 11.5808 16.9856 12.0299 16.8251 12.5808C16.6645 13.1253 16.7361 13.7197 17.0203 14.2078L17.9595 15.8347H17.543C16.4042 15.8347 15.4715 16.7067 15.4216 17.8174C15.3934 18.3944 15.5995 18.9389 15.9943 19.3554C16.389 19.7653 16.9378 19.9996 17.504 19.9996H20.3695L21.825 22.5203L20.7079 24.4575H17.799L16.3891 22.0149C15.8164 21.0258 14.6017 20.6548 13.6061 21.1711C13.0941 21.4379 12.7232 21.887 12.5627 22.4379C12.4022 22.9824 12.4738 23.5768 12.7579 24.0649L12.9857 24.464H11.1484C10.0096 24.464 9.07686 25.336 9.027 26.4467C8.9988 27.0237 9.20487 27.5682 9.59962 27.9847C9.9879 28.3946 10.5432 28.6289 11.1094 28.6289H12.9922L12.7818 28.989C12.2156 29.9782 12.4976 31.2212 13.4369 31.8221C13.9206 32.1323 14.4976 32.2277 15.0594 32.0933C15.6082 31.9609 16.0876 31.5987 16.3696 31.1106L17.8012 28.629H20.7101L21.8272 30.5661L20.3716 33.0868H17.5453C16.4065 33.0868 15.4737 33.9588 15.4239 35.0695C15.3957 35.6465 15.6017 36.1909 15.9965 36.6074C16.3848 37.0174 16.94 37.2517 17.5062 37.2517H17.9661L17.0442 38.8461C16.478 39.8353 16.76 41.0739 17.6993 41.6792C18.0442 41.9004 18.4259 42.0132 18.8207 42.0132C18.9877 42.0132 19.1547 41.9916 19.3153 41.9525C19.8641 41.8202 20.3435 41.4579 20.6319 40.9698L21.5712 39.3429L21.7816 39.703C22.3542 40.6922 23.569 41.0631 24.5646 40.5533C25.0765 40.2865 25.4474 39.8375 25.608 39.2865C25.7685 38.742 25.6969 38.1477 25.4127 37.6596L23.9811 35.1779L25.4366 32.6572H27.6751L29.1306 35.1779L27.7207 37.6205C27.1545 38.6096 27.4365 39.8483 28.3758 40.4535C28.8595 40.7637 29.4365 40.8635 29.9983 40.7247C30.5471 40.5924 31.0265 40.2301 31.315 39.742L31.5427 39.3429L32.4647 40.9373C33.0308 41.9264 34.2521 42.2974 35.2477 41.7876C35.7596 41.5208 36.1305 41.0717 36.291 40.5208C36.4515 39.9763 36.38 39.3819 36.0958 38.8939L35.1566 37.2669H35.573C36.7119 37.2669 37.6446 36.3949 37.6945 35.2842C37.7227 34.7072 37.5166 34.1628 37.1218 33.7463C36.7336 33.3363 36.1826 33.102 35.6121 33.102H32.7466L31.2911 30.5813L32.4082 28.6441H35.317L36.727 31.0867C37.2996 32.0758 38.5144 32.4468 39.51 31.9305C40.0219 31.6637 40.3928 31.2146 40.5534 30.6637C40.7139 30.1192 40.6423 29.5248 40.3582 29.0368L40.1304 28.6376H41.9677C43.1065 28.6376 44.0392 27.7656 44.0891 26.6549C44.1173 26.0779 43.9112 25.5335 43.5165 25.117C43.1282 24.707 42.5729 24.4727 42.0067 24.4727H40.1239L40.3343 24.1126C40.9004 23.1234 40.6185 21.8804 39.6792 21.2795C39.1955 20.9693 38.6185 20.8739 38.0567 21.0084C37.5079 21.1407 37.0285 21.503 36.7465 21.991L35.3149 24.4727H32.406L31.2889 22.5355L32.7444 20.0148H35.5708C36.7096 20.0148 37.6424 19.1428 37.6922 18.0322C37.7204 17.4551 37.5144 16.9107 37.1196 16.4942C36.7313 16.0842 36.176 15.8499 35.6099 15.8499H35.15L36.0719 14.2555C36.6445 13.2663 36.3561 12.0234 35.4168 11.4224C34.9331 11.1122 34.3561 11.0125 33.7943 11.1513C33.2455 11.2836 32.7661 11.6459 32.4841 12.1339L31.5449 13.7609L31.3345 13.4008C30.7618 12.4116 29.547 12.0407 28.5514 12.5505C28.0395 12.8173 27.6686 13.2663 27.5081 13.8173C27.3476 14.3618 27.4191 14.9561 27.7033 15.4442L29.1349 17.9259L27.6794 20.4465H25.4409L23.9854 17.9259L25.3954 15.4833L25.3954 15.4811ZM24.3347 14.8694L22.7468 17.6243C22.6362 17.813 22.6362 18.0473 22.7468 18.2361L24.5581 21.3684C24.6687 21.5572 24.8683 21.6743 25.0917 21.6743H28.0352C28.2521 21.6743 28.4582 21.5572 28.5688 21.3684L30.3801 18.2361C30.4907 18.0473 30.4907 17.8131 30.3801 17.6243L28.7706 14.8369C28.6534 14.6308 28.6252 14.3922 28.6925 14.1644C28.7597 13.9367 28.9137 13.7544 29.1263 13.6416C29.5254 13.4355 30.0417 13.6026 30.2803 14.0147L31.0178 15.2968C31.1284 15.4855 31.328 15.6026 31.5514 15.6026C31.7727 15.6026 31.9744 15.4855 32.085 15.2968L33.5557 12.7479C33.6728 12.5418 33.8659 12.3987 34.0936 12.3423C34.3214 12.2859 34.56 12.3249 34.7595 12.4529C35.137 12.698 35.2541 13.2295 35.0155 13.6416L33.5665 16.1514C33.4559 16.3402 33.4559 16.5744 33.5665 16.7632C33.6771 16.9519 33.8767 17.069 34.1001 17.069H35.6207C35.8593 17.069 36.0762 17.1645 36.2432 17.3359C36.4038 17.5072 36.4927 17.7307 36.4819 17.9693C36.4602 18.4183 36.0589 18.7849 35.5817 18.7849H32.406C32.1891 18.7849 31.983 18.9021 31.8724 19.0908L30.0611 22.2232C29.9505 22.4119 29.9505 22.6462 30.0611 22.8349L31.5318 25.3837C31.6424 25.5725 31.842 25.6896 32.0654 25.6896H35.6814C35.8983 25.6896 36.1044 25.5725 36.215 25.3837L37.8245 22.5963C37.9416 22.3902 38.1347 22.247 38.3624 22.1906C38.5902 22.1342 38.8288 22.1733 39.0284 22.3013C39.4058 22.5464 39.5229 23.0778 39.2843 23.49L38.5468 24.772C38.4362 24.9608 38.4362 25.195 38.5468 25.3838C38.6574 25.5725 38.857 25.6896 39.0804 25.6896H42.024C42.2626 25.6896 42.4795 25.7851 42.6465 25.9565C42.807 26.1278 42.896 26.3513 42.8851 26.5899C42.8634 27.0389 42.4621 27.4055 41.9849 27.4055H39.0869C38.87 27.4055 38.6639 27.5227 38.5533 27.7114C38.4427 27.9001 38.4427 28.1344 38.5533 28.3231L39.3147 29.6399C39.4318 29.8459 39.46 30.0846 39.3928 30.3123C39.3255 30.5401 39.1715 30.7223 38.9589 30.8351C38.5598 31.0412 38.0436 30.8742 37.805 30.462L36.2171 27.7071C36.1065 27.5184 35.9069 27.4012 35.6835 27.4012H32.0676C31.8507 27.4012 31.6446 27.5184 31.5339 27.7071L30.0633 30.2559C29.9527 30.4446 29.9527 30.6789 30.0633 30.8677L31.8745 34C31.9851 34.1888 32.1847 34.3059 32.4081 34.3059H35.6293C35.8679 34.3059 36.0848 34.4013 36.2519 34.5727C36.4124 34.7441 36.5013 34.9675 36.4905 35.2061C36.4688 35.6551 36.0675 36.0218 35.5903 36.0218H34.1131C33.8962 36.0218 33.6901 36.1389 33.5795 36.3276C33.4688 36.5164 33.4688 36.7506 33.5795 36.9394L35.0501 39.4882C35.1673 39.6943 35.1954 39.9329 35.1282 40.1607C35.061 40.3884 34.9069 40.5707 34.6944 40.6835C34.2952 40.8895 33.779 40.7225 33.5404 40.3103L32.0914 37.8005C31.9808 37.6118 31.7812 37.4947 31.5578 37.4947C31.3365 37.4947 31.1348 37.6118 31.0242 37.8005L30.2628 39.1173C30.1457 39.3234 29.9526 39.4665 29.7248 39.5229C29.4971 39.5793 29.2585 39.5403 29.0589 39.4123C28.6815 39.1672 28.5644 38.6357 28.803 38.2236L30.3908 35.4687C30.5014 35.2799 30.5014 35.0457 30.3908 34.8569L28.5796 31.7245C28.4689 31.5358 28.2694 31.4187 28.046 31.4187H25.1024C24.8855 31.4187 24.6794 31.5358 24.5688 31.7245L22.7576 34.8569C22.6469 35.0456 22.6469 35.2799 22.7576 35.4687L24.3671 38.2561C24.4842 38.4622 24.5124 38.7008 24.4451 38.9286C24.3779 39.1563 24.2239 39.3385 24.0113 39.4513C23.6122 39.6574 23.096 39.4904 22.8573 39.0782L22.1198 37.7962C22.0092 37.6075 21.8097 37.4903 21.5862 37.4903C21.365 37.4903 21.1632 37.6075 21.0526 37.7962L19.582 40.345C19.4648 40.5511 19.2718 40.6943 19.044 40.7507C18.8162 40.8071 18.5776 40.768 18.3781 40.6401C18.0007 40.3949 17.8835 39.8635 18.1221 39.4513L19.5711 36.9415C19.6818 36.7528 19.6818 36.5185 19.5711 36.3298C19.4605 36.1411 19.261 36.0239 19.0375 36.0239H17.5169C17.2783 36.0239 17.0614 35.9285 16.8944 35.7571C16.7339 35.5857 16.6449 35.3623 16.6558 35.1237C16.6775 34.6747 17.0788 34.308 17.556 34.308H20.7316C20.9486 34.308 21.1546 34.1909 21.2653 34.0022L23.0765 30.8698C23.1871 30.6811 23.1871 30.4468 23.0765 30.2581L21.6058 27.7092C21.4952 27.5205 21.2956 27.4034 21.0722 27.4034H17.4563C17.2393 27.4034 17.0333 27.5205 16.9226 27.7092L15.3132 30.4967C15.196 30.7028 15.003 30.8459 14.7752 30.9023C14.5474 30.9587 14.3088 30.9197 14.1093 30.7917C13.7319 30.5466 13.6147 30.0151 13.8533 29.603L14.5908 28.3209C14.7014 28.1322 14.7014 27.8979 14.5908 27.7092C14.4802 27.5204 14.2806 27.4033 14.0572 27.4033H11.1137C10.8751 27.4033 10.6581 27.3079 10.4911 27.1365C10.3306 26.9651 10.2417 26.7417 10.2525 26.5031C10.2742 26.0541 10.6755 25.6874 11.1527 25.6874H14.0507C14.2676 25.6874 14.4737 25.5703 14.5843 25.3816C14.695 25.1929 14.695 24.9586 14.5843 24.7698L13.823 23.4531C13.7058 23.247 13.6776 23.0084 13.7449 22.7807C13.8121 22.5529 13.9661 22.3707 14.1787 22.2579C14.5778 22.0518 15.0941 22.2188 15.3327 22.631L16.9205 25.3859C17.0311 25.5746 17.2307 25.6918 17.4541 25.6918H21.0701C21.287 25.6918 21.4931 25.5746 21.6037 25.3859L23.0743 22.8371C23.185 22.6483 23.185 22.4141 23.0743 22.2253L21.2631 19.0929C21.1525 18.9042 20.9529 18.7871 20.7295 18.7871H17.5083C17.2697 18.7871 17.0528 18.6916 16.8858 18.5203C16.7252 18.3489 16.6363 18.1255 16.6472 17.8869C16.6688 17.4378 17.0701 17.0712 17.5474 17.0712H19.0246C19.2415 17.0712 19.4476 16.954 19.5582 16.7653C19.6688 16.5766 19.6688 16.3423 19.5582 16.1536L18.0875 13.6047C17.9704 13.3987 17.9422 13.16 18.0094 12.9323C18.0767 12.7045 18.2307 12.5223 18.4433 12.4095C18.8424 12.2034 19.3586 12.3705 19.5972 12.7826L21.0462 15.2924C21.1569 15.4811 21.3564 15.5983 21.5799 15.5983C21.8011 15.5983 22.0028 15.4811 22.1135 15.2924L22.8748 13.9757C22.992 13.7696 23.185 13.6264 23.4128 13.57C23.6406 13.5136 23.8792 13.5527 24.0787 13.6807C24.4561 13.9258 24.5733 14.4572 24.3347 14.8694Z" fill="#2F4074"/>
</svg>
