<svg width="185" height="54" viewBox="0 0 185 54" fill="none" xmlns="http://www.w3.org/2000/svg">
<rect x="4.14062" y="3" width="176" height="47" fill="#CDECFF"/>
<path d="M34.3686 34.1201L31.6326 34.2281C31.1886 34.2281 30.8166 34.0841 30.5166 33.7961C30.2286 33.5081 30.0846 33.1241 30.0846 32.6441L30.1926 28.1261C29.4486 28.0181 29.0766 27.6281 29.0766 26.9561C29.0766 26.6321 29.1786 26.3681 29.3826 26.1641C29.5866 25.9601 29.8506 25.8281 30.1746 25.7681L30.0846 22.4741C29.9526 22.2221 29.8866 21.9281 29.8866 21.5921C29.8866 20.8721 30.4566 20.5121 31.5966 20.5121L34.3326 20.6201L37.1586 20.5121C37.6146 20.5121 37.9746 20.6261 38.2386 20.8541C38.5146 21.0701 38.6526 21.3641 38.6526 21.7361C38.6526 22.1081 38.5146 22.4021 38.2386 22.6181C37.9746 22.8221 37.6146 22.9241 37.1586 22.9241L34.3326 22.8161C33.6846 22.8161 33.1206 22.8341 32.6406 22.8701V25.8581C32.8326 25.8701 33.0906 25.8761 33.4146 25.8761L36.3126 25.7501C36.7446 25.7501 37.0986 25.8641 37.3746 26.0921C37.6506 26.3081 37.7886 26.6021 37.7886 26.9741C37.7886 27.3341 37.6506 27.6221 37.3746 27.8381C37.0986 28.0421 36.7446 28.1441 36.3126 28.1441L33.4686 28.0361H33.2166C33.0486 28.0481 32.8566 28.0541 32.6406 28.0541C32.6406 29.7221 32.6526 31.0001 32.6766 31.8881C33.0006 31.9121 33.5646 31.9241 34.3686 31.9241L37.1946 31.8161C37.6506 31.8161 38.0106 31.9241 38.2746 32.1401C38.5506 32.3441 38.6886 32.6321 38.6886 33.0041C38.6886 33.3761 38.5506 33.6761 38.2746 33.9041C38.0106 34.1201 37.6506 34.2281 37.1946 34.2281L34.3686 34.1201ZM44.5729 27.0461C43.4089 25.1861 42.5449 23.9321 41.9809 23.2841C41.7049 22.9361 41.3689 22.7321 40.9729 22.6721C40.8649 22.6481 40.7809 22.6241 40.7209 22.6001C40.5769 22.5281 40.5049 22.3061 40.5049 21.9341C40.5049 21.5621 40.6369 21.2141 40.9009 20.8901C41.1769 20.5661 41.5129 20.4041 41.9089 20.4041C42.5929 20.4041 43.2289 20.8301 43.8169 21.6821L45.9589 25.0481C46.3189 24.5081 46.6909 23.8961 47.0749 23.2121C47.4589 22.5161 47.7469 22.0061 47.9389 21.6821C48.1309 21.3461 48.3589 21.0581 48.6229 20.8181C48.8869 20.5661 49.1689 20.4401 49.4689 20.4401C49.7809 20.4401 50.0449 20.5601 50.2609 20.8001C50.4889 21.0281 50.6029 21.2981 50.6029 21.6101C50.6029 21.9101 50.5069 22.2221 50.3149 22.5461C50.1229 22.8701 49.7209 23.4701 49.1089 24.3461C48.5089 25.2221 47.9149 26.1581 47.3269 27.1541C48.6949 29.2421 49.7209 30.6821 50.4049 31.4741C50.6809 31.8221 51.0169 32.0321 51.4129 32.1041C51.5209 32.1161 51.6049 32.1341 51.6649 32.1581C51.8089 32.2301 51.8809 32.4521 51.8809 32.8241C51.8809 33.1961 51.7429 33.5441 51.4669 33.8681C51.2029 34.1921 50.8729 34.3541 50.4769 34.3541C49.8049 34.3541 49.1749 33.9281 48.5869 33.0761L45.9049 29.1521C45.5449 29.6921 45.1069 30.4241 44.5909 31.3481C44.0749 32.2601 43.6969 32.8961 43.4569 33.2561C43.0009 33.9401 42.5449 34.2821 42.0889 34.2821C41.7649 34.2821 41.4889 34.1681 41.2609 33.9401C41.0449 33.7001 40.9369 33.4301 40.9369 33.1301C40.9369 32.8301 41.0629 32.4701 41.3149 32.0501C41.5669 31.6301 42.0229 30.9401 42.6829 29.9801C43.3549 29.0201 43.9849 28.0421 44.5729 27.0461ZM54.6711 32.3561L54.8151 27.4601C54.8151 26.9081 54.7731 25.5821 54.6891 23.4821C54.2571 23.2421 54.0411 22.8581 54.0411 22.3301C54.0411 21.9581 54.2211 21.6341 54.5811 21.3581C54.9411 21.0821 55.3911 20.8721 55.9311 20.7281C56.9391 20.4761 57.8751 20.3501 58.7391 20.3501C60.5991 20.3501 62.0151 20.7941 62.9871 21.6821C63.9591 22.5581 64.4451 23.6321 64.4451 24.9041C64.4451 26.1761 63.9591 27.2561 62.9871 28.1441C62.0271 29.0321 60.7851 29.4761 59.2611 29.4761C58.3491 29.4761 57.6951 29.4521 57.2991 29.4041L57.4071 32.3561C57.4071 33.6521 56.9511 34.3001 56.0391 34.3001C55.1271 34.3001 54.6711 33.6521 54.6711 32.3561ZM57.2631 27.0281C57.9711 27.1601 58.6611 27.2261 59.3331 27.2261C60.0171 27.2261 60.6111 27.0161 61.1151 26.5961C61.6311 26.1641 61.8891 25.6121 61.8891 24.9401C61.8891 24.2561 61.6191 23.7041 61.0791 23.2841C60.5391 22.8521 59.7891 22.6361 58.8291 22.6361C58.3011 22.6361 57.8091 22.7081 57.3531 22.8521C57.2931 24.3281 57.2631 25.7201 57.2631 27.0281ZM71.2532 31.9241L73.7192 31.8161C74.1752 31.8161 74.5352 31.9241 74.7992 32.1401C75.0752 32.3441 75.2132 32.6321 75.2132 33.0041C75.2132 33.3761 75.0752 33.6761 74.7992 33.9041C74.5352 34.1201 74.1752 34.2281 73.7192 34.2281L71.2532 34.1201L68.5352 34.2281C68.0912 34.2281 67.7192 34.0841 67.4192 33.7961C67.1312 33.5081 66.9872 33.1241 66.9872 32.6441L67.0952 27.2801L66.9512 22.4021C66.9512 21.0941 67.4072 20.4401 68.3192 20.4401C69.2312 20.4401 69.6872 21.0941 69.6872 22.4021L69.5432 27.2801C69.5432 27.8921 69.5852 29.4281 69.6692 31.8881C70.2932 31.9121 70.8212 31.9241 71.2532 31.9241ZM83.5782 32.1221C84.6462 32.1221 85.5342 31.6421 86.2422 30.6821C86.9502 29.7221 87.3042 28.6121 87.3042 27.3521C87.3042 26.0801 86.9502 24.9761 86.2422 24.0401C85.5462 23.0921 84.6582 22.6181 83.5782 22.6181C82.5102 22.6181 81.6222 23.0921 80.9142 24.0401C80.2182 24.9761 79.8702 26.0801 79.8702 27.3521C79.8702 28.6121 80.2242 29.7221 80.9322 30.6821C81.6402 31.6421 82.5222 32.1221 83.5782 32.1221ZM83.5962 20.3501C85.3842 20.3501 86.8722 21.0341 88.0602 22.4021C89.2602 23.7581 89.8602 25.4141 89.8602 27.3701C89.8602 29.3141 89.2602 30.9701 88.0602 32.3381C86.8602 33.7061 85.3662 34.3901 83.5782 34.3901C81.8022 34.3901 80.3142 33.7061 79.1142 32.3381C77.9142 30.9701 77.3142 29.3141 77.3142 27.3701C77.3142 25.4141 77.9142 23.7581 79.1142 22.4021C80.3262 21.0341 81.8202 20.3501 83.5962 20.3501ZM95.3726 27.7841C95.3726 27.7841 95.4206 29.3201 95.5166 32.3921C95.5166 33.6881 95.0666 34.3361 94.1666 34.3361C93.1586 34.3361 92.6546 33.5741 92.6546 32.0501C92.6546 30.9701 92.8106 29.3441 93.1226 27.1721C93.1226 26.6081 93.0566 25.7501 92.9246 24.5981C92.7926 23.4461 92.7266 22.6061 92.7266 22.0781C92.7266 21.5381 92.8466 21.1301 93.0866 20.8541C93.3266 20.5661 93.6566 20.4221 94.0766 20.4221C94.5086 20.4221 94.8386 20.5841 95.0666 20.9081C95.3066 21.2321 95.4266 21.6821 95.4266 22.2581C95.7986 21.6941 96.2606 21.2381 96.8126 20.8901C97.3766 20.5421 98.0126 20.3681 98.7206 20.3681C99.4286 20.3681 100.005 20.5481 100.449 20.9081C100.893 21.2681 101.115 21.6641 101.115 22.0961C101.115 22.5161 100.983 22.8581 100.719 23.1221C100.455 23.3861 100.161 23.5181 99.8366 23.5181C99.5126 23.5181 99.1766 23.3801 98.8286 23.1041C98.4926 22.8161 98.2646 22.6721 98.1446 22.6721C97.7246 22.6721 97.2026 23.2481 96.5786 24.4001C95.9546 25.5401 95.5526 26.6681 95.3726 27.7841ZM111.958 24.3641C111.958 23.9321 111.784 23.5361 111.436 23.1761C111.088 22.8161 110.59 22.6361 109.942 22.6361C109.09 22.6361 108.364 22.9961 107.764 23.7161C107.176 24.4361 106.762 25.3001 106.522 26.3081C107.242 26.4761 108.046 26.5601 108.934 26.5601C109.834 26.5601 110.56 26.3681 111.112 25.9841C111.676 25.6001 111.958 25.0601 111.958 24.3641ZM114.1 31.9421C114.1 32.4101 113.656 32.9381 112.768 33.5261C111.88 34.1021 110.932 34.3901 109.924 34.3901C108.916 34.3901 108.046 34.2161 107.314 33.8681C106.594 33.5081 106 33.0281 105.532 32.4281C104.548 31.1921 103.996 29.7341 103.876 28.0541C103.06 27.7301 102.652 27.2321 102.652 26.5601C102.652 26.2241 102.76 25.9541 102.976 25.7501C103.204 25.5341 103.48 25.4261 103.804 25.4261C103.9 25.4261 104.008 25.4441 104.128 25.4801C104.548 23.9921 105.262 22.7681 106.27 21.8081C107.278 20.8361 108.454 20.3501 109.798 20.3501C111.154 20.3501 112.276 20.7401 113.164 21.5201C114.064 22.2881 114.514 23.2121 114.514 24.2921C114.514 25.3601 114.244 26.2361 113.704 26.9201C112.684 28.1681 111.106 28.7921 108.97 28.7921C108.262 28.7921 107.44 28.7141 106.504 28.5581C106.684 29.5661 107.062 30.4121 107.638 31.0961C108.214 31.7801 108.874 32.1221 109.618 32.1221C110.446 32.1221 111.328 31.8401 112.264 31.2761C112.576 31.0841 112.864 30.9881 113.128 30.9881C113.392 30.9881 113.62 31.0781 113.812 31.2581C114.004 31.4381 114.1 31.6661 114.1 31.9421ZM129.825 30.1421C128.889 30.0941 128.115 30.0701 127.503 30.0701C126.891 30.0701 126.351 30.0821 125.883 30.1061C125.739 30.4781 125.559 31.0361 125.343 31.7801C125.139 32.5121 124.983 33.0341 124.875 33.3461C124.659 33.9821 124.263 34.3001 123.687 34.3001C123.351 34.3001 123.081 34.1981 122.877 33.9941C122.673 33.7901 122.571 33.5081 122.571 33.1481C122.571 32.7761 122.883 31.7801 123.507 30.1601C122.883 30.0161 122.571 29.6561 122.571 29.0801C122.571 28.3001 123.129 27.9101 124.245 27.9101C124.413 27.3941 124.737 26.4641 125.217 25.1201C125.697 23.7761 126.003 22.9001 126.135 22.4921C126.279 22.0721 126.387 21.7721 126.459 21.5921C126.543 21.4121 126.651 21.2201 126.783 21.0161C127.035 20.6321 127.413 20.4401 127.917 20.4401C128.289 20.4401 128.619 20.5541 128.907 20.7821C129.087 20.9261 129.249 21.2081 129.393 21.6281C129.537 22.0361 129.681 22.4681 129.825 22.9241C129.981 23.3681 130.143 23.8301 130.311 24.3101C130.491 24.7781 130.731 25.4621 131.031 26.3621C131.343 27.2621 131.523 27.7781 131.571 27.9101C131.631 27.8981 131.739 27.8921 131.895 27.8921C132.303 27.8921 132.639 28.0121 132.903 28.2521C133.167 28.4801 133.299 28.7621 133.299 29.0981C133.299 29.6501 132.963 30.0161 132.291 30.1961C132.963 31.9361 133.299 32.9441 133.299 33.2201C133.299 33.4961 133.185 33.7481 132.957 33.9761C132.741 34.1921 132.453 34.3001 132.093 34.3001C131.553 34.3001 131.157 34.0001 130.905 33.4001C130.845 33.2561 130.485 32.1701 129.825 30.1421ZM126.531 28.0361C126.831 28.0601 127.275 28.0721 127.863 28.0721C128.451 28.0721 128.895 28.0601 129.195 28.0361C128.415 25.2041 127.977 23.7881 127.881 23.7881C127.797 23.7881 127.449 24.8501 126.837 26.9741L126.531 28.0361ZM140.614 31.9241L143.08 31.8161C143.536 31.8161 143.896 31.9241 144.16 32.1401C144.436 32.3441 144.574 32.6321 144.574 33.0041C144.574 33.3761 144.436 33.6761 144.16 33.9041C143.896 34.1201 143.536 34.2281 143.08 34.2281L140.614 34.1201L137.896 34.2281C137.452 34.2281 137.08 34.0841 136.78 33.7961C136.492 33.5081 136.348 33.1241 136.348 32.6441L136.456 27.2801L136.312 22.4021C136.312 21.0941 136.768 20.4401 137.68 20.4401C138.592 20.4401 139.048 21.0941 139.048 22.4021L138.904 27.2801C138.904 27.8921 138.946 29.4281 139.03 31.8881C139.654 31.9121 140.182 31.9241 140.614 31.9241ZM151.679 31.9241L154.145 31.8161C154.601 31.8161 154.961 31.9241 155.225 32.1401C155.501 32.3441 155.639 32.6321 155.639 33.0041C155.639 33.3761 155.501 33.6761 155.225 33.9041C154.961 34.1201 154.601 34.2281 154.145 34.2281L151.679 34.1201L148.961 34.2281C148.517 34.2281 148.145 34.0841 147.845 33.7961C147.557 33.5081 147.413 33.1241 147.413 32.6441L147.521 27.2801L147.377 22.4021C147.377 21.0941 147.833 20.4401 148.745 20.4401C149.657 20.4401 150.113 21.0941 150.113 22.4021L149.969 27.2801C149.969 27.8921 150.011 29.4281 150.095 31.8881C150.719 31.9121 151.247 31.9241 151.679 31.9241Z" fill="#06387F"/>
<path d="M1.52734 6.93848C2.07963 6.93848 2.52734 7.38619 2.52734 7.93848V51.5176H183.28C183.833 51.5176 184.28 51.9653 184.28 52.5176C184.28 53.0696 183.832 53.5176 183.28 53.5176H2.4873C2.31352 53.5175 2.15019 53.4725 2.00781 53.3945C1.86532 53.4727 1.70132 53.5176 1.52734 53.5176C0.975406 53.5174 0.527608 53.0695 0.527344 52.5176V7.93848C0.527344 7.38633 0.975244 6.93869 1.52734 6.93848ZM182.257 0C182.405 0 182.546 0.0336564 182.673 0.0917969C183.213 0.106075 183.646 0.547544 183.646 1.09082C183.645 1.41247 183.493 1.69809 183.257 1.88086V50.5078L183.252 50.6094C183.201 51.1136 182.775 51.5078 182.257 51.5078C181.739 51.5078 181.313 51.1136 181.262 50.6094L181.257 50.5078V2.09082H1C0.448161 2.09058 0.000395626 1.64262 0 1.09082C0 0.538682 0.447917 0.0910572 1 0.0908203H181.843C181.969 0.0332455 182.109 2.20734e-06 182.257 0Z" fill="#06387F"/>
</svg>
