<svg width="53" height="51" viewBox="0 0 53 51" fill="none" xmlns="http://www.w3.org/2000/svg">
<path d="M49.8918 49.7834H49.1696C49.1696 46.9663 46.8763 44.6811 44.0673 44.6811H42.5043L42.4716 8.07452C42.4716 6.05117 40.8288 4.40837 38.8055 4.40837H33.0528C32.6886 3.13789 31.5204 2.25 30.1722 2.25C28.8077 2.25 27.6559 3.16245 27.2917 4.40837H20.7922C20.428 3.13789 19.2599 2.25 17.9117 2.25C16.5471 2.25 15.3953 3.16245 15.0312 4.40837H11.7701C9.74675 4.40837 8.10396 6.05117 8.10396 8.07452V12.3114C7.96893 12.4137 7.84209 12.5181 7.72343 12.6367L2.74798 17.6041C2.72547 17.6204 2.70911 17.6286 2.69274 17.645L1.42227 18.9297C1.34453 19.0014 1.30361 19.1057 1.30361 19.208C1.30361 19.255 1.3118 19.3103 1.33635 19.3594C1.3609 19.4064 1.3834 19.4473 1.42432 19.4862L6.57365 24.4699C6.64526 24.5415 6.73937 24.5804 6.8437 24.5804H6.85188C6.87643 24.5804 6.89075 24.5722 6.90712 24.564C6.93985 24.5558 6.97054 24.5558 6.99509 24.5476C7.00328 24.5394 7.01146 24.5313 7.01964 24.5313C7.05238 24.5149 7.09125 24.4924 7.11579 24.4597L8.09166 23.4449V44.6887H6.4141C5.04951 44.6887 3.7627 45.2206 2.80323 46.1801C1.83553 47.1396 1.30362 48.4265 1.30362 49.7993H0.630523C0.415709 49.7993 0.25 49.9732 0.25 50.1798C0.25 50.3946 0.423895 50.5603 0.630523 50.5603H5.99668C6.2115 50.5603 6.37721 50.3864 6.37721 50.1798C6.37721 49.965 6.20331 49.7993 5.99668 49.7993H4.58098C4.58098 49.3083 4.77124 48.848 5.12106 48.5063C5.46271 48.1646 5.92299 47.9744 6.41405 47.9744H9.30274C9.07975 48.5533 8.96109 49.165 8.96109 49.8074H7.53308C7.31827 49.8074 7.15256 49.9813 7.15256 50.188C7.15256 50.4028 7.32645 50.5685 7.53308 50.5685H43.4087C43.6236 50.5685 43.7893 50.3946 43.7893 50.188C43.7893 49.9731 43.6154 49.8074 43.4087 49.8074H41.5041C41.5041 49.1569 41.3691 48.5451 41.1461 47.9744H44.0593C45.0679 47.9744 45.8924 48.7927 45.8924 49.8074H44.7181C44.5033 49.8074 44.3376 49.9813 44.3376 50.188C44.3376 50.4028 44.5114 50.5685 44.7181 50.5685H49.9001C50.115 50.5685 50.2807 50.3946 50.2807 50.188C50.2725 49.9568 50.0986 49.7829 49.892 49.7829L49.8918 49.7834ZM30.1576 3.01953C31.0864 3.01953 31.8884 3.58212 32.2198 4.40863H28.0933C28.4268 3.59234 29.2288 3.01953 30.1576 3.01953ZM17.9049 3.01953C18.8337 3.01953 19.6356 3.58212 19.9671 4.40863H15.8406C16.1659 3.59234 16.9679 3.01953 17.9049 3.01953ZM8.8663 8.07478C8.8663 6.47901 10.1675 5.17789 11.7632 5.17789H14.9056V5.2495C14.9056 5.46432 15.0795 5.63003 15.2861 5.63003C15.4927 5.63003 15.6666 5.45613 15.6666 5.2495V5.17789H27.1562V5.2495C27.1562 5.46432 27.3301 5.63003 27.5368 5.63003C27.7434 5.63003 27.9173 5.45613 27.9173 5.2495V5.17789H38.7805C40.3763 5.17789 41.6774 6.47906 41.6774 8.07478L41.7101 44.6813H39.9732L39.9405 7.49606C39.9405 7.17895 39.6786 6.91707 39.3615 6.91707H11.1821C10.865 6.91707 10.6031 7.17893 10.6031 7.49606V11.5038H10.4763C9.91369 11.5038 9.36539 11.6307 8.86622 11.8537L8.8663 8.07478ZM14.0709 44.6813H11.3725V41.23H27.3217C27.5365 41.23 27.7022 41.0561 27.7022 40.8495V37.7951H30.9326V37.9546C30.9326 38.1694 31.1065 38.3352 31.3131 38.3352H33.4715C33.6863 38.3352 33.852 38.1613 33.852 37.9546V37.7951H38.5819C38.6924 37.7951 38.7967 37.748 38.8683 37.6682C38.9399 37.5884 38.9788 37.4861 38.9706 37.3736L38.7722 35.0802C38.7558 34.8818 38.5901 34.7304 38.3917 34.7304H38.138L36.2722 18.7014H37.6695C38.1298 18.7014 38.5348 18.4232 38.7006 17.9874C38.8602 17.5517 38.7395 17.075 38.3917 16.7742L30.8856 10.2747C30.7833 10.1867 30.6707 10.1233 30.5521 10.0762L30.5541 8.81392C31.6262 8.71776 32.023 8.21042 32.1335 7.68668H39.1877L39.2204 44.6818L14.0709 44.6813ZM25.3228 11.5037H20.0467L18.2852 9.97951V8.81336C19.3572 8.7172 19.7541 8.20986 19.8646 7.68612H31.3071C31.1802 7.90912 30.8713 8.06665 30.1573 8.06665C29.9425 8.06665 29.7768 8.24054 29.7768 8.44717V10.0736C29.6581 10.1207 29.5477 10.1841 29.4433 10.2721L27.3566 12.0806C26.7449 11.7021 26.0531 11.5037 25.3228 11.5037ZM17.9046 10.6628L18.8723 11.5037H16.937L17.9046 10.6628ZM17.8964 8.05844C17.6816 8.05844 17.5159 8.23234 17.5159 8.43897V9.97132L15.7544 11.4955H11.3743V7.67793H19.0564C18.9193 7.90092 18.6104 8.05844 17.8964 8.05844ZM16.0388 12.2729H19.752L20.5457 12.9623C20.1181 14.0098 19.0932 14.7566 17.8943 14.7566C16.6955 14.7566 15.6644 14.0098 15.2429 12.9623L16.0388 12.2729ZM29.9423 10.8531C30.0057 10.7979 30.0773 10.7733 30.1571 10.7733C30.2369 10.7733 30.3085 10.7979 30.3719 10.8531L37.8781 17.3527C38.0377 17.4877 37.9886 17.6698 37.9742 17.7168C37.9579 17.7639 37.8781 17.9316 37.6653 17.9316H35.8404L33.3854 17.9296L33.1072 17.6514C33.0908 17.635 33.0745 17.6268 33.0601 17.6186L28.0847 12.6513C28.0519 12.6186 28.0131 12.5879 27.9824 12.5552L29.9423 10.8531ZM33.5614 19.192L28.9665 23.6356L28.2443 22.8827L32.8229 18.4555L33.5614 19.192ZM27.704 23.4372L28.6799 24.4519C28.7515 24.5235 28.8456 24.5706 28.9499 24.5706H28.9581C29.0297 24.5706 29.1013 24.546 29.1565 24.5071C29.1811 24.4908 29.2036 24.4826 29.22 24.4683L34.3693 19.4846C34.4082 19.4457 34.4327 19.4048 34.4573 19.3578C34.4818 19.3107 34.49 19.2616 34.49 19.2064C34.49 19.1041 34.4511 19.0079 34.3795 18.9281L34.1422 18.6908H35.4904L37.3562 34.7198L33.8619 34.7218V34.5622C33.8619 34.3474 33.688 34.1817 33.4814 34.1817H31.323C31.1082 34.1817 30.9425 34.3556 30.9425 34.5622V34.7218H27.7121V23.4369L27.704 23.4372ZM33.862 35.4915H38.0356L38.1706 37.0157H33.862L33.862 35.4915ZM33.0928 34.9452V37.5639H31.7037V34.9452H33.0928ZM30.9344 37.0156H27.704V35.4914H30.9344V37.0156ZM8.2542 13.1856C8.84953 12.5985 9.6433 12.2732 10.476 12.2732H14.2853C14.3098 12.5105 14.3569 12.7335 14.4285 12.9565V12.9647C14.8888 14.4397 16.2697 15.5199 17.8962 15.5199C19.5226 15.5199 20.9036 14.4397 21.3639 12.9647V12.9565C21.4273 12.7335 21.4743 12.5125 21.5071 12.2732H25.3164C26.149 12.2732 26.9428 12.5984 27.53 13.1856L32.2682 17.9156L27.6977 22.3346L27.5791 22.2159C27.4686 22.1055 27.3009 22.0646 27.1576 22.128C27.0144 22.1832 26.9203 22.3264 26.9203 22.486V40.4585H8.86572V22.4776C8.86572 22.318 8.76956 22.1769 8.6284 22.1196C8.48519 22.0644 8.31948 22.095 8.20696 22.2076L8.0883 22.3262L3.5179 17.9072L8.2542 13.1856ZM2.97812 18.4617L7.55669 22.8889L6.83452 23.6418L2.23961 19.1982L2.97812 18.4617ZM8.86592 41.2217H10.6028V44.673H8.86592V41.2217ZM6.41297 47.1897C5.71536 47.1897 5.06478 47.4598 4.57991 47.9507C4.08891 48.4417 3.81887 49.0944 3.81887 49.792H2.0738C2.0738 48.6341 2.52592 47.5375 3.35039 46.7212C4.16055 45.9028 5.24688 45.4507 6.41302 45.4507H11.3721C11.0469 45.6573 10.7379 45.8946 10.4597 46.1729C10.1508 46.4818 9.88893 46.8235 9.67409 47.1876L6.41297 47.1897ZM38.2339 49.7838H12.2374C12.2374 49.2928 12.4277 48.8325 12.7775 48.4908C13.1191 48.1492 13.5794 47.9589 14.0705 47.9589H36.9796C36.9632 47.9835 36.9468 48.0142 36.9243 48.0469C37.6792 48.2678 38.2339 48.9594 38.2339 49.7838ZM40.7421 49.7838H39.0052C39.0052 49.0698 38.7106 48.4274 38.2359 47.9507H40.3227C40.5825 48.5133 40.7421 49.1251 40.7421 49.7838ZM46.6608 49.7838C46.6608 48.3476 45.4947 47.1897 44.0667 47.1897H14.071C13.3734 47.1897 12.7228 47.4598 12.2379 47.9507C11.7469 48.4417 11.4769 49.0944 11.4769 49.792H9.73998C9.73998 48.6341 10.1921 47.5375 11.0166 46.7212C11.8267 45.9028 12.9131 45.4507 14.0792 45.4507H44.0671C46.4566 45.4507 48.4083 47.3942 48.4083 49.792H46.6612L46.6608 49.7838Z" fill="#2F4074" stroke="#2F4074" stroke-width="0.5"/>
<path d="M51.3838 49.4648H51.0421C50.8273 49.4648 50.6616 49.6387 50.6616 49.8454C50.6616 50.0602 50.8355 50.2259 51.0421 50.2259H51.3838C51.5986 50.2259 51.7643 50.052 51.7643 49.8454C51.7725 49.6387 51.5986 49.4648 51.3838 49.4648Z" fill="#2F4074" stroke="#2F4074" stroke-width="0.5"/>
<path d="M43.2268 4.22498C43.3229 4.22498 43.4252 4.18611 43.4968 4.1145L44.9411 2.67014C45.0925 2.51875 45.0925 2.27325 44.9411 2.12184C44.7898 1.97045 44.5443 1.97045 44.3929 2.12184L42.9485 3.57437C42.7971 3.72577 42.7971 3.97127 42.9485 4.12267C43.0283 4.19223 43.1245 4.22498 43.2268 4.22498Z" fill="#19B8F1" stroke="#19B8F1" stroke-width="0.5"/>
<path d="M44.021 5.48725C44.021 5.70206 44.1949 5.86777 44.4015 5.86777H46.4412C46.656 5.86777 46.8217 5.69388 46.8217 5.48725C46.8217 5.28062 46.6478 5.10672 46.4412 5.10672H44.4015C44.1949 5.09854 44.021 5.27244 44.021 5.48725Z" fill="#19B8F1" stroke="#19B8F1" stroke-width="0.5"/>
<path d="M41.5839 3.05074C41.7987 3.05074 41.9644 2.87685 41.9644 2.67022V0.630526C41.9644 0.41571 41.7906 0.25 41.5839 0.25C41.3691 0.25 41.2034 0.423896 41.2034 0.630526V2.67022C41.1952 2.87685 41.3691 3.05074 41.5839 3.05074Z" fill="#19B8F1" stroke="#19B8F1" stroke-width="0.5"/>
<path d="M45.6555 1.79671C45.7516 1.79671 45.8539 1.75784 45.9255 1.68623L46.259 1.35276C46.4104 1.20137 46.4104 0.955868 46.259 0.804461C46.1076 0.65307 45.8621 0.65307 45.7107 0.804461L45.3772 1.13793C45.2258 1.28933 45.2258 1.53483 45.3772 1.68623C45.457 1.75784 45.5593 1.79671 45.6555 1.79671Z" fill="#19B8F1" stroke="#19B8F1" stroke-width="0.5"/>
<path d="M19.8104 24.5545C19.8738 24.6813 20.0088 24.7611 20.152 24.7611H22.9773C23.1205 24.7611 23.2556 24.6813 23.319 24.5545L23.9389 23.3474C23.9716 23.2922 23.9777 23.2288 23.9777 23.1735V19.4604C23.9777 19.2455 23.8038 19.0798 23.5972 19.0798H19.526C19.3112 19.0798 19.1455 19.2537 19.1455 19.4604V23.1735C19.1455 23.237 19.1619 23.2922 19.1844 23.3474L19.8104 24.5545ZM22.738 23.9919H20.3812L19.9127 23.0794V21.4121H23.2146V23.0794L22.738 23.9919ZM19.9127 19.8409H23.2147V20.6428H19.9127V19.8409Z" fill="#2F4074" stroke="#2F4074" stroke-width="0.5"/>
</svg>
