<svg width="1438" height="295" viewBox="0 0 1438 295" fill="none" xmlns="http://www.w3.org/2000/svg">
<path d="M1424.15 1.14941C1425.35 -0.382978 1427.67 -0.383228 1428.88 1.14941L1437.36 11.9824C1437.61 12.3015 1437.78 12.6452 1437.89 12.9961H1438V13.7549C1438 13.7787 1438 13.8024 1438 13.8262V294.996H0.00390625V13.9785C-0.00143621 13.88 -0.000704724 13.781 0.00390625 13.6816V12.9961H0.118164C0.221287 12.6448 0.393206 12.3009 0.643555 11.9814L9.13184 1.14941C10.3331 -0.382274 12.6535 -0.382625 13.8545 1.14941L21.9414 11.4697L30.0283 1.14941C31.2295 -0.382502 33.5509 -0.382701 34.752 1.14941L42.3408 10.834L49.9307 1.14941C51.1318 -0.38241 53.4523 -0.382533 54.6533 1.14941L62.7402 11.4697L70.8271 1.14941C72.0283 -0.382413 74.3487 -0.382434 75.5498 1.14941L83.4023 11.1699L91.2559 1.14941C92.4571 -0.382284 94.7775 -0.382564 95.9785 1.14941L104.065 11.4697L112.152 1.14941C113.353 -0.382457 115.674 -0.382374 116.875 1.14941L124.465 10.834L132.055 1.14941C133.256 -0.382433 135.576 -0.38251 136.777 1.14941L144.864 11.4688L152.951 1.14941C154.152 -0.382473 156.473 -0.382423 157.674 1.14941L165.497 11.1328L173.321 1.14941C174.522 -0.382625 176.843 -0.382899 178.044 1.14941L186.131 11.4697L194.219 1.14941C195.42 -0.382542 197.74 -0.382982 198.941 1.14941L206.53 10.834L214.12 1.14941C215.321 -0.382591 217.642 -0.382933 218.843 1.14941L226.93 11.4697L235.018 1.14941C236.219 -0.382493 238.539 -0.382968 239.74 1.14941L247.594 11.1709L255.447 1.14941C256.648 -0.38265 258.969 -0.382874 260.17 1.14941L268.257 11.4697L276.344 1.14941C277.545 -0.382664 279.865 -0.382778 281.066 1.14941L288.656 10.834L296.246 1.14941C297.447 -0.382618 299.768 -0.382906 300.969 1.14941L309.056 11.4688L317.143 1.14941C318.344 -0.38268 320.664 -0.382826 321.865 1.14941L329.189 10.4961L336.515 1.14941C337.716 -0.382612 340.036 -0.382458 341.237 1.14941L349.324 11.4697L357.412 1.14941C358.613 -0.38253 360.934 -0.38254 362.135 1.14941L369.724 10.834L377.313 1.14941C378.515 -0.382698 380.836 -0.382632 382.037 1.14941L390.123 11.4697L398.211 1.14941C399.412 -0.382495 401.733 -0.382564 402.934 1.14941L410.786 11.1699L418.64 1.14941C419.841 -0.382452 422.161 -0.382505 423.362 1.14941L431.449 11.4697L439.536 1.14941C440.737 -0.382644 443.058 -0.382334 444.259 1.14941L451.849 10.834L459.438 1.14941C460.64 -0.382604 462.96 -0.382466 464.161 1.14941L472.248 11.4688L480.335 1.14941C481.536 -0.382661 483.856 -0.382385 485.058 1.14941L492.881 11.1338L500.704 1.14941C501.905 -0.38281 504.227 -0.382875 505.428 1.14941L513.514 11.4707L521.602 1.14941C522.803 -0.382414 525.123 -0.382649 526.324 1.14941L533.913 10.835L541.503 1.14941C542.704 -0.382622 545.024 -0.382441 546.226 1.14941L554.312 11.4707L562.4 1.14941C563.602 -0.382381 565.922 -0.382682 567.123 1.14941L574.976 11.1719L582.83 1.14941C584.031 -0.382187 586.352 -0.382812 587.553 1.14941L595.64 11.4697L603.727 1.14941C604.928 -0.382329 607.248 -0.382591 608.449 1.14941L616.039 10.834L623.629 1.14941C624.83 -0.382326 627.151 -0.382736 628.352 1.14941L636.438 11.4697L644.525 1.14941C645.727 -0.382345 648.047 -0.382641 649.248 1.14941L657.07 11.1318L664.894 1.14941C666.095 -0.382826 668.415 -0.383004 669.616 1.14941L677.703 11.4697L685.79 1.14941C686.991 -0.382987 689.312 -0.382801 690.513 1.14941L698.103 10.834L705.692 1.14941C706.893 -0.382971 709.214 -0.382942 710.415 1.14941L718.502 11.4688L726.589 1.14941C727.79 -0.383003 730.11 -0.38285 731.312 1.14941L739.165 11.1709L747.019 1.14941C748.22 -0.383004 750.54 -0.382859 751.741 1.14941L759.828 11.4688L767.915 1.14941C769.116 -0.383063 771.436 -0.382778 772.638 1.14941L780.228 10.834L787.817 1.14941C789.018 -0.382971 791.339 -0.382892 792.54 1.14941L800.627 11.4688L808.714 1.14941C809.915 -0.383046 812.235 -0.382816 813.437 1.14941L821.26 11.1338L829.084 1.15039C830.285 -0.382207 832.606 -0.382237 833.807 1.15039L841.894 11.4707L849.98 1.15039C851.182 -0.382208 853.502 -0.382137 854.703 1.15039L862.293 10.835L869.883 1.15039C871.084 -0.382175 873.404 -0.38227 874.605 1.15039L882.692 11.4697L890.779 1.15039C891.98 -0.382224 894.301 -0.382186 895.502 1.15039L903.355 11.1719L911.209 1.15039C912.41 -0.382059 914.731 -0.382015 915.932 1.15039L924.019 11.4707L932.105 1.15039C933.307 -0.382059 935.627 -0.382015 936.828 1.15039L944.418 10.835L952.008 1.15039C953.209 -0.382059 955.529 -0.382015 956.73 1.15039L964.817 11.4697L972.904 1.15039C974.105 -0.382059 976.426 -0.382015 977.627 1.15039L984.952 10.499L992.278 1.14941C993.479 -0.382708 995.8 -0.382587 997.001 1.14941L1005.09 11.4707L1013.18 1.14941C1014.38 -0.382467 1016.7 -0.382828 1017.9 1.14941L1025.49 10.835L1033.08 1.14941C1034.28 -0.382675 1036.6 -0.382619 1037.8 1.14941L1045.89 11.4707L1053.97 1.14941C1055.18 -0.382435 1057.5 -0.38286 1058.7 1.14941L1066.55 11.1719L1074.4 1.14941C1075.61 -0.382527 1077.93 -0.382996 1079.13 1.14941L1087.21 11.4697L1095.3 1.14941C1096.5 -0.382626 1098.82 -0.382991 1100.02 1.14941L1107.61 10.834L1115.2 1.14941C1116.4 -0.382793 1118.72 -0.383084 1119.93 1.14941L1128.01 11.4697L1136.1 1.14941C1137.3 -0.382589 1139.62 -0.383017 1140.82 1.14941L1148.65 11.1328L1156.47 1.14941C1157.67 -0.382805 1159.99 -0.382998 1161.19 1.14941L1169.28 11.4688L1177.37 1.14941C1178.57 -0.382895 1180.89 -0.382964 1182.09 1.14941L1189.68 10.834L1197.27 1.14941C1198.47 -0.382757 1200.79 -0.382982 1201.99 1.14941L1210.08 11.4697L1218.17 1.14941C1219.37 -0.382862 1221.69 -0.382997 1222.89 1.14941L1230.74 11.1699L1238.59 1.14941C1239.79 -0.382825 1242.11 -0.383005 1243.32 1.14941L1251.4 11.4688L1259.49 1.14941C1260.69 -0.382911 1263.01 -0.382962 1264.21 1.14941L1271.8 10.834L1279.39 1.14941C1280.59 -0.382775 1282.91 -0.382988 1284.11 1.14941L1292.2 11.4697L1300.29 1.14941C1301.49 -0.382878 1303.81 -0.382995 1305.01 1.14941L1313.33 11.7686L1321.65 1.14941C1322.85 -0.382254 1325.18 -0.382618 1326.38 1.14941L1334.46 11.4707L1342.55 1.14941C1343.75 -0.382014 1346.07 -0.382858 1347.27 1.14941L1354.86 10.835L1362.45 1.14941C1363.65 -0.382221 1365.97 -0.382651 1367.17 1.14941L1375.26 11.4707L1383.35 1.14941C1384.55 -0.382447 1386.87 -0.383048 1388.07 1.14941L1395.66 10.8379L1403.25 1.14941C1404.46 -0.382749 1406.78 -0.382831 1407.98 1.14941L1416.06 11.4707L1424.15 1.14941Z" fill="white"/>
</svg>
