<svg width="155" height="54" viewBox="0 0 155 54" fill="none" xmlns="http://www.w3.org/2000/svg">
<rect x="4.28027" y="3" width="146" height="47" fill="#7E4402"/>
<path d="M48.3423 30.2861C48.3423 31.4501 47.9043 32.4281 47.0283 33.2201C46.1523 34.0001 45.0183 34.3901 43.6263 34.3901C42.5103 34.3901 41.4903 34.1261 40.5663 33.5981C39.6423 33.0581 39.1803 32.4941 39.1803 31.9061C39.1803 31.5821 39.2883 31.3181 39.5043 31.1141C39.7323 30.8981 40.0083 30.7901 40.3323 30.7901C40.6683 30.7901 40.9923 30.9041 41.3043 31.1321C41.6283 31.3481 41.9763 31.5701 42.3483 31.7981C42.7323 32.0141 43.1943 32.1221 43.7343 32.1221C44.2863 32.1221 44.7663 31.9601 45.1743 31.6361C45.5943 31.3001 45.8043 30.8501 45.8043 30.2861C45.8043 29.6861 45.2883 29.0801 44.2563 28.4681C44.0523 28.3481 43.7163 28.1561 43.2483 27.8921C42.7923 27.6281 42.4443 27.4241 42.2043 27.2801C41.9643 27.1361 41.6463 26.9201 41.2503 26.6321C40.8663 26.3321 40.5723 26.0561 40.3683 25.8041C39.8643 25.1801 39.6123 24.5081 39.6123 23.7881C39.6123 22.8521 40.0143 22.0481 40.8183 21.3761C41.6343 20.6921 42.5883 20.3501 43.6803 20.3501C44.7843 20.3501 45.7263 20.5601 46.5063 20.9801C47.2863 21.4001 47.6763 21.8741 47.6763 22.4021C47.6763 22.7501 47.5683 23.0201 47.3523 23.2121C47.1363 23.4041 46.8663 23.5001 46.5423 23.5001C46.2183 23.5001 45.7983 23.3561 45.2823 23.0681C44.7663 22.7681 44.2803 22.6181 43.8243 22.6181C43.3803 22.6181 42.9903 22.7321 42.6543 22.9601C42.3303 23.1761 42.1683 23.4521 42.1683 23.7881C42.1683 24.1481 42.3963 24.4961 42.8523 24.8321C43.2123 25.0961 43.6803 25.3961 44.2563 25.7321C44.8443 26.0681 45.2643 26.3141 45.5163 26.4701C45.7683 26.6141 46.1043 26.8481 46.5243 27.1721C46.9563 27.4961 47.2803 27.7901 47.4963 28.0541C47.7123 28.3181 47.9043 28.6481 48.0723 29.0441C48.2523 29.4401 48.3423 29.8541 48.3423 30.2861ZM59.4734 27.6581L59.3654 22.3661C59.3654 21.0701 59.8154 20.4221 60.7154 20.4221C61.7234 20.4221 62.2274 21.1841 62.2274 22.7081C62.2274 23.9081 62.0714 25.5341 61.7594 27.5861C61.7594 28.2341 61.8254 29.0681 61.9574 30.0881C62.0894 31.1081 62.2694 31.6961 62.4974 31.8521C62.7134 31.9961 62.8694 32.0861 62.9654 32.1221C63.0614 32.1581 63.1274 32.1881 63.1634 32.2121C63.2234 32.2721 63.2534 32.3921 63.2534 32.5721C63.2534 33.0281 63.0974 33.4301 62.7854 33.7781C62.4734 34.1261 62.0654 34.3001 61.5614 34.3001C61.0694 34.3001 60.6614 34.0901 60.3374 33.6701C60.0134 33.2381 59.7914 32.6921 59.6714 32.0321C59.2874 32.6561 58.7294 33.1901 57.9974 33.6341C57.2654 34.0661 56.4734 34.2821 55.6214 34.2821C54.2054 34.2821 53.1074 33.8141 52.3274 32.8781C51.5474 31.9301 51.1574 30.7781 51.1574 29.4221L51.2654 24.8321C51.2654 24.3401 51.1994 23.8121 51.0674 23.2481C50.9474 22.6721 50.8874 22.1921 50.8874 21.8081C50.8874 21.4121 51.0194 21.0881 51.2834 20.8361C51.5594 20.5721 51.9134 20.4401 52.3454 20.4401C53.3414 20.4401 53.8394 21.1961 53.8394 22.7081L53.7134 28.3061C53.7134 29.4101 53.8934 30.2981 54.2534 30.9701C54.6134 31.6421 55.1414 31.9781 55.8374 31.9781C56.5334 31.9781 57.2414 31.5461 57.9614 30.6821C58.6814 29.8061 59.1854 28.7981 59.4734 27.6581ZM76.8846 30.1421C76.8846 31.4381 76.3386 32.4701 75.2466 33.2381C74.1666 34.0061 72.8106 34.3901 71.1786 34.3901C69.5586 34.3901 68.2686 34.2221 67.3086 33.8861C66.3606 33.5381 65.8866 33.1001 65.8866 32.5721C65.8866 32.0081 66.1506 31.6781 66.6786 31.5821C66.7146 30.3821 66.7326 28.9601 66.7326 27.3161C66.7326 25.6601 66.7146 24.3761 66.6786 23.4641C66.1866 23.2361 65.9406 22.9181 65.9406 22.5101C65.9406 22.1021 66.1326 21.7601 66.5166 21.4841C66.9126 21.1961 67.3926 20.9741 67.9566 20.8181C69.0846 20.5061 70.0806 20.3501 70.9446 20.3501C71.8086 20.3501 72.5766 20.4701 73.2486 20.7101C73.9326 20.9381 74.4666 21.2441 74.8506 21.6281C75.5946 22.3721 75.9666 23.1641 75.9666 24.0041C75.9666 25.0361 75.5046 25.9421 74.5806 26.7221C75.2526 27.0941 75.8046 27.5861 76.2366 28.1981C76.6686 28.8101 76.8846 29.4581 76.8846 30.1421ZM69.2886 31.9961C69.7446 32.0801 70.3866 32.1221 71.2146 32.1221C72.0546 32.1221 72.7806 31.9481 73.3926 31.6001C74.0046 31.2401 74.3106 30.7181 74.3106 30.0341C74.3106 29.5301 74.0586 29.1041 73.5546 28.7561C73.0626 28.4081 72.5226 28.1741 71.9346 28.0541C71.2986 28.2221 70.7646 28.3061 70.3326 28.3061C69.9126 28.3061 69.5346 28.2941 69.1986 28.2701C69.2226 30.3581 69.2526 31.6001 69.2886 31.9961ZM73.5186 24.0221C73.5186 23.6621 73.3026 23.3381 72.8706 23.0501C72.4506 22.7621 71.8806 22.6181 71.1606 22.6181C70.4526 22.6181 69.8106 22.6901 69.2346 22.8341V25.8041C69.6906 25.7561 70.1046 25.7321 70.4766 25.7321C70.8606 25.7321 71.2746 25.7801 71.7186 25.8761C72.0906 25.8281 72.4806 25.6421 72.8886 25.3181C73.3086 24.9821 73.5186 24.5501 73.5186 24.0221ZM82.2584 27.0641L82.3664 32.3561C82.3664 33.6521 81.9164 34.3001 81.0164 34.3001C80.0084 34.3001 79.5044 33.5381 79.5044 32.0141C79.5044 30.8141 79.6604 29.1881 79.9724 27.1361C79.9724 26.5721 79.9064 25.7141 79.7744 24.5621C79.6424 23.4101 79.5764 22.5701 79.5764 22.0421C79.5764 21.5021 79.6964 21.0941 79.9364 20.8181C80.1764 20.5301 80.5124 20.3861 80.9444 20.3861C81.8204 20.3861 82.2584 21.0641 82.2584 22.4201C83.2544 21.1001 84.4784 20.4401 85.9304 20.4401C86.7944 20.4401 87.5444 20.6501 88.1804 21.0701C88.8284 21.4901 89.3264 22.0481 89.6744 22.7441C90.1064 22.0961 90.6704 21.5501 91.3664 21.1061C92.0624 20.6621 92.8124 20.4401 93.6164 20.4401C94.9724 20.4401 96.0224 20.9141 96.7664 21.8621C97.5224 22.7981 97.9004 23.9441 97.9004 25.3001L97.7924 29.8901C97.7924 31.0421 97.8644 31.6841 98.0084 31.8161C98.1284 31.9241 98.2844 31.9961 98.4764 32.0321C98.6684 32.0681 98.7944 32.1281 98.8544 32.2121C98.9264 32.2841 98.9624 32.3921 98.9624 32.5361C98.9624 33.0401 98.7884 33.4661 98.4404 33.8141C98.1044 34.1621 97.7084 34.3361 97.2524 34.3361C96.4964 34.3361 95.9744 34.0781 95.6864 33.5621C95.3984 33.0341 95.2544 32.2601 95.2544 31.2401L95.3444 26.4161C95.3444 25.3121 95.1764 24.4241 94.8404 23.7521C94.5164 23.0801 94.0244 22.7441 93.3644 22.7441C92.7164 22.7441 92.0504 23.1821 91.3664 24.0581C90.6944 24.9221 90.2204 25.9241 89.9444 27.0641L90.0524 32.3561C90.0524 33.6521 89.6024 34.3001 88.7024 34.3001C87.6944 34.3001 87.1904 33.5381 87.1904 32.0141C87.1904 30.8141 87.3464 29.1881 87.6584 27.1361C87.6584 25.7681 87.4964 24.6941 87.1724 23.9141C86.8484 23.1341 86.3564 22.7441 85.6964 22.7441C85.0364 22.7441 84.3644 23.1821 83.6804 24.0581C83.0084 24.9221 82.5344 25.9241 82.2584 27.0641ZM102.685 20.5121L104.881 20.6201L107.077 20.5121C107.521 20.5121 107.875 20.6201 108.139 20.8361C108.415 21.0521 108.553 21.3461 108.553 21.7181C108.553 22.0781 108.415 22.3661 108.139 22.5821C107.875 22.7981 107.521 22.9061 107.077 22.9061L106.231 22.8521C106.147 24.6281 106.105 26.1401 106.105 27.3881C106.105 28.6241 106.147 30.1301 106.231 31.9061C106.663 31.8581 106.945 31.8341 107.077 31.8341C107.521 31.8341 107.875 31.9421 108.139 32.1581C108.415 32.3741 108.553 32.6681 108.553 33.0401C108.553 33.4001 108.415 33.6881 108.139 33.9041C107.875 34.1201 107.521 34.2281 107.077 34.2281L104.881 34.1201L102.685 34.2461C102.229 34.2461 101.863 34.1381 101.587 33.9221C101.323 33.7061 101.191 33.4121 101.191 33.0401C101.191 32.6681 101.323 32.3801 101.587 32.1761C101.863 31.9601 102.229 31.8521 102.685 31.8521L103.531 31.9241C103.615 30.1481 103.657 28.6361 103.657 27.3881C103.657 26.1401 103.615 24.6281 103.531 22.8521C103.171 22.8881 102.823 22.9061 102.487 22.9061C102.163 22.9061 101.863 22.8041 101.587 22.6001C101.323 22.3841 101.191 22.0901 101.191 21.7181C101.191 21.3461 101.323 21.0521 101.587 20.8361C101.863 20.6201 102.229 20.5121 102.685 20.5121ZM111.689 20.5121L115.109 20.6201L118.529 20.5121C118.985 20.5121 119.345 20.6201 119.609 20.8361C119.885 21.0521 120.023 21.3461 120.023 21.7181C120.023 22.0901 119.885 22.3841 119.609 22.6001C119.345 22.8161 118.985 22.9241 118.529 22.9241L116.495 22.8161C116.435 24.4001 116.405 25.9481 116.405 27.4601L116.549 32.3561C116.549 33.6521 116.093 34.3001 115.181 34.3001C114.269 34.3001 113.813 33.6521 113.813 32.3561L113.957 27.4601C113.957 26.4761 113.915 24.9281 113.831 22.8161L111.689 22.9241C111.233 22.9241 110.867 22.8161 110.591 22.6001C110.327 22.3841 110.195 22.0901 110.195 21.7181C110.195 21.3461 110.327 21.0521 110.591 20.8361C110.867 20.6201 111.233 20.5121 111.689 20.5121Z" fill="white"/>
<path d="M1.44141 6.93848C1.99361 6.93857 2.44141 7.38625 2.44141 7.93848V51.5176H153.561C154.113 51.5177 154.561 51.9654 154.561 52.5176C154.56 53.0696 154.113 53.5174 153.561 53.5176H2.24414C2.10099 53.5175 1.96491 53.4868 1.8418 53.4326C1.71913 53.4864 1.58389 53.5176 1.44141 53.5176C0.889366 53.5176 0.441802 53.0695 0.441406 52.5176V7.93848C0.441406 7.38619 0.889121 6.93848 1.44141 6.93848ZM152.704 0C152.855 6.99952e-05 152.998 0.0345812 153.127 0.0947266C153.633 0.143865 154.029 0.571524 154.029 1.09082C154.029 1.3821 153.903 1.64358 153.704 1.82617V50.5088L153.699 50.6104C153.648 51.1141 153.221 51.5085 152.704 51.5088C152.187 51.5088 151.761 51.1142 151.709 50.6104L151.704 50.5088V2.09082H1C0.448041 2.09082 0.000527428 1.64266 0 1.09082C0 0.538536 0.447715 0.0908203 1 0.0908203H152.29C152.416 0.0333726 152.556 0 152.704 0Z" fill="#7E4402"/>
</svg>
