<svg width="50" height="49" viewBox="0 0 50 49" fill="none" xmlns="http://www.w3.org/2000/svg">
<path fill-rule="evenodd" clip-rule="evenodd" d="M33.6598 32.6921H22.4663C21.8854 32.6921 21.4123 32.224 21.4123 31.6491V21.4841H25.296V27.8559C25.296 28.5211 26.1132 28.8574 26.5899 28.3856L28.0634 26.927L29.5368 28.3856C30.0092 28.8556 30.8301 28.5248 30.8301 27.8559V21.4841H34.7144V31.6491C34.7138 32.224 34.2414 32.6921 33.6598 32.6921ZM20.2602 18.4538C20.2602 17.9686 20.6593 17.5743 21.149 17.5743H25.296V19.9839H20.2602V18.4538ZM24.0458 12.6728C23.2071 11.678 23.0745 10.7259 23.9447 10.7259C24.1007 10.7259 24.2777 10.7637 24.4615 10.8546C25.172 11.2056 25.8992 12.9963 26.2514 13.8239C26.4111 14.1968 26.5603 14.5776 26.701 14.967C25.7105 14.2603 24.7378 13.4931 24.0458 12.6728ZM29.8742 13.8245C30.2263 12.9975 30.9559 11.2056 31.6646 10.8553C32.0038 10.6874 32.4688 10.6606 32.6767 10.9218C32.8907 11.1885 32.7883 11.8342 32.0803 12.6734C31.3883 13.4931 30.4157 14.2609 29.4233 14.9682C29.5645 14.5782 29.715 14.1974 29.8742 13.8245ZM26.8114 17.5749V26.0463L27.5274 25.3377C27.8228 25.0453 28.3027 25.0459 28.5987 25.3377L29.3141 26.0463V17.5749H26.8114ZM35.8665 18.4538V19.9845H30.8295V17.5749H34.9772C35.4681 17.5749 35.8665 17.9686 35.8665 18.4538ZM34.9778 16.076H30.4632C31.4814 15.3405 32.4842 14.5343 33.2435 13.6341C35.7549 10.6581 33.2453 8.40113 30.9899 9.51376C29.831 10.085 29.1285 11.7237 28.4791 13.2398C28.3329 13.5828 28.1941 13.9325 28.0634 14.2883L27.5595 13.0353C26.9279 11.5474 26.2224 10.049 25.1375 9.51376C22.8814 8.40052 20.3731 10.6587 22.882 13.6341C23.6413 14.5343 24.6453 15.3411 25.663 16.076H21.1483C19.8229 16.076 18.7442 17.1422 18.7442 18.4544V20.1481C18.7442 20.8188 19.2451 21.3736 19.897 21.4682V31.6497C19.897 33.0516 21.049 34.1917 22.4657 34.1917H33.6585C35.0758 34.1917 36.2285 33.0516 36.2285 31.6497V21.4676C36.8792 21.373 37.3806 20.8182 37.3806 20.1475V18.4538C37.3813 17.1422 36.3026 16.076 34.9778 16.076ZM44.9673 25.4579C46.9397 25.3151 48.4853 23.669 48.4853 21.7087C48.4853 19.7483 46.9397 18.101 44.9673 17.9588C44.2543 17.9076 44.0039 16.9896 44.5966 16.5905C46.2329 15.4919 46.7398 13.3014 45.7493 11.6041C44.7595 9.90559 42.5885 9.2446 40.8079 10.0978C40.1647 10.4054 39.4838 9.73348 39.7971 9.09691C40.6581 7.33428 39.9901 5.18655 38.2749 4.20698C36.5591 3.2274 34.3462 3.72787 33.2348 5.34706C32.8321 5.93237 31.9039 5.68702 31.8521 4.98026C31.7084 3.02844 30.0438 1.49896 28.0634 1.49896C26.0817 1.49896 24.4184 3.02844 24.2753 4.98026C24.2222 5.68763 23.2934 5.93298 22.8919 5.34706C21.7811 3.72787 19.567 3.2274 17.8524 4.20698C16.1366 5.18716 15.4681 7.33428 16.3303 9.09691C16.6411 9.73225 15.9608 10.4061 15.3182 10.0978C13.5389 9.24521 11.3685 9.90559 10.378 11.6041C9.38751 13.3014 9.89263 15.4919 11.5295 16.5905C12.1216 16.9884 11.8736 17.9076 11.1601 17.9588C9.18768 18.101 7.64148 19.7483 7.64148 21.7087C7.64148 23.669 9.18768 25.3151 11.1601 25.4579C11.8724 25.5098 12.1228 26.4277 11.5295 26.8256C9.89263 27.9248 9.38751 30.1159 10.378 31.8132C11.3679 33.5099 13.5376 34.1721 15.3182 33.3189C15.9621 33.0113 16.6417 33.6851 16.3303 34.3204C15.4687 36.0825 16.1366 38.229 17.8524 39.2104C19.567 40.1893 21.7811 39.6883 22.8919 38.0697C23.2959 37.4813 24.2222 37.7303 24.2753 38.4365C24.4184 40.3883 26.0817 41.9172 28.0634 41.9172C30.0431 41.9172 31.7084 40.3883 31.8521 38.4365C31.9033 37.7297 32.8321 37.485 33.2348 38.0697C34.3462 39.6889 36.5597 40.1893 38.2749 39.2104C39.9901 38.2296 40.6587 36.0825 39.7971 34.3204C39.4844 33.6839 40.1653 33.0107 40.8079 33.3189C42.5885 34.1715 44.7588 33.5099 45.7493 31.8132C46.7398 30.1159 46.2323 27.9248 44.5966 26.8256C44.0033 26.4271 44.255 25.5098 44.9673 25.4579ZM50 21.7093C50 19.4908 48.5852 17.5609 46.5844 16.798C47.932 15.1471 48.1818 12.7753 47.0612 10.8553C45.9412 8.93517 43.7412 7.9617 41.622 8.29128C41.9551 6.19542 40.972 4.01716 39.0323 2.90881C37.092 1.80046 34.6941 2.04703 33.0264 3.38059C32.2561 1.40009 30.3046 0 28.0634 0C25.8227 0 23.8713 1.4007 23.1004 3.38059C21.4321 2.04703 19.0347 1.80046 17.0951 2.90881C15.1548 4.01716 14.1723 6.19542 14.5047 8.29128C12.3862 7.96292 10.1856 8.93395 9.06618 10.8553C7.94492 12.7753 8.19409 15.1471 9.54293 16.798C7.54033 17.5609 6.12674 19.4908 6.12674 21.7093C6.12674 23.926 7.54033 25.8571 9.54293 26.62C8.19409 28.2709 7.94431 30.6432 9.06618 32.5627C10.1856 34.4828 12.3868 35.4557 14.5047 35.1255C14.1723 37.2225 15.1548 39.4002 17.0951 40.5092C19.0347 41.6175 21.4321 41.3709 23.1004 40.0374C23.8713 42.0179 25.8227 43.4167 28.0634 43.4167C30.3046 43.4167 32.2561 42.0179 33.0264 40.0374C34.6941 41.3709 37.0914 41.6175 39.0323 40.5092C40.972 39.4002 41.9551 37.2225 41.622 35.1255C43.7387 35.4557 45.9412 34.4828 47.0612 32.5627C48.1812 30.6432 47.932 28.2709 46.5844 26.62C48.5852 25.8564 50 23.9254 50 21.7093ZM3.9052 46.8675C3.55303 47.4717 2.76852 47.6805 2.15794 47.3314C1.02867 46.6863 1.49555 44.9688 2.79874 44.9688C3.77321 44.9688 4.39922 46.0216 3.9052 46.8675ZM4.19445 43.8403C2.8598 43.078 1.1477 43.5315 0.377376 44.8522C-0.700706 46.7003 0.663549 49 2.79258 49C3.75903 49 4.70081 48.5044 5.21765 47.6182C5.98858 46.2969 5.52849 44.602 4.19445 43.8403ZM11.6948 41.7701C10.8258 43.2593 8.89534 43.7726 7.38985 42.9114C5.88559 42.0514 5.36752 40.1411 6.23652 38.6525C7.11416 37.1493 9.04706 36.6574 10.5414 37.5112C12.0463 38.3706 12.5638 40.2821 11.6948 41.7701ZM11.2994 36.2125C13.5278 37.4844 14.2944 40.3145 13.0078 42.5196C12.1672 43.9605 10.629 44.8303 8.95948 44.8303C5.42117 44.8303 3.11822 40.9999 4.9253 37.9024C6.21185 35.6973 9.07049 34.9393 11.2994 36.2125Z" fill="#2F4074"/>
</svg>
