<svg width="1440" height="508" viewBox="0 0 1440 508" fill="none" xmlns="http://www.w3.org/2000/svg">
<path d="M1426.13 1.14722C1427.34 -0.382024 1429.65 -0.382594 1430.85 1.14722L1439.36 11.9841C1439.61 12.3045 1439.78 12.6493 1439.88 13.0017H1440V13.7361C1440 13.7837 1440 13.8312 1440 13.8787V508.002H0V13.0017H0.118164C0.221391 12.6489 0.393885 12.3038 0.645508 11.9832L9.14844 1.14722C10.3497 -0.381947 12.6673 -0.38245 13.8682 1.14722L21.9707 11.4724L30.0742 1.14722C31.2755 -0.381994 33.594 -0.38259 34.7949 1.14722L42.3994 10.8376L50.0039 1.14722C51.2052 -0.381994 53.5237 -0.38259 54.7246 1.14722L62.8271 11.4724L70.9297 1.14722C72.131 -0.381994 74.4495 -0.38259 75.6504 1.14722L83.5186 11.1736L91.3867 1.14722C92.5879 -0.382031 94.9055 -0.38237 96.1064 1.14722L104.209 11.4724L112.312 1.14722C113.514 -0.382077 115.832 -0.382508 117.033 1.14722L124.638 10.8376L132.242 1.14722C133.443 -0.382077 135.762 -0.382508 136.963 1.14722L145.065 11.4724L153.168 1.14722C154.369 -0.382077 156.688 -0.382508 157.889 1.14722L165.727 11.1365L173.565 1.14819C174.767 -0.38164 177.084 -0.381856 178.285 1.14819L186.388 11.4734L194.491 1.14819C195.692 -0.381679 198.011 -0.381974 199.212 1.14819L206.815 10.8386L214.421 1.14819C215.622 -0.38159 217.94 -0.381916 219.141 1.14819L227.243 11.4744L235.347 1.14819C236.548 -0.381679 238.866 -0.381974 240.067 1.14819L247.936 11.1755L255.806 1.14722C257.007 -0.382094 259.324 -0.382228 260.525 1.14722L268.628 11.4734L276.731 1.14722C277.933 -0.382077 280.25 -0.382246 281.451 1.14722L289.056 10.8376L296.661 1.14722C297.862 -0.382037 300.18 -0.382286 301.381 1.14722L309.483 11.4734L317.587 1.14722C318.788 -0.382018 321.106 -0.382304 322.307 1.14722L329.647 10.5027L336.988 1.14819C338.19 -0.381344 340.507 -0.381932 341.708 1.14819L349.811 11.4734L357.914 1.14819C359.115 -0.38139 361.434 -0.38207 362.635 1.14819L370.239 10.8386L377.844 1.14819C379.045 -0.38139 381.364 -0.38207 382.564 1.14819L390.667 11.4734L398.77 1.14819C399.971 -0.38139 402.289 -0.38207 403.49 1.14819L411.358 11.1755L419.228 1.14819C420.429 -0.381344 422.746 -0.381934 423.947 1.14819L432.05 11.4734L440.153 1.14819C441.355 -0.38139 443.673 -0.38207 444.874 1.14819L452.479 10.8386L460.083 1.14819C461.284 -0.38139 463.603 -0.38207 464.804 1.14819L472.906 11.4734L481.009 1.14819C482.21 -0.38139 484.529 -0.38207 485.729 1.14819L493.567 11.1365L501.406 1.14722C502.608 -0.381739 504.925 -0.382302 506.126 1.14722L514.229 11.4734L522.332 1.14722C523.533 -0.381721 525.851 -0.38232 527.052 1.14722L534.656 10.8376L542.262 1.14722C543.463 -0.381681 545.781 -0.38236 546.981 1.14722L555.084 11.4734L563.188 1.14722C564.389 -0.381664 566.706 -0.382377 567.907 1.14722L575.776 11.1755L583.646 1.14819C584.847 -0.381406 587.164 -0.381961 588.365 1.14819L596.468 11.4734L604.571 1.14819C605.773 -0.381455 608.091 -0.382092 609.292 1.14819L616.896 10.8386L624.501 1.14819C625.702 -0.381455 628.021 -0.382092 629.222 1.14819L637.324 11.4734L645.427 1.14819C646.628 -0.381455 648.947 -0.382092 650.147 1.14819L657.984 11.1355L665.822 1.14819C667.023 -0.381756 669.341 -0.381867 670.542 1.14819L678.645 11.4734L686.748 1.14819C687.949 -0.381802 690.268 -0.382005 691.469 1.14819L699.073 10.8386L706.678 1.14819C707.879 -0.381802 710.197 -0.382005 711.398 1.14819L719.501 11.4734L727.604 1.14819C728.805 -0.381802 731.123 -0.382005 732.324 1.14819L740.192 11.1755L748.062 1.14722C749.263 -0.382263 751.58 -0.38209 752.781 1.14722L760.884 11.4734L768.987 1.14722C770.188 -0.382245 772.506 -0.382108 773.707 1.14722L781.312 10.8376L788.917 1.14722C790.118 -0.382206 792.436 -0.382148 793.637 1.14722L801.739 11.4734L809.843 1.14722C811.044 -0.382187 813.361 -0.382166 814.562 1.14722L822.401 11.1375L830.241 1.14722C831.442 -0.38218 833.76 -0.382166 834.961 1.14722L843.063 11.4734L851.167 1.14722C852.368 -0.382162 854.686 -0.382184 855.887 1.14722L863.491 10.8376L871.097 1.14722C872.298 -0.382123 874.615 -0.382222 875.816 1.14722L883.919 11.4734L892.022 1.14722C893.224 -0.382105 895.541 -0.382241 896.742 1.14722L904.611 11.1755L912.48 1.14722C913.682 -0.382099 915.999 -0.382247 917.2 1.14722L925.303 11.4734L933.406 1.14722C934.607 -0.382081 936.925 -0.382264 938.126 1.14722L945.73 10.8386L953.336 1.14722C954.537 -0.382041 956.855 -0.382305 958.056 1.14722L966.158 11.4724L974.262 1.14722C975.463 -0.382024 977.78 -0.382322 978.981 1.14722L986.322 10.5027L993.663 1.14722C994.864 -0.381988 997.182 -0.382199 998.383 1.14722L1006.49 11.4734L1014.59 1.14722C1015.79 -0.382286 1018.11 -0.382533 1019.31 1.14722L1026.91 10.8386L1034.52 1.14722C1035.72 -0.382246 1038.04 -0.382573 1039.24 1.14722L1047.34 11.4734L1055.44 1.14722C1056.65 -0.382228 1058.96 -0.38259 1060.17 1.14722L1068.03 11.1755L1075.9 1.14819C1077.1 -0.381883 1079.42 -0.381933 1080.62 1.14819L1088.72 11.4734L1096.83 1.14819C1098.03 -0.381928 1100.35 -0.382068 1101.55 1.14819L1109.15 10.8386L1116.76 1.14819C1117.96 -0.381928 1120.28 -0.382068 1121.48 1.14819L1129.58 11.4734L1137.68 1.14819C1138.88 -0.381928 1141.2 -0.382068 1142.4 1.14819L1150.24 11.1375L1158.08 1.14819C1159.28 -0.381571 1161.6 -0.381835 1162.8 1.14819L1170.9 11.4734L1179.01 1.14819C1180.21 -0.381553 1182.53 -0.381852 1183.73 1.14819L1191.33 10.8386L1198.94 1.14819C1200.14 -0.381621 1202.46 -0.381965 1203.66 1.14819L1211.76 11.4734L1219.86 1.14819C1221.06 -0.381495 1223.38 -0.38191 1224.58 1.14819L1232.45 11.1746L1240.32 1.14819C1241.52 -0.381828 1243.84 -0.381705 1245.04 1.14819L1253.14 11.4734L1261.25 1.14819C1262.45 -0.381874 1264.76 -0.38184 1265.97 1.14819L1273.57 10.8386L1281.17 1.14819C1282.38 -0.381874 1284.69 -0.38184 1285.9 1.14819L1294 11.4734L1302.1 1.14819C1303.3 -0.381874 1305.62 -0.38184 1306.82 1.14819L1315.16 11.7722L1323.5 1.14722C1324.7 -0.38209 1327.01 -0.38229 1328.22 1.14722L1336.32 11.4734L1344.42 1.14722C1345.62 -0.382072 1347.94 -0.382308 1349.14 1.14722L1356.75 10.8376L1364.35 1.14722C1365.55 -0.382032 1367.87 -0.382348 1369.07 1.14722L1377.17 11.4734L1385.28 1.14722C1386.48 -0.382015 1388.8 -0.382365 1390 1.14722L1397.6 10.8406L1405.21 1.14722C1406.41 -0.382042 1408.73 -0.382576 1409.93 1.14722L1418.03 11.4734L1426.13 1.14722Z" fill="#EEF2F6"/>
</svg>
