<svg width="214" height="54" viewBox="0 0 214 54" fill="none" xmlns="http://www.w3.org/2000/svg">
<rect x="4" y="3.12012" width="206" height="47" fill="#CDECFF"/>
<path d="M64.062 30.2861C64.062 31.4501 63.624 32.4281 62.748 33.2201C61.872 34.0001 60.738 34.3901 59.346 34.3901C58.23 34.3901 57.21 34.1261 56.286 33.5981C55.362 33.0581 54.9 32.4941 54.9 31.9061C54.9 31.5821 55.008 31.3181 55.224 31.1141C55.452 30.8981 55.728 30.7901 56.052 30.7901C56.388 30.7901 56.712 30.9041 57.024 31.1321C57.348 31.3481 57.696 31.5701 58.068 31.7981C58.452 32.0141 58.914 32.1221 59.454 32.1221C60.006 32.1221 60.486 31.9601 60.894 31.6361C61.314 31.3001 61.524 30.8501 61.524 30.2861C61.524 29.6861 61.008 29.0801 59.976 28.4681C59.772 28.3481 59.436 28.1561 58.968 27.8921C58.512 27.6281 58.164 27.4241 57.924 27.2801C57.684 27.1361 57.366 26.9201 56.97 26.6321C56.586 26.3321 56.292 26.0561 56.088 25.8041C55.584 25.1801 55.332 24.5081 55.332 23.7881C55.332 22.8521 55.734 22.0481 56.538 21.3761C57.354 20.6921 58.308 20.3501 59.4 20.3501C60.504 20.3501 61.446 20.5601 62.226 20.9801C63.006 21.4001 63.396 21.8741 63.396 22.4021C63.396 22.7501 63.288 23.0201 63.072 23.2121C62.856 23.4041 62.586 23.5001 62.262 23.5001C61.938 23.5001 61.518 23.3561 61.002 23.0681C60.486 22.7681 60 22.6181 59.544 22.6181C59.1 22.6181 58.71 22.7321 58.374 22.9601C58.05 23.1761 57.888 23.4521 57.888 23.7881C57.888 24.1481 58.116 24.4961 58.572 24.8321C58.932 25.0961 59.4 25.3961 59.976 25.7321C60.564 26.0681 60.984 26.3141 61.236 26.4701C61.488 26.6141 61.824 26.8481 62.244 27.1721C62.676 27.4961 63 27.7901 63.216 28.0541C63.432 28.3181 63.624 28.6481 63.792 29.0441C63.972 29.4401 64.062 29.8541 64.062 30.2861ZM74.7612 25.9661L74.6532 22.4021C74.6532 21.0941 75.1032 20.4401 76.0032 20.4401C76.9152 20.4401 77.3712 21.0941 77.3712 22.4021C77.3712 23.1461 77.3292 24.3041 77.2452 25.8761C77.6052 25.9481 77.8872 26.0981 78.0912 26.3261C78.3072 26.5541 78.4152 26.8241 78.4152 27.1361C78.4152 27.4481 78.3132 27.7181 78.1092 27.9461C77.9052 28.1741 77.6172 28.3121 77.2452 28.3601L77.3712 32.3561C77.3712 33.6521 76.9152 34.3001 76.0032 34.3001C75.1032 34.3001 74.6532 33.6521 74.6532 32.3561L74.7612 28.2701L72.2592 28.2161L69.8292 28.2701L69.9552 32.3561C69.9552 33.6521 69.4992 34.3001 68.5872 34.3001C67.6752 34.3001 67.2192 33.6521 67.2192 32.3561L67.3452 28.3601C66.9732 28.3121 66.6852 28.1741 66.4812 27.9461C66.2892 27.7061 66.1932 27.4361 66.1932 27.1361C66.1932 26.8241 66.2952 26.5541 66.4992 26.3261C66.7152 26.0981 66.9972 25.9481 67.3452 25.8761L67.2372 22.4201C67.2372 21.1121 67.6932 20.4581 68.6052 20.4581C69.5172 20.4581 69.9732 21.1121 69.9732 22.4201C69.9732 23.1881 69.9312 24.3701 69.8472 25.9661L72.2592 26.0201C73.0752 26.0201 73.9092 26.0021 74.7612 25.9661ZM87.0438 32.1221C88.1118 32.1221 88.9998 31.6421 89.7078 30.6821C90.4158 29.7221 90.7698 28.6121 90.7698 27.3521C90.7698 26.0801 90.4158 24.9761 89.7078 24.0401C89.0118 23.0921 88.1238 22.6181 87.0438 22.6181C85.9758 22.6181 85.0878 23.0921 84.3798 24.0401C83.6838 24.9761 83.3358 26.0801 83.3358 27.3521C83.3358 28.6121 83.6898 29.7221 84.3978 30.6821C85.1058 31.6421 85.9878 32.1221 87.0438 32.1221ZM87.0618 20.3501C88.8498 20.3501 90.3378 21.0341 91.5258 22.4021C92.7258 23.7581 93.3258 25.4141 93.3258 27.3701C93.3258 29.3141 92.7258 30.9701 91.5258 32.3381C90.3258 33.7061 88.8318 34.3901 87.0438 34.3901C85.2678 34.3901 83.7798 33.7061 82.5798 32.3381C81.3798 30.9701 80.7798 29.3141 80.7798 27.3701C80.7798 25.4141 81.3798 23.7581 82.5798 22.4021C83.7918 21.0341 85.2858 20.3501 87.0618 20.3501ZM96.5701 32.3561L96.7141 27.4601C96.7141 26.9081 96.6721 25.5821 96.5881 23.4821C96.1561 23.2421 95.9401 22.8581 95.9401 22.3301C95.9401 21.9581 96.1201 21.6341 96.4801 21.3581C96.8401 21.0821 97.2901 20.8721 97.8301 20.7281C98.8381 20.4761 99.7741 20.3501 100.638 20.3501C102.498 20.3501 103.914 20.7941 104.886 21.6821C105.858 22.5581 106.344 23.6321 106.344 24.9041C106.344 26.1761 105.858 27.2561 104.886 28.1441C103.926 29.0321 102.684 29.4761 101.16 29.4761C100.248 29.4761 99.5941 29.4521 99.1981 29.4041L99.3061 32.3561C99.3061 33.6521 98.8501 34.3001 97.9381 34.3001C97.0261 34.3001 96.5701 33.6521 96.5701 32.3561ZM99.1621 27.0281C99.8701 27.1601 100.56 27.2261 101.232 27.2261C101.916 27.2261 102.51 27.0161 103.014 26.5961C103.53 26.1641 103.788 25.6121 103.788 24.9401C103.788 24.2561 103.518 23.7041 102.978 23.2841C102.438 22.8521 101.688 22.6361 100.728 22.6361C100.2 22.6361 99.7081 22.7081 99.2521 22.8521C99.1921 24.3281 99.1621 25.7201 99.1621 27.0281ZM122.737 31.2401L122.827 26.4161C122.827 25.3121 122.647 24.4241 122.287 23.7521C121.927 23.0801 121.399 22.7441 120.703 22.7441C120.007 22.7441 119.299 23.1821 118.579 24.0581C117.859 24.9221 117.355 25.9241 117.067 27.0641L117.175 32.3561C117.175 33.6521 116.725 34.3001 115.825 34.3001C114.817 34.3001 114.313 33.5381 114.313 32.0141C114.313 30.8141 114.469 29.1881 114.781 27.1361C114.781 26.5721 114.715 25.7141 114.583 24.5621C114.451 23.4101 114.385 22.5701 114.385 22.0421C114.385 21.5021 114.505 21.0941 114.745 20.8181C114.985 20.5301 115.321 20.3861 115.753 20.3861C116.629 20.3861 117.067 21.0641 117.067 22.4201C118.111 21.1001 119.365 20.4401 120.829 20.4401C122.305 20.4401 123.433 20.9141 124.213 21.8621C124.993 22.7981 125.383 23.9441 125.383 25.3001L125.275 29.8901C125.275 31.0301 125.347 31.6721 125.491 31.8161C125.575 31.9001 125.701 31.9601 125.869 31.9961C126.037 32.0321 126.175 32.0861 126.283 32.1581C126.391 32.2301 126.445 32.3561 126.445 32.5361C126.445 33.0401 126.271 33.4661 125.923 33.8141C125.587 34.1621 125.191 34.3361 124.735 34.3361C123.979 34.3361 123.457 34.0781 123.169 33.5621C122.881 33.0341 122.737 32.2601 122.737 31.2401ZM135.312 32.1221C136.38 32.1221 137.268 31.6421 137.976 30.6821C138.684 29.7221 139.038 28.6121 139.038 27.3521C139.038 26.0801 138.684 24.9761 137.976 24.0401C137.28 23.0921 136.392 22.6181 135.312 22.6181C134.244 22.6181 133.356 23.0921 132.648 24.0401C131.952 24.9761 131.604 26.0801 131.604 27.3521C131.604 28.6121 131.958 29.7221 132.666 30.6821C133.374 31.6421 134.256 32.1221 135.312 32.1221ZM135.33 20.3501C137.118 20.3501 138.606 21.0341 139.794 22.4021C140.994 23.7581 141.594 25.4141 141.594 27.3701C141.594 29.3141 140.994 30.9701 139.794 32.3381C138.594 33.7061 137.1 34.3901 135.312 34.3901C133.536 34.3901 132.048 33.7061 130.848 32.3381C129.648 30.9701 129.048 29.3141 129.048 27.3701C129.048 25.4141 129.648 23.7581 130.848 22.4021C132.06 21.0341 133.554 20.3501 135.33 20.3501ZM156.052 33.2201C155.908 33.5921 155.722 33.8681 155.494 34.0481C155.278 34.2161 154.978 34.3001 154.594 34.3001C153.898 34.3001 153.4 33.8621 153.1 32.9861C152.944 32.5421 152.764 31.9181 152.56 31.1141C152.092 29.2901 151.822 28.3781 151.75 28.3781C151.69 28.3781 151.558 28.7441 151.354 29.4761C151.15 30.1961 151.018 30.6641 150.958 30.8801C150.754 31.6601 150.538 32.4281 150.31 33.1841C150.082 33.9281 149.596 34.3001 148.852 34.3001C148.108 34.3001 147.622 33.9581 147.394 33.2741C147.238 32.9381 146.812 31.6721 146.116 29.4761C145.42 27.2681 144.934 25.7681 144.658 24.9761C144.382 24.1721 144.184 23.6021 144.064 23.2661C143.8 22.5221 143.668 21.9701 143.668 21.6101C143.668 21.2381 143.782 20.9501 144.01 20.7461C144.238 20.5421 144.526 20.4401 144.874 20.4401C145.522 20.4401 145.978 20.8661 146.242 21.7181C146.494 22.5941 146.92 23.9921 147.52 25.9121C148.432 28.8161 148.912 30.2681 148.96 30.2681C149.056 30.2681 149.392 29.1401 149.968 26.8841L150.256 25.7501C150.532 24.6221 151.018 24.0581 151.714 24.0581C152.158 24.0581 152.5 24.2021 152.74 24.4901C152.98 24.7661 153.172 25.1861 153.316 25.7501C154.144 28.7381 154.606 30.2321 154.702 30.2321C154.822 30.2321 155.638 27.4361 157.15 21.8441C157.414 20.9081 157.816 20.4401 158.356 20.4401C158.764 20.4401 159.076 20.5661 159.292 20.8181C159.508 21.0581 159.616 21.3041 159.616 21.5561C159.616 21.8081 159.58 22.0901 159.508 22.4021C159.436 22.7021 159.352 22.9901 159.256 23.2661C159.172 23.5301 159.034 23.9501 158.842 24.5261C158.65 25.0901 158.458 25.6661 158.266 26.2541C158.086 26.8421 157.828 27.6581 157.492 28.7021C156.796 30.9101 156.316 32.4161 156.052 33.2201Z" fill="#06387F"/>
<path d="M1.61328 6.93848C2.16557 6.93848 2.61328 7.38619 2.61328 7.93848V51.5244C2.65142 51.52 2.69017 51.5176 2.72949 51.5176H213C213.552 51.5176 214 51.9653 214 52.5176C214 53.0696 213.552 53.5176 213 53.5176H2.72949C2.52261 53.5176 2.3304 53.4543 2.1709 53.3467C2.01154 53.454 1.81986 53.5176 1.61328 53.5176C1.06118 53.5176 0.613578 53.0696 0.613281 52.5176V7.93848C0.613281 7.38619 1.061 6.93848 1.61328 6.93848ZM211.81 0C211.957 7.04777e-05 212.097 0.0334264 212.223 0.0908203H212.262C212.814 0.0908203 213.262 0.538536 213.262 1.09082C213.261 1.44045 213.082 1.74821 212.81 1.92676V50.5078L212.805 50.6094C212.753 51.1134 212.327 51.5076 211.81 51.5078C211.292 51.5078 210.866 51.1136 210.814 50.6094L210.81 50.5078V2.09082H1C0.44798 2.09082 0.000428571 1.64274 0 1.09082C0 0.538536 0.447715 0.0908203 1 0.0908203H211.396C211.522 0.033363 211.662 0 211.81 0Z" fill="#06387F"/>
</svg>
