<svg width="232" height="54" viewBox="0 0 232 54" fill="none" xmlns="http://www.w3.org/2000/svg">
<rect x="17" y="3.12012" width="206" height="47" fill="#9AFFDD"/>
<path d="M45.138 31.9241L47.604 31.8161C48.06 31.8161 48.42 31.9241 48.684 32.1401C48.96 32.3441 49.098 32.6321 49.098 33.0041C49.098 33.3761 48.96 33.6761 48.684 33.9041C48.42 34.1201 48.06 34.2281 47.604 34.2281L45.138 34.1201L42.42 34.2281C41.976 34.2281 41.604 34.0841 41.304 33.7961C41.016 33.5081 40.872 33.1241 40.872 32.6441L40.98 27.2801L40.836 22.4021C40.836 21.0941 41.292 20.4401 42.204 20.4401C43.116 20.4401 43.572 21.0941 43.572 22.4021L43.428 27.2801C43.428 27.8921 43.47 29.4281 43.554 31.8881C44.178 31.9121 44.706 31.9241 45.138 31.9241ZM56.2931 34.1201L53.5571 34.2281C53.1131 34.2281 52.7411 34.0841 52.4411 33.7961C52.1531 33.5081 52.0091 33.1241 52.0091 32.6441L52.1171 28.1261C51.3731 28.0181 51.0011 27.6281 51.0011 26.9561C51.0011 26.6321 51.1031 26.3681 51.3071 26.1641C51.5111 25.9601 51.7751 25.8281 52.0991 25.7681L52.0091 22.4741C51.8771 22.2221 51.8111 21.9281 51.8111 21.5921C51.8111 20.8721 52.3811 20.5121 53.5211 20.5121L56.2571 20.6201L59.0831 20.5121C59.5391 20.5121 59.8991 20.6261 60.1631 20.8541C60.4391 21.0701 60.5771 21.3641 60.5771 21.7361C60.5771 22.1081 60.4391 22.4021 60.1631 22.6181C59.8991 22.8221 59.5391 22.9241 59.0831 22.9241L56.2571 22.8161C55.6091 22.8161 55.0451 22.8341 54.5651 22.8701V25.8581C54.7571 25.8701 55.0151 25.8761 55.3391 25.8761L58.2371 25.7501C58.6691 25.7501 59.0231 25.8641 59.2991 26.0921C59.5751 26.3081 59.7131 26.6021 59.7131 26.9741C59.7131 27.3341 59.5751 27.6221 59.2991 27.8381C59.0231 28.0421 58.6691 28.1441 58.2371 28.1441L55.3931 28.0361H55.1411C54.9731 28.0481 54.7811 28.0541 54.5651 28.0541C54.5651 29.7221 54.5771 31.0001 54.6011 31.8881C54.9251 31.9121 55.4891 31.9241 56.2931 31.9241L59.1191 31.8161C59.5751 31.8161 59.9351 31.9241 60.1991 32.1401C60.4751 32.3441 60.6131 32.6321 60.6131 33.0041C60.6131 33.3761 60.4751 33.6761 60.1991 33.9041C59.9351 34.1201 59.5751 34.2281 59.1191 34.2281L56.2931 34.1201ZM68.5314 27.4601L68.6754 32.3561C68.6754 33.6521 68.2194 34.3001 67.3074 34.3001C66.3954 34.3001 65.9394 33.6521 65.9394 32.3561L66.0834 27.4601C66.0834 26.4761 66.0414 24.9281 65.9574 22.8161L63.8154 22.9241C63.3594 22.9241 62.9934 22.8161 62.7174 22.6001C62.4534 22.3841 62.3214 22.0901 62.3214 21.7181C62.3214 21.3461 62.4534 21.0521 62.7174 20.8361C62.9934 20.6201 63.3594 20.5121 63.8154 20.5121L67.2354 20.6201L70.6554 20.5121C71.1114 20.5121 71.4714 20.6201 71.7354 20.8361C72.0114 21.0521 72.1494 21.3461 72.1494 21.7181C72.1494 22.0901 72.0114 22.3841 71.7354 22.6001C71.4714 22.8161 71.1114 22.9241 70.6554 22.9241L68.6214 22.8161C68.5614 24.4001 68.5314 25.9481 68.5314 27.4601ZM74.3718 23.3561L74.1918 21.9881C74.1918 21.5801 74.3238 21.2201 74.5878 20.9081C74.8638 20.5961 75.2058 20.4401 75.6138 20.4401C76.0338 20.4401 76.3638 20.5841 76.6038 20.8721C76.8438 21.1601 76.9638 21.5081 76.9638 21.9161C76.9638 22.7321 76.7058 23.5721 76.1898 24.4361C75.6738 25.3001 75.1998 25.7321 74.7678 25.7321C74.4918 25.7321 74.2878 25.6481 74.1558 25.4801C74.0238 25.3121 73.9578 25.1321 73.9578 24.9401C73.9578 24.7481 74.0238 24.4961 74.1558 24.1841C74.2998 23.8721 74.3718 23.5961 74.3718 23.3561ZM88.3125 30.2861C88.3125 31.4501 87.8745 32.4281 86.9985 33.2201C86.1225 34.0001 84.9885 34.3901 83.5965 34.3901C82.4805 34.3901 81.4605 34.1261 80.5365 33.5981C79.6125 33.0581 79.1505 32.4941 79.1505 31.9061C79.1505 31.5821 79.2585 31.3181 79.4745 31.1141C79.7025 30.8981 79.9785 30.7901 80.3025 30.7901C80.6385 30.7901 80.9625 30.9041 81.2745 31.1321C81.5985 31.3481 81.9465 31.5701 82.3185 31.7981C82.7025 32.0141 83.1645 32.1221 83.7045 32.1221C84.2565 32.1221 84.7365 31.9601 85.1445 31.6361C85.5645 31.3001 85.7745 30.8501 85.7745 30.2861C85.7745 29.6861 85.2585 29.0801 84.2265 28.4681C84.0225 28.3481 83.6865 28.1561 83.2185 27.8921C82.7625 27.6281 82.4145 27.4241 82.1745 27.2801C81.9345 27.1361 81.6165 26.9201 81.2205 26.6321C80.8365 26.3321 80.5425 26.0561 80.3385 25.8041C79.8345 25.1801 79.5825 24.5081 79.5825 23.7881C79.5825 22.8521 79.9845 22.0481 80.7885 21.3761C81.6045 20.6921 82.5585 20.3501 83.6505 20.3501C84.7545 20.3501 85.6965 20.5601 86.4765 20.9801C87.2565 21.4001 87.6465 21.8741 87.6465 22.4021C87.6465 22.7501 87.5385 23.0201 87.3225 23.2121C87.1065 23.4041 86.8365 23.5001 86.5125 23.5001C86.1885 23.5001 85.7685 23.3561 85.2525 23.0681C84.7365 22.7681 84.2505 22.6181 83.7945 22.6181C83.3505 22.6181 82.9605 22.7321 82.6245 22.9601C82.3005 23.1761 82.1385 23.4521 82.1385 23.7881C82.1385 24.1481 82.3665 24.4961 82.8225 24.8321C83.1825 25.0961 83.6505 25.3961 84.2265 25.7321C84.8145 26.0681 85.2345 26.3141 85.4865 26.4701C85.7385 26.6141 86.0745 26.8481 86.4945 27.1721C86.9265 27.4961 87.2505 27.7901 87.4665 28.0541C87.6825 28.3181 87.8745 28.6481 88.0425 29.0441C88.2225 29.4401 88.3125 29.8541 88.3125 30.2861ZM105.626 30.2861C105.626 31.4501 105.188 32.4281 104.312 33.2201C103.436 34.0001 102.302 34.3901 100.91 34.3901C99.7943 34.3901 98.7743 34.1261 97.8503 33.5981C96.9263 33.0581 96.4643 32.4941 96.4643 31.9061C96.4643 31.5821 96.5723 31.3181 96.7883 31.1141C97.0163 30.8981 97.2923 30.7901 97.6163 30.7901C97.9523 30.7901 98.2763 30.9041 98.5883 31.1321C98.9123 31.3481 99.2603 31.5701 99.6323 31.7981C100.016 32.0141 100.478 32.1221 101.018 32.1221C101.57 32.1221 102.05 31.9601 102.458 31.6361C102.878 31.3001 103.088 30.8501 103.088 30.2861C103.088 29.6861 102.572 29.0801 101.54 28.4681C101.336 28.3481 101 28.1561 100.532 27.8921C100.076 27.6281 99.7283 27.4241 99.4883 27.2801C99.2483 27.1361 98.9303 26.9201 98.5343 26.6321C98.1503 26.3321 97.8563 26.0561 97.6523 25.8041C97.1483 25.1801 96.8963 24.5081 96.8963 23.7881C96.8963 22.8521 97.2983 22.0481 98.1023 21.3761C98.9183 20.6921 99.8723 20.3501 100.964 20.3501C102.068 20.3501 103.01 20.5601 103.79 20.9801C104.57 21.4001 104.96 21.8741 104.96 22.4021C104.96 22.7501 104.852 23.0201 104.636 23.2121C104.42 23.4041 104.15 23.5001 103.826 23.5001C103.502 23.5001 103.082 23.3561 102.566 23.0681C102.05 22.7681 101.564 22.6181 101.108 22.6181C100.664 22.6181 100.274 22.7321 99.9383 22.9601C99.6143 23.1761 99.4523 23.4521 99.4523 23.7881C99.4523 24.1481 99.6803 24.4961 100.136 24.8321C100.496 25.0961 100.964 25.3961 101.54 25.7321C102.128 26.0681 102.548 26.3141 102.8 26.4701C103.052 26.6141 103.388 26.8481 103.808 27.1721C104.24 27.4961 104.564 27.7901 104.78 28.0541C104.996 28.3181 105.188 28.6481 105.356 29.0441C105.536 29.4401 105.626 29.8541 105.626 30.2861ZM116.325 25.9661L116.217 22.4021C116.217 21.0941 116.667 20.4401 117.567 20.4401C118.479 20.4401 118.935 21.0941 118.935 22.4021C118.935 23.1461 118.893 24.3041 118.809 25.8761C119.169 25.9481 119.451 26.0981 119.655 26.3261C119.871 26.5541 119.979 26.8241 119.979 27.1361C119.979 27.4481 119.877 27.7181 119.673 27.9461C119.469 28.1741 119.181 28.3121 118.809 28.3601L118.935 32.3561C118.935 33.6521 118.479 34.3001 117.567 34.3001C116.667 34.3001 116.217 33.6521 116.217 32.3561L116.325 28.2701L113.823 28.2161L111.393 28.2701L111.519 32.3561C111.519 33.6521 111.063 34.3001 110.151 34.3001C109.239 34.3001 108.783 33.6521 108.783 32.3561L108.909 28.3601C108.537 28.3121 108.249 28.1741 108.045 27.9461C107.853 27.7061 107.757 27.4361 107.757 27.1361C107.757 26.8241 107.859 26.5541 108.063 26.3261C108.279 26.0981 108.561 25.9481 108.909 25.8761L108.801 22.4201C108.801 21.1121 109.257 20.4581 110.169 20.4581C111.081 20.4581 111.537 21.1121 111.537 22.4201C111.537 23.1881 111.495 24.3701 111.411 25.9661L113.823 26.0201C114.639 26.0201 115.473 26.0021 116.325 25.9661ZM128.608 32.1221C129.676 32.1221 130.564 31.6421 131.272 30.6821C131.98 29.7221 132.334 28.6121 132.334 27.3521C132.334 26.0801 131.98 24.9761 131.272 24.0401C130.576 23.0921 129.688 22.6181 128.608 22.6181C127.54 22.6181 126.652 23.0921 125.944 24.0401C125.248 24.9761 124.9 26.0801 124.9 27.3521C124.9 28.6121 125.254 29.7221 125.962 30.6821C126.67 31.6421 127.552 32.1221 128.608 32.1221ZM128.626 20.3501C130.414 20.3501 131.902 21.0341 133.09 22.4021C134.29 23.7581 134.89 25.4141 134.89 27.3701C134.89 29.3141 134.29 30.9701 133.09 32.3381C131.89 33.7061 130.396 34.3901 128.608 34.3901C126.832 34.3901 125.344 33.7061 124.144 32.3381C122.944 30.9701 122.344 29.3141 122.344 27.3701C122.344 25.4141 122.944 23.7581 124.144 22.4021C125.356 21.0341 126.85 20.3501 128.626 20.3501ZM138.134 32.3561L138.278 27.4601C138.278 26.9081 138.236 25.5821 138.152 23.4821C137.72 23.2421 137.504 22.8581 137.504 22.3301C137.504 21.9581 137.684 21.6341 138.044 21.3581C138.404 21.0821 138.854 20.8721 139.394 20.7281C140.402 20.4761 141.338 20.3501 142.202 20.3501C144.062 20.3501 145.478 20.7941 146.45 21.6821C147.422 22.5581 147.908 23.6321 147.908 24.9041C147.908 26.1761 147.422 27.2561 146.45 28.1441C145.49 29.0321 144.248 29.4761 142.724 29.4761C141.812 29.4761 141.158 29.4521 140.762 29.4041L140.87 32.3561C140.87 33.6521 140.414 34.3001 139.502 34.3001C138.59 34.3001 138.134 33.6521 138.134 32.3561ZM140.726 27.0281C141.434 27.1601 142.124 27.2261 142.796 27.2261C143.48 27.2261 144.074 27.0161 144.578 26.5961C145.094 26.1641 145.352 25.6121 145.352 24.9401C145.352 24.2561 145.082 23.7041 144.542 23.2841C144.002 22.8521 143.252 22.6361 142.292 22.6361C141.764 22.6361 141.272 22.7081 140.816 22.8521C140.756 24.3281 140.726 25.7201 140.726 27.0281ZM166.371 27.2801L166.425 32.6801C166.425 33.7601 165.975 34.3001 165.075 34.3001C164.547 34.3001 164.133 34.0541 163.833 33.5621L159.117 25.6601C159.093 25.9481 159.081 26.4281 159.081 27.1001L159.207 32.3561C159.207 33.6521 158.751 34.3001 157.839 34.3001C156.927 34.3001 156.471 33.6521 156.471 32.3561L156.615 27.4601C156.615 27.0161 156.591 26.2061 156.543 25.0301C156.495 23.8541 156.471 22.8581 156.471 22.0421C156.471 20.9741 156.915 20.4401 157.803 20.4401C158.415 20.4401 158.859 20.6801 159.135 21.1601L163.941 29.4041L163.923 27.2801L163.779 22.3841C163.779 21.0881 164.235 20.4401 165.147 20.4401C166.059 20.4401 166.515 21.0881 166.515 22.3841L166.371 27.2801ZM176.103 32.1221C177.171 32.1221 178.059 31.6421 178.767 30.6821C179.475 29.7221 179.829 28.6121 179.829 27.3521C179.829 26.0801 179.475 24.9761 178.767 24.0401C178.071 23.0921 177.183 22.6181 176.103 22.6181C175.035 22.6181 174.147 23.0921 173.439 24.0401C172.743 24.9761 172.395 26.0801 172.395 27.3521C172.395 28.6121 172.749 29.7221 173.457 30.6821C174.165 31.6421 175.047 32.1221 176.103 32.1221ZM176.121 20.3501C177.909 20.3501 179.397 21.0341 180.585 22.4021C181.785 23.7581 182.385 25.4141 182.385 27.3701C182.385 29.3141 181.785 30.9701 180.585 32.3381C179.385 33.7061 177.891 34.3901 176.103 34.3901C174.327 34.3901 172.839 33.7061 171.639 32.3381C170.439 30.9701 169.839 29.3141 169.839 27.3701C169.839 25.4141 170.439 23.7581 171.639 22.4021C172.851 21.0341 174.345 20.3501 176.121 20.3501ZM196.843 33.2201C196.699 33.5921 196.513 33.8681 196.285 34.0481C196.069 34.2161 195.769 34.3001 195.385 34.3001C194.689 34.3001 194.191 33.8621 193.891 32.9861C193.735 32.5421 193.555 31.9181 193.351 31.1141C192.883 29.2901 192.613 28.3781 192.541 28.3781C192.481 28.3781 192.349 28.7441 192.145 29.4761C191.941 30.1961 191.809 30.6641 191.749 30.8801C191.545 31.6601 191.329 32.4281 191.101 33.1841C190.873 33.9281 190.387 34.3001 189.643 34.3001C188.899 34.3001 188.413 33.9581 188.185 33.2741C188.029 32.9381 187.603 31.6721 186.907 29.4761C186.211 27.2681 185.725 25.7681 185.449 24.9761C185.173 24.1721 184.975 23.6021 184.855 23.2661C184.591 22.5221 184.459 21.9701 184.459 21.6101C184.459 21.2381 184.573 20.9501 184.801 20.7461C185.029 20.5421 185.317 20.4401 185.665 20.4401C186.313 20.4401 186.769 20.8661 187.033 21.7181C187.285 22.5941 187.711 23.9921 188.311 25.9121C189.223 28.8161 189.703 30.2681 189.751 30.2681C189.847 30.2681 190.183 29.1401 190.759 26.8841L191.047 25.7501C191.323 24.6221 191.809 24.0581 192.505 24.0581C192.949 24.0581 193.291 24.2021 193.531 24.4901C193.771 24.7661 193.963 25.1861 194.107 25.7501C194.935 28.7381 195.397 30.2321 195.493 30.2321C195.613 30.2321 196.429 27.4361 197.941 21.8441C198.205 20.9081 198.607 20.4401 199.147 20.4401C199.555 20.4401 199.867 20.5661 200.083 20.8181C200.299 21.0581 200.407 21.3041 200.407 21.5561C200.407 21.8081 200.371 22.0901 200.299 22.4021C200.227 22.7021 200.143 22.9901 200.047 23.2661C199.963 23.5301 199.825 23.9501 199.633 24.5261C199.441 25.0901 199.249 25.6661 199.057 26.2541C198.877 26.8421 198.619 27.6581 198.283 28.7021C197.587 30.9101 197.107 32.4161 196.843 33.2201Z" fill="#06387F"/>
<path d="M14.6123 6.93848C15.1646 6.93848 15.6123 7.38619 15.6123 7.93848V51.5244C15.6504 51.52 15.6892 51.5176 15.7285 51.5176H230.372L230.475 51.5225C230.979 51.5737 231.372 51.9998 231.372 52.5176C231.372 53.0351 230.979 53.4615 230.475 53.5127L230.372 53.5176H15.7285C15.5216 53.5176 15.3294 53.4543 15.1699 53.3467C15.0106 53.454 14.8189 53.5176 14.6123 53.5176C14.0602 53.5176 13.6126 53.0696 13.6123 52.5176V7.93848C13.6123 7.38619 14.06 6.93848 14.6123 6.93848ZM224.809 0C224.956 7.04777e-05 225.096 0.0334264 225.222 0.0908203H225.262C225.814 0.0913069 226.262 0.538836 226.262 1.09082C226.261 1.44051 226.081 1.74823 225.809 1.92676V50.5078L225.804 50.6094C225.752 51.1134 225.326 51.5076 224.809 51.5078C224.291 51.5078 223.865 51.1136 223.813 50.6094L223.809 50.5078V2.09082H1.00098C0.448956 2.09082 0.000428892 1.64274 0 1.09082C0 0.538536 0.448692 0.0908203 1.00098 0.0908203H224.395C224.521 0.033363 224.661 0 224.809 0Z" fill="white"/>
</svg>
