<svg width="91" height="23" viewBox="0 0 91 23" fill="none" xmlns="http://www.w3.org/2000/svg">
<path d="M5.094 5.472C5.982 5.472 6.87 5.604 7.758 5.868C7.926 5.916 8.01 6.024 8.01 6.192V8.676C8.01 8.856 7.92 8.946 7.74 8.946H6.732C6.552 8.946 6.468 8.856 6.48 8.676L6.534 7.47C6.054 7.182 5.52 7.038 4.932 7.038C4.344 7.038 3.87 7.182 3.51 7.47C3.162 7.746 2.988 8.136 2.988 8.64C2.988 9.144 3.15 9.558 3.474 9.882C3.798 10.194 4.26 10.464 4.86 10.692C5.46 10.92 5.862 11.076 6.066 11.16C6.27 11.244 6.564 11.4 6.948 11.628C7.344 11.856 7.632 12.084 7.812 12.312C8.004 12.528 8.178 12.822 8.334 13.194C8.502 13.566 8.586 13.98 8.586 14.436C8.586 15.624 8.208 16.554 7.452 17.226C6.708 17.886 5.646 18.216 4.266 18.216C3.246 18.216 2.238 18.06 1.242 17.748C1.074 17.7 0.99 17.592 0.99 17.424V14.562C0.99 14.382 1.08 14.292 1.26 14.292H2.268C2.448 14.292 2.532 14.382 2.52 14.562L2.448 16.056C2.604 16.2 2.862 16.338 3.222 16.47C3.594 16.59 3.972 16.65 4.356 16.65C5.844 16.65 6.588 16.044 6.588 14.832C6.588 14.244 6.39 13.782 5.994 13.446C5.598 13.098 5.082 12.822 4.446 12.618C3.822 12.402 3.348 12.216 3.024 12.06C2.7 11.892 2.37 11.676 2.034 11.412C1.362 10.908 1.026 10.134 1.026 9.09C1.026 8.046 1.386 7.182 2.106 6.498C2.826 5.814 3.822 5.472 5.094 5.472ZM13.9068 16.578H15.0408C15.2208 16.578 15.3108 16.668 15.3108 16.848V17.73C15.3108 17.91 15.2208 18 15.0408 18H10.7568C10.5768 18 10.4868 17.91 10.4868 17.73V16.848C10.4868 16.668 10.5768 16.578 10.7568 16.578C10.7568 16.578 11.1348 16.578 11.8908 16.578V10.566H10.9188C10.7388 10.566 10.6488 10.476 10.6488 10.296V9.36C10.6488 9.18 10.7388 9.09 10.9188 9.09H13.6368C13.8168 9.09 13.9068 9.18 13.9068 9.36V16.578ZM11.7288 7.488C11.5008 7.248 11.3868 6.942 11.3868 6.57C11.3868 6.198 11.5008 5.892 11.7288 5.652C11.9688 5.4 12.2808 5.274 12.6648 5.274C13.0608 5.274 13.3728 5.4 13.6008 5.652C13.8408 5.892 13.9608 6.198 13.9608 6.57C13.9608 6.942 13.8408 7.248 13.6008 7.488C13.3608 7.728 13.0428 7.848 12.6468 7.848C12.2628 7.848 11.9568 7.728 11.7288 7.488ZM23.9858 15.462L23.9678 17.73C23.9678 17.91 23.8778 18 23.6978 18H17.2898C17.1098 18 17.0198 17.91 17.0198 17.73V16.686C17.0198 16.506 17.0738 16.344 17.1818 16.2L21.6638 10.53H18.6758L18.7118 11.484C18.7238 11.664 18.6398 11.754 18.4598 11.754H17.4698C17.2898 11.754 17.1998 11.664 17.1998 11.484V9.36C17.1998 9.18 17.2898 9.09 17.4698 9.09H23.6438C23.8238 9.09 23.9138 9.18 23.9138 9.36V10.368C23.9138 10.548 23.8598 10.71 23.7518 10.854L19.1618 16.596H22.4918L22.4558 15.462C22.4438 15.282 22.5278 15.192 22.7078 15.192H23.7158C23.8958 15.192 23.9858 15.282 23.9858 15.462ZM30.1985 18.216C28.7705 18.216 27.7205 17.802 27.0485 16.974C26.3885 16.134 26.0585 15.03 26.0585 13.662C26.0585 12.282 26.4125 11.142 27.1205 10.242C27.8285 9.342 28.8485 8.892 30.1805 8.892C30.8405 8.892 31.4045 9.018 31.8725 9.27C32.3525 9.51 32.7185 9.84 32.9705 10.26C33.4505 11.076 33.6905 12.018 33.6905 13.086C33.6905 13.59 33.6665 13.866 33.6185 13.914C33.5705 13.962 33.4805 13.986 33.3485 13.986H28.0565C28.1165 14.85 28.3265 15.522 28.6865 16.002C29.0585 16.47 29.6945 16.704 30.5945 16.704C31.2545 16.704 31.9325 16.548 32.6285 16.236C32.7965 16.152 32.9165 16.2 32.9885 16.38L33.3305 17.208C33.3905 17.352 33.3365 17.472 33.1685 17.568C32.3765 18 31.3865 18.216 30.1985 18.216ZM28.0565 12.654H31.8005C31.8245 11.154 31.2365 10.404 30.0365 10.404C29.3285 10.404 28.8245 10.632 28.5245 11.088C28.2365 11.532 28.0805 12.054 28.0565 12.654ZM50.5647 13.788V16.848C50.5647 17.016 50.4807 17.142 50.3127 17.226C49.7967 17.502 49.1547 17.736 48.3867 17.928C47.6307 18.12 46.8267 18.216 45.9747 18.216C45.1347 18.216 44.3307 18.054 43.5627 17.73C42.7947 17.406 42.1827 16.95 41.7267 16.362C40.8507 15.21 40.4127 13.71 40.4127 11.862C40.4127 10.734 40.5807 9.744 40.9167 8.892C41.2647 8.028 41.7207 7.356 42.2847 6.876C43.3887 5.94 44.6547 5.472 46.0827 5.472C47.5227 5.472 48.7587 5.79 49.7907 6.426C49.9587 6.522 50.0427 6.654 50.0427 6.822V9.072C50.0427 9.252 49.9527 9.342 49.7727 9.342H48.7467C48.5667 9.342 48.4827 9.252 48.4947 9.072L48.5487 7.866C47.7927 7.326 46.9707 7.056 46.0827 7.056C45.2067 7.056 44.4987 7.278 43.9587 7.722C43.4307 8.154 43.0647 8.694 42.8607 9.342C42.6687 9.978 42.5727 10.752 42.5727 11.664C42.5727 12.564 42.6807 13.374 42.8967 14.094C43.1247 14.814 43.5267 15.414 44.1027 15.894C44.6907 16.374 45.4467 16.614 46.3707 16.614C47.3067 16.614 48.0867 16.404 48.7107 15.984V13.788H47.5587C47.3787 13.788 47.2887 13.698 47.2887 13.518V12.618C47.2887 12.438 47.3787 12.348 47.5587 12.348H51.5187C51.6987 12.348 51.7887 12.438 51.7887 12.618V13.518C51.7887 13.698 51.6987 13.788 51.5187 13.788H50.5647ZM61.8827 16.578H62.6747C62.8547 16.578 62.9447 16.668 62.9447 16.848V17.73C62.9447 17.91 62.8547 18 62.6747 18H60.6587C60.5147 18 60.4247 17.91 60.3887 17.73L60.2267 16.722C59.4587 17.718 58.4507 18.216 57.2027 18.216C55.2587 18.216 54.2867 17.196 54.2867 15.156V10.566H53.3327C53.1527 10.566 53.0627 10.476 53.0627 10.296V9.36C53.0627 9.18 53.1527 9.09 53.3327 9.09H56.0327C56.2127 9.09 56.3027 9.18 56.3027 9.36V14.616C56.3027 15.336 56.3927 15.852 56.5727 16.164C56.7647 16.464 57.1607 16.614 57.7607 16.614C58.3727 16.614 58.8767 16.434 59.2727 16.074C59.6687 15.714 59.8667 15.306 59.8667 14.85V10.566H58.7327C58.5527 10.566 58.4627 10.476 58.4627 10.296V9.36C58.4627 9.18 58.5527 9.09 58.7327 9.09H61.6127C61.7927 9.09 61.8827 9.18 61.8827 9.36V16.578ZM68.0861 16.578H69.2201C69.4001 16.578 69.4901 16.668 69.4901 16.848V17.73C69.4901 17.91 69.4001 18 69.2201 18H64.9361C64.7561 18 64.6661 17.91 64.6661 17.73V16.848C64.6661 16.668 64.7561 16.578 64.9361 16.578C64.9361 16.578 65.3141 16.578 66.0701 16.578V10.566H65.0981C64.9181 10.566 64.8281 10.476 64.8281 10.296V9.36C64.8281 9.18 64.9181 9.09 65.0981 9.09H67.8161C67.9961 9.09 68.0861 9.18 68.0861 9.36V16.578ZM65.9081 7.488C65.6801 7.248 65.5661 6.942 65.5661 6.57C65.5661 6.198 65.6801 5.892 65.9081 5.652C66.1481 5.4 66.4601 5.274 66.8441 5.274C67.2401 5.274 67.5521 5.4 67.7801 5.652C68.0201 5.892 68.1401 6.198 68.1401 6.57C68.1401 6.942 68.0201 7.248 67.7801 7.488C67.5401 7.728 67.2221 7.848 66.8261 7.848C66.4421 7.848 66.1361 7.728 65.9081 7.488ZM79.4791 16.578H80.2531C80.4331 16.578 80.5231 16.668 80.5231 16.848V17.73C80.5231 17.91 80.4331 18 80.2531 18H78.2191C78.0631 18 77.9731 17.91 77.9491 17.73L77.8051 16.668C77.1931 17.7 76.2151 18.216 74.8711 18.216C73.6951 18.216 72.7891 17.85 72.1531 17.118C71.5171 16.374 71.1991 15.228 71.1991 13.68C71.1991 12.12 71.5651 10.932 72.2971 10.116C73.0411 9.3 73.9951 8.892 75.1591 8.892C75.6871 8.892 76.1551 8.994 76.5631 9.198C76.9711 9.39 77.2711 9.624 77.4631 9.9V6.066H76.5091C76.3291 6.066 76.2391 5.976 76.2391 5.796V4.842C76.2391 4.662 76.3291 4.572 76.5091 4.572H79.2091C79.3891 4.572 79.4791 4.662 79.4791 4.842V16.578ZM77.4631 14.616V11.448C77.3071 11.208 77.0311 10.986 76.6351 10.782C76.2511 10.578 75.8611 10.476 75.4651 10.476C73.9771 10.476 73.2331 11.484 73.2331 13.5C73.2331 15.048 73.5691 16.014 74.2411 16.398C74.5291 16.566 74.9251 16.65 75.4291 16.65C75.9331 16.65 76.3951 16.464 76.8151 16.092C77.2471 15.72 77.4631 15.228 77.4631 14.616ZM86.7333 18.216C85.3053 18.216 84.2553 17.802 83.5833 16.974C82.9233 16.134 82.5933 15.03 82.5933 13.662C82.5933 12.282 82.9473 11.142 83.6553 10.242C84.3633 9.342 85.3833 8.892 86.7153 8.892C87.3753 8.892 87.9393 9.018 88.4073 9.27C88.8873 9.51 89.2533 9.84 89.5053 10.26C89.9853 11.076 90.2253 12.018 90.2253 13.086C90.2253 13.59 90.2013 13.866 90.1533 13.914C90.1053 13.962 90.0153 13.986 89.8833 13.986H84.5913C84.6513 14.85 84.8613 15.522 85.2213 16.002C85.5933 16.47 86.2293 16.704 87.1293 16.704C87.7893 16.704 88.4673 16.548 89.1633 16.236C89.3313 16.152 89.4513 16.2 89.5233 16.38L89.8653 17.208C89.9253 17.352 89.8713 17.472 89.7033 17.568C88.9113 18 87.9213 18.216 86.7333 18.216ZM84.5913 12.654H88.3353C88.3593 11.154 87.7713 10.404 86.5713 10.404C85.8633 10.404 85.3593 10.632 85.0593 11.088C84.7713 11.532 84.6153 12.054 84.5913 12.654Z" fill="#06387F"/>
</svg>
