<svg width="464" height="25" viewBox="0 0 464 25" fill="none" xmlns="http://www.w3.org/2000/svg">
<path fill-rule="evenodd" clip-rule="evenodd" d="M207.856 6.24121C208.408 6.24148 208.856 6.68921 208.856 7.24121C208.856 7.79333 208.408 8.24094 207.856 8.24121C137.526 8.24121 69.264 8.24152 35.1328 8.25488C18.0684 8.26156 9.5359 8.27083 5.27051 8.28223C3.13738 8.28793 2.0741 8.29456 1.5459 8.30078C1.32444 8.30339 1.20652 8.30557 1.14648 8.30762C1.09906 8.31454 1.05031 8.3193 1.00098 8.31934C0.448692 8.31934 0 7.87162 0 7.31934V7.2998C0.000261994 7.28685 0.00182982 7.26516 0.00390625 7.23926C0.00817471 7.1863 0.0189069 7.10584 0.0488281 7.0127C0.116988 6.80083 0.246384 6.63834 0.387695 6.52832C0.592163 6.36946 0.806919 6.33507 0.818359 6.33301C0.907656 6.31572 0.994798 6.31272 1.01953 6.31152C1.10728 6.30731 1.25878 6.30389 1.52246 6.30078C2.06118 6.29443 3.13272 6.28792 5.26465 6.28223C9.53252 6.27083 18.0671 6.26156 35.1318 6.25488C69.2634 6.24152 137.526 6.24121 207.856 6.24121ZM254.68 4.39258C254.739 4.39466 254.858 4.39772 255.086 4.40039C255.618 4.40662 256.687 4.41227 258.834 4.41797C263.127 4.42936 271.715 4.43961 288.893 4.44629C323.247 4.45965 391.957 4.45898 462.749 4.45898C463.301 4.45898 463.749 4.90692 463.749 5.45898C463.749 6.01104 463.301 6.45898 462.749 6.45898C391.957 6.45898 323.247 6.45965 288.892 6.44629C271.715 6.43961 263.125 6.42937 258.829 6.41797C256.683 6.41227 255.605 6.40674 255.062 6.40039C254.797 6.39728 254.645 6.39386 254.557 6.38965C254.532 6.38845 254.445 6.3843 254.356 6.36719C254.349 6.36577 254.133 6.33395 253.927 6.1748C253.785 6.06549 253.655 5.90246 253.586 5.68945C253.556 5.59604 253.544 5.5152 253.54 5.46191C253.538 5.43603 253.537 5.41442 253.537 5.40137V5.38086C253.537 4.82857 253.985 4.37988 254.537 4.37988C254.586 4.37988 254.633 4.38591 254.68 4.39258Z" fill="#2F4074"/>
<path d="M241.559 9.94043C242.43 9.71632 243.183 10.0237 243.605 10.2969C244.256 10.7175 244.683 11.4392 244.984 12.1533C245.297 12.8956 245.538 13.7875 245.731 14.7275C246.02 16.1273 245.752 17.128 245.301 18.2656L245.295 18.2822L245.287 18.2988C244.717 19.5956 244.233 20.7037 243.885 21.543C243.71 21.9632 243.574 22.3069 243.479 22.5674C243.397 22.7917 243.363 22.9045 243.354 22.9404C243.347 23.0605 243.336 23.2849 243.312 23.4658C243.297 23.581 243.272 23.7283 243.225 23.8779C243.181 24.0143 243.09 24.244 242.891 24.4443L242.593 24.7441L242.17 24.7393C241.825 24.735 241.477 24.6317 241.185 24.5225C240.875 24.4069 240.542 24.2505 240.203 24.0742C239.526 23.7217 238.752 23.2517 237.986 22.7744C236.393 21.781 234.894 20.7989 233.992 20.4229C233.061 20.0349 232.594 19.55 232.326 19.1436C232.176 18.9149 232.11 18.6724 232.076 18.4902C232.041 18.3 232.028 18.1051 232.024 17.9277C232.018 17.581 232.044 17.1763 232.063 16.8281C232.12 15.8194 232.901 15.1678 233.484 14.8076C234.123 14.4135 234.88 14.1445 235.483 13.9883C236.46 13.7353 237.249 13.7928 237.897 13.9824C237.874 13.823 237.854 13.6733 237.84 13.54C237.811 13.2714 237.792 12.9735 237.821 12.6943C237.849 12.4322 237.935 12.0236 238.261 11.7002C239.331 10.6395 240.616 10.1829 241.559 9.94043ZM242.291 11.8789C242.208 11.8594 242.131 11.8579 242.057 11.877C241.312 12.0684 240.489 12.3785 239.809 12.9893C239.808 13.064 239.812 13.1727 239.828 13.3252C239.88 13.8089 239.986 14.328 240.098 15.1152C240.116 15.2421 240.139 15.4459 240.104 15.6562C240.084 15.7689 240.038 15.9482 239.91 16.127C239.766 16.3282 239.558 16.4722 239.319 16.5361C238.944 16.6367 238.624 16.4989 238.582 16.4824C238.497 16.4491 238.382 16.393 238.362 16.3838C238.202 16.3091 237.951 16.1686 237.841 16.1113C237.685 16.0307 237.535 15.9623 237.371 15.9111C237.065 15.8156 236.634 15.7567 235.984 15.9248C235.498 16.0509 234.946 16.2559 234.535 16.5098C234.069 16.7976 234.059 16.9687 234.061 16.9395C234.039 17.3317 234.019 17.6372 234.024 17.8877C234.026 17.9864 234.032 18.055 234.038 18.0996C234.071 18.1414 234.116 18.1924 234.185 18.249C234.29 18.3364 234.467 18.4548 234.761 18.5771C235.861 19.0356 237.579 20.1641 239.044 21.0771C239.808 21.5532 240.525 21.9864 241.127 22.2998C241.229 22.3531 241.328 22.3993 241.419 22.4434C241.466 22.2604 241.534 22.0624 241.601 21.8809C241.71 21.5804 241.86 21.2065 242.038 20.7764C242.394 19.919 242.882 18.7982 243.447 17.5117C243.824 16.5597 243.949 15.9869 243.772 15.1318C243.591 14.2507 243.381 13.5009 243.141 12.9297C242.888 12.3307 242.659 12.0659 242.521 11.9766C242.46 11.9378 242.378 11.8995 242.291 11.8789ZM230.069 0.188477C230.855 -0.0268243 231.471 -0.047209 231.985 0.0742188C232.459 0.186066 232.845 0.448055 232.858 0.457031C233.193 0.638203 233.391 0.948948 233.488 1.1123C233.61 1.31749 233.725 1.56319 233.832 1.81738C233.993 2.19744 234.084 2.69095 234.153 3.18359C234.225 3.69886 234.284 4.31898 234.346 5.00098C234.459 6.25907 234.381 7.02939 234.311 7.4375C234.203 8.06227 233.812 8.92733 233.425 9.73828C233.192 10.2262 232.952 10.5596 232.476 11.1533C231.991 11.7571 231.205 12.6759 230.117 13.6963C229.045 14.7017 227.689 15.7883 226.867 16.4775C226.044 17.168 225.719 17.4896 225.357 17.833C224.957 18.2134 224.324 18.1973 223.943 17.7969C223.669 17.5076 223.601 17.0971 223.735 16.748C223.453 16.4189 222.928 15.7887 222.086 14.7188C221.184 13.5715 220.086 11.8052 219.415 10.6914C218.416 9.03362 218.183 8.17728 218.081 7.50293C217.958 6.68656 217.978 6.04264 218.131 5.44434C218.277 4.8742 218.536 4.39469 218.757 3.96582C219.041 3.41514 219.38 3.02279 219.793 2.71387C220.173 2.43004 220.6 2.23211 220.964 2.05762C222.035 1.54364 223.105 1.67129 223.496 1.70605C223.811 1.73409 224.073 1.86118 224.276 1.99316C224.478 2.12399 224.673 2.29352 224.862 2.47754C225.176 2.78179 225.561 3.21471 226.051 3.77832C226.34 3.12211 226.677 2.52049 226.959 2.07422C227.628 1.01762 228.783 0.540966 230.069 0.188477ZM231.525 2.02051C231.424 1.99655 231.159 1.9633 230.598 2.11719C229.37 2.45359 228.885 2.77096 228.649 3.14355C228.297 3.70007 227.863 4.51149 227.605 5.29297C227.577 5.37825 227.565 5.53734 227.539 5.83691C227.533 5.91205 227.517 6.13856 227.456 6.32617C227.437 6.38378 227.398 6.49313 227.319 6.60938C227.244 6.72161 227.069 6.93298 226.753 7.02539C226.41 7.12576 226.116 7.02428 225.944 6.92383C225.79 6.83321 225.692 6.72288 225.646 6.66602C225.546 6.54359 225.469 6.39914 225.436 6.33691C225.384 6.24279 225.347 6.16929 225.291 6.07129C225.189 5.89119 225.053 5.67714 224.853 5.44531C224.196 4.68448 223.772 4.20623 223.47 3.91309C223.346 3.79254 223.262 3.72628 223.213 3.69043C222.801 3.65578 222.303 3.63402 221.829 3.86133C221.41 4.06255 221.181 4.17312 220.99 4.31543C220.833 4.43288 220.687 4.58597 220.534 4.88281C220.284 5.36692 220.147 5.63303 220.068 5.93945C219.997 6.21786 219.965 6.58294 220.059 7.20508C220.112 7.56008 220.23 8.16842 221.128 9.65918C221.803 10.7793 222.842 12.4453 223.658 13.4824C224.404 14.4307 224.88 15.0051 225.145 15.3184C225.275 15.2056 225.42 15.0816 225.582 14.9453C226.458 14.2105 227.731 13.1922 228.749 12.2373C229.751 11.2975 230.473 10.4532 230.916 9.90137C231.367 9.33976 231.489 9.15067 231.62 8.87598C232.041 7.9939 232.289 7.39487 232.34 7.09766C232.378 6.87342 232.452 6.27871 232.354 5.18066C232.292 4.49372 232.237 3.91986 232.173 3.45996C232.105 2.97795 232.039 2.71371 231.989 2.5957C231.896 2.3738 231.823 2.22683 231.771 2.1377C231.632 2.056 231.634 2.04607 231.525 2.02051Z" fill="#2F4074"/>
</svg>
