<svg width="434" height="135" viewBox="0 0 434 135" fill="none" xmlns="http://www.w3.org/2000/svg">
<path d="M374.6 121.598C375.807 121.604 378.786 121.407 380.946 123.504C381.872 124.404 382.697 125.297 383.254 126.106C383.532 126.509 383.772 126.932 383.915 127.353C384.056 127.77 384.134 128.282 383.956 128.793C383.61 129.782 382.583 132.15 380.416 133.473C379.219 134.204 377.252 134.771 375.125 134.412C373.867 134.199 372.538 133.911 371.487 132.776C370.327 131.523 369.703 129.782 369.36 128.228C369.013 126.653 368.926 125.14 368.926 124.224C368.927 123.672 369.374 123.224 369.926 123.224C370.478 123.224 370.926 123.672 370.926 124.224C370.926 125.036 371.005 126.399 371.313 127.796C371.626 129.216 372.15 130.548 372.955 131.418C373.508 132.015 374.217 132.23 375.459 132.44C377.071 132.713 378.553 132.267 379.374 131.766C380.917 130.824 381.746 129.039 382.057 128.157C382.056 128.136 382.05 128.084 382.02 127.995C381.959 127.815 381.829 127.564 381.607 127.241C381.162 126.595 380.449 125.811 379.552 124.939C378.129 123.556 376.168 123.6 374.737 123.598C374.711 123.695 374.686 123.836 374.668 124.035C374.56 125.249 374.623 126.343 374.752 127.189C374.817 127.612 374.898 127.966 374.977 128.234C374.981 128.247 374.986 128.261 374.99 128.273C375.012 128.266 375.036 128.262 375.06 128.253C375.173 128.214 375.242 128.18 375.336 128.098C375.452 127.997 375.632 127.798 375.901 127.381C376.201 126.918 376.82 126.785 377.284 127.085C377.747 127.384 377.88 128.004 377.581 128.467C377.259 128.964 376.963 129.333 376.651 129.605C376.318 129.896 376.007 130.042 375.72 130.142C375.466 130.231 375.161 130.309 374.847 130.326C374.543 130.342 374.125 130.303 373.746 130.049L373.569 129.93L373.456 129.751C373.161 129.281 372.921 128.44 372.776 127.493C372.623 126.496 372.553 125.24 372.676 123.857C372.724 123.326 372.834 122.772 373.138 122.336C373.504 121.811 374.045 121.596 374.6 121.598ZM62.6382 117.904C65.2445 117.946 68.4719 117.676 71.0503 117.842C71.0861 117.845 71.1229 117.847 71.1587 117.849C72.2123 117.917 73.2866 118.015 74.5854 118.133C74.7507 118.148 74.9213 118.165 75.0942 118.18C76.6342 118.32 78.5266 118.488 81.104 118.674C89.7604 119.3 96.5868 118.884 98.7104 118.754C102.969 118.495 107.512 118.489 113.71 118.482C114.277 118.481 114.858 118.482 115.454 118.481C115.936 118.481 116.335 118.691 116.346 118.952C116.356 119.212 115.974 119.424 115.493 119.425C114.91 119.426 114.34 119.428 113.787 119.428H113.78C107.543 119.436 103.099 119.441 98.9409 119.695C96.7715 119.827 89.7772 120.252 80.9067 119.611C78.3015 119.423 76.3869 119.255 74.8374 119.114C74.6682 119.098 74.5026 119.083 74.3423 119.068C74.3387 119.068 74.3342 119.067 74.3306 119.067C73.0233 118.948 71.9941 118.854 70.9858 118.789C70.9647 118.787 70.9426 118.786 70.9214 118.785C68.3138 118.617 65.1475 118.89 62.6196 118.849C62.1377 118.841 61.7502 118.622 61.7544 118.362C61.7598 118.101 62.1559 117.896 62.6382 117.904ZM382.132 23.7486C382.684 23.7488 383.132 24.1965 383.132 24.7486V92.0054C383.189 91.9954 383.248 91.9899 383.307 91.9898C400.014 91.9592 416.387 91.9285 424.551 91.3287C428.664 91.0265 430.541 90.5949 431.368 90.2027C431.652 90.0677 431.74 89.9698 431.759 89.9429C431.76 89.9364 431.76 89.9196 431.759 89.8882C431.495 89.4318 431.051 88.8929 430.42 88.275C429.718 87.5873 428.834 86.8468 427.823 86.0601C425.762 84.4563 423.378 82.8077 420.969 80.9908C418.621 79.2192 416.33 77.3442 414.73 75.4576C413.16 73.6064 412.044 71.4939 412.576 69.3228C413.086 67.2392 413.915 65.2107 414.725 63.3326C415.548 61.424 416.336 59.7027 416.843 58.1177C417.192 57.03 417.55 55.8899 417.917 54.7339C417.904 54.7445 417.892 54.7547 417.879 54.7613C417.87 54.7661 417.859 54.7695 417.849 54.772C417.832 54.7828 417.809 54.8018 417.786 54.8257C417.781 54.8306 417.775 54.8353 417.77 54.8404C417.737 54.8735 417.693 54.9121 417.65 54.9419C417.542 55.0115 417.409 55.0333 417.229 54.8541C417.183 54.8072 417.138 54.7638 417.092 54.7212C416.887 54.5252 416.689 54.3515 416.49 53.9761C416.462 53.9246 416.434 53.8655 416.405 53.8033C416.324 53.6191 416.215 53.3981 416.015 53.2105C415.738 52.9589 415.282 52.7768 414.45 52.8941C414.314 52.914 414.155 52.8723 413.998 52.8287C413.937 52.812 413.874 52.795 413.809 52.7808C413.57 52.7288 413.304 52.7125 413.005 52.8775C412.901 52.9345 412.805 52.9975 412.715 53.063C412.501 53.229 412.328 53.4148 412.179 53.5767C412.172 53.5845 412.165 53.5923 412.159 53.6002C412.15 53.6098 412.141 53.62 412.132 53.6294C411.831 53.9614 411.37 54.0226 411.036 53.5142C410.831 53.1953 410.65 53.0308 410.431 52.8384C410.323 52.7439 410.206 52.7579 410.024 52.7798C409.973 52.786 409.917 52.7923 409.856 52.7974C409.581 52.8206 409.193 52.8062 408.602 52.525C408.449 52.4516 408.31 52.4261 408.179 52.4029C408.139 52.3957 408.099 52.3887 408.06 52.3804C407.9 52.3458 407.751 52.2896 407.612 52.0953C407.496 51.9353 407.244 51.661 406.961 51.5084C406.674 51.3547 406.376 51.3306 406.156 51.6334C406.133 51.6648 406.109 51.6958 406.086 51.7271C405.89 51.9972 405.69 52.2729 405.527 52.732C404.794 55.6185 403.499 54.5115 402.641 54.3336C402.63 54.3312 402.619 54.329 402.608 54.3267C401.619 54.1217 400.897 54.145 400.652 54.1529C400.641 54.1532 400.63 54.1536 400.621 54.1539C400.612 54.1541 400.605 54.1547 400.598 54.1548C400.499 54.1569 400.409 54.1895 400.316 54.2242C400.311 54.2261 400.305 54.2281 400.3 54.23C400.202 54.2666 400.099 54.3029 399.978 54.2994C399.525 54.286 399.159 54.3271 398.838 54.3716C398.779 54.3799 398.721 54.3879 398.666 54.3961C398.423 54.4319 398.2 54.4638 397.996 54.4634C397.619 54.4627 397.363 54.5217 397.166 54.5855C397.103 54.6055 397.045 54.6265 396.991 54.6461C396.874 54.6884 396.772 54.726 396.667 54.7388C396.47 54.7628 396.285 54.8267 396.108 54.8892C396.092 54.8948 396.076 54.9003 396.06 54.9058C395.866 54.9733 395.669 55.0355 395.469 55.0367C395.423 55.0369 395.384 54.825 395.383 54.564C395.383 54.3031 395.422 54.0916 395.468 54.0914C395.663 54.0902 395.853 54.0289 396.048 53.9615C396.064 53.956 396.08 53.9505 396.096 53.9449C396.273 53.8824 396.462 53.818 396.664 53.7935C396.764 53.7812 396.86 53.7462 396.975 53.7046C397.03 53.6849 397.089 53.6632 397.155 53.6421C397.356 53.5774 397.614 53.5174 397.995 53.5181C398.197 53.5185 398.416 53.4866 398.66 53.4507C398.716 53.4425 398.774 53.4347 398.833 53.4263C399.155 53.3816 399.524 53.3397 399.979 53.3531C400.093 53.3564 400.191 53.323 400.289 53.2867C400.294 53.2848 400.3 53.2827 400.305 53.2808C400.397 53.2464 400.492 53.2107 400.597 53.2086C400.611 53.2083 400.629 53.2083 400.651 53.2076C400.896 53.1997 401.622 53.1766 402.615 53.3824C402.618 53.3831 402.621 53.3836 402.624 53.3843C403.289 53.5223 403.665 53.5999 403.949 53.3677C404.173 53.1845 404.341 53.1386 404.478 53.1168C404.504 53.1126 404.529 53.1082 404.552 53.105C404.654 53.0914 404.735 53.0812 404.816 53.0162C405.061 52.8192 405.236 52.4949 405.451 51.8902C405.633 51.3777 405.854 51.0749 406.046 50.8101L406.047 50.8091C406.07 50.7778 406.093 50.7469 406.115 50.7164C406.365 50.3718 406.689 50.4121 406.98 50.5679C407.271 50.7248 407.532 51.0051 407.656 51.1773C407.776 51.3456 407.911 51.4007 408.07 51.4351C408.107 51.443 408.145 51.4496 408.185 51.4566C408.316 51.4799 408.462 51.5068 408.62 51.5826C409.205 51.8606 409.586 51.8748 409.857 51.8521C409.912 51.8474 409.964 51.8416 410.014 51.8355L410.146 51.8209C410.269 51.8116 410.37 51.8225 410.462 51.9039C410.684 52.0973 410.87 52.2694 411.084 52.6031C411.389 53.0631 411.822 53.0131 412.106 52.7017C412.121 52.6847 412.138 52.6667 412.154 52.649C412.307 52.4798 412.494 52.2812 412.726 52.106C412.81 52.046 412.901 51.9886 412.998 51.9361C413.307 51.7652 413.582 51.7827 413.826 51.8355C413.895 51.8506 413.961 51.8693 414.023 51.8863C414.179 51.9292 414.328 51.9678 414.458 51.9488C415.296 51.8309 415.766 52.0128 416.059 52.2769C416.282 52.4801 416.399 52.738 416.489 52.9244C416.515 52.9805 416.538 53.0312 416.559 53.0709C416.75 53.4245 416.932 53.5871 417.141 53.7828C417.189 53.8262 417.233 53.8722 417.285 53.9214C417.451 54.0862 417.575 54.0639 417.675 54.0015C417.717 53.9742 417.756 53.9398 417.792 53.9068L417.793 53.9048C417.798 53.9003 417.803 53.8956 417.808 53.8912C417.812 53.8878 417.816 53.8837 417.82 53.8804C417.821 53.8759 417.823 53.8723 417.824 53.8697C417.824 53.8679 417.825 53.8667 417.826 53.8658V53.8648C417.833 53.8471 417.839 53.8399 417.84 53.8384C417.842 53.836 417.844 53.8343 417.845 53.8336C417.85 53.8298 417.855 53.8278 417.86 53.8267C417.871 53.8239 417.891 53.8207 417.919 53.8179C417.945 53.8056 417.967 53.783 417.999 53.7554C418 53.7537 418.003 53.7523 418.004 53.7505C418.035 53.7234 418.067 53.6914 418.11 53.6617C418.143 53.639 418.16 53.7785 418.156 53.9859C418.205 53.8301 418.255 53.6742 418.304 53.5181C418.306 53.4958 418.306 53.4729 418.308 53.4498C418.327 53.1898 418.372 52.9866 418.402 52.9966C418.423 53.0038 418.444 53.0109 418.463 53.0181C418.805 51.9409 419.148 50.8632 419.482 49.8101C419.394 49.7919 419.271 49.7642 419.125 49.7212C418.725 49.5826 418.231 49.3682 417.973 49.0308C417.608 48.5289 416.789 48.9903 415.452 48.8355C415.077 48.792 414.565 48.2696 414.036 48.4166C414.034 48.4169 414.033 48.4172 414.032 48.4175C413.576 48.5423 413.137 48.6692 412.767 48.6783C412.707 48.6798 412.649 48.6782 412.594 48.6724C412.203 48.6319 411.973 48.3981 411.736 48.1685C411.734 48.1662 411.731 48.163 411.729 48.1607C411.51 47.9361 411.278 47.7191 410.93 47.6832C410.685 47.6586 410.388 47.6051 410.063 47.5474C409.412 47.4305 408.671 47.2985 408.146 47.3658C408.098 47.3717 408.059 47.1646 408.059 46.9039C408.059 46.6435 408.096 46.4273 408.144 46.4205C408.675 46.3525 409.427 46.4848 410.082 46.6021C410.404 46.6593 410.698 46.7138 410.938 46.7378C411.301 46.7751 411.541 47.0042 411.764 47.231C411.767 47.2333 411.77 47.2355 411.772 47.2378C412.005 47.4646 412.227 47.688 412.605 47.7271C412.66 47.7329 412.719 47.7347 412.779 47.733C413.144 47.7231 413.579 47.5974 414.038 47.4722H414.039C414.566 47.3258 415.112 46.7002 415.499 46.7447C416.844 46.8991 417.658 47.5801 418.051 48.1099C418.423 48.6081 418.818 48.5659 419.237 48.6236C419.424 48.6473 419.611 48.6795 419.778 48.7759C419.787 48.7814 419.795 48.7894 419.804 48.7955C420.902 45.3341 421.887 42.25 422.468 40.525C422.484 40.4789 422.504 40.4343 422.525 40.3921H411.857C412.129 40.5399 412.4 40.7175 412.669 40.9234C412.73 40.9296 412.793 40.9368 412.859 40.9449C413.232 40.9885 413.675 41.0561 414.138 41.1255C414.144 41.1268 414.151 41.1282 414.157 41.1294C414.693 41.2108 415.23 41.2937 415.618 41.3375C416.996 41.4925 417.887 41.6966 418.351 42.23C418.775 42.7271 418.918 42.739 419.125 42.7574C419.13 42.7582 419.136 42.7595 419.142 42.7603L419.143 42.7584C419.152 42.7469 419.159 42.7406 419.163 42.7378C419.17 42.7323 419.175 42.7298 419.177 42.7291C419.182 42.7276 419.186 42.7281 419.187 42.7281C419.193 42.7279 419.199 42.7283 419.203 42.7291C419.238 42.7366 419.363 42.775 419.457 42.8228C419.553 42.8718 419.62 42.9309 419.677 42.9937C419.683 43.0002 419.689 43.0068 419.695 43.0132C419.731 43.056 419.768 43.1013 419.792 43.148C419.8 43.1631 419.808 43.1791 419.818 43.1949C419.841 43.2352 419.842 43.4747 419.815 43.731C419.788 43.9869 419.742 44.1624 419.714 44.1246C419.708 44.1153 419.702 44.1053 419.696 44.0962C419.658 44.0383 419.611 43.9825 419.566 43.9332C419.56 43.9268 419.554 43.9201 419.548 43.9136C419.49 43.8532 419.436 43.8038 419.353 43.7603C419.232 43.7199 419.144 43.7104 419.062 43.7027C418.856 43.6838 418.699 43.6693 418.267 43.15C417.841 42.6448 416.979 42.4377 415.598 42.2818C415.211 42.238 414.676 42.156 414.142 42.0748C414.136 42.0739 414.13 42.0727 414.124 42.0718C413.661 42.0024 413.219 41.934 412.848 41.8902C412.782 41.8821 412.719 41.8749 412.659 41.8687C411.158 41.7138 409.69 42.1746 408.196 41.4761C407.921 41.5114 407.669 41.5248 407.434 41.5367C406.749 41.5717 406.218 41.6002 405.714 42.1714C405.603 42.2965 405.314 42.402 404.897 42.5328C404.774 42.5711 404.64 42.6118 404.496 42.6558C404.14 42.7638 403.718 42.8906 403.244 43.0533C403.145 43.0873 403.056 43.1216 402.971 43.1539C402.608 43.2921 402.321 43.4017 401.628 43.3716C400.776 43.3346 399.35 43.0952 398.586 42.9127C398.202 42.8212 397.989 42.7366 397.835 42.6666C397.793 42.6471 397.755 42.6285 397.72 42.6119C397.63 42.5683 397.561 42.5348 397.47 42.5123C396.812 42.3497 396.355 42.4586 395.599 42.6871C395.552 42.7013 395.511 42.5014 395.508 42.2408C395.505 41.9802 395.542 41.7572 395.588 41.7427C396.346 41.5139 396.81 41.4022 397.477 41.5669C397.572 41.5905 397.647 41.627 397.739 41.6714C397.773 41.6878 397.809 41.7058 397.849 41.7242C398 41.793 398.211 41.8773 398.593 41.9683C399.355 42.1506 400.78 42.3894 401.63 42.4263C402.317 42.456 402.598 42.3492 402.959 42.2115C403.044 42.1792 403.134 42.1443 403.234 42.1099C403.709 41.947 404.132 41.8185 404.488 41.7105C404.632 41.6666 404.766 41.6256 404.888 41.5875C405.315 41.4539 405.587 41.352 405.682 41.2447C406.204 40.6537 406.757 40.6244 407.449 40.5894C407.681 40.5778 407.928 40.566 408.195 40.5318C408.268 40.4814 408.342 40.4363 408.415 40.3921H384.98C384.428 40.3921 383.981 39.9438 383.98 39.3921C383.98 38.8399 384.428 38.3921 384.98 38.3921H423.416L423.518 38.397C424.022 38.4486 424.416 38.8746 424.416 39.3921C424.415 39.6778 424.294 39.9357 424.102 40.1177C424.376 40.3774 424.491 40.7824 424.363 41.1636C423.277 44.3847 420.784 52.3732 418.749 58.7281C418.202 60.4336 417.355 62.2863 416.562 64.1246C415.756 65.9938 414.986 67.8908 414.518 69.7994C414.228 70.9866 414.78 72.4239 416.255 74.1636C417.701 75.8684 419.837 77.6314 422.173 79.3941C424.45 81.1114 427.016 82.8977 429.051 84.481C430.088 85.2875 431.039 86.0818 431.82 86.8462C432.59 87.6012 433.248 88.3794 433.64 89.1627L433.725 89.3316L433.743 89.5201C433.764 89.7569 433.815 90.2571 433.578 90.7759C433.329 91.3169 432.856 91.7099 432.226 92.0093C431.022 92.5813 428.793 93.0219 424.698 93.3228C416.442 93.9293 399.973 93.9593 383.311 93.9898C383.25 93.9899 383.19 93.9826 383.132 93.9722V107.106C383.629 107.164 384.016 107.587 384.016 108.099C384.016 108.611 383.629 109.032 383.132 109.09V112.945C383.361 112.975 383.589 113.007 383.816 113.041C384.371 113.206 383.937 113.575 383.132 113.747V118.949C383.132 119.5 382.684 119.949 382.132 119.949C381.581 119.949 381.133 119.501 381.132 118.949V113.748C380.746 113.711 380.36 113.678 379.868 113.651C378.917 113.622 378.209 113.62 377.563 113.619C375.868 113.615 364.105 113.443 359.942 112.945C355.897 112.461 347.643 112.954 333.885 112.826C330.035 112.79 324.714 112.277 319.333 112.432C319.319 112.433 319.304 112.433 319.29 112.433C313.948 112.587 308.562 112.743 304.642 112.708C300.681 112.672 298.223 112.44 295.843 112.212C295.82 112.21 295.797 112.208 295.774 112.206C293.445 111.983 291.184 111.768 287.558 111.735C285.075 111.713 282.004 111.661 278.718 111.606C272.053 111.494 264.499 111.368 259.156 111.439C258.674 111.445 258.266 111.238 258.244 110.977C258.223 110.716 258.597 110.5 259.079 110.494C264.468 110.422 272.128 110.55 278.823 110.662C282.087 110.716 285.123 110.768 287.553 110.79C291.318 110.824 293.688 111.049 296.039 111.274C296.063 111.276 296.089 111.279 296.114 111.282C298.462 111.506 300.814 111.727 304.637 111.761C308.492 111.796 313.827 111.643 319.208 111.488H319.22C324.572 111.334 330.001 110.698 333.924 110.735C347.595 110.862 356.025 111.511 360.288 112.021C366.878 112.809 374.25 112.12 381.132 112.728V109.099H51.0503C50.7053 109.099 50.4009 108.924 50.2212 108.658V111.236C50.221 111.788 49.7731 112.236 49.2212 112.236C48.669 112.236 48.2214 111.788 48.2212 111.236V93.9839C32.3354 93.9538 16.9522 93.9022 9.06494 93.3228C4.97046 93.022 2.74128 92.5811 1.53662 92.0093C0.906374 91.71 0.433432 91.3168 0.185059 90.7759C-0.052723 90.2571 -0.0014969 89.7569 0.0200195 89.5201L0.0375977 89.3316L0.122559 89.1627C0.515043 88.3793 1.17213 87.6013 1.94287 86.8462C2.72337 86.0817 3.67482 85.2876 4.71143 84.481C6.74636 82.8976 9.31262 81.1115 11.5894 79.3941C13.9262 77.6313 16.0614 75.8685 17.5073 74.1636C18.9825 72.424 19.5347 70.9866 19.2446 69.7994C18.7768 67.8909 18.0067 65.9937 17.2007 64.1246C16.408 62.2864 15.5604 60.4336 15.0142 58.7281C12.9792 52.3733 10.4858 44.3849 9.3999 41.1636C9.27132 40.7822 9.38658 40.3774 9.66064 40.1177C9.46833 39.9356 9.34753 39.6778 9.34717 39.3921C9.34717 38.8745 9.7405 38.4484 10.2446 38.397L10.3472 38.3921H48.2212V26.4595C48.1192 26.3029 48.0592 26.1163 48.0591 25.9156C48.0592 25.3635 48.507 24.9157 49.0591 24.9156H381.132V24.7486C381.132 24.1964 381.58 23.7487 382.132 23.7486ZM238.643 114.802C241.16 114.456 244.508 114.494 247.463 114.648C250.44 114.803 253.135 115.082 254.403 115.253C255.642 115.421 257.02 115.476 258.663 115.509C259.039 115.517 259.431 115.523 259.834 115.53C261.169 115.552 262.655 115.577 264.286 115.652C270.275 115.926 274.181 115.939 276.97 115.914C277.543 115.909 278.077 115.902 278.577 115.895H278.58C280.465 115.871 281.872 115.852 283.166 115.96C285.468 116.151 287.35 116.321 289.62 116.653C292.75 117.11 297.208 117.056 300.109 116.742C300.268 116.725 300.432 116.706 300.596 116.688C302.699 116.459 305.29 116.176 309.172 115.965C312.398 115.791 315.21 115.805 317.699 115.854C318.412 115.868 319.093 115.886 319.747 115.902C321.395 115.943 322.872 115.979 324.262 115.958C332.884 115.826 337.858 115.996 340.983 116.253C343.386 116.451 344.729 116.705 345.698 116.889C345.99 116.945 346.249 116.995 346.493 117.034C348.663 117.382 350.656 117.539 353.053 117.727C353.585 117.769 354.139 117.813 354.717 117.86C356.651 118.018 358.092 117.991 359.222 117.924C359.716 117.895 360.152 117.859 360.562 117.824C360.569 117.823 360.577 117.823 360.584 117.822C360.641 117.817 360.699 117.812 360.755 117.807C360.797 117.804 360.84 117.799 360.882 117.795C360.899 117.791 360.914 117.788 360.925 117.786C360.934 117.784 360.941 117.782 360.946 117.781L360.948 117.78C361.027 117.762 361.097 117.754 361.112 117.752C361.136 117.75 361.159 117.749 361.17 117.749C361.23 117.744 361.306 117.741 361.357 117.74C361.488 117.736 361.715 117.732 362.066 117.728C362.371 117.714 362.665 117.691 363.032 117.662C363.055 117.66 363.078 117.658 363.101 117.656C363.459 117.627 363.879 117.594 364.405 117.562C364.883 117.533 365.323 117.719 365.387 117.978C365.449 118.237 365.113 118.471 364.636 118.501C364.141 118.531 363.748 118.563 363.39 118.591C363.368 118.593 363.344 118.595 363.322 118.597C362.949 118.627 362.594 118.655 362.213 118.671C362.086 118.677 361.954 118.682 361.832 118.685C361.61 118.697 361.357 118.716 361.056 118.742C360.996 118.747 360.933 118.752 360.87 118.757C360.46 118.792 359.983 118.832 359.446 118.864C358.187 118.938 356.592 118.967 354.488 118.794C353.936 118.749 353.4 118.708 352.877 118.667C350.471 118.478 348.329 118.31 346.026 117.94C345.71 117.889 345.406 117.831 345.083 117.77C344.122 117.588 342.974 117.371 340.752 117.188C337.775 116.943 332.92 116.771 324.346 116.902C322.887 116.924 321.312 116.886 319.635 116.844C318.995 116.829 318.338 116.813 317.668 116.799C315.219 116.751 312.495 116.738 309.38 116.907C305.584 117.113 303.064 117.387 300.97 117.616C300.898 117.624 300.825 117.632 300.753 117.64C300.664 117.65 300.574 117.659 300.486 117.669C297.394 118.004 292.651 118.07 289.193 117.565C287.023 117.248 285.223 117.085 282.933 116.894C281.807 116.8 280.603 116.816 278.755 116.839C278.237 116.846 277.665 116.852 277.033 116.858C274.194 116.883 270.229 116.873 264.172 116.595C262.593 116.523 261.172 116.498 259.844 116.476C259.432 116.469 259.027 116.462 258.63 116.454C256.98 116.42 255.443 116.365 254.01 116.171C252.833 116.012 250.225 115.74 247.33 115.589C244.414 115.437 241.318 115.414 239.106 115.718C238.876 115.75 238.643 115.782 238.412 115.813C236.416 116.084 234.382 116.361 232.744 116.821C225.401 119.712 212.101 118.611 203.328 118.437C203.213 118.435 203.097 118.432 202.982 118.429C192.857 118.228 185.497 118.254 182.988 118.263C182.871 118.264 182.764 118.264 182.668 118.264C182.583 118.264 182.506 118.265 182.438 118.265C181.416 118.268 180.512 118.301 179.565 118.336C179.514 118.338 179.461 118.34 179.41 118.342C178.409 118.379 177.357 118.415 176.116 118.412C171.498 118.4 167.734 118.443 164.477 118.489C163.874 118.497 163.288 118.505 162.716 118.513H162.711C160.203 118.55 157.977 118.583 155.866 118.584C152.015 118.584 149.413 118.643 147.39 118.708C146.756 118.728 146.171 118.749 145.62 118.769C144.427 118.812 143.384 118.849 142.309 118.862C140.288 118.886 138.427 118.951 136.595 119.014C136.432 119.02 136.269 119.025 136.106 119.031C134.12 119.099 132.152 119.162 130.073 119.164C129.591 119.164 129.191 118.952 129.179 118.691C129.17 118.43 129.554 118.218 130.037 118.217C132.056 118.216 133.975 118.155 135.96 118.087C136.124 118.082 136.289 118.076 136.454 118.07C138.281 118.007 140.176 117.942 142.235 117.917C143.271 117.904 144.256 117.87 145.425 117.828C145.983 117.808 146.584 117.785 147.252 117.764C149.306 117.699 151.943 117.638 155.831 117.637C157.917 117.637 160.114 117.606 162.621 117.569C163.196 117.561 163.788 117.552 164.398 117.544C167.663 117.498 171.447 117.455 176.089 117.466C177.262 117.469 178.259 117.436 179.255 117.399C179.311 117.397 179.368 117.395 179.423 117.393C180.362 117.358 181.317 117.322 182.396 117.32C182.54 117.32 182.726 117.319 182.947 117.318C185.46 117.309 192.849 117.283 203.011 117.485C203.043 117.486 203.075 117.486 203.106 117.487C209.915 117.622 213.758 117.699 216.651 117.465C218.933 117.281 220.64 117.234 222.041 117.211C222.307 117.207 222.561 117.203 222.801 117.2C223.842 117.186 224.665 117.174 225.487 117.109C227.973 116.911 229.757 116.586 231.915 115.98C233.744 115.466 235.985 115.162 237.948 114.896C237.951 114.896 237.954 114.895 237.957 114.895C238.189 114.864 238.419 114.833 238.643 114.802ZM371.332 116.934C371.814 116.942 372.201 117.159 372.197 117.419C372.191 117.68 371.796 117.886 371.314 117.878C370.164 117.86 369.014 117.841 367.865 117.823C367.383 117.815 366.995 117.597 366.999 117.336C367.004 117.076 367.4 116.87 367.882 116.877C369.032 116.896 370.182 116.916 371.332 116.934ZM236.629 110.099C237.1 110.046 237.569 110.212 237.676 110.467C237.781 110.722 237.486 110.972 237.017 111.025C236.768 111.053 236.358 111.103 235.808 111.171C231.843 111.663 220.523 113.067 208.523 113.477C207.513 113.512 206.607 113.546 205.745 113.579C202.055 113.719 199.092 114.39 192.035 114.363C162.359 114.248 132.705 113.048 103.077 113.871C94.5197 114.108 85.9888 114.144 77.4253 114.128C70.2879 114.115 57.2043 113.63 54.1245 113.581C53.6424 113.573 53.2553 113.355 53.2593 113.094C53.2644 112.833 53.6596 112.629 54.1421 112.636C57.2001 112.686 70.2394 113.169 77.3501 113.182C85.8973 113.198 94.4111 113.164 102.952 112.926C132.615 112.102 162.363 112.157 192.074 112.272C199.062 112.299 201.908 112.776 205.584 112.636C206.449 112.604 207.36 112.569 208.379 112.534C220.211 112.129 231.359 110.748 235.372 110.252C235.939 110.181 236.366 110.129 236.629 110.099ZM50.2212 91.9888C50.2991 91.989 50.3776 91.9897 50.4556 91.9898C51.0074 91.9911 51.4544 92.4389 51.4536 92.9908C51.4519 93.5423 51.0033 93.9905 50.4517 93.9898C50.375 93.9897 50.2979 93.989 50.2212 93.9888V107.54C50.4009 107.274 50.7053 107.099 51.0503 107.099H61.0239C61.1417 106.912 61.473 106.781 61.8608 106.787C64.9179 106.836 70.6918 106.847 77.8022 106.86C82.1011 106.868 86.89 106.876 91.8638 106.895C93.7206 106.902 94.9287 106.864 97.5151 106.781C98.943 106.735 100.792 106.676 103.403 106.603C103.884 106.59 104.302 106.791 104.336 107.051C104.338 107.067 104.339 107.084 104.338 107.099H164.685C163.543 107.076 162.479 107.053 161.519 107.031C157.622 106.941 155.421 106.856 153.865 106.787C153.432 106.767 153.05 106.749 152.701 106.732C151.787 106.689 151.077 106.656 150.148 106.633C143.452 106.473 138.763 106.583 131.083 106.814C130.603 106.828 130.183 106.628 130.146 106.368C130.11 106.107 130.471 105.883 130.952 105.869C138.643 105.638 143.404 105.525 150.191 105.688C151.161 105.711 151.922 105.748 152.851 105.793C153.196 105.809 153.564 105.826 153.975 105.844C155.506 105.913 157.683 105.996 161.559 106.086C169.327 106.265 183.857 106.499 192.514 106.533C199.502 106.56 202.359 106.452 206.036 106.313C206.9 106.28 207.81 106.245 208.83 106.211C213.66 106.045 217.954 105.915 221.57 105.805C223.042 105.761 224.404 105.719 225.642 105.68C229.97 105.545 232.729 105.441 233.689 105.334C238.977 104.739 244.571 104.707 251.62 104.668C253.967 104.654 256.477 104.641 259.19 104.605C274.332 103.557 289.559 103.851 304.491 104.958C308.388 104.993 313.827 105.067 319.258 105.141C319.319 105.142 319.381 105.143 319.442 105.144C324.814 105.217 330.163 105.29 334.003 105.326C347.674 105.453 356.136 105.624 360.398 106.133C364.371 106.609 365.476 106.611 367.111 106.614C367.155 106.614 367.2 106.614 367.245 106.615C367.247 106.614 367.251 106.613 367.253 106.612C367.309 106.6 367.357 106.593 367.381 106.59C367.43 106.584 367.471 106.581 367.486 106.581C367.52 106.579 367.549 106.579 367.56 106.579C367.602 106.578 367.652 106.578 367.683 106.579C367.976 106.583 368.887 106.612 369.609 106.651C370.349 106.691 370.878 106.742 371.434 106.798C371.49 106.804 371.547 106.81 371.603 106.816C372.105 106.867 372.651 106.923 373.437 106.984C373.614 106.998 373.773 107.039 373.899 107.099H381.132V26.9156H50.2212V91.9888ZM259.268 105.549C256.466 105.587 253.904 105.601 251.531 105.615C244.547 105.654 239.186 105.685 234.077 106.259C232.957 106.385 230.02 106.492 225.777 106.625C224.534 106.664 223.169 106.705 221.695 106.75C218.505 106.846 214.793 106.961 210.649 107.099H360.429C360.307 107.085 360.182 107.071 360.054 107.056C356.009 106.572 347.767 106.399 334.008 106.271C330.161 106.235 324.805 106.163 319.438 106.089C319.375 106.089 319.312 106.087 319.25 106.086C313.816 106.012 308.384 105.938 304.496 105.903C289.34 105.765 274.498 106.238 259.268 105.549ZM11.2944 40.525C12.3865 43.7644 14.8953 51.7968 16.9194 58.1177C17.4271 59.7026 18.2146 61.4241 19.0376 63.3326C19.8474 65.2106 20.6763 67.2393 21.187 69.3228C21.7185 71.4938 20.6024 73.6065 19.0327 75.4576C18.3064 76.314 17.4346 77.1644 16.4829 78.0074C16.4981 78.0346 16.515 78.0622 16.5308 78.0914C16.6284 78.2721 16.7441 78.4884 16.9673 78.6685C17.2674 78.9099 17.7504 79.0762 18.6021 78.9351C18.7467 78.9113 18.9017 78.9485 19.0698 78.9878C19.1337 79.0029 19.1994 79.0174 19.2661 79.0298C19.5108 79.0755 19.7801 79.0859 20.0884 78.9136C20.4643 78.7036 20.711 78.4265 20.9155 78.1959C20.9225 78.1877 20.93 78.1796 20.937 78.1714C20.9456 78.1617 20.9539 78.1517 20.9624 78.1421C21.268 77.8035 21.737 77.7316 22.0864 78.233C22.3064 78.5476 22.4873 78.7091 22.7163 78.897C22.8291 78.9894 22.9475 78.9723 23.1323 78.9468C23.1838 78.9397 23.2406 78.9326 23.3032 78.9263C23.5855 78.8979 23.9781 78.9058 24.5835 79.1763C24.7412 79.2468 24.8802 79.2697 25.0142 79.2906C25.0552 79.2971 25.0958 79.3035 25.1353 79.3111C25.3002 79.3428 25.4543 79.3956 25.5981 79.5875C25.716 79.7454 25.9778 80.0158 26.2681 80.1636C26.5599 80.3125 26.8645 80.3314 27.0835 80.025C27.106 79.9932 27.1292 79.9619 27.1519 79.9302C27.3477 79.657 27.5462 79.3782 27.7026 78.9166C28.4045 76.0181 29.7368 77.1049 30.6099 77.2701C30.6212 77.2723 30.6327 77.2747 30.644 77.2769C31.6497 77.4673 32.385 77.4337 32.6323 77.4224C32.6437 77.4219 32.6543 77.4218 32.6636 77.4214C32.6719 77.4211 32.6803 77.4197 32.687 77.4195C32.7873 77.4159 32.876 77.3813 32.9712 77.3453C32.9762 77.3433 32.9818 77.3413 32.9868 77.3394C33.0866 77.3015 33.1911 77.2643 33.314 77.2662C33.7658 77.2733 34.1495 77.2262 34.4683 77.1773C34.5287 77.1683 34.5882 77.1608 34.645 77.1519C34.8963 77.1127 35.1085 77.0772 35.3237 77.0748C35.7081 77.0704 35.9625 77.0084 36.1655 76.9419C36.2284 76.9211 36.2862 76.8997 36.3403 76.8794C36.4575 76.8356 36.5582 76.7969 36.6675 76.7828C36.8708 76.7562 37.0521 76.6895 37.2319 76.6246C37.2484 76.6188 37.2654 76.6137 37.2817 76.608C37.4819 76.538 37.6735 76.4731 37.8784 76.4693C37.9273 76.469 37.9705 76.6802 37.9741 76.941C37.9777 77.2012 37.9408 77.4127 37.8921 77.4146C37.6924 77.4182 37.5053 77.4813 37.3052 77.5513C37.2889 77.5571 37.2718 77.5631 37.2554 77.5689C37.075 77.6336 36.8912 77.7 36.6841 77.7271C36.5791 77.7408 36.483 77.7769 36.3687 77.8199C36.314 77.8404 36.2551 77.8634 36.189 77.8853C35.9833 77.9527 35.7249 78.0166 35.3374 78.0211C35.1248 78.0234 34.9145 78.0571 34.6636 78.0962C34.6064 78.1052 34.547 78.1144 34.4858 78.1236C34.1659 78.1726 33.7811 78.2196 33.3267 78.2125C33.2104 78.2107 33.1107 78.245 33.0112 78.2828C33.0058 78.2847 33.0001 78.2867 32.9946 78.2886C32.9005 78.3243 32.8065 78.362 32.7007 78.3658C32.6865 78.3663 32.6678 78.3667 32.646 78.3677C32.3983 78.3791 31.6599 78.4123 30.6509 78.2212C30.648 78.2206 30.645 78.22 30.6421 78.2193C29.9642 78.0913 29.5771 78.019 29.2954 78.2554C29.0719 78.4418 28.9019 78.4912 28.7622 78.5152C28.736 78.5197 28.7108 78.5234 28.687 78.5269C28.5821 78.5421 28.5023 78.5544 28.4214 78.6207C28.1777 78.8214 28.0039 79.1484 27.7944 79.7564C27.6175 80.2719 27.4004 80.5782 27.2075 80.8462L27.2065 80.8472C27.1838 80.879 27.1611 80.91 27.1392 80.941C26.8906 81.2896 26.5609 81.2558 26.2651 81.105C25.9664 80.9531 25.6961 80.6765 25.5688 80.5064C25.4443 80.3403 25.3071 80.287 25.1431 80.2554C25.1055 80.2482 25.0662 80.2422 25.0259 80.2359C24.8911 80.2149 24.7454 80.1915 24.5825 80.1187C23.9838 79.8512 23.5971 79.8437 23.3198 79.8716C23.2629 79.8774 23.2093 79.8851 23.1597 79.8921C22.9712 79.9187 22.8331 79.9377 22.7036 79.8316C22.4734 79.6426 22.2843 79.475 22.0542 79.1461C21.7385 78.6921 21.2969 78.7511 21.0103 79.0689C20.9947 79.0862 20.9783 79.1046 20.9624 79.1226C20.757 79.3544 20.5042 79.6402 20.1196 79.855C19.8002 80.0335 19.5225 80.0225 19.2739 79.9761C19.203 79.9629 19.135 79.9465 19.0698 79.9312C18.9044 79.8925 18.7586 79.8576 18.6206 79.8804C17.7643 80.0222 17.2706 79.8565 16.9556 79.6031C16.7145 79.4083 16.5784 79.1558 16.48 78.9732C16.4504 78.9182 16.4244 78.8683 16.3999 78.8296C16.2785 78.6384 16.1615 78.5068 16.0415 78.3951C15.017 79.2764 13.9128 80.1464 12.7935 80.9908C10.3846 82.8079 8.00117 84.4562 5.93994 86.0601C4.92878 86.847 4.04439 87.5872 3.34229 88.275C2.71141 88.893 2.26745 89.4317 2.00342 89.8882C2.00315 89.9196 2.00242 89.9364 2.00342 89.9429C2.02338 89.9704 2.11209 90.0683 2.39502 90.2027C3.22166 90.5948 5.09952 91.0266 9.21143 91.3287C12.598 91.5774 17.3966 91.7267 23.0454 91.8199C22.2656 91.7661 21.4854 91.4225 20.7095 90.857C20.3218 90.8259 19.7817 90.7579 19.2407 90.69C19.2349 90.689 19.2289 90.6881 19.2231 90.6871C18.6902 90.6199 18.1558 90.5533 17.7759 90.522C16.4172 90.4108 15.5767 90.2501 15.147 89.7457C14.7459 89.2753 14.6376 89.2743 14.4751 89.273C14.4707 89.2727 14.4658 89.2724 14.4614 89.272V89.275C14.4561 89.287 14.4511 89.2943 14.4487 89.2974C14.4441 89.3033 14.4396 89.3053 14.438 89.3062C14.4349 89.308 14.4323 89.3089 14.4312 89.3091C14.427 89.3099 14.4216 89.3096 14.4185 89.3091C14.3892 89.3046 14.299 89.2767 14.2271 89.2388C14.1531 89.1998 14.0994 89.1493 14.0435 89.0933C14.0378 89.0876 14.0325 89.0814 14.0269 89.0757C13.9764 89.0251 13.9211 88.9703 13.8423 88.9107C13.7944 88.8743 13.7575 88.635 13.7603 88.3765C13.7631 88.1183 13.804 87.9389 13.8521 87.9752C13.9349 88.0378 13.9938 88.0961 14.0444 88.147C14.05 88.1527 14.0555 88.1589 14.061 88.1646C14.1145 88.2181 14.1616 88.2615 14.2271 88.2964C14.3217 88.3245 14.3925 88.326 14.4565 88.3267C14.6248 88.3285 14.7503 88.3302 15.1704 88.8228C15.5782 89.3014 16.3969 89.4657 17.7642 89.5777C18.1448 89.609 18.6799 89.6756 19.2124 89.7427C19.2185 89.7434 19.2248 89.744 19.231 89.7447C19.7721 89.8126 20.3109 89.8807 20.6978 89.9117C22.204 90.0324 23.6693 89.5435 25.1909 90.2154C25.4699 90.1752 25.7239 90.1571 25.9575 90.1412C26.6532 90.0943 27.1836 90.058 27.6831 89.4791C27.7901 89.3521 28.087 89.2415 28.5044 89.1041C28.6266 89.0638 28.7604 89.0214 28.9077 88.9752C29.2673 88.8617 29.6881 88.7279 30.1665 88.5582C30.2661 88.5226 30.3555 88.4872 30.4399 88.4537C30.8096 88.31 31.0885 88.1955 31.7954 88.2154C32.6582 88.2401 34.1057 88.46 34.8804 88.6324C35.2642 88.7187 35.4876 88.8007 35.6421 88.8687C35.6852 88.8876 35.7237 88.9062 35.7583 88.9224C35.8489 88.9648 35.9169 88.9978 36.0103 89.0191C36.6814 89.173 37.1398 89.0571 37.9019 88.8189C37.9482 88.8046 37.9921 89.0041 37.9985 89.2642C38.0049 89.5239 37.9702 89.7468 37.9243 89.7632C37.1624 90.0017 36.6959 90.1193 36.0161 89.9634C35.9189 89.9411 35.8449 89.9061 35.7524 89.8628C35.7183 89.8468 35.682 89.829 35.6411 89.8111C35.4889 89.7442 35.2676 89.6636 34.8853 89.5777C34.1122 89.4056 32.6681 89.1863 31.8081 89.1617C31.1078 89.1419 30.8343 89.2529 30.4653 89.3961C30.3808 89.4297 30.2913 89.4657 30.1909 89.5015C29.7122 89.6715 29.2897 89.8059 28.9302 89.9195C28.7831 89.9657 28.6485 90.0083 28.5269 90.0484C28.1015 90.1886 27.8231 90.2961 27.7319 90.4048C27.2153 91.0045 26.6606 91.0415 25.9585 91.0884C25.7274 91.104 25.4786 91.1208 25.2085 91.1597C24.5951 91.5965 23.9786 91.8035 23.3618 91.8248C30.6593 91.9418 39.343 91.967 48.2212 91.9839V40.3921H11.2378C11.259 40.4342 11.2789 40.479 11.2944 40.525ZM43.1772 87.775C43.8858 87.7812 44.4599 87.787 44.7681 87.8336C44.813 87.8415 44.8588 88.0584 44.8599 88.3189C44.863 88.5792 44.8204 88.7845 44.7759 88.7779C44.4698 88.7316 43.9001 88.7264 43.1938 88.7203C42.7671 88.7165 42.2911 88.7127 41.7974 88.6988C41.6083 88.6937 41.4968 88.7334 41.2358 88.8189C41.0927 88.8661 40.9145 88.9274 40.6528 89.0025C40.6063 89.0161 40.5631 88.8157 40.5571 88.5552C40.5512 88.2951 40.5849 88.0728 40.6313 88.0582C40.8845 87.985 41.065 87.9247 41.2056 87.8775C41.4734 87.7903 41.5904 87.7482 41.7856 87.7535C42.2763 87.7673 42.7509 87.7712 43.1772 87.775ZM387.509 86.0914C387.728 86.135 387.998 85.8676 388.212 86.0347C388.215 86.037 388.218 86.0402 388.221 86.0425C388.308 86.111 388.396 86.2098 388.504 86.3287C388.518 86.3438 388.534 86.3598 388.548 86.3755C388.672 86.5163 388.83 86.6857 389.044 86.8736C389.457 87.2373 389.821 87.2542 390.094 87.1793C390.286 87.1241 390.441 87.0198 390.512 86.9654C390.872 86.7085 391.247 86.7057 391.763 86.7027C391.81 86.7024 391.861 86.7032 391.91 86.7027C391.949 86.7029 391.98 86.9131 391.979 87.1734C391.978 87.4345 391.944 87.6466 391.905 87.647C391.858 87.6475 391.807 87.6477 391.761 87.648C391.242 87.6512 390.875 87.6549 390.524 87.9058C390.449 87.9622 390.289 88.072 390.087 88.1275C389.809 88.201 389.438 88.1787 389.021 87.8101C388.803 87.6202 388.646 87.4498 388.519 87.3082C388.505 87.2929 388.49 87.2778 388.477 87.2632L388.476 87.2613C388.369 87.1415 388.282 87.0465 388.2 86.981C388.198 86.9799 388.195 86.9782 388.194 86.9771C387.978 86.8087 387.712 87.079 387.5 87.0367C387.461 87.0265 387.431 86.808 387.433 86.5484C387.436 86.2893 387.47 86.0857 387.509 86.0914ZM402.182 83.1607C402.399 82.8195 402.675 82.8632 402.916 83.023C403.158 83.1841 403.371 83.4699 403.471 83.6441C403.57 83.8141 403.683 83.8716 403.814 83.9087C403.845 83.9172 403.877 83.9245 403.91 83.9322C404 83.9534 404.099 83.9769 404.203 84.0289C404.225 84.0395 404.248 84.0517 404.27 84.065C404.747 84.3541 405.068 84.3783 405.291 84.3619C405.338 84.3586 405.382 84.3531 405.422 84.3482C405.574 84.3297 405.69 84.3166 405.79 84.4283C405.963 84.6273 406.108 84.8044 406.273 85.1441C406.497 85.6124 406.849 85.5766 407.092 85.2759C407.106 85.2594 407.12 85.2414 407.133 85.2242C407.309 85.0048 407.531 84.7353 407.844 84.5464C408.105 84.39 408.319 84.4209 408.501 84.4859C408.554 84.5045 408.605 84.5262 408.651 84.5464C408.77 84.5979 408.875 84.6451 408.977 84.6343C409.617 84.5669 409.927 84.788 410.103 85.0748C410.198 85.2315 410.254 85.4126 410.292 85.5728C410.309 85.6385 410.321 85.7014 410.333 85.7574C410.344 85.8152 410.354 85.8675 410.365 85.9087C410.459 86.278 410.568 86.4571 410.69 86.6714C410.717 86.7188 410.745 86.7686 410.772 86.8218C410.865 87.0011 410.956 86.9923 411.037 86.941C411.072 86.9186 411.105 86.8877 411.136 86.8589L411.138 86.857C411.142 86.8531 411.147 86.85 411.151 86.8462C411.154 86.8434 411.158 86.8394 411.161 86.8365C411.163 86.8323 411.164 86.8291 411.166 86.8267C411.166 86.8248 411.167 86.8227 411.167 86.8218V86.8209C411.176 86.8043 411.182 86.7977 411.183 86.7964C411.185 86.7944 411.187 86.7941 411.188 86.7935C411.192 86.7901 411.197 86.7883 411.201 86.7877C411.209 86.7861 411.223 86.7844 411.244 86.7847C411.264 86.7753 411.286 86.7569 411.313 86.733C411.315 86.7314 411.317 86.7297 411.319 86.7281C411.346 86.7046 411.377 86.6775 411.414 86.6529C411.447 86.6314 411.428 86.8176 411.372 87.0699C411.315 87.3224 411.244 87.546 411.212 87.5699C411.18 87.5937 411.153 87.6203 411.127 87.6441C411.126 87.6457 411.124 87.6474 411.123 87.649C411.096 87.6739 411.071 87.697 411.047 87.7086C411.039 87.7123 411.031 87.7148 411.024 87.7164C411.009 87.7251 410.992 87.7414 410.97 87.7623C410.966 87.7665 410.961 87.7705 410.957 87.775C410.927 87.8041 410.892 87.838 410.856 87.8628C410.77 87.9209 410.676 87.9305 410.581 87.7369C410.556 87.6861 410.531 87.6377 410.505 87.5914C410.389 87.3779 410.277 87.1882 410.18 86.7974C410.167 86.744 410.157 86.6827 410.144 86.6187C410.14 86.597 410.135 86.574 410.13 86.5513C410.095 86.3759 410.048 86.1754 409.944 85.9957C409.784 85.7241 409.503 85.5058 408.888 85.5748C408.785 85.5866 408.676 85.537 408.558 85.4849C408.514 85.4652 408.466 85.4456 408.418 85.4283C408.243 85.3646 408.041 85.3354 407.793 85.4869C407.492 85.6718 407.281 85.9335 407.107 86.1519C407.101 86.1597 407.095 86.1676 407.089 86.1753C407.082 86.1847 407.074 86.1945 407.067 86.2037C406.811 86.524 406.441 86.5706 406.196 86.0533C406.041 85.7287 405.902 85.5588 405.731 85.3609C405.645 85.2639 405.547 85.2749 405.4 85.2925C405.358 85.2975 405.311 85.3016 405.259 85.3052C405.034 85.3219 404.712 85.2985 404.232 85.0064C404.213 84.9949 404.193 84.9846 404.174 84.9752C404.072 84.9223 403.975 84.8991 403.883 84.8775C403.85 84.8696 403.816 84.862 403.784 84.8531C403.652 84.8158 403.528 84.7566 403.415 84.5601C403.323 84.3984 403.115 84.1209 402.881 83.9644C402.645 83.8068 402.391 83.778 402.201 84.0777C402.181 84.1089 402.16 84.1394 402.14 84.1705C401.97 84.438 401.798 84.7115 401.652 85.1685C400.99 88.0459 399.92 86.926 399.197 86.7408C399.187 86.7383 399.178 86.7354 399.168 86.733C398.335 86.5193 397.725 86.5365 397.517 86.5425C397.508 86.5428 397.499 86.5433 397.491 86.5435C397.484 86.5437 397.477 86.5444 397.471 86.5445C397.387 86.546 397.312 86.5789 397.233 86.6128C397.229 86.6147 397.224 86.6169 397.22 86.6187C397.137 86.6546 397.048 86.6895 396.946 86.6851C396.563 86.6686 396.25 86.708 395.98 86.7505C395.93 86.7584 395.881 86.7652 395.833 86.773C395.624 86.8073 395.442 86.8381 395.265 86.8365C394.946 86.8336 394.728 86.891 394.56 86.9537C394.508 86.9732 394.46 86.9941 394.414 87.0132C394.314 87.0549 394.226 87.0909 394.137 87.1031C393.972 87.126 393.813 87.1899 393.662 87.2515C393.648 87.257 393.634 87.2617 393.621 87.2671C393.456 87.3336 393.289 87.3959 393.119 87.3961C393.078 87.3934 393.047 87.1817 393.048 86.9224C393.05 86.6625 393.084 86.4511 393.125 86.4498C393.29 86.4496 393.452 86.3902 393.618 86.3238C393.631 86.3183 393.645 86.3127 393.659 86.3072C393.809 86.2456 393.971 86.1821 394.14 86.1587C394.226 86.147 394.309 86.1127 394.407 86.0718C394.454 86.0524 394.504 86.031 394.559 86.0103C394.729 85.9467 394.95 85.8883 395.272 85.8912C395.447 85.8928 395.628 85.8619 395.837 85.8277C395.885 85.8199 395.934 85.8122 395.985 85.8043C396.256 85.7616 396.571 85.7222 396.956 85.7388C397.053 85.743 397.136 85.7101 397.219 85.6744C397.224 85.6725 397.228 85.6703 397.233 85.6685C397.311 85.6348 397.392 85.6006 397.481 85.5992C397.493 85.599 397.508 85.5987 397.526 85.5982C397.734 85.5922 398.348 85.5742 399.185 85.7886C399.187 85.7894 399.19 85.7899 399.193 85.7906C399.754 85.9344 400.07 86.0168 400.313 85.7877C400.505 85.6068 400.646 85.562 400.762 85.5416C400.784 85.5377 400.806 85.5337 400.826 85.5308C400.912 85.5183 400.98 85.508 401.048 85.4439C401.255 85.2496 401.412 84.928 401.601 84.3257C401.762 83.8155 401.956 83.5158 402.123 83.2535V83.2525C402.142 83.2215 402.163 83.191 402.182 83.1607ZM411.958 86.1412L411.958 86.1421C411.986 86.1576 411.951 86.3732 411.882 86.6246C411.813 86.8763 411.739 87.069 411.713 87.0543L411.54 86.9517C411.517 86.934 411.548 86.719 411.61 86.4683C411.672 86.2172 411.744 86.0247 411.77 86.0357C411.831 86.0701 411.893 86.1048 411.958 86.1412ZM31.7739 81.3316C34.5676 81.4116 37.3765 82.4675 40.1538 81.8511C40.3111 81.8173 40.4647 81.7791 40.6128 81.7349C41.4652 81.4888 42.3087 81.4443 43.1597 81.4517C43.864 81.4582 45.1711 81.9294 45.4771 81.9761C45.5274 81.984 45.5595 82.2019 45.5776 82.4625C45.5608 82.723 45.5351 82.9282 45.4839 82.9214C45.1806 82.8749 43.8773 82.4044 43.1763 82.398C42.3267 82.3906 41.4861 82.4336 40.6343 82.6793C40.4824 82.7247 40.3251 82.7675 40.1636 82.8082C37.3874 83.5293 34.5839 83.5033 31.7915 83.4234C31.0926 83.4034 30.8128 82.9289 30.4438 83.0718C30.3583 83.1054 30.2699 83.1415 30.1694 83.1773C28.9991 83.5937 27.905 84.9864 27.5132 85.4878C27.4578 85.5587 27.4159 85.6123 27.3901 85.6421C27.344 85.6955 27.2951 85.5305 27.2817 85.275C27.2685 85.0199 27.2953 84.7701 27.3413 84.7164C27.3657 84.6881 27.4058 84.6367 27.4595 84.5679C27.8453 84.0721 28.9582 82.6564 30.145 82.2339C30.2446 82.1984 30.3337 82.164 30.4185 82.1304C30.789 81.9866 31.0679 81.3118 31.7739 81.3316ZM12.7388 82.8668C12.6522 82.6181 12.7845 81.8975 12.9409 82.1021C12.9465 82.1078 12.9519 82.114 12.9575 82.1197C13.011 82.1731 13.0581 82.2166 13.1235 82.2515C13.2182 82.2795 13.289 82.2811 13.353 82.2818C13.5216 82.2837 14.6922 82.4414 15.1118 82.9341C15.5199 83.4122 16.3325 82.9102 17.7007 83.022C18.082 83.0535 18.6183 83.5598 19.1499 83.399C19.1513 83.3986 19.1534 83.3984 19.1548 83.398C19.6846 83.238 20.2166 83.0768 20.6069 83.108C20.9993 83.1396 21.2479 83.3687 21.4868 83.5933C21.489 83.5955 21.4915 83.598 21.4937 83.6002C21.7279 83.8198 21.9513 84.0324 22.314 84.0611C22.562 84.0807 22.8645 84.1289 23.1929 84.1802C23.8569 84.2845 24.6089 84.4033 25.1382 84.3267C25.186 84.3213 25.2289 84.5267 25.2339 84.7867C25.2388 85.0471 25.2037 85.2635 25.1558 85.2711C24.6218 85.3483 23.8598 85.2292 23.1929 85.1246C22.867 85.0736 22.5683 85.0256 22.3257 85.0064C21.9487 84.9767 21.7138 84.7527 21.4771 84.5308C21.4747 84.5287 21.4726 84.5261 21.4702 84.524C21.2343 84.3023 20.9964 84.0838 20.6177 84.0533C20.2339 84.0227 19.7068 84.1832 19.1733 84.3443H19.1724C18.6434 84.5047 18.1097 85.1446 17.7212 85.1128C16.3617 85.0016 15.5184 84.3626 15.0884 83.858C14.3373 82.9752 13.5097 83.9851 12.7388 82.8668ZM404.36 78.8873C404.761 78.91 405.228 79.0188 405.649 79.1197C405.919 79.1849 406.175 79.2476 406.378 79.2789C406.695 79.3274 406.884 79.5638 407.069 79.7984C407.071 79.8007 407.073 79.8038 407.075 79.8062C407.261 80.0409 407.443 80.2715 407.76 80.3267C408.08 80.3822 408.535 80.261 409.002 80.147H409.003C409.464 80.0328 410 79.4542 410.339 79.5347C410.687 79.6181 410.988 79.7496 411.236 79.9048C411.826 80.273 412.168 80.7798 412.335 81.1822C412.533 81.6535 412.82 81.7222 413.117 81.8023C413.449 81.8903 413.771 81.9949 413.823 82.6627C413.786 82.9177 413.415 83.5415 413.405 83.316C413.404 83.3096 413.403 83.3028 413.402 83.2964C413.391 83.2342 413.379 83.1822 413.354 83.1353C413.31 83.0891 413.27 83.0738 413.233 83.0601C413.191 83.0445 413.047 82.9659 412.841 82.8345C412.568 82.6562 412.244 82.399 412.115 82.0796C411.963 81.7005 411.542 81.7592 410.932 81.7291C410.673 81.7161 410.386 81.6882 410.065 81.608C409.766 81.5317 409.387 80.9737 408.929 81.0884C408.928 81.0887 408.926 81.0892 408.925 81.0894C408.472 81.2034 408.02 81.3272 407.7 81.2711C407.376 81.214 407.189 80.9716 407.001 80.7339C407 80.7318 406.998 80.7292 406.997 80.7271C406.817 80.4948 406.637 80.2699 406.335 80.2232C406.13 80.1913 405.872 80.1286 405.603 80.063C405.186 79.9625 404.727 79.854 404.332 79.8316C404.205 79.8244 404.083 79.8262 403.971 79.8404C403.93 79.8445 403.902 79.6378 403.908 79.3775C403.914 79.1174 403.95 78.9022 403.992 78.8961C404.106 78.8816 404.231 78.8799 404.36 78.8873ZM402.117 78.4546C402.157 78.4027 402.192 78.5691 402.196 78.8248C402.199 79.0802 402.17 79.3292 402.129 79.3814C402.108 79.4089 402.072 79.4587 402.025 79.5259C401.681 80.0103 400.711 81.3947 399.707 81.7886C399.622 81.8218 399.546 81.8548 399.473 81.8863C399.164 82.0218 398.907 82.6885 398.321 82.6529C395.855 82.5032 393.395 81.281 390.915 82.0845C390.655 82.1694 390.388 82.2269 390.132 82.2652C389.678 82.3315 389.224 82.3393 388.773 82.3257C388.176 82.3077 387.09 81.8152 386.834 81.7632C386.794 81.754 386.766 81.536 386.774 81.2759C386.767 81.0159 386.803 80.8112 386.842 80.8179C387.096 80.869 388.18 81.3615 388.774 81.3794C389.227 81.393 389.684 81.3861 390.14 81.3189C390.392 81.2808 390.655 81.2239 390.912 81.1402C393.396 80.3356 395.877 80.4123 398.354 80.5621C398.937 80.5975 399.166 81.078 399.475 80.9439C399.548 80.9124 399.624 80.8787 399.709 80.8453C400.702 80.4569 401.66 79.0945 402.008 78.605C402.057 78.5358 402.094 78.4837 402.117 78.4546ZM40.9673 75.9068C41.1853 75.7719 41.8713 75.3415 42.7593 75.9732C43.0156 76.1589 43.2084 76.3253 43.3667 76.4644C43.3836 76.4796 43.4007 76.4949 43.4165 76.5093L43.4175 76.5103C43.5441 76.6282 43.6547 76.7217 43.7505 76.7857C43.7527 76.7868 43.7551 76.7885 43.7573 76.7896C44.0176 76.9543 44.3293 76.6791 44.5825 76.7173C44.6314 76.7265 44.6702 76.9439 44.6724 77.2037C44.6743 77.4639 44.6384 77.6683 44.5894 77.6617C44.327 77.6225 44.0135 77.8947 43.7534 77.732C43.7496 77.7298 43.7461 77.7274 43.7427 77.7252C43.644 77.6583 43.5249 77.5611 43.4019 77.4439C43.3855 77.429 43.3684 77.4135 43.3511 77.398C43.1918 77.2597 43.002 77.0936 42.7495 76.9097C41.8823 76.2926 41.2129 76.7154 40.9985 76.8472C40.7299 77.0177 40.4478 77.0819 40.1069 77.1099C39.9316 77.1251 39.7285 77.1296 39.5122 77.1343C39.4571 77.1355 39.3993 77.1358 39.3403 77.1373C39.2927 77.1376 39.2513 76.9279 39.2476 76.6675C39.2439 76.4065 39.2798 76.1931 39.3276 76.1919C39.3852 76.1905 39.4409 76.1892 39.4946 76.188H39.4956C39.716 76.1832 39.9222 76.1791 40.0981 76.1636C40.4334 76.1358 40.7057 76.0721 40.9673 75.9068ZM404.547 72.7603C405.769 72.0731 406.995 72.4571 408.182 73.5367C408.539 73.5949 409.045 73.7044 409.571 73.8257C409.576 73.8274 409.583 73.829 409.588 73.8306C410.107 73.9501 410.65 74.0834 411.05 74.1724C411.468 74.2647 411.848 74.3664 412.14 74.4683C412.846 74.7131 413.341 75.0083 413.58 75.4273C413.894 75.9814 414.009 76.0127 414.182 76.0582C414.187 76.0596 414.191 76.0615 414.196 76.063L414.216 76.0425C414.223 76.0381 414.228 76.0371 414.23 76.0367C414.234 76.0357 414.237 76.0356 414.239 76.0357C414.243 76.0362 414.248 76.0383 414.251 76.0396C414.281 76.0518 414.371 76.1045 414.437 76.1617C414.499 76.2158 414.54 76.2742 414.578 76.3375C414.581 76.3427 414.584 76.3487 414.587 76.3541C414.592 76.3611 414.596 76.3685 414.6 76.3755C414.638 76.439 414.681 76.5086 414.752 76.5914C414.796 76.6424 414.77 76.8834 414.693 77.1294C414.615 77.3756 414.518 77.5349 414.478 77.4859C414.409 77.4006 414.367 77.3272 414.331 77.2642V77.2632C414.327 77.2566 414.323 77.2494 414.319 77.2427C414.281 77.1769 414.246 77.1223 414.189 77.0709C414.101 77.0181 414.029 76.9976 413.963 76.98C413.791 76.9343 413.665 76.8983 413.351 76.3218C413.135 75.9267 412.672 75.6413 411.985 75.4C411.701 75.2998 411.335 75.2001 410.928 75.1089C410.539 75.0214 410.011 74.8895 409.503 74.7711C409.498 74.7698 409.492 74.7684 409.486 74.7671C408.971 74.6468 408.474 74.5379 408.123 74.48C406.875 74.2759 405.686 74.6087 404.505 74.1275C404.388 74.0789 404.269 74.0214 404.149 73.9546C403.909 73.9849 403.684 73.9933 403.484 74.0015C402.886 74.0255 402.426 74.0464 401.983 74.6109C401.884 74.7347 401.635 74.8373 401.273 74.9634C401.168 75.0003 401.052 75.0393 400.926 75.0816C400.621 75.1857 400.256 75.3082 399.847 75.4664C399.762 75.4995 399.685 75.5325 399.612 75.564C399.299 75.6989 399.053 75.8068 398.46 75.7711C397.731 75.7269 396.514 75.4769 395.863 75.2896C395.538 75.1958 395.354 75.1095 395.224 75.0386C395.188 75.019 395.156 74.9998 395.127 74.983C395.052 74.9389 394.991 74.9055 394.914 74.8824C394.355 74.7161 393.96 74.8229 393.315 75.0474C393.275 75.0607 393.241 74.8603 393.241 74.6002C393.24 74.3402 393.272 74.1171 393.312 74.1021C393.958 73.8771 394.36 73.7685 394.927 73.9371C395.008 73.9611 395.072 73.9987 395.149 74.0435C395.177 74.0601 395.209 74.0786 395.243 74.0972C395.37 74.1669 395.553 74.2519 395.876 74.3453C396.527 74.5323 397.744 74.7807 398.472 74.8248C399.059 74.8601 399.302 74.756 399.614 74.6216C399.687 74.5901 399.764 74.5563 399.85 74.523C400.26 74.3647 400.626 74.2404 400.932 74.1363C401.058 74.0939 401.175 74.0549 401.28 74.0181C401.649 73.8895 401.883 73.7911 401.969 73.6851C402.43 73.1006 402.91 73.079 403.516 73.0552C403.715 73.0473 403.936 73.0396 404.169 73.0103C404.297 72.9154 404.423 72.8318 404.547 72.7603ZM390.999 74.8169C391.039 74.8039 391.073 75.0056 391.074 75.2662C391.075 75.5268 391.042 75.7482 391.001 75.7613C390.794 75.8303 390.632 75.8873 390.517 75.9322C390.369 75.9868 390.273 76.0237 390.181 76.0396C390.131 76.0478 390.081 76.0503 390.027 76.0474C389.615 76.0255 389.216 76.0132 388.86 76.0025C388.266 75.9847 387.777 75.9701 387.522 75.9185C387.48 75.9088 387.451 75.6912 387.454 75.4312C387.456 75.1714 387.489 74.9674 387.531 74.9742C387.784 75.0254 388.269 75.0405 388.861 75.0582C389.217 75.0689 389.618 75.0801 390.033 75.1021C390.088 75.105 390.137 75.1019 390.188 75.0933C390.274 75.0778 390.365 75.0429 390.507 74.9908C390.622 74.9459 390.785 74.8877 390.999 74.8169ZM35.1274 68.6744C35.7204 68.7031 36.7095 68.9295 37.2368 69.106C37.5049 69.1943 37.6502 69.2775 37.7563 69.3462C37.7863 69.3653 37.8134 69.3836 37.8374 69.4C37.9003 69.4429 37.949 69.4767 38.0122 69.4986C38.4615 69.6562 38.7844 69.5427 39.3032 69.3091C39.3353 69.2947 39.3647 69.4949 39.3687 69.7554C39.3725 70.0158 39.3499 70.2396 39.3179 70.2544C38.7993 70.4883 38.4712 70.6025 38.0161 70.4429C37.9502 70.4201 37.8975 70.384 37.8335 70.3404C37.8098 70.3242 37.7838 70.3067 37.7554 70.2886C37.6516 70.221 37.5072 70.1392 37.2407 70.0513C36.7146 69.8751 35.7271 69.6482 35.1362 69.6197C34.6673 69.5966 34.4661 69.7068 34.2222 69.8482C34.1641 69.8814 34.1027 69.9164 34.0337 69.9517C33.7012 70.1196 33.421 70.2527 33.1724 70.3648C33.0712 70.4104 32.9799 70.4531 32.897 70.4927C32.607 70.6312 32.4187 70.7368 32.354 70.8453C32.0056 71.4425 31.6179 71.4778 31.146 71.522C31.0164 71.5341 30.8785 71.547 30.731 71.5718L31.0591 71.5611C31.0263 71.5682 30.9928 71.5761 30.9595 71.5845C30.0088 72.6865 28.9818 72.4519 27.9282 71.4117C27.6661 71.3932 27.3048 71.3436 26.9448 71.2945C26.941 71.2937 26.9369 71.2933 26.9331 71.2925C26.5771 71.2439 26.2239 71.196 25.9751 71.1793C25.086 71.1198 24.5624 70.9984 24.27 70.5162C23.997 70.0668 23.9382 70.0728 23.8599 70.0787C23.8579 70.0786 23.8559 70.0779 23.854 70.0777V70.0806C23.8528 70.0927 23.8508 70.1 23.8501 70.1031C23.8487 70.1088 23.8478 70.1118 23.8472 70.1128C23.8461 70.1145 23.8448 70.1155 23.8442 70.1158C23.8425 70.1166 23.8398 70.117 23.8384 70.1168C23.8301 70.1148 23.8083 70.1043 23.7886 70.0884L24.4644 69.9576C24.4817 69.9465 24.4971 69.9319 24.5132 69.9195C24.8208 70.1204 25.2662 70.196 25.9028 70.2378C26.154 70.2545 26.5093 70.3008 26.8667 70.3492C26.8707 70.3497 26.8754 70.3507 26.8794 70.3511C27.2416 70.4001 27.6041 70.4509 27.8667 70.4693C28.8565 70.5404 29.8089 70.0321 30.8413 70.6089C30.947 70.5946 31.047 70.5837 31.1421 70.5748C31.6096 70.5306 31.9822 70.4963 32.3179 69.9195C32.3935 69.7929 32.5948 69.6832 32.8794 69.5474C32.9627 69.5077 33.0534 69.4661 33.1548 69.4205C33.4037 69.3085 33.6825 69.1761 34.0151 69.0084C34.0838 68.9732 34.1455 68.939 34.2036 68.9058C34.4487 68.7639 34.6535 68.651 35.1274 68.6744ZM388.333 69.1959C388.523 69.2382 388.762 68.9695 388.951 69.1353C388.953 69.1375 388.956 69.14 388.958 69.1421C389.039 69.2101 389.111 69.3089 389.21 69.4273C389.222 69.4422 389.234 69.4577 389.247 69.4732C389.358 69.6132 389.499 69.7817 389.687 69.9683C390.238 70.5077 390.676 70.2762 390.896 70.1187C390.93 70.0932 390.958 70.0693 390.979 70.0513C391.296 69.7922 391.625 69.7871 392.081 69.7808C392.122 69.7803 392.165 69.7806 392.209 69.7798C392.246 69.7796 392.274 69.9909 392.274 70.2515C392.274 70.5118 392.247 70.7235 392.21 70.7252C392.167 70.7259 392.124 70.7265 392.083 70.7271L391.763 70.7359C391.465 70.7519 391.226 70.802 390.994 70.9918C390.969 71.0127 390.935 71.0408 390.894 71.0709C390.664 71.2311 390.222 71.4454 389.67 70.9048C389.48 70.7163 389.338 70.5476 389.227 70.4068C389.215 70.3915 389.203 70.3755 389.191 70.3609L389.19 70.3599C389.091 70.2407 389.02 70.1457 388.944 70.0806C388.942 70.0796 388.94 70.0787 388.939 70.0777C388.748 69.91 388.515 70.1813 388.331 70.1402C388.294 70.1306 388.266 69.9128 388.267 69.6529C388.268 69.394 388.297 69.1908 388.333 69.1959ZM30.8647 70.6207C30.8768 70.6275 30.8898 70.634 30.9019 70.6412C30.937 70.6322 30.9719 70.6242 31.0063 70.6168L30.8647 70.6207ZM401.249 66.1402C401.434 65.796 401.682 65.8361 401.894 65.9918C402.113 66.1488 402.303 66.4297 402.397 66.6021C402.486 66.7704 402.585 66.8263 402.704 66.8609C402.731 66.8688 402.76 66.8753 402.79 66.8824C402.888 66.9058 402.994 66.9326 403.112 67.0084C403.544 67.2874 403.827 67.3028 404.031 67.2808C404.072 67.2763 404.11 67.2701 404.145 67.2642C404.146 67.264 404.148 67.2635 404.149 67.2632C404.287 67.2412 404.387 67.2269 404.475 67.3345C404.643 67.5286 404.769 67.7006 404.928 68.0347C405.141 68.4961 405.46 68.4489 405.671 68.1392C405.683 68.1222 405.695 68.1041 405.708 68.0865C405.858 67.8606 406.053 67.5827 406.33 67.3804C406.559 67.2126 406.759 67.233 406.926 67.2886C406.976 67.3046 407.018 67.3244 407.064 67.3423C407.175 67.3875 407.272 67.4284 407.366 67.4117C407.947 67.3076 408.22 67.5034 408.404 67.7769C408.545 67.9878 408.63 68.2518 408.695 68.4419C408.715 68.4992 408.733 68.5507 408.751 68.5914C408.764 68.6206 408.777 68.6495 408.791 68.6763C408.945 68.983 409.101 69.1415 409.279 69.3267C409.322 69.3714 409.367 69.4181 409.413 69.4683C409.567 69.6366 409.687 69.6168 409.783 69.5552C409.825 69.5283 409.862 69.4935 409.897 69.4605L409.923 69.4341L409.929 69.4195L409.93 69.4185C409.938 69.4009 409.944 69.3936 409.945 69.3921C409.947 69.3898 409.949 69.388 409.95 69.3873C409.954 69.3836 409.96 69.3815 409.964 69.3804C409.975 69.3776 409.994 69.3745 410.022 69.3716C410.047 69.3593 410.071 69.337 410.101 69.3091C410.103 69.3074 410.105 69.306 410.107 69.3043C410.136 69.2769 410.171 69.2447 410.213 69.2144C410.252 69.1869 410.277 69.3753 410.269 69.6343C410.261 69.8935 410.223 70.1262 410.184 70.1539C410.144 70.1823 410.111 70.2116 410.082 70.2388C410.08 70.2407 410.078 70.2428 410.076 70.2447C410.045 70.2731 410.015 70.3003 409.984 70.315C409.973 70.3199 409.963 70.3232 409.953 70.3257C409.934 70.3364 409.913 70.3556 409.887 70.3794C409.882 70.3843 409.876 70.389 409.871 70.3941C409.836 70.427 409.794 70.4654 409.749 70.4947C409.641 70.5632 409.505 70.5833 409.333 70.4C409.289 70.3519 409.244 70.3061 409.201 70.2623C409.03 70.0892 408.869 69.9312 408.709 69.647C408.683 69.5991 408.657 69.5464 408.632 69.4908C408.609 69.4381 408.588 69.3781 408.567 69.315C408.504 69.1269 408.432 68.901 408.307 68.7066C408.138 68.4466 407.89 68.252 407.326 68.356C407.229 68.3734 407.129 68.3295 407.018 68.2837C406.974 68.2662 406.933 68.2489 406.887 68.2339C406.725 68.1794 406.534 68.1598 406.316 68.3218C406.048 68.5196 405.86 68.7894 405.711 69.0142C405.706 69.0222 405.701 69.0306 405.696 69.0386C405.689 69.0482 405.683 69.0576 405.676 69.0669C405.452 69.3969 405.115 69.4566 404.88 68.9468C404.727 68.6272 404.609 68.4612 404.444 68.2681C404.366 68.1735 404.28 68.1871 404.144 68.2086C404.141 68.209 404.138 68.2101 404.135 68.2105C404.101 68.216 404.063 68.2205 404.021 68.2252C403.815 68.2475 403.53 68.2325 403.093 67.9507C402.98 67.8774 402.878 67.852 402.781 67.8287C402.751 67.8214 402.721 67.8135 402.692 67.8052C402.573 67.7705 402.462 67.7145 402.359 67.5201C402.272 67.36 402.09 67.0859 401.876 66.9332C401.668 66.7796 401.438 66.7548 401.276 67.0572C401.259 67.0885 401.241 67.1197 401.224 67.1509C401.076 67.4209 400.925 67.6968 400.802 68.1558C400.246 71.0426 399.284 69.9358 398.643 69.7584C398.635 69.7561 398.627 69.7538 398.619 69.7515C397.88 69.5469 397.341 69.5697 397.157 69.5777C397.148 69.5781 397.14 69.5784 397.133 69.5787C397.127 69.5789 397.122 69.5795 397.117 69.5796C397.042 69.5818 396.975 69.6152 396.906 69.65C396.902 69.6518 396.899 69.654 396.895 69.6558C396.821 69.6925 396.744 69.7287 396.653 69.7252C396.316 69.7121 396.041 69.7537 395.801 69.7984C395.757 69.8067 395.713 69.8146 395.671 69.8228C395.535 69.8498 395.407 69.8746 395.288 69.8853L394.975 69.9009C394.796 69.9204 394.661 69.9653 394.548 70.0132C394.502 70.0332 394.459 70.0542 394.418 70.0738C394.331 70.1162 394.256 70.1537 394.176 70.1666C394.027 70.1908 393.893 70.2552 393.757 70.3179C393.745 70.3234 393.733 70.3281 393.721 70.3336C393.574 70.4012 393.434 70.4641 393.279 70.4654C393.243 70.4644 393.214 70.2529 393.214 69.9927C393.214 69.7327 393.243 69.5206 393.279 69.5191C393.429 69.5177 393.566 69.4577 393.713 69.3902C393.725 69.3847 393.737 69.3782 393.75 69.3726C393.885 69.3101 394.021 69.2459 394.173 69.2212C394.251 69.2089 394.322 69.174 394.408 69.1324C394.448 69.1126 394.492 69.0909 394.542 69.0699C394.694 69.005 394.884 68.9445 395.17 68.9449C395.322 68.9451 395.486 68.9135 395.668 68.8775C395.71 68.8693 395.754 68.8605 395.798 68.8521C396.039 68.8072 396.315 68.7657 396.655 68.7789C396.741 68.7822 396.814 68.7489 396.887 68.7125C396.891 68.7106 396.896 68.7085 396.9 68.7066C396.969 68.6722 397.039 68.6366 397.118 68.6343C397.128 68.6341 397.142 68.634 397.158 68.6334C397.342 68.6254 397.883 68.6008 398.625 68.8062C398.628 68.8069 398.63 68.8084 398.632 68.8091C399.13 68.9468 399.41 69.0248 399.623 68.7925C399.79 68.6094 399.916 68.5625 400.018 68.5406C400.037 68.5365 400.056 68.533 400.074 68.5298C400.149 68.5163 400.21 68.5048 400.27 68.44C400.454 68.243 400.584 67.9188 400.748 67.314C400.885 66.8016 401.051 66.4987 401.198 66.2339V66.233C401.215 66.2016 401.232 66.1708 401.249 66.1402ZM24.3638 68.6177C24.3636 68.5781 24.4432 68.7389 24.5493 68.9742C24.655 69.2092 24.7394 69.4331 24.73 69.4781C24.7144 69.5501 24.6975 69.6174 24.6772 69.6793C24.6751 69.686 24.6728 69.693 24.6704 69.6998C24.6454 69.7686 24.6139 69.834 24.5474 69.8951C24.5374 69.9042 24.5245 69.9107 24.5132 69.9195C24.3852 69.8359 24.2807 69.7305 24.1968 69.5962C23.9039 69.1262 23.8298 69.1319 23.7437 69.1382C23.7208 69.1399 23.6945 69.1418 23.6675 69.1334L24.2212 69.0259C24.2388 69.0168 24.2566 69.0059 24.2739 68.9927C24.3138 68.9441 24.331 68.892 24.3433 68.8306C24.3444 68.8242 24.3452 68.8175 24.3462 68.8111C24.3558 68.7532 24.3629 68.6869 24.3638 68.6177ZM410.77 68.6128C410.805 68.6223 410.824 68.841 410.812 69.1011C410.799 69.3607 410.761 69.5649 410.725 69.5572C410.64 69.5346 410.554 69.5116 410.467 69.4888C410.431 69.4779 410.411 69.2599 410.424 69.0005C410.437 68.7409 410.478 68.5365 410.514 68.5445C410.6 68.5672 410.685 68.5903 410.77 68.6128ZM42.9087 68.3013C43.3932 68.3131 43.7826 68.3233 43.9927 68.3726C44.0221 68.3817 44.0541 68.599 44.0532 68.8589C44.0543 69.1176 44.0225 69.3215 43.9937 69.3169C43.7852 69.268 43.3986 69.2583 42.9165 69.2466C42.623 69.2396 42.3017 69.2319 41.9634 69.2144C41.8411 69.2079 41.7482 69.247 41.5806 69.3306C41.4873 69.3768 41.3529 69.4371 41.1821 69.5103C41.15 69.5238 41.1212 69.3226 41.1177 69.0621C41.1142 68.8021 41.1374 68.5804 41.1694 68.566C41.3348 68.4946 41.4695 68.4354 41.563 68.3892C41.7351 68.3038 41.8319 68.2623 41.9585 68.2691C42.2947 68.2865 42.6156 68.2943 42.9087 68.3013ZM35.104 61.7906C37.1315 61.8888 39.1584 63.0749 41.1714 62.2427C41.7528 62.0024 42.3343 61.964 42.9204 61.9781C43.3998 61.9898 44.3044 62.4731 44.5112 62.523C44.5449 62.5318 44.5742 62.7491 44.5688 63.0093C44.5737 63.2694 44.5443 63.474 44.5103 63.4673C44.306 63.4176 43.4057 62.9361 42.9282 62.9244C42.3444 62.9103 41.7636 62.9473 41.1841 63.1871C39.1699 64.0202 37.1456 63.9795 35.1187 63.8814C34.6496 63.8583 34.4415 63.3833 34.1978 63.524C34.1395 63.5572 34.0776 63.593 34.0083 63.6285C33.2059 64.0399 32.4617 65.4287 32.1909 65.9283C32.1536 65.9987 32.1253 66.052 32.1079 66.0816C32.0768 66.1334 32.0434 65.9681 32.0337 65.7134C32.024 65.4589 32.0417 65.2099 32.0728 65.1558C32.0893 65.1277 32.1165 65.0759 32.1528 65.0074C32.4195 64.5128 33.1762 63.1024 33.9897 62.6851C34.0585 62.65 34.12 62.6148 34.1782 62.5816C34.4233 62.4395 34.6295 61.7672 35.104 61.7906ZM22.9282 63.315C23.1943 63.3886 23.456 63.5231 23.6118 63.7369C23.9387 64.1894 24.4617 63.6451 25.4126 63.7007C25.678 63.7169 26.0776 64.201 26.4321 64.0211L26.4351 64.0201C26.7878 63.8411 27.144 63.6612 27.4155 63.6793C27.6843 63.698 27.8691 63.9187 28.0444 64.1353C28.0461 64.1374 28.0486 64.14 28.0503 64.1421C28.2263 64.3538 28.3877 64.5601 28.6372 64.5777C28.8055 64.5899 29.0187 64.6277 29.2446 64.6695C29.702 64.7543 30.2256 64.8521 30.5825 64.7613C30.6152 64.7542 30.6545 64.9585 30.6704 65.2183C30.6862 65.4776 30.6726 65.6941 30.6401 65.7037C30.2808 65.7952 29.7517 65.6979 29.2935 65.6128C29.0698 65.5714 28.8589 65.532 28.6948 65.5201C28.4365 65.5018 28.2678 65.2864 28.0903 65.0728C28.0886 65.0708 28.0862 65.0681 28.0845 65.066C27.9125 64.852 27.7352 64.6417 27.4771 64.6236C27.2108 64.6059 26.8597 64.7834 26.5063 64.9634L26.4399 65.0025C26.1141 65.2227 25.8173 65.8004 25.5688 65.7857C24.6428 65.729 24.0226 65.1363 23.6812 64.6587C23.4642 64.3534 23.2587 64.3012 23.0542 64.3101C23.0429 64.3047 23.0056 64.3258 22.9937 64.3218C22.5607 64.4073 22.2974 64.7289 21.6499 64.274C21.4769 64.0854 21.1991 63.4156 21.4058 63.5357C21.4123 63.5386 21.4197 63.5416 21.4263 63.5445C21.4888 63.5713 21.5432 63.5911 21.6079 63.5962C21.6909 63.5839 21.7472 63.5565 21.8003 63.5308C21.8721 63.4993 22.2309 63.3576 22.7407 63.3521C22.7776 63.3645 22.8943 63.2971 22.9282 63.315ZM401.137 61.4361C401.172 61.3842 401.206 61.55 401.211 61.8052C401.217 62.0606 401.194 62.3101 401.159 62.3628C401.14 62.3907 401.109 62.4407 401.068 62.5084C400.774 62.9977 399.931 64.3961 399.05 64.8013C398.976 64.8354 398.91 64.8696 398.846 64.9019C398.575 65.0405 398.354 65.7099 397.836 65.6802C395.661 65.5552 393.488 64.35 391.31 65.1685C391.18 65.2194 391.035 65.2608 390.906 65.2945C390.409 65.4171 389.92 65.4359 389.427 65.4224C388.9 65.4079 387.944 64.9217 387.717 64.8716C387.682 64.8612 387.654 64.6435 387.658 64.3843C387.655 64.1245 387.687 63.92 387.721 63.9263C387.948 63.9765 388.898 64.4615 389.423 64.4761C389.918 64.4896 390.409 64.4713 390.908 64.3472C391.034 64.3141 391.175 64.2739 391.303 64.2242C393.484 63.4047 395.668 63.4644 397.849 63.5894C398.362 63.6188 398.569 64.0962 398.839 63.9586C398.903 63.9262 398.971 63.8923 399.045 63.858C399.915 63.4584 400.745 62.083 401.043 61.5884C401.085 61.5185 401.118 61.4655 401.137 61.4361ZM402.787 61.8462C403.18 61.7795 403.738 61.9095 404.226 62.0279C404.231 62.0289 404.235 62.0307 404.24 62.0318C404.483 62.0899 404.706 62.1454 404.882 62.1705C405.163 62.2094 405.332 62.4385 405.5 62.6666C405.502 62.6688 405.504 62.6721 405.505 62.6744C405.675 62.9024 405.84 63.1262 406.123 63.1685C406.404 63.2109 406.802 63.0692 407.204 62.9302H407.205C407.606 62.7918 408.047 62.1806 408.349 62.2378C408.735 62.3114 409.056 62.4628 409.297 62.6402C409.714 62.9417 410.012 63.3342 410.191 63.6656C410.693 64.5855 411.366 63.6144 411.867 64.7671C411.916 65.0196 411.778 65.7329 411.675 65.5211C411.672 65.5151 411.668 65.5084 411.665 65.5025C411.628 65.4467 411.596 65.4007 411.55 65.3628C411.483 65.3305 411.43 65.3264 411.383 65.3228C411.26 65.3126 410.4 65.1008 410.115 64.5865C409.942 64.2726 409.627 64.3377 409.152 64.3697C408.868 64.3879 408.56 64.3957 408.202 64.3238C407.934 64.2687 407.575 63.7355 407.175 63.8746L407.172 63.8755C406.78 64.0137 406.381 64.158 406.097 64.1148C405.808 64.0709 405.637 63.835 405.465 63.6041C405.464 63.6019 405.462 63.5994 405.46 63.5972C405.296 63.3713 405.135 63.1522 404.866 63.1148C404.687 63.0892 404.462 63.0346 404.218 62.9761C404.216 62.9757 404.213 62.9756 404.211 62.9752C403.726 62.8568 403.173 62.7241 402.783 62.7906C402.747 62.7954 402.719 62.589 402.72 62.3287C402.721 62.0686 402.751 61.8533 402.787 61.8462ZM39.2993 56.9595C39.331 56.96 39.3608 57.1717 39.3628 57.4322C39.3652 57.6924 39.3387 57.9045 39.3071 57.9058C39.1719 57.9083 39.0418 57.9698 38.9048 58.0386C38.8935 58.0443 38.882 58.0505 38.8706 58.0562C38.743 58.1199 38.6199 58.1855 38.478 58.2115C38.4071 58.2245 38.3394 58.2599 38.2583 58.3023C38.2196 58.3225 38.1803 58.3442 38.1353 58.3658C37.9985 58.432 37.8135 58.4943 37.5503 58.4966C37.4096 58.4979 37.2592 58.531 37.0854 58.5689C37.045 58.5776 37.0065 58.5865 36.9653 58.5953C36.7478 58.6426 36.479 58.6877 36.1685 58.6783C36.0888 58.676 36.0208 58.7103 35.9526 58.7476C35.9489 58.7495 35.9447 58.7515 35.9409 58.7535C35.8771 58.7887 35.8093 58.8255 35.7368 58.8287C35.7273 58.8291 35.7151 58.8288 35.7007 58.8296C35.5321 58.8398 35.0278 58.8697 34.3296 58.6744C34.3276 58.6737 34.3248 58.6731 34.3228 58.6724C33.8613 58.5413 33.5917 58.4674 33.3999 58.7027C33.2464 58.8882 33.129 58.9361 33.0327 58.9595C33.0146 58.9639 32.9974 58.9688 32.981 58.9722C32.9088 58.987 32.8547 58.9989 32.7993 59.065C32.633 59.2648 32.5138 59.5908 32.3716 60.1978C32.25 60.7122 32.1013 61.0176 31.9712 61.2847V61.2867C31.9558 61.3181 31.9401 61.3488 31.9253 61.3794C31.7589 61.7267 31.5255 61.6913 31.3247 61.5396C31.1224 61.3866 30.9351 61.1096 30.8462 60.939C30.7769 60.8058 30.7012 60.745 30.6157 60.7095C30.5896 60.6919 30.4857 60.7307 30.4585 60.7144C30.4367 60.7066 30.414 60.7002 30.3911 60.6949C30.3646 60.6887 30.3363 60.6835 30.3081 60.6783C30.215 60.661 30.1121 60.6417 29.9985 60.5738C29.5691 60.3234 29.2994 60.327 29.1128 60.3628C29.0733 60.3703 29.0356 60.3797 29.0015 60.3882C28.8723 60.4203 28.7785 60.4431 28.6841 60.3414C28.5105 60.16 28.375 59.9974 28.1968 59.6763C27.9517 59.2336 27.6466 59.307 27.4673 59.6334C27.4572 59.6512 27.4464 59.6704 27.436 59.689C27.3048 59.9273 27.1418 60.2213 26.8911 60.4488C26.6764 60.6378 26.4818 60.6374 26.3081 60.6002C26.2591 60.5894 26.2077 60.5749 26.1616 60.5621C26.0448 60.5296 25.9402 60.5007 25.8442 60.5289C25.2581 60.7033 24.8911 60.5613 24.6509 60.3228C24.4675 60.1394 24.346 59.8939 24.2642 59.7164C24.2386 59.6631 24.2147 59.615 24.1938 59.5777C24.0095 59.244 23.8483 59.0996 23.6548 58.9283C23.612 58.8905 23.5647 58.8511 23.5181 58.8082C23.3587 58.6641 23.2479 58.702 23.1694 58.7769C23.1333 58.8099 23.1016 58.8495 23.0737 58.8873L23.0728 58.8902C23.069 58.8953 23.0647 58.8999 23.061 58.9048C23.0582 58.9086 23.055 58.9138 23.0522 58.9175C23.0515 58.922 23.0508 58.9257 23.0503 58.9283C23.0499 58.9301 23.0495 58.9322 23.0493 58.9332L23.0483 58.9341C23.0443 58.9523 23.0396 58.9607 23.0386 58.9625C23.0371 58.9649 23.0355 58.9664 23.0347 58.9673C23.0303 58.9721 23.024 58.9754 23.02 58.9771C23.0098 58.9815 22.9916 58.9875 22.9644 58.9947C22.9417 59.0108 22.9219 59.0363 22.894 59.0689C22.8924 59.071 22.8908 59.0736 22.8892 59.0757C22.8621 59.1076 22.8343 59.144 22.7925 59.1812C22.7552 59.2131 22.699 59.0327 22.6646 58.7769C22.63 58.52 22.6313 58.2838 22.6694 58.2496C22.7099 58.2144 22.7383 58.1799 22.7651 58.148C22.7668 58.146 22.7684 58.1432 22.77 58.1412C22.7978 58.108 22.8261 58.0765 22.854 58.0572C22.8636 58.0508 22.8737 58.0457 22.8833 58.0416C22.9001 58.0281 22.9192 58.0058 22.9419 57.9781C22.9463 57.9726 22.9502 57.9673 22.9546 57.9615C22.983 57.9236 23.0172 57.8794 23.0581 57.8433C23.1483 57.7594 23.2736 57.7197 23.4487 57.8765C23.4939 57.9175 23.5417 57.9555 23.5825 57.9927C23.7815 58.164 23.9515 58.3176 24.1519 58.6714C24.1803 58.7198 24.2055 58.7765 24.2339 58.8355C24.3174 59.011 24.4199 59.2209 24.5923 59.3902C24.8225 59.6173 25.1846 59.7612 25.771 59.5875C25.8724 59.5579 25.9842 59.5886 26.104 59.6216C26.1495 59.6342 26.1997 59.6467 26.2456 59.6568C26.4173 59.6933 26.6074 59.693 26.8149 59.5103C27.0613 59.2878 27.2208 59.0023 27.3511 58.7652C27.3555 58.7569 27.3603 58.7481 27.3647 58.7398C27.3703 58.7298 27.3758 58.7193 27.3813 58.7095C27.5746 58.3613 27.8987 58.2747 28.1714 58.7642C28.3403 59.0714 28.4724 59.2273 28.645 59.4078C28.7267 59.4964 28.8073 59.4768 28.9341 59.4459C28.9697 59.4372 29.0092 59.4287 29.0532 59.4205C29.2436 59.384 29.5178 59.3792 29.9526 59.6324C30.0632 59.6984 30.1624 59.7167 30.2554 59.7339C30.284 59.7393 30.3125 59.7451 30.3403 59.7515C30.3622 59.7566 30.3842 59.7627 30.4058 59.7701C30.4401 59.7909 30.5729 59.7407 30.606 59.7632C30.6964 59.7994 30.7816 59.8649 30.8628 60.0211C30.9453 60.1795 31.127 60.4494 31.3237 60.5982C31.5222 60.748 31.7378 60.7685 31.8843 60.4634C31.8996 60.4317 31.9158 60.4003 31.9312 60.3687C32.0643 60.0962 32.1973 59.8179 32.3071 59.357C32.7816 56.4617 33.6994 57.5541 34.2993 57.7232C34.307 57.7254 34.3151 57.7278 34.3228 57.73C35.019 57.9248 35.5214 57.8954 35.6899 57.8853C35.6978 57.8848 35.705 57.8837 35.7114 57.8834C35.7171 57.883 35.7225 57.8826 35.7271 57.8824C35.7955 57.8793 35.8598 57.8456 35.9243 57.8101C35.9278 57.8082 35.9315 57.8062 35.9351 57.8043C36.0037 57.7668 36.0752 57.7295 36.1597 57.732C36.4686 57.7414 36.7354 57.6961 36.9526 57.649C36.9936 57.6402 37.0324 57.6322 37.0728 57.6236C37.2466 57.5857 37.399 57.5516 37.5415 57.5503C37.8021 57.548 37.9849 57.4877 38.1196 57.4224C38.1624 57.4019 38.2016 57.3809 38.2388 57.3609C38.3214 57.3178 38.3929 57.2797 38.4663 57.2662C38.6057 57.2407 38.7278 57.1748 38.855 57.1109C38.8661 57.1053 38.8771 57.0999 38.8882 57.0943C39.0255 57.0254 39.1599 56.962 39.2993 56.9595ZM21.6294 59.0962C21.7727 59.15 22.2398 58.8806 22.3745 58.9527C22.403 58.954 22.4326 58.9554 22.4624 58.9566C22.5075 58.9608 22.5677 59.1716 22.5981 59.4293C22.6279 59.6872 22.6184 59.8958 22.5757 59.8951C22.5478 59.8937 22.5201 59.8916 22.4937 59.8902C22.3807 59.8297 21.9894 60.0557 21.8687 60.0113C21.6648 60.0502 21.4723 60.0951 21.2944 60.1431C21.1948 60.1698 21.0444 59.995 20.9517 59.7515C20.8592 59.5077 20.8704 59.2826 20.9849 59.2505C21.184 59.1951 21.3997 59.142 21.6294 59.0962ZM404.324 55.3257C404.987 55.3374 405.639 55.7172 406.292 56.3677C406.594 56.4112 407.023 56.4965 407.463 56.5884C407.468 56.5898 407.474 56.5919 407.479 56.5933C407.916 56.6841 408.379 56.7817 408.731 56.8423C409.19 56.9206 409.593 57.0133 409.761 57.1002C410.078 57.2526 410.36 57.4553 410.519 57.7867C410.759 58.2751 410.841 58.2807 410.955 58.2896C410.957 58.2901 410.961 58.291 410.963 58.2916L410.964 58.2886C410.969 58.277 410.972 58.27 410.974 58.2671C410.978 58.2616 410.981 58.2593 410.982 58.2584C410.984 58.2566 410.987 58.2565 410.988 58.2564C410.991 58.2559 410.994 58.2559 410.997 58.2564C411.017 58.2622 411.08 58.2945 411.129 58.3355C411.181 58.3778 411.217 58.4314 411.254 58.4898C411.258 58.4955 411.262 58.5017 411.265 58.5074C411.299 58.5602 411.336 58.6182 411.39 58.6812C411.424 58.7198 411.438 58.9605 411.421 59.2183C411.405 59.4759 411.365 59.6532 411.332 59.6148C411.275 59.5485 411.234 59.4872 411.201 59.4341C411.197 59.4282 411.193 59.4215 411.189 59.4156C411.153 59.3601 411.122 59.3146 411.077 59.2769C411.01 59.2447 410.959 59.2396 410.914 59.2359C410.795 59.2263 410.7 59.2184 410.446 58.7066C410.293 58.3919 410.015 58.1951 409.682 58.0425C409.503 57.9552 409.114 57.8627 408.666 57.7847C408.323 57.7247 407.87 57.6271 407.44 57.5367C407.435 57.5357 407.429 57.5347 407.424 57.5337C406.99 57.4421 406.567 57.3554 406.267 57.3121C405.595 57.2156 404.947 57.3249 404.294 57.3043C403.812 57.2889 403.333 57.201 402.852 56.9019C402.644 56.9369 402.451 56.9498 402.277 56.9615C401.757 56.996 401.361 57.0243 400.978 57.5953C400.895 57.7205 400.675 57.8256 400.362 57.9566C400.27 57.9949 400.168 58.0357 400.06 58.0796C399.792 58.1876 399.475 58.3153 399.119 58.4781C399.044 58.5121 398.977 58.5464 398.914 58.5787C398.641 58.717 398.425 58.8262 397.906 58.7964C397.266 58.7597 396.195 58.5215 395.624 58.3394C395.336 58.2483 395.177 58.1642 395.061 58.0943C395.029 58.0749 395.001 58.0553 394.975 58.0386C394.908 57.9951 394.855 57.9615 394.788 57.939C394.295 57.7771 393.949 57.8868 393.384 58.1158C393.349 58.1281 393.318 57.9289 393.316 57.6695C393.314 57.4094 393.342 57.1865 393.377 57.1714C393.944 56.9421 394.294 56.8306 394.793 56.9947C394.864 57.0182 394.921 57.0549 394.989 57.0992C395.014 57.1156 395.042 57.1335 395.072 57.1519C395.186 57.2207 395.344 57.3034 395.63 57.3941C396.201 57.5758 397.271 57.8145 397.909 57.8511C398.423 57.8805 398.635 57.7731 398.907 57.6353C398.971 57.603 399.039 57.5691 399.114 57.5347C399.471 57.3718 399.788 57.2423 400.056 57.1343C400.164 57.0904 400.266 57.0504 400.358 57.0123C400.678 56.8786 400.885 56.7758 400.957 56.6685C401.353 56.0779 401.767 56.0496 402.292 56.0152C402.465 56.0037 402.655 55.9914 402.856 55.9576C403.343 55.5146 403.833 55.3173 404.324 55.3257ZM391.349 57.9009C391.384 57.8878 391.415 58.0886 391.417 58.3492C391.418 58.6098 391.391 58.832 391.356 58.8453C391.175 58.9155 391.031 58.9735 390.931 59.0191C390.927 59.0209 390.923 59.0232 390.919 59.025C390.728 59.1055 390.643 59.1446 390.5 59.1373C390.138 59.1178 389.787 59.1078 389.472 59.0992C388.948 59.0849 388.522 59.0731 388.295 59.023C388.262 59.0136 388.232 58.7957 388.233 58.5357C388.234 58.2766 388.265 58.0731 388.298 58.0787C388.523 58.1284 388.947 58.1397 389.469 58.1539C389.784 58.1625 390.136 58.1714 390.5 58.191C390.641 58.1983 390.722 58.1601 390.917 58.0777C390.918 58.0773 390.92 58.0771 390.921 58.0767C391.021 58.0313 391.164 57.9723 391.349 57.9009ZM41.4292 56.4175C41.5716 56.2846 42.0583 55.8573 42.6646 56.4966C42.8441 56.6842 42.9741 56.8524 43.0815 56.9927C43.0935 57.008 43.1055 57.0241 43.1167 57.0386L43.1177 57.0396C43.2102 57.1582 43.2749 57.2523 43.3462 57.3169C43.3477 57.3181 43.3496 57.3198 43.3511 57.3209C43.5354 57.4872 43.7415 57.2151 43.9224 57.2554C43.9548 57.2644 43.9798 57.4817 43.98 57.7418C43.98 58.0009 43.9556 58.2049 43.9233 58.1998C43.7377 58.1581 43.5274 58.4278 43.3442 58.2632C43.3418 58.2611 43.3389 58.2586 43.3364 58.2564C43.2645 58.1888 43.1942 58.0903 43.1021 57.9722C43.0905 57.9574 43.0781 57.9418 43.0659 57.9263C42.9623 57.7868 42.829 57.6189 42.6538 57.4332C42.0625 56.8094 41.5871 57.2278 41.4487 57.358C41.1519 57.6186 40.8481 57.6259 40.4233 57.6353C40.3846 57.6362 40.3417 57.6352 40.3032 57.6363C40.271 57.6372 40.2428 57.4273 40.2407 57.1666C40.2386 56.9055 40.2631 56.6928 40.2954 56.6919C40.3333 56.6909 40.3755 56.6899 40.4136 56.689C40.8416 56.6794 41.1395 56.6723 41.4292 56.4175ZM18.6333 53.4185C18.7064 53.4786 18.7581 53.5362 18.8032 53.5855C18.8082 53.5911 18.8139 53.5966 18.8188 53.6021C18.8664 53.6539 18.9086 53.6952 18.9653 53.7281C19.0465 53.7531 19.1063 53.7528 19.1606 53.7515C19.3022 53.7483 19.4109 53.7461 19.7817 54.2261C20.143 54.6936 20.8345 54.8335 21.9761 54.9195C22.2948 54.9436 22.7414 55.0012 23.187 55.0611C23.1921 55.0617 23.1975 55.0624 23.2026 55.063C23.6543 55.1236 24.1066 55.1869 24.4312 55.2144C25.3097 55.2892 26.1714 55.0729 27.0542 55.1627C27.434 55.2018 27.8252 55.2982 28.2134 55.5025C28.4497 55.4627 28.6646 55.4456 28.8647 55.4302C29.4534 55.3851 29.9044 55.3509 30.3325 54.774C30.4263 54.6475 30.6742 54.5382 31.0327 54.4029C31.1384 54.3632 31.2536 54.3214 31.3784 54.2759C31.6845 54.1644 32.047 54.0325 32.4556 53.8658C32.541 53.8309 32.618 53.7962 32.6909 53.7632C33.0033 53.6221 33.2505 53.5097 33.8501 53.5347C34.5879 53.5655 35.8255 53.7979 36.4888 53.9771C36.8199 54.0667 37.0081 54.15 37.1401 54.2193C37.1768 54.2386 37.2093 54.2574 37.2388 54.274C37.3157 54.3172 37.3776 54.3504 37.4565 54.3726C38.0265 54.5326 38.424 54.4218 39.0786 54.191C39.1198 54.1773 39.1555 54.3771 39.1587 54.6373C39.1618 54.8972 39.1315 55.12 39.0903 55.1353C38.4349 55.3665 38.0311 55.4791 37.4536 55.3169C37.3715 55.2938 37.3047 55.2584 37.2271 55.2144C37.198 55.1981 37.167 55.1799 37.1323 55.1617C37.0024 55.0935 36.8163 55.0106 36.4868 54.9214C35.8252 54.7426 34.5899 54.5117 33.855 54.481C33.2617 54.4563 33.0196 54.565 32.7085 54.7056C32.6354 54.7387 32.5585 54.7749 32.4722 54.8101C32.0635 54.9771 31.7009 55.1097 31.395 55.2212C31.2706 55.2666 31.1562 55.3087 31.0513 55.3482C30.6857 55.4863 30.453 55.5914 30.3726 55.6998C29.9301 56.2971 29.4596 56.3323 28.8667 56.3775C28.669 56.3926 28.4592 56.4093 28.231 56.4478C27.8499 56.771 27.4616 56.9705 27.0815 57.0611C26.2044 57.2681 25.3315 56.9073 24.4546 56.1587C24.1306 56.1311 23.6792 56.069 23.23 56.0084C23.2251 56.0074 23.2202 56.0064 23.2153 56.0054C22.7716 55.9454 22.3277 55.888 22.0112 55.8638C20.8829 55.7782 20.1757 55.6415 19.7964 55.149C19.4434 54.6906 19.3498 54.6934 19.2134 54.6968C19.2099 54.6966 19.2061 54.697 19.2026 54.6968L19.2017 54.6988C19.1977 54.7108 19.1938 54.718 19.1919 54.7212C19.1885 54.7269 19.1856 54.7298 19.1841 54.731C19.1814 54.733 19.1783 54.7337 19.1772 54.7339C19.1739 54.7347 19.1701 54.7343 19.1675 54.7339C19.1428 54.7305 19.0649 54.7062 19.0024 54.6705C18.9386 54.6337 18.8909 54.584 18.8413 54.5298C18.8363 54.5243 18.8306 54.5187 18.8257 54.5132C18.781 54.4643 18.7328 54.4109 18.6636 54.3541C18.6213 54.3192 18.58 54.0812 18.5718 53.8228C18.5636 53.5654 18.5911 53.3847 18.6333 53.4185ZM388.88 53.7662C389.13 53.8078 389.447 53.5385 389.697 53.7046C389.7 53.7069 389.704 53.7092 389.708 53.7115C389.813 53.7794 389.913 53.8782 390.042 53.9966C390.057 54.0117 390.074 54.0278 390.09 54.0435C390.241 54.1835 390.427 54.3511 390.676 54.5377C391.525 55.1646 392.185 54.7498 392.4 54.6207C392.53 54.5379 392.666 54.4811 392.814 54.4419C393.112 54.3587 393.453 54.3552 393.868 54.3511C393.922 54.3506 393.979 54.3519 394.038 54.3511C394.085 54.3514 394.124 54.5614 394.125 54.8218C394.125 55.0818 394.087 55.2931 394.04 55.2955C393.983 55.2962 393.926 55.2969 393.873 55.2974C393.45 55.3016 393.108 55.3052 392.812 55.3902C392.672 55.4283 392.543 55.483 392.42 55.5611C392.203 55.693 391.524 56.1166 390.656 55.4742C390.402 55.2855 390.215 55.117 390.065 54.9761C390.049 54.9608 390.033 54.9458 390.018 54.9312L390.017 54.9293C389.884 54.8101 389.794 54.7159 389.69 54.6509C389.688 54.6498 389.685 54.6482 389.683 54.647C389.431 54.4793 389.121 54.7519 388.879 54.7115C388.835 54.7027 388.796 54.4845 388.796 54.2242C388.797 53.9643 388.836 53.7598 388.88 53.7662ZM43.6138 53.1988C44.2231 53.212 44.7173 53.2225 44.981 53.272C45.022 53.2804 45.0553 53.4988 45.0552 53.7593C45.0543 54.0193 45.0211 54.2239 44.98 54.2173C44.7183 54.1681 44.2283 54.1572 43.6206 54.1441C43.2548 54.1362 42.8461 54.1278 42.4214 54.1089C42.2632 54.102 42.1559 54.1403 41.9399 54.2232C41.8155 54.269 41.6608 54.3285 41.437 54.4009C41.3967 54.4132 41.3618 54.2127 41.3589 53.9527C41.356 53.6921 41.3867 53.47 41.4272 53.4566C41.6448 53.386 41.7971 53.3276 41.9224 53.2818C42.1441 53.1972 42.2565 53.1555 42.4194 53.1627C42.8415 53.1814 43.2481 53.1908 43.6138 53.1988ZM33.8677 46.6509C36.3144 46.7529 38.755 47.8711 41.1909 47.2144C41.284 47.19 41.3755 47.1629 41.4644 47.1334C42.1952 46.8957 42.9233 46.8597 43.6519 46.8755C44.2631 46.8889 45.3767 47.3738 45.6392 47.4234C45.68 47.4321 45.7128 47.6495 45.7124 47.9097C45.712 48.1702 45.6781 48.3749 45.6372 48.3677C45.3759 48.3181 44.2672 47.8353 43.6587 47.8218C42.9316 47.806 42.2045 47.8405 41.4751 48.0777C41.3828 48.1084 41.2878 48.1382 41.1909 48.1666C38.7552 48.8975 36.3138 48.8446 33.8726 48.7427C33.2761 48.7179 33.0305 48.242 32.7173 48.3824C32.6439 48.4154 32.5666 48.4508 32.48 48.4859C31.4714 48.8949 30.5302 50.2831 30.1929 50.7828C30.1455 50.8532 30.1097 50.9064 30.0874 50.9361C30.0476 50.989 30.0058 50.8234 29.9946 50.5679C29.9836 50.3127 30.0076 50.0634 30.0474 50.0103C30.0683 49.9822 30.103 49.9312 30.1489 49.8628C30.482 49.3685 31.4388 47.9575 32.4624 47.5425C32.5486 47.5076 32.6262 47.473 32.6997 47.44C33.0141 47.2985 33.2645 46.6262 33.8677 46.6509ZM17.4692 48.3511C17.3847 48.1054 17.4682 47.3809 17.6108 47.5806C17.6159 47.5862 17.6214 47.5917 17.6265 47.5972C17.6746 47.6489 17.7162 47.6914 17.7739 47.7242C17.8563 47.7491 17.9171 47.748 17.9722 47.7466C18.1169 47.7429 19.133 47.8627 19.5122 48.3433C19.881 48.8104 20.5641 48.2843 21.7485 48.3687C22.0793 48.393 22.5519 48.8888 23.0054 48.7203C23.0066 48.7199 23.0081 48.7197 23.0093 48.7193C23.4605 48.5518 23.918 48.3842 24.2544 48.4117C24.5927 48.4396 24.8074 48.6673 25.0171 48.8902C25.0191 48.8925 25.0219 48.8948 25.0239 48.897C25.2253 49.1151 25.4224 49.326 25.7329 49.3531C25.9431 49.3716 26.2068 49.4178 26.4878 49.4683C26.6468 49.4967 26.8075 49.5269 26.9741 49.5533C27.3987 49.6222 27.8297 49.6687 28.1567 49.6138C28.1978 49.6078 28.235 49.8143 28.2397 50.0748C28.2444 50.3345 28.2152 50.5507 28.1743 50.5591C27.8464 50.6142 27.4131 50.5681 26.9878 50.4996C26.8181 50.4729 26.6551 50.4425 26.4937 50.4136C26.2157 50.3635 25.9563 50.3165 25.7515 50.2984C25.43 50.2704 25.2234 50.048 25.021 49.8277C25.0188 49.8254 25.0164 49.8231 25.0142 49.8209C24.8078 49.6009 24.6028 49.385 24.2778 49.358C23.9482 49.3309 23.4969 49.4959 23.0444 49.6646H23.0435C22.5932 49.8323 22.1534 50.4825 21.8208 50.4586C20.6595 50.3741 19.9151 49.7602 19.5269 49.2681C18.8478 48.4077 18.1761 49.4434 17.4692 48.3511ZM405.945 46.0123C405.991 45.9606 406.035 46.1254 406.044 46.3804C406.053 46.6358 406.023 46.8862 405.977 46.939C405.953 46.9669 405.912 47.0169 405.858 47.0845C405.465 47.5739 404.349 48.9716 403.171 49.3765C403.072 49.4106 402.984 49.4448 402.899 49.4771C402.537 49.6154 402.244 50.2853 401.552 50.2554C398.646 50.1292 395.739 48.9217 392.837 49.7388C392.833 49.7401 392.828 49.7414 392.824 49.7427C391.982 49.975 391.158 50.0085 390.324 49.9918C389.63 49.9778 388.328 49.4922 388.071 49.4468C388.054 49.4432 388.039 49.387 388.049 49.2984C388.057 49.2535 388.055 49.2031 388.128 49.1373C388.145 49.1206 388.161 49.1047 388.216 49.0787C388.241 49.0661 388.269 49.0522 388.3 49.0357C388.34 49.0152 388.335 49.0144 388.46 48.9537C388.555 48.9005 388.673 48.8268 388.788 48.7115C389.283 48.8613 389.905 49.0372 390.318 49.0455C391.155 49.0622 391.981 49.0294 392.826 48.7945L392.828 48.7935C395.732 47.9754 398.653 48.0382 401.564 48.1646C402.249 48.1944 402.526 48.6722 402.887 48.5347C402.972 48.5024 403.062 48.4675 403.162 48.4332C404.323 48.0339 405.423 46.6593 405.821 46.1646C405.877 46.0946 405.919 46.0417 405.945 46.0123ZM388.056 48.5015C388.152 48.5167 388.363 48.5817 388.627 48.6627C388.488 48.7636 388.364 48.7953 388.293 48.814C388.157 48.8263 388.095 48.7985 388.076 48.774C388.021 48.7239 388.023 48.6723 388.019 48.6314C388.016 48.5486 388.036 48.498 388.056 48.5015ZM389.098 47.8267C389.107 47.8477 389.156 47.7324 389.118 48.0855C389.05 48.3827 388.922 48.5763 388.788 48.7115C388.733 48.6948 388.679 48.6784 388.627 48.6627C388.726 48.5912 388.832 48.4856 388.93 48.3218C389.149 47.8023 389.058 47.8309 389.098 47.8267ZM39.1597 41.8404C39.2009 41.841 39.2349 42.0536 39.2358 42.314C39.2367 42.5734 39.2046 42.784 39.1636 42.7867C38.9886 42.7884 38.8272 42.8494 38.6558 42.9175C38.6419 42.9231 38.6278 42.9295 38.6138 42.9351C38.4577 42.9982 38.2961 43.0632 38.1187 43.0884C38.0311 43.1011 37.9473 43.1364 37.8472 43.1783C37.7995 43.1983 37.7468 43.2195 37.6899 43.2408C37.5164 43.3063 37.288 43.3677 36.9565 43.3687C36.776 43.3693 36.5918 43.4021 36.3755 43.439C36.3262 43.4475 36.2761 43.4558 36.2241 43.4644C35.9449 43.5107 35.6202 43.5543 35.2231 43.5435C35.1229 43.5408 35.0372 43.5749 34.9517 43.6119L34.8149 43.6666C34.773 43.6804 34.7293 43.6905 34.6831 43.6919C34.6708 43.6923 34.655 43.6921 34.6362 43.6929C34.4205 43.7024 33.7878 43.7305 32.9155 43.5328C32.913 43.5321 32.9102 43.5315 32.9077 43.5308C32.3234 43.3983 31.9927 43.3234 31.7456 43.5582C31.5511 43.7435 31.4047 43.7917 31.2847 43.815C31.2619 43.8194 31.2398 43.8243 31.2192 43.8277C31.1302 43.8423 31.0602 43.8538 30.9897 43.9195C30.7767 44.1191 30.6275 44.4451 30.4458 45.0523C30.2921 45.5667 30.1041 45.8721 29.937 46.1392L29.936 46.1412C29.9164 46.1727 29.8963 46.2032 29.8774 46.2339C29.6656 46.5817 29.3771 46.5468 29.1235 46.3951C28.8654 46.2423 28.634 45.9647 28.522 45.7945C28.4132 45.6283 28.2966 45.5753 28.1538 45.5435C28.1212 45.5362 28.0871 45.5304 28.0522 45.524C27.9365 45.5029 27.8117 45.4786 27.6685 45.4058C27.3576 45.2449 27.1079 45.1782 26.9116 45.1568C26.7776 45.1427 26.6659 45.1483 26.5708 45.1597C26.522 45.1656 26.4758 45.1741 26.4321 45.1812C26.2679 45.2082 26.1502 45.2272 26.0356 45.1216C25.8311 44.9335 25.6683 44.7669 25.4634 44.439C25.1856 43.9868 24.7936 44.0496 24.5513 44.3697C24.5383 44.3872 24.5242 44.4062 24.5103 44.4244C24.331 44.658 24.1127 44.9456 23.7817 45.1646C23.5061 45.3463 23.2636 45.3393 23.0444 45.2964C22.982 45.2842 22.9223 45.2688 22.8657 45.2544C22.7192 45.2183 22.5929 45.1854 22.4712 45.2105C21.7267 45.3667 21.2863 45.2126 21.0044 44.9664C20.7871 44.7772 20.659 44.5283 20.5669 44.3482C20.5391 44.2938 20.5145 44.2447 20.4917 44.2066C20.2865 43.8667 20.1058 43.7173 19.8882 43.5386C19.8395 43.499 19.7885 43.4577 19.7358 43.4127C19.5601 43.2624 19.4348 43.2955 19.3394 43.3668C19.2976 43.3979 19.261 43.4359 19.2271 43.4722C19.2265 43.473 19.2257 43.4743 19.2251 43.4752C19.2205 43.4801 19.216 43.485 19.2114 43.4898C19.2081 43.4934 19.2041 43.4979 19.2007 43.5015C19.1995 43.5061 19.1976 43.5096 19.1968 43.5123C19.1962 43.5142 19.1961 43.5161 19.1958 43.5171V43.5181C19.1899 43.536 19.1835 43.5445 19.1821 43.5464C19.1804 43.5487 19.1791 43.5505 19.1782 43.5513C19.1734 43.5559 19.166 43.5586 19.1616 43.5601C19.1505 43.564 19.1309 43.5691 19.1011 43.5748C19.0751 43.5896 19.0504 43.6141 19.02 43.6451C19.0182 43.647 19.016 43.649 19.0142 43.6509C18.9845 43.6812 18.9495 43.716 18.9058 43.7505C18.8655 43.782 18.8176 43.5982 18.7993 43.3394C18.781 43.081 18.799 42.846 18.8394 42.814C18.8811 42.7814 18.914 42.7477 18.9438 42.7173C18.9455 42.7155 18.9471 42.7133 18.9487 42.7115C18.9798 42.6799 19.0099 42.6503 19.0425 42.6324C19.0533 42.6265 19.0651 42.6213 19.0757 42.6177C19.0944 42.6051 19.1154 42.5843 19.1401 42.5582C19.1451 42.5529 19.1505 42.5472 19.1558 42.5416C19.1896 42.5053 19.2295 42.4631 19.2749 42.4293C19.3819 42.3497 19.5212 42.3153 19.7134 42.4791C19.7637 42.5219 19.8129 42.5614 19.8608 42.6002C20.08 42.7792 20.2767 42.9385 20.4946 43.2994C20.5243 43.3488 20.5535 43.4053 20.5845 43.4654C20.6769 43.6437 20.7851 43.8578 20.9878 44.0328C21.2573 44.2672 21.6897 44.4215 22.4331 44.2662C22.5616 44.2397 22.6977 44.2752 22.8472 44.3121C22.9028 44.3261 22.9603 44.3396 23.019 44.3511C23.2358 44.3933 23.4729 44.4 23.7397 44.2242C24.0649 44.01 24.2771 43.7302 24.4556 43.4976C24.4616 43.4895 24.4681 43.4813 24.4741 43.4732C24.4818 43.4633 24.49 43.4526 24.4976 43.4429C24.757 43.1019 25.1754 43.0273 25.4829 43.5269C25.6803 43.8402 25.8348 44.001 26.0396 44.188C26.1389 44.2798 26.2409 44.2628 26.4019 44.2369C26.4472 44.2296 26.4974 44.2219 26.5513 44.2154C26.6484 44.2038 26.7624 44.1983 26.8989 44.2125C27.0987 44.234 27.3514 44.3009 27.6665 44.4634C27.8057 44.5339 27.9252 44.5567 28.0405 44.5777C28.0761 44.5842 28.1116 44.5915 28.146 44.5992C28.2897 44.6311 28.4204 44.6843 28.5464 44.8765C28.651 45.0347 28.8747 45.305 29.1265 45.4537C29.3767 45.6033 29.6444 45.6235 29.8306 45.3179C29.8499 45.2863 29.8696 45.2547 29.8892 45.2232C30.0589 44.9507 30.2312 44.6725 30.3687 44.2115C30.9792 41.3167 32.1316 42.4104 32.8843 42.5816C32.8941 42.5839 32.9047 42.5862 32.9146 42.5884C33.7837 42.7853 34.4136 42.758 34.6294 42.7486C34.6392 42.7482 34.6487 42.7479 34.6567 42.7476C34.664 42.7473 34.6715 42.7458 34.6772 42.7457C34.7645 42.7429 34.8418 42.7096 34.9224 42.6744C34.9267 42.6724 34.9316 42.6704 34.936 42.6685C35.022 42.6314 35.1121 42.5953 35.2183 42.5982C35.6135 42.6089 35.9365 42.5653 36.2153 42.5191C36.2668 42.5106 36.3168 42.5021 36.3657 42.4937L36.6714 42.4449C36.7681 42.4318 36.861 42.4237 36.9526 42.4234C37.2811 42.4224 37.5061 42.362 37.6772 42.2974C37.7307 42.2772 37.7825 42.2566 37.8296 42.2369C37.932 42.1941 38.0208 42.1562 38.1118 42.1431C38.2857 42.1184 38.4452 42.053 38.6011 41.9898C38.615 41.9843 38.6292 41.9797 38.6431 41.9742C38.8149 41.9061 38.9793 41.8421 39.1597 41.8404ZM18.5923 43.5044C18.6346 43.5107 18.6784 43.7261 18.6909 43.9859C18.7034 44.2452 18.68 44.4522 18.6382 44.4488C18.5378 44.4352 18.4376 44.4213 18.3374 44.4078C18.2954 44.4021 18.2507 44.1867 18.2378 43.9263C18.225 43.6662 18.2486 43.4596 18.2905 43.4644C18.3911 43.478 18.4915 43.4908 18.5923 43.5044ZM392.883 42.4703C392.929 42.4576 392.97 42.6583 392.973 42.9185C392.976 43.1784 392.94 43.4011 392.894 43.4156C392.875 43.4212 392.855 43.4267 392.836 43.4322C392.609 43.4948 392.457 43.5466 392.324 43.5884C392.06 43.6726 391.94 43.7141 391.75 43.7066C391.265 43.687 390.796 43.677 390.375 43.6685C389.673 43.6544 389.099 43.6435 388.794 43.5943C388.745 43.5861 388.707 43.3677 388.708 43.107C388.708 42.8467 388.746 42.6417 388.795 42.649C389.099 42.6979 389.669 42.7092 390.369 42.7232C390.79 42.7316 391.261 42.7406 391.749 42.7603C391.933 42.7676 392.048 42.7294 392.304 42.647C392.442 42.6043 392.598 42.55 392.838 42.4839C392.853 42.4796 392.868 42.4747 392.883 42.4703ZM41.8169 41.3091C42.0047 41.1766 42.5967 40.7522 43.356 41.3931C43.577 41.5814 43.742 41.7495 43.8735 41.8902C43.8881 41.9055 43.9019 41.9215 43.9155 41.9361L43.9165 41.9371C44.026 42.0561 44.1138 42.1505 44.2017 42.2154C44.2035 42.2165 44.2057 42.2181 44.2075 42.2193C44.4295 42.387 44.6991 42.1141 44.9155 42.1548C44.955 42.1642 44.9896 42.3822 44.9888 42.6421C44.9887 42.9025 44.9532 43.1072 44.9136 43.1002C44.6907 43.0582 44.4167 43.3273 44.1968 43.1617C44.1937 43.1594 44.1901 43.1572 44.187 43.1548C44.0966 43.087 44.0039 42.989 43.895 42.8707C43.8808 42.8556 43.8662 42.8395 43.8511 42.8238C43.7218 42.6839 43.5571 42.516 43.3394 42.3296C42.5993 41.7042 42.0196 42.1198 41.8374 42.2496C41.638 42.3933 41.4306 42.4594 41.1909 42.4908C41.0049 42.5161 40.7947 42.5188 40.5571 42.522C40.5071 42.5227 40.4602 42.5221 40.4097 42.523C40.3688 42.5237 40.3345 42.3133 40.3335 42.0523C40.3326 41.7914 40.3649 41.5795 40.4058 41.5787C40.4556 41.5778 40.502 41.5764 40.5513 41.5757C40.7938 41.5723 41.005 41.5693 41.1909 41.5435C41.4246 41.5123 41.6255 41.448 41.8169 41.3091ZM71.8423 0.0825748C72.2168 -0.0505478 72.5752 -0.000785549 72.8286 0.0786686C73.115 0.168614 73.3584 0.320529 73.5347 0.452692C74.0265 0.821741 74.384 1.35632 74.6606 2.0191C74.9358 2.67875 75.1555 3.52494 75.3413 4.59039C75.713 6.72199 75.9777 9.91413 76.1958 14.6568L76.1968 14.6783V14.6998C76.2003 15.6364 76.185 16.2506 76.1157 16.7642C76.043 17.3025 75.9149 17.705 75.7466 18.2017C75.4099 19.1951 74.7836 20.9393 73.5464 22.5611C73.2114 22.9995 72.5839 23.0839 72.145 22.7496C71.7061 22.4146 71.6217 21.7863 71.9565 21.3472C71.9698 21.3298 71.9825 21.311 71.9956 21.2935C71.9178 21.3122 71.8361 21.3235 71.7524 21.3228C70.9799 21.3157 69.7155 21.2723 68.4839 21.1812C67.293 21.0931 65.9993 20.9524 65.2505 20.7154C63.2262 20.074 61.3309 18.2246 59.9507 16.3003C58.9486 14.9029 59.0782 13.4792 59.5571 12.3189C60.0075 11.2284 60.8131 10.2611 61.2632 9.67144C61.7211 9.07184 62.3848 8.8154 62.9243 8.6773C63.4469 8.54361 64.0812 8.47282 64.5181 8.40386C66.0082 8.16894 67.3534 8.64198 68.2886 9.28668C68.2396 8.90008 68.193 8.52018 68.146 8.15386C68.0008 7.02243 67.8686 5.92525 67.9106 5.15386C67.9951 3.60921 68.8669 2.40993 69.6763 1.61578C70.4928 0.814777 71.3581 0.312515 71.6812 0.150934L71.8423 0.0825748ZM72.3481 2.06597C72.0487 2.24432 71.5496 2.5796 71.0767 3.04351C70.4363 3.67193 69.9536 4.42805 69.9077 5.26226C69.8778 5.81107 69.976 6.70407 70.1294 7.89898C70.2771 9.04956 70.4652 10.4171 70.5659 11.7886C70.5815 12.0005 70.5878 12.2367 70.5503 12.4468C70.5334 12.5412 70.4885 12.7508 70.3384 12.9527C70.1397 13.2195 69.7858 13.4228 69.3638 13.3687C69.0544 13.3288 68.8509 13.1637 68.7808 13.1031C68.6902 13.0247 68.622 12.9422 68.5796 12.8873C68.4934 12.7756 68.4193 12.6517 68.3687 12.564C67.9474 11.8348 67.6908 11.3145 67.1948 10.9605C66.5964 10.5339 65.7404 10.2359 64.8296 10.3794C64.2425 10.4721 63.822 10.5121 63.4204 10.6148C63.0363 10.7131 62.9032 10.8198 62.853 10.8853C62.3194 11.5845 61.7302 12.297 61.4058 13.0826C61.1105 13.7981 61.0852 14.45 61.5757 15.1343C62.8687 16.937 64.4475 18.3623 65.855 18.8082C66.345 18.9632 67.4046 19.0963 68.6313 19.1871C69.8176 19.2748 71.039 19.3161 71.771 19.3228C72.2554 19.3277 72.6554 19.6769 72.7427 20.1353C73.2827 19.1683 73.6236 18.2331 73.8521 17.5591C74.0136 17.0826 74.0878 16.833 74.1333 16.4966C74.1821 16.135 74.2003 15.6454 74.1968 14.7066H74.1958C73.9783 9.99208 73.7185 6.92368 73.3716 4.93414C73.1978 3.93773 73.009 3.25487 72.8149 2.78961C72.6307 2.34816 72.4613 2.15616 72.3481 2.06597Z" fill="white"/>
</svg>
