<svg width="628" height="17" viewBox="0 0 628 17" fill="none" xmlns="http://www.w3.org/2000/svg">
<path d="M562.274 13.209C565.122 13.209 570.717 13.2084 574.071 13.3721C575.757 13.4543 576.87 13.5796 577.731 13.7471C578.604 13.9168 579.196 14.1262 579.807 14.3408C580.328 14.5238 580.602 15.0943 580.419 15.6152C580.236 16.136 579.664 16.4104 579.144 16.2275C578.541 16.0159 578.068 15.8496 577.35 15.71C576.619 15.568 575.612 15.4501 573.974 15.3701C570.679 15.2094 565.142 15.209 562.274 15.209H559.13C558.578 15.209 558.13 14.7611 558.13 14.209C558.13 13.6567 558.578 13.209 559.13 13.209H562.274ZM82.2559 12.3262C82.76 12.3775 83.1543 12.8036 83.1543 13.3213C83.1542 13.8389 82.76 14.2651 82.2559 14.3164L82.1543 14.3213H36.1494C35.5972 14.3213 35.1495 13.8735 35.1494 13.3213C35.1494 12.769 35.5971 12.3213 36.1494 12.3213H82.1543L82.2559 12.3262ZM76.1992 2.38574C76.7512 2.38599 77.1991 2.8337 77.1992 3.38574C77.1992 3.93787 76.7513 4.38549 76.1992 4.38574H1C0.447715 4.38574 0 3.93803 0 3.38574C9.89445e-05 2.83354 0.447776 2.38574 1 2.38574H76.1992ZM626.92 0C627.472 5.3611e-05 627.92 0.447748 627.92 1C627.92 1.55214 627.472 1.99995 626.92 2H556.081C555.529 2 555.081 1.55217 555.081 1C555.081 0.447715 555.529 0 556.081 0H626.92Z" fill="white"/>
</svg>
