<svg width="579" height="116" viewBox="0 0 579 116" fill="none" xmlns="http://www.w3.org/2000/svg">
<path fill-rule="evenodd" clip-rule="evenodd" d="M105.532 0C204.67 8.95571e-10 362.032 0.000316502 462.565 0.28418C512.828 0.426104 537.791 0.638813 550.138 0.912109C556.297 1.04843 559.358 1.19974 560.859 1.37109C561.237 1.41429 561.541 1.46143 561.782 1.51562C562 1.56478 562.259 1.63954 562.481 1.78223C562.602 1.8602 562.754 1.98423 562.869 2.17578C562.882 2.19744 562.891 2.22119 562.902 2.24316L562.905 2.24414C563.364 2.35822 564.036 2.49165 564.907 2.67676C566.611 3.03883 568.939 3.56986 571.194 4.4209C573.43 5.26505 575.713 6.4655 577.229 8.2334C578.8 10.0647 579.494 12.4467 578.613 15.4062C577.101 20.4845 577.159 27.9431 577.198 35.6846C577.236 43.3026 577.255 51.1939 575.51 56.7764C572.955 64.9526 572.435 73.6224 572.296 80.6318C572.272 81.8087 572.259 82.9481 572.249 84.0322C572.521 83.9616 572.822 84.0061 573.071 84.1797C573.524 84.4953 573.635 85.1183 573.32 85.5713C573.135 85.8372 572.867 86.5079 572.555 87.5654C572.43 87.9894 572.305 88.4524 572.179 88.9404C572.173 89.1666 572.168 89.3868 572.16 89.6006C572.114 90.7916 572.038 91.8423 571.897 92.6914C571.764 93.4925 571.548 94.3015 571.096 94.8467C570.999 94.9647 570.876 95.1044 570.689 95.2441C570.462 96.1772 570.25 96.9743 570.06 97.4971C569.622 98.8477 569.553 99.8255 569.625 100.544C569.697 101.261 569.915 101.783 570.146 102.23C570.206 102.346 570.266 102.457 570.329 102.571C570.389 102.682 570.455 102.803 570.514 102.921C570.627 103.146 570.767 103.455 570.81 103.807C570.859 104.203 570.779 104.601 570.549 104.973C570.34 105.31 570.032 105.583 569.692 105.82L569.588 105.894L569.467 105.938C564.447 107.801 562.01 108.589 560.158 108.89C558.314 109.189 556.978 109 554.5 109C540.702 109 535.413 109.235 532.318 109.61C530.784 109.796 529.788 110.017 528.505 110.275C527.213 110.536 525.676 110.825 523.117 111.129C517.296 111.821 522.018 111.139 499.095 113.348C490.305 114.195 483.484 113.482 477.35 112.64C471.199 111.795 465.845 110.844 459.806 111.135C450.874 111.566 435.905 112.325 419.084 112.925C419.074 113.084 419.027 113.243 418.938 113.389C418.649 113.859 418.034 114.007 417.563 113.719C417.204 113.499 416.985 113.348 416.626 113.013L416.624 113.011C416.176 113.026 415.726 113.042 415.276 113.057C415.255 113.324 415.129 113.583 414.903 113.763C414.471 114.106 413.841 114.034 413.498 113.603C413.385 113.461 413.275 113.323 413.113 113.128C411.031 113.195 408.929 113.258 406.815 113.318C406.468 113.709 405.872 113.769 405.454 113.442C405.419 113.415 405.386 113.386 405.353 113.359C383.38 113.961 361.04 114.107 349.955 114.577C346.259 114.734 343.816 114.923 340.301 115.095C340.274 115.118 340.244 115.14 340.214 115.16C339.865 115.39 339.425 115.373 339.1 115.151C331.901 115.471 319.881 115.704 286.954 115.492C265.784 115.356 236.473 115.041 205.617 114.622C205.551 114.835 205.414 115.028 205.214 115.16C204.753 115.464 204.133 115.337 203.829 114.876C203.767 114.782 203.704 114.689 203.642 114.596C189.792 114.406 175.66 114.195 161.839 113.97C161.739 113.983 161.638 113.981 161.539 113.965C150.368 113.783 139.403 113.593 128.958 113.395C128.718 113.484 128.455 113.478 128.222 113.381C121.388 113.251 114.78 113.116 108.487 112.981C108.457 113.027 108.424 113.072 108.386 113.113C108.013 113.519 107.38 113.545 106.973 113.172C106.891 113.096 106.809 113.019 106.726 112.943C99.7218 112.792 93.1254 112.637 87.0631 112.483C87.354 112.915 87.6383 113.346 87.9215 113.775C88.225 114.236 88.0972 114.856 87.6364 115.16C87.1755 115.464 86.5555 115.337 86.2516 114.876C85.6998 114.039 85.161 113.227 84.5856 112.42C83.393 112.389 82.2225 112.361 81.0758 112.33C80.2692 112.308 79.4737 112.284 78.6901 112.262C78.6979 112.439 78.6601 112.621 78.568 112.788C78.3009 113.271 77.6926 113.446 77.2096 113.18C76.9327 113.027 76.7253 112.904 76.4567 112.733L76.4489 112.729C76.2067 112.572 75.975 112.4 75.7243 112.177C69.5335 111.999 64.0947 111.826 59.3112 111.65C59.2866 111.915 59.1586 112.169 58.9332 112.346C58.4985 112.686 57.8694 112.609 57.5289 112.175C57.3645 111.965 57.2036 111.763 57.0455 111.565C45.5257 111.124 38.0585 110.686 33.0875 110.224C25.2704 109.497 23.4764 108.702 21.7672 107.646C16.4572 104.367 12.3475 102.185 9.42641 100.803C9.40939 100.795 9.39257 100.786 9.37563 100.778C7.70094 100.463 6.46133 100.192 5.51821 99.9375C4.05327 99.5419 3.23194 99.1709 2.5768 98.6963C2.22826 98.4438 1.88137 98.1252 1.61098 97.5498C1.3671 97.0308 1.20809 96.3501 1.08363 95.4131C0.8341 93.534 0.681599 90.2584 0.520158 84.293C0.196199 72.322 -0.157509 49.3107 0.0748457 34.5615V34.543L0.0758222 34.5254C1.13708 14.0078 2.0454 6.92669 2.22914 4.86523L2.2311 4.84082L2.235 4.81738C2.29779 4.36199 2.39913 3.72142 2.71254 3.22656C2.88878 2.94852 3.15313 2.67835 3.53578 2.52344C3.91275 2.37099 4.30512 2.37048 4.6686 2.44531C5.20913 2.55689 5.55802 3.08535 5.44692 3.62598C5.34147 4.13782 4.86169 4.4764 4.35219 4.41699C4.34145 4.44902 4.32825 4.4878 4.31606 4.53516C4.27931 4.67788 4.24778 4.85372 4.21742 5.07129C4.02621 7.18891 3.12662 14.2479 2.07289 34.6152C1.84189 49.3242 2.19573 72.2858 2.51918 84.2383C2.68151 90.2368 2.83322 93.3974 3.06606 95.1504C3.18275 96.0289 3.30984 96.4635 3.42055 96.6992C3.50472 96.8783 3.58115 96.9551 3.74965 97.0771C3.76294 97.0868 3.7769 97.0958 3.79067 97.1055C4.01088 96.8772 4.33601 96.7578 4.6725 96.8125C5.08248 96.8794 5.75888 97.0859 6.65492 97.4258C7.51331 97.7514 8.62392 98.2198 9.98695 98.8574C10.8221 99.0128 11.7716 99.1825 12.8541 99.3652C19.4992 100.487 30.8375 102.15 125.964 99.833C134.105 99.6347 142.82 99.4829 152.006 99.3672C152.049 99.3616 152.092 99.3584 152.136 99.3584C152.164 99.3584 152.192 99.362 152.219 99.3643C196.67 98.8074 252.106 99.1152 306.838 99.3379C340.512 99.4749 373.919 99.5778 404.344 99.4287C404.459 99.3832 404.583 99.3585 404.714 99.3584C404.838 99.3584 404.956 99.3832 405.066 99.4248C434.126 99.2784 460.438 98.9003 481.627 98.0928C525.169 96.4334 547.099 95.4834 558.255 94.8135C563.844 94.4778 566.688 94.2148 568.182 93.9746C568.525 93.9195 568.781 93.8658 568.972 93.8193C569.2 92.8401 569.449 91.7369 569.712 90.6152C569.866 89.9531 570.026 89.2899 570.187 88.6562C570.245 86.4451 570.233 83.7334 570.296 80.5928C570.436 73.5418 570.958 64.6381 573.601 56.1807C575.233 50.9606 575.237 43.4269 575.198 35.6943C575.16 28.0853 575.078 20.2663 576.696 14.835C577.379 12.54 576.848 10.8617 575.711 9.53613C574.519 8.14737 572.611 7.09345 570.488 6.29199C568.383 5.49754 566.179 4.99156 564.491 4.63281C563.666 4.45761 562.926 4.30963 562.422 4.18457C562.18 4.12426 561.923 4.05281 561.721 3.96484C561.636 3.92768 561.45 3.84244 561.289 3.68164C561.233 3.62577 561.16 3.53891 561.097 3.42188C560.975 3.4021 560.822 3.38001 560.632 3.3584C559.239 3.19927 556.27 3.04785 550.093 2.91113C537.769 2.63834 512.826 2.42611 462.559 2.28418C362.03 2.00033 204.671 2 105.532 2H1.68422C1.13194 2 0.684221 1.55228 0.684221 1C0.684221 0.447715 1.13194 0 1.68422 0H105.532ZM276.733 101.326C276.757 101.422 276.792 101.551 276.839 101.705C276.879 101.841 276.928 101.996 276.984 102.165C277.077 102.249 277.197 102.354 277.347 102.489C278.032 103.107 279.379 104.331 280.159 105.016C280.885 105.653 281.149 105.84 281.562 106.286C281.937 106.691 281.912 107.324 281.507 107.699C281.102 108.074 280.47 108.05 280.094 107.646C279.842 107.373 279.734 107.289 279.282 106.9C281.007 109.216 282.425 110.988 283.004 111.562C283.233 111.775 283.338 111.848 283.608 112.014C284.079 112.302 284.227 112.918 283.938 113.389C283.921 113.417 283.902 113.444 283.882 113.47C284.928 113.477 285.957 113.486 286.966 113.492C317.925 113.691 330.369 113.495 337.713 113.206C336.842 111.933 335.92 110.687 334.735 109.402C333.017 107.54 330.819 105.649 329.604 104.554L329.59 104.542L329.578 104.529C328.917 103.889 328.544 103.504 328.333 103.273C328.23 103.161 328.151 103.068 328.094 102.993C328.071 102.962 328.026 102.9 327.985 102.824C327.974 102.803 327.911 102.689 327.881 102.531C327.869 102.471 327.823 102.224 327.944 101.943C328.016 101.778 328.145 101.607 328.342 101.486C328.387 101.459 328.432 101.436 328.476 101.418C321.29 101.394 314.065 101.367 306.829 101.338C300.445 101.312 294.051 101.288 287.668 101.261C289.085 102.292 292.525 105.054 293.985 106.512C294.411 106.889 294.722 107.195 295.115 107.562C295.402 107.784 295.887 108.106 296.467 108.464C296.937 108.754 297.083 109.37 296.794 109.84C296.503 110.309 295.886 110.456 295.417 110.166C294.805 109.788 294.222 109.405 293.845 109.109L293.812 109.083L293.781 109.054C293.312 108.616 293.058 108.361 292.631 107.983L292.607 107.962L292.585 107.94C291.231 106.585 287.835 103.852 286.468 102.86C286.022 102.536 285.922 101.911 286.246 101.464C286.304 101.383 286.372 101.312 286.448 101.255C283.198 101.241 279.95 101.229 276.708 101.216C276.712 101.238 276.72 101.274 276.733 101.326ZM271.671 101.676C272.562 103.05 274.456 105.509 275.924 107.384C277.366 109.225 278.342 110.326 278.964 111.042C279.595 111.769 279.827 112.061 280.063 112.357C280.317 112.676 280.343 113.103 280.166 113.442C280.838 113.447 281.504 113.452 282.164 113.457C281.996 113.338 281.833 113.207 281.626 113.013L281.606 112.993C280.815 112.213 278.961 109.853 276.927 107.08L276.885 107.022L276.851 106.959C276.226 105.786 275.716 104.556 275.355 103.567C275.324 103.481 275.295 103.395 275.265 103.312C275.101 103.135 274.999 102.897 274.999 102.636V102.614C274.999 102.601 275 102.575 275.003 102.545C275.003 102.542 275.003 102.537 275.004 102.533C274.975 102.444 274.948 102.359 274.923 102.278C274.827 101.955 274.743 101.64 274.717 101.436C274.708 101.359 274.709 101.282 274.716 101.208C273.599 101.204 272.481 101.199 271.365 101.194C271.456 101.338 271.556 101.499 271.671 101.676ZM264.114 101.219C264.395 101.904 264.915 103.032 265.866 104.847C266.487 106.031 267.496 107.292 268.479 108.489C269.42 109.634 270.321 110.545 270.864 111.09C271.418 111.645 271.516 111.735 271.684 111.866C272.119 112.206 272.196 112.834 271.857 113.27C271.827 113.308 271.794 113.343 271.76 113.375C274.018 113.394 276.219 113.413 278.358 113.43C278.171 113.197 277.938 112.912 277.453 112.354C276.832 111.639 275.826 110.503 274.349 108.617C272.898 106.765 270.942 104.229 269.992 102.764C269.467 101.953 269.174 101.472 269.011 101.186C267.37 101.179 265.731 101.171 264.093 101.165C264.1 101.182 264.107 101.201 264.114 101.219ZM239.98 101.099C239.993 101.139 240.018 101.213 240.061 101.328C240.147 101.558 240.298 101.944 240.555 102.55C240.967 103.412 241.687 104.785 242.78 106.393C243.886 108.02 245.358 109.858 246.961 111.828C247.276 112.217 247.251 112.77 246.924 113.13C255.193 113.22 263.061 113.298 270.356 113.362C270.124 113.173 269.924 112.979 269.448 112.502C268.895 111.947 267.938 110.982 266.933 109.759C265.971 108.587 264.826 107.171 264.094 105.775C263.127 103.931 262.577 102.742 262.263 101.977C262.127 101.644 262.031 101.375 261.963 101.157C260.255 101.151 258.549 101.143 256.846 101.137C256.864 101.185 256.893 101.26 256.938 101.367C257.038 101.603 257.19 101.933 257.4 102.348C257.817 103.173 258.453 104.321 259.337 105.727C260.407 107.225 261.844 108.907 262.733 109.911C263.612 110.905 263.865 111.134 264.12 111.368C264.526 111.742 264.553 112.374 264.18 112.781C263.807 113.187 263.175 113.214 262.768 112.841C262.454 112.552 262.152 112.273 261.235 111.237C260.331 110.216 258.826 108.458 257.69 106.864L257.673 106.841L257.659 106.816C256.737 105.351 256.065 104.141 255.615 103.25C255.39 102.806 255.218 102.435 255.096 102.148C254.994 101.907 254.882 101.621 254.847 101.403C254.833 101.311 254.832 101.219 254.842 101.13C252.926 101.123 251.013 101.118 249.104 101.112C249.136 101.191 249.159 101.274 249.17 101.362C249.171 101.374 249.187 101.461 249.254 101.657C249.328 101.875 249.46 102.214 249.693 102.714C250.159 103.714 251.01 105.331 252.559 107.9C253.394 109.177 253.982 109.971 254.366 110.49C254.767 111.032 254.886 111.191 255.057 111.37C255.439 111.769 255.426 112.402 255.027 112.784C254.628 113.165 253.995 113.151 253.613 112.753C253.336 112.463 253.135 112.19 252.757 111.68C252.363 111.147 251.748 110.315 250.881 108.987L250.871 108.973L250.862 108.957C249.283 106.341 248.388 104.65 247.88 103.558C247.38 102.484 247.225 101.93 247.185 101.606C247.164 101.431 247.19 101.26 247.253 101.106C244.819 101.099 242.394 101.094 239.976 101.088C239.977 101.091 239.979 101.095 239.98 101.099ZM322.788 102.166C323.249 102.016 323.741 102.221 323.969 102.629C323.979 102.644 323.996 102.67 324.018 102.704C324.067 102.779 324.139 102.892 324.235 103.038C324.427 103.332 324.711 103.762 325.074 104.31C325.797 105.402 326.836 106.964 328.108 108.862C329.238 110.429 329.697 110.78 330.111 111.048C330.345 111.196 330.516 111.297 330.754 111.429C331.236 111.696 331.412 112.305 331.145 112.788C330.878 113.271 330.27 113.446 329.787 113.18C329.51 113.027 329.302 112.904 329.034 112.733L329.026 112.729C328.32 112.272 327.691 111.703 326.48 110.023L326.469 110.009L326.461 109.995C325.181 108.085 324.134 106.513 323.406 105.414C323.043 104.865 322.757 104.432 322.562 104.134C322.465 103.986 322.388 103.867 322.336 103.785C322.31 103.745 322.286 103.709 322.269 103.682C322.261 103.669 322.251 103.652 322.242 103.636C322.237 103.628 322.229 103.614 322.22 103.598C322.216 103.589 322.207 103.573 322.198 103.555C322.193 103.544 322.168 103.493 322.146 103.427C321.976 102.902 322.263 102.337 322.788 102.166ZM214.766 101.051C214.897 101.158 215.003 101.296 215.066 101.456C215.067 101.458 215.07 101.46 215.071 101.462L215.078 101.471C215.102 101.502 215.16 101.57 215.282 101.701C215.529 101.966 215.997 102.439 216.895 103.301C218.691 105.024 222.158 108.255 225.904 111.7C226.241 112.011 226.315 112.5 226.117 112.89C232.727 112.971 239.19 113.045 245.431 113.113C245.424 113.105 245.416 113.098 245.41 113.09C243.814 111.128 242.287 109.226 241.126 107.517C239.959 105.799 239.187 104.327 238.742 103.393L238.732 103.373L238.724 103.354C238.454 102.716 238.287 102.294 238.187 102.025C238.138 101.892 238.102 101.792 238.079 101.721C238.067 101.686 238.058 101.652 238.049 101.624C238.046 101.611 238.04 101.591 238.035 101.57C238.032 101.56 238.028 101.542 238.024 101.521C238.022 101.51 238.018 101.49 238.014 101.467C238.012 101.451 238.005 101.395 238.005 101.325C238.005 101.242 238.016 101.16 238.035 101.083C236.013 101.078 233.997 101.073 231.988 101.069C232.087 101.258 232.269 101.592 232.597 102.183C233.366 103.566 234.904 106.296 235.957 108.044C236.996 109.769 237.504 110.432 238.108 111.17C238.457 111.597 238.395 112.227 237.967 112.577C237.54 112.926 236.91 112.863 236.56 112.437C235.892 111.62 235.33 110.878 234.244 109.076C233.171 107.296 231.619 104.54 230.849 103.154C230.466 102.465 230.267 102.098 230.165 101.899C230.119 101.81 230.073 101.716 230.041 101.633C230.026 101.594 229.989 101.495 229.973 101.371C229.958 101.245 229.97 101.139 229.982 101.066C227.692 101.062 225.411 101.058 223.14 101.056C223.303 101.133 223.444 101.256 223.548 101.414C223.541 101.403 223.535 101.393 223.531 101.388C223.526 101.381 223.521 101.374 223.518 101.37C223.531 101.387 223.563 101.428 223.635 101.516C223.779 101.691 224.067 102.04 224.639 102.731C225.789 104.122 228.062 106.866 229.462 108.445C230.83 109.991 231.258 110.3 231.836 110.756C232.269 111.098 232.343 111.727 232.002 112.16C231.66 112.593 231.031 112.667 230.597 112.326C229.937 111.806 229.421 111.416 227.964 109.771C226.538 108.161 224.24 105.387 223.097 104.006C222.526 103.315 222.236 102.962 222.089 102.782C222.017 102.695 221.974 102.641 221.948 102.608C221.94 102.599 221.869 102.512 221.813 102.399C221.57 101.904 221.775 101.305 222.27 101.062C222.275 101.059 222.279 101.057 222.284 101.055C219.765 101.052 217.259 101.051 214.766 101.051ZM329.256 101.421C329.445 101.503 329.605 101.641 329.713 101.815C329.714 101.817 329.717 101.819 329.718 101.821C329.738 101.845 329.769 101.879 329.81 101.925C329.979 102.11 330.314 102.457 330.951 103.074C332.114 104.123 334.41 106.1 336.206 108.047C337.808 109.784 338.958 111.454 340.052 113.104C343.656 112.93 346.113 112.738 349.87 112.579C352.286 112.477 355.243 112.39 358.616 112.311C355.232 109.193 352.171 106.338 350.51 104.744C348.751 103.056 348.488 102.723 348.335 102.454C348.302 102.397 348.265 102.33 348.236 102.268C348.221 102.236 348.192 102.167 348.17 102.08C348.139 101.959 348.137 101.86 348.137 101.824C348.137 101.701 348.16 101.583 348.201 101.474C344.803 101.466 341.39 101.457 337.965 101.447C338.211 101.56 338.403 101.768 338.493 102.025L338.501 102.045C338.513 102.076 338.534 102.127 338.565 102.199C338.627 102.343 338.724 102.563 338.858 102.858C339.125 103.445 339.54 104.327 340.13 105.511C340.8 106.679 341.66 107.874 342.386 108.755C343.105 109.625 343.66 110.146 344.41 110.857C344.81 111.238 344.827 111.87 344.447 112.271C344.067 112.671 343.434 112.688 343.034 112.308C342.287 111.599 341.649 111.003 340.843 110.027C340.052 109.067 339.117 107.769 338.38 106.479L338.365 106.454L338.352 106.429C337.747 105.214 337.317 104.301 337.038 103.688C336.898 103.381 336.795 103.147 336.726 102.986C336.692 102.907 336.665 102.841 336.645 102.793C336.636 102.77 336.626 102.745 336.618 102.722C336.614 102.711 336.607 102.692 336.6 102.67C336.597 102.66 336.59 102.637 336.583 102.61C336.579 102.597 336.573 102.571 336.567 102.541C336.563 102.52 336.549 102.448 336.549 102.355C336.55 101.952 336.79 101.603 337.134 101.445C334.514 101.438 331.888 101.43 329.256 101.421ZM213.502 101.051C194.349 101.049 176.032 101.111 159.146 101.285C159.149 101.297 159.152 101.311 159.156 101.326C159.18 101.422 159.215 101.551 159.261 101.705C159.354 102.015 159.488 102.419 159.657 102.882C159.989 103.792 160.452 104.906 161.007 105.958C163.041 108.728 164.771 110.913 165.426 111.562C165.655 111.775 165.761 111.848 166.031 112.014C166.043 112.021 166.054 112.03 166.066 112.038C169.071 112.086 172.088 112.133 175.11 112.18C175.109 112.178 175.107 112.176 175.106 112.175C174.264 111.1 173.546 110.214 172.539 109.237C170.19 107.156 168.257 105.39 167.259 104.324C167.01 104.106 166.857 103.984 166.777 103.925C166.773 103.922 166.769 103.918 166.765 103.915C166.439 103.751 166.214 103.413 166.214 103.022C166.214 102.749 166.333 102.417 166.643 102.201C166.89 102.03 167.135 102.021 167.225 102.021C167.411 102.023 167.551 102.079 167.575 102.088C167.662 102.121 167.731 102.16 167.757 102.176C167.826 102.216 167.897 102.266 167.966 102.317C168.038 102.371 168.127 102.439 168.232 102.525L168.606 102.844L168.644 102.878L168.679 102.915C169.359 103.648 170.589 104.803 172.179 106.235L173.882 107.756L173.899 107.771L173.915 107.785C175.032 108.866 175.822 109.844 176.681 110.941C176.979 111.321 176.958 111.85 176.658 112.204C182.315 112.291 187.989 112.374 193.639 112.455C193.069 112.021 192.467 111.392 191.48 110.023L191.469 110.009L191.461 109.995C190.181 108.085 189.134 106.513 188.406 105.414C188.043 104.865 187.757 104.432 187.562 104.134C187.465 103.986 187.388 103.867 187.336 103.785C187.31 103.745 187.286 103.709 187.269 103.682C187.261 103.669 187.251 103.652 187.242 103.636C187.237 103.628 187.229 103.614 187.22 103.598C187.216 103.589 187.207 103.573 187.198 103.555C187.193 103.544 187.168 103.493 187.146 103.427C186.976 102.902 187.263 102.337 187.788 102.166C188.249 102.016 188.741 102.221 188.969 102.629C188.979 102.644 188.996 102.67 189.018 102.704C189.067 102.779 189.139 102.892 189.235 103.038C189.427 103.332 189.711 103.762 190.074 104.31C190.797 105.402 191.836 106.964 193.108 108.862C194.238 110.429 194.697 110.78 195.111 111.048C195.344 111.196 195.516 111.297 195.754 111.429C196.142 111.644 196.331 112.08 196.252 112.493C198.264 112.522 200.272 112.55 202.275 112.577C201.529 111.521 200.724 110.475 199.735 109.402C198.017 107.54 195.819 105.649 194.604 104.554L194.59 104.542L194.578 104.529C193.917 103.889 193.544 103.504 193.333 103.273C193.23 103.161 193.151 103.068 193.094 102.993C193.071 102.962 193.026 102.9 192.985 102.824C192.974 102.803 192.911 102.689 192.881 102.531C192.869 102.471 192.823 102.224 192.944 101.943C193.016 101.778 193.145 101.607 193.342 101.486C193.533 101.37 193.724 101.34 193.863 101.34C194.222 101.34 194.536 101.531 194.713 101.815C194.714 101.817 194.717 101.819 194.718 101.821C194.738 101.845 194.769 101.879 194.81 101.925C194.979 102.11 195.314 102.457 195.951 103.074C197.114 104.123 199.41 106.1 201.206 108.047C202.648 109.611 203.725 111.12 204.724 112.61C211.311 112.7 217.83 112.786 224.218 112.865C220.598 109.534 217.269 106.432 215.51 104.744C213.751 103.056 213.488 102.723 213.335 102.454C213.302 102.397 213.265 102.33 213.236 102.268C213.221 102.236 213.192 102.167 213.17 102.08C213.139 101.959 213.137 101.86 213.137 101.824C213.137 101.513 213.279 101.234 213.502 101.051ZM202.549 101.355C202.986 101.355 203.356 101.636 203.493 102.025L203.501 102.045C203.513 102.076 203.534 102.127 203.565 102.199C203.627 102.343 203.724 102.563 203.858 102.858C204.125 103.445 204.54 104.327 205.13 105.511C205.8 106.679 206.66 107.874 207.386 108.755C208.105 109.625 208.66 110.146 209.41 110.857C209.81 111.238 209.827 111.87 209.447 112.271C209.067 112.671 208.434 112.688 208.034 112.308C207.287 111.599 206.649 111.003 205.843 110.027C205.051 109.067 204.117 107.769 203.38 106.479L203.365 106.454L203.352 106.429C202.747 105.214 202.317 104.301 202.038 103.688C201.898 103.381 201.795 103.147 201.726 102.986C201.692 102.907 201.665 102.841 201.645 102.793C201.636 102.77 201.626 102.745 201.618 102.722C201.614 102.711 201.607 102.692 201.6 102.67C201.597 102.66 201.59 102.637 201.583 102.61C201.579 102.597 201.573 102.571 201.567 102.541C201.563 102.52 201.549 102.448 201.549 102.355C201.55 101.804 201.998 101.356 202.549 101.355ZM302.225 102.021C302.411 102.023 302.551 102.079 302.575 102.088C302.662 102.121 302.731 102.16 302.757 102.176C302.826 102.216 302.897 102.266 302.966 102.317C303.038 102.371 303.127 102.439 303.232 102.525L303.606 102.844L303.644 102.878L303.679 102.915C304.36 103.648 305.589 104.803 307.179 106.235L308.882 107.756L308.899 107.771L308.915 107.785C310.032 108.866 310.822 109.844 311.681 110.941C312.022 111.376 311.945 112.005 311.51 112.346C311.076 112.686 310.447 112.609 310.106 112.175C309.264 111.1 308.546 110.214 307.539 109.237C305.19 107.156 303.257 105.39 302.259 104.324C302.01 104.106 301.857 103.984 301.777 103.925C301.773 103.922 301.769 103.918 301.765 103.915C301.439 103.751 301.214 103.413 301.214 103.022C301.214 102.749 301.333 102.417 301.643 102.201C301.89 102.03 302.135 102.021 302.225 102.021ZM350.282 101.701C350.529 101.966 350.997 102.439 351.895 103.301C353.691 105.024 357.158 108.255 360.904 111.7C361.069 111.852 361.17 112.047 361.209 112.252C362.553 112.223 363.952 112.196 365.398 112.168C364.822 111.712 364.271 111.247 362.965 109.771C361.538 108.161 359.24 105.387 358.097 104.006C357.526 103.315 357.236 102.962 357.089 102.782C357.017 102.695 356.974 102.641 356.948 102.608C356.94 102.599 356.869 102.512 356.813 102.399C356.667 102.1 356.684 101.764 356.829 101.49C354.588 101.487 352.339 101.482 350.084 101.478C350.111 101.511 350.168 101.579 350.282 101.701ZM358.635 101.516C358.779 101.691 359.067 102.04 359.639 102.731C360.789 104.122 363.062 106.866 364.462 108.445C365.83 109.991 366.258 110.3 366.836 110.756C367.261 111.092 367.339 111.703 367.018 112.136C368.394 112.11 369.81 112.085 371.259 112.06C370.709 111.365 370.163 110.601 369.244 109.076C368.171 107.296 366.619 104.54 365.849 103.154C365.466 102.465 365.267 102.098 365.165 101.899C365.119 101.81 365.073 101.716 365.041 101.633C365.031 101.608 365.015 101.561 365 101.499C362.88 101.497 360.752 101.495 358.617 101.492C358.623 101.499 358.629 101.508 358.635 101.516ZM373.02 101.5C371.094 101.5 369.161 101.502 367.221 101.501C367.318 101.678 367.441 101.901 367.597 102.183C368.366 103.566 369.904 106.296 370.957 108.044C371.996 109.769 372.504 110.432 373.108 111.17C373.31 111.417 373.373 111.733 373.308 112.022C375.305 111.987 377.36 111.951 379.459 111.914C378.216 110.371 377.054 108.882 376.126 107.517C374.959 105.799 374.187 104.327 373.742 103.393L373.732 103.373L373.724 103.354C373.454 102.716 373.287 102.294 373.187 102.025C373.138 101.892 373.102 101.792 373.079 101.721C373.067 101.686 373.058 101.652 373.049 101.624C373.046 101.611 373.04 101.591 373.035 101.57C373.032 101.56 373.028 101.542 373.024 101.521C373.023 101.515 373.022 101.508 373.02 101.5ZM161.598 110.069C161.363 110.273 161.045 110.356 160.742 110.294C160.99 110.582 161.203 110.83 161.386 111.042C161.764 111.477 161.998 111.757 162.176 111.975C162.495 111.98 162.815 111.985 163.134 111.99C162.701 111.472 162.177 110.818 161.598 110.069ZM151.32 101.376C149.743 101.396 148.18 101.418 146.631 101.44C146.75 101.719 146.901 102.059 147.095 102.47C147.23 102.551 147.519 102.728 148.249 103.186C149.387 103.9 151.636 105.316 153.952 106.772C154.419 107.066 154.56 107.684 154.266 108.151C153.972 108.618 153.355 108.759 152.887 108.466C151.495 107.59 150.127 106.729 149.01 106.027C149.569 106.848 150.241 107.684 150.902 108.489C151.843 109.634 152.743 110.545 153.287 111.09C153.806 111.61 153.926 111.721 154.077 111.841C155.88 111.871 157.692 111.901 159.508 111.931C158.883 111.211 157.987 110.168 156.772 108.617C155.819 107.4 154.648 105.887 153.687 104.578C152.803 103.868 151.989 103.238 151.468 102.86C151.022 102.536 150.922 101.911 151.246 101.464C151.268 101.433 151.294 101.404 151.32 101.376ZM382.178 101.494C379.84 101.497 377.49 101.499 375.128 101.5C375.218 101.735 375.354 102.075 375.555 102.55C375.967 103.412 376.687 104.785 377.78 106.393C378.886 108.02 380.358 109.858 381.961 111.828C381.971 111.841 381.98 111.856 381.99 111.869C383.904 111.835 385.85 111.798 387.818 111.76C387.799 111.734 387.778 111.707 387.757 111.68C387.363 111.147 386.748 110.315 385.881 108.987L385.871 108.973L385.862 108.957C384.283 106.341 383.388 104.65 382.88 103.558C382.38 102.484 382.225 101.93 382.185 101.606C382.181 101.569 382.179 101.531 382.178 101.494ZM144.49 101.471C142.79 101.497 141.108 101.526 139.445 101.555C139.54 101.767 139.664 102.033 139.823 102.348C139.878 102.456 139.939 102.571 140.002 102.69C140.001 102.673 139.999 102.654 139.999 102.636V102.614C139.999 102.601 140 102.575 140.003 102.545C140.007 102.495 140.022 102.358 140.096 102.203C140.184 102.02 140.349 101.823 140.61 101.713C140.843 101.615 141.051 101.629 141.16 101.646C141.351 101.678 141.486 101.76 141.505 101.771C141.547 101.795 141.581 101.819 141.596 101.83C141.648 101.867 141.703 101.914 141.739 101.945C141.832 102.026 142.01 102.185 142.347 102.489C143.032 103.107 144.379 104.331 145.159 105.016C145.885 105.653 146.149 105.84 146.562 106.286C146.937 106.691 146.912 107.324 146.507 107.699C146.102 108.074 145.469 108.05 145.094 107.646C144.775 107.3 144.685 107.261 143.839 106.519C143.046 105.822 141.68 104.581 141.007 103.975C140.668 103.669 140.505 103.523 140.428 103.457C140.425 103.454 140.421 103.451 140.418 103.448C140.413 103.445 140.409 103.441 140.405 103.438C140.768 104.092 141.216 104.861 141.759 105.727C142.83 107.225 144.267 108.907 145.156 109.911C146.035 110.905 146.288 111.134 146.543 111.368C146.651 111.468 146.732 111.587 146.786 111.715C148.243 111.74 149.707 111.766 151.175 111.791C150.658 111.253 150.016 110.562 149.356 109.759C148.394 108.587 147.249 107.171 146.517 105.775C145.55 103.931 145 102.742 144.686 101.977C144.609 101.788 144.544 101.62 144.49 101.471ZM208.908 101.476C209.39 101.476 209.792 101.817 209.886 102.271C209.892 102.288 209.902 102.318 209.919 102.361C209.967 102.488 210.06 102.709 210.225 103.066C211.027 104.492 212.752 106.824 214.659 109.025C215.36 109.808 215.396 109.781 215.689 110.085C216.072 110.482 216.06 111.116 215.663 111.499C215.265 111.881 214.633 111.87 214.25 111.474C214.134 111.354 213.864 111.136 213.159 110.349L213.153 110.342L213.148 110.336C211.193 108.079 209.357 105.612 208.464 104.016L208.446 103.983L208.43 103.949C208.242 103.545 208.124 103.267 208.051 103.078C208.016 102.985 207.987 102.902 207.965 102.832C207.958 102.808 207.908 102.651 207.908 102.476C207.908 101.924 208.356 101.476 208.908 101.476ZM343.908 101.476C344.39 101.476 344.792 101.817 344.886 102.271C344.892 102.288 344.902 102.318 344.919 102.361C344.967 102.488 345.06 102.709 345.225 103.066C346.027 104.492 347.752 106.824 349.659 109.025C350.36 109.808 350.396 109.781 350.689 110.085C351.072 110.482 351.06 111.116 350.663 111.499C350.265 111.881 349.633 111.87 349.25 111.474C349.134 111.354 348.864 111.136 348.159 110.349L348.153 110.342L348.148 110.336C346.193 108.079 344.357 105.612 343.465 104.016L343.446 103.983L343.43 103.949C343.242 103.545 343.124 103.267 343.051 103.078C343.016 102.985 342.987 102.902 342.965 102.832C342.958 102.808 342.908 102.651 342.908 102.476C342.908 101.924 343.356 101.476 343.908 101.476ZM174.464 101.856C174.614 101.847 174.732 101.875 174.757 101.881C174.837 101.899 174.903 101.924 174.93 101.935C175 101.962 175.074 101.998 175.144 102.033C175.217 102.07 175.303 102.117 175.4 102.173L175.73 102.374L175.822 102.433L175.899 102.509C176.397 103.005 177.773 104.683 179.793 107.075C180.743 108.152 181.558 108.972 182.646 110.056C183.037 110.445 183.038 111.078 182.649 111.47C182.26 111.861 181.626 111.863 181.235 111.474C180.141 110.385 179.285 109.524 178.285 108.39L178.277 108.382L178.27 108.374C176.28 106.017 175.039 104.508 174.559 104.002C174.407 103.908 174.301 103.848 174.237 103.815C174.236 103.815 174.234 103.813 174.233 103.812C173.823 103.688 173.524 103.307 173.524 102.856C173.524 102.492 173.719 102.181 173.992 102.009C174.199 101.879 174.396 101.861 174.464 101.856ZM309.464 101.856C309.614 101.847 309.733 101.875 309.757 101.881C309.837 101.899 309.903 101.924 309.93 101.935C310 101.962 310.074 101.998 310.144 102.033C310.217 102.07 310.303 102.117 310.4 102.173L310.73 102.374L310.822 102.433L310.899 102.509C311.397 103.005 312.773 104.683 314.793 107.075C315.743 108.152 316.558 108.972 317.646 110.056C318.037 110.445 318.038 111.078 317.649 111.47C317.26 111.861 316.626 111.863 316.235 111.474C315.141 110.385 314.285 109.524 313.285 108.39L313.277 108.382L313.27 108.374C311.28 106.017 310.039 104.508 309.559 104.002C309.407 103.908 309.301 103.848 309.237 103.815C309.236 103.815 309.234 103.813 309.233 103.812C308.823 103.688 308.524 103.307 308.524 102.856C308.524 102.492 308.719 102.181 308.992 102.009C309.199 101.879 309.396 101.861 309.464 101.856ZM568.442 95.957C566.823 96.2125 563.887 96.4785 558.375 96.8096C547.193 97.4811 525.239 98.4317 481.703 100.091C462.124 100.837 438.182 101.216 411.75 101.386C411.772 101.473 411.801 101.581 411.839 101.705C411.931 102.015 412.065 102.419 412.234 102.882C412.566 103.792 413.029 104.906 413.585 105.958C415.204 108.164 416.632 109.998 417.477 110.981C434.903 110.375 450.501 109.581 459.71 109.137C465.983 108.834 471.572 109.828 477.623 110.658C483.691 111.491 490.336 112.182 498.903 111.356C521.978 109.133 517.056 109.835 522.881 109.143C525.375 108.846 526.857 108.567 528.11 108.314C529.37 108.06 530.449 107.823 532.078 107.625C535.311 107.233 540.72 107 554.5 107C557.267 107 558.203 107.181 559.838 106.916C561.449 106.654 563.675 105.951 568.639 104.11C568.715 104.053 568.765 104.009 568.797 103.977C568.783 103.94 568.762 103.888 568.727 103.818C568.685 103.735 568.635 103.643 568.572 103.528C568.512 103.417 568.441 103.287 568.369 103.147C568.072 102.571 567.74 101.8 567.634 100.744C567.529 99.6948 567.653 98.4256 568.17 96.8447L568.174 96.8291L568.18 96.8145C568.262 96.5882 568.348 96.2975 568.442 95.957ZM384.203 101.49C384.215 101.533 384.23 101.589 384.254 101.657C384.328 101.875 384.46 102.214 384.693 102.714C385.159 103.714 386.01 105.331 387.559 107.9C388.394 109.177 388.982 109.971 389.366 110.49C389.767 111.032 389.886 111.191 390.057 111.37C390.154 111.471 390.225 111.588 390.271 111.711C392.344 111.669 394.438 111.626 396.541 111.578C396.447 111.474 396.345 111.362 396.235 111.237C395.331 110.216 393.826 108.458 392.69 106.864L392.673 106.841L392.659 106.816C391.737 105.351 391.065 104.141 390.615 103.25C390.39 102.806 390.218 102.435 390.096 102.148C390.006 101.935 389.909 101.686 389.864 101.48C387.986 101.485 386.099 101.487 384.203 101.49ZM137.314 101.594C135.415 101.629 133.541 101.665 131.694 101.704C131.771 101.923 131.899 102.248 132.116 102.714C132.582 103.714 133.433 105.331 134.982 107.9C135.816 109.177 136.404 109.971 136.789 110.49C137.19 111.032 137.309 111.191 137.48 111.37C137.534 111.426 137.579 111.489 137.617 111.553C139.743 111.591 141.887 111.63 144.045 111.668C143.929 111.541 143.8 111.398 143.658 111.237C142.754 110.216 141.248 108.458 140.113 106.864L140.096 106.841L140.082 106.816C139.16 105.351 138.488 104.141 138.038 103.25C137.813 102.806 137.641 102.435 137.519 102.148C137.445 101.973 137.365 101.773 137.314 101.594ZM391.987 101.476C392.086 101.7 392.221 101.993 392.4 102.348C392.817 103.173 393.453 104.321 394.337 105.727C395.407 107.225 396.844 108.907 397.733 109.911C398.612 110.905 398.865 111.134 399.12 111.368C399.169 111.413 399.212 111.464 399.251 111.516C400.629 111.483 402.009 111.447 403.388 111.411C402.948 110.941 402.446 110.383 401.933 109.759C400.971 108.587 399.826 107.171 399.094 105.775C398.127 103.931 397.577 102.742 397.263 101.977C397.184 101.782 397.117 101.61 397.062 101.457C395.378 101.463 393.687 101.471 391.987 101.476ZM126.012 101.833C124.902 101.86 123.802 101.885 122.714 101.911C122.787 102.09 122.873 102.302 122.978 102.55C123.39 103.412 124.11 104.785 125.203 106.393C126.227 107.9 127.567 109.588 129.033 111.395C131.021 111.432 133.029 111.468 135.053 111.505C134.757 111.104 134.359 110.558 133.85 109.808L133.294 108.973L133.285 108.957C131.706 106.341 130.811 104.65 130.302 103.558C129.869 102.628 129.696 102.087 129.631 101.749C128.413 101.776 127.206 101.804 126.012 101.833ZM120.587 101.962C118.679 102.007 116.807 102.05 114.969 102.092C114.986 102.121 115.003 102.152 115.02 102.183C115.789 103.566 117.326 106.296 118.38 108.044C119.419 109.769 119.927 110.432 120.531 111.17C120.546 111.189 120.56 111.209 120.574 111.229C122.503 111.267 124.455 111.306 126.425 111.344C125.356 110.004 124.362 108.713 123.548 107.517C122.381 105.799 121.61 104.327 121.165 103.393L121.155 103.373L121.147 103.354C120.877 102.716 120.71 102.294 120.61 102.025C120.602 102.003 120.594 101.982 120.587 101.962ZM404.158 101.429C402.518 101.437 400.87 101.443 399.214 101.449C399.512 102.148 400.015 103.223 400.866 104.847C401.487 106.031 402.496 107.292 403.479 108.489C404.42 109.634 405.321 110.545 405.864 111.09C405.96 111.186 406.044 111.267 406.115 111.338C407.9 111.288 409.677 111.235 411.44 111.18C410.887 110.53 410.195 109.697 409.349 108.617C407.898 106.765 405.942 104.229 404.992 102.764C404.594 102.15 404.333 101.723 404.158 101.429ZM112.717 102.142C110.662 102.187 108.651 102.231 106.683 102.272C106.793 102.405 106.919 102.558 107.062 102.731C108.212 104.122 110.485 106.866 111.884 108.445C113.253 109.991 113.681 110.3 114.258 110.756C114.382 110.853 114.475 110.975 114.539 111.108C115.69 111.132 116.85 111.154 118.019 111.178C117.651 110.656 117.228 110.008 116.667 109.076C115.594 107.296 114.042 104.54 113.272 103.154C113.01 102.682 112.835 102.361 112.717 102.142ZM179.804 101.981C180.126 101.533 180.751 101.43 181.2 101.752C181.293 101.819 181.386 101.886 182.297 102.588C183.212 103.293 184.986 104.666 186.452 105.917C187.927 107.177 189.03 108.269 190.179 109.428C190.567 109.82 190.565 110.453 190.173 110.842C189.781 111.23 189.147 111.228 188.758 110.836C187.62 109.688 186.564 108.644 185.153 107.438C183.731 106.224 181.993 104.88 181.075 104.172C180.156 103.464 180.093 103.419 180.034 103.377C179.586 103.055 179.483 102.43 179.804 101.981ZM314.804 101.981C315.126 101.533 315.751 101.43 316.2 101.752C316.293 101.819 316.386 101.886 317.297 102.588C318.212 103.293 319.987 104.666 321.452 105.917C322.927 107.177 324.03 108.269 325.179 109.428C325.568 109.82 325.565 110.453 325.173 110.842C324.781 111.23 324.147 111.228 323.758 110.836C322.62 109.688 321.564 108.644 320.153 107.438C318.731 106.224 316.993 104.88 316.075 104.172C315.156 103.464 315.093 103.419 315.034 103.377C314.586 103.055 314.483 102.43 314.804 101.981ZM406.506 101.415C406.558 101.497 406.612 101.585 406.671 101.676C407.562 103.05 409.456 105.509 410.924 107.384C412.366 109.225 413.342 110.326 413.964 111.042C413.98 111.061 413.996 111.08 414.011 111.099C414.328 111.088 414.644 111.077 414.959 111.066C414.099 109.988 413.039 108.596 411.927 107.08L411.885 107.022L411.851 106.959C411.226 105.786 410.716 104.556 410.355 103.567C410.174 103.072 410.029 102.63 409.923 102.278C409.827 101.955 409.743 101.64 409.717 101.436C409.716 101.423 409.716 101.41 409.715 101.397C408.649 101.404 407.579 101.409 406.506 101.415ZM104.204 102.325C102.237 102.366 100.315 102.404 98.4362 102.44C98.671 102.672 98.9592 102.956 99.318 103.301C100.985 104.9 104.091 107.797 107.524 110.959C108.858 110.988 110.206 111.016 111.568 111.045C111.252 110.725 110.871 110.318 110.387 109.771C108.961 108.161 106.662 105.387 105.52 104.006C104.949 103.315 104.659 102.962 104.511 102.782C104.44 102.695 104.396 102.641 104.371 102.608C104.363 102.599 104.292 102.512 104.236 102.399C104.224 102.375 104.214 102.35 104.204 102.325ZM95.7809 102.492C94.6445 102.514 93.5245 102.534 92.4205 102.554C92.4738 102.68 92.5469 102.848 92.6481 103.066C93.45 104.492 95.1753 106.824 97.0817 109.025C97.7827 109.808 97.8188 109.781 98.112 110.085C98.2931 110.273 98.384 110.515 98.3893 110.757C100.387 110.803 102.427 110.85 104.505 110.896C101.747 108.345 99.3384 106.093 97.9332 104.744C96.257 103.135 95.9402 102.757 95.7809 102.492ZM161.182 101.755C161.417 101.755 161.589 101.84 161.621 101.855C161.682 101.885 161.73 101.915 161.756 101.932C161.808 101.967 161.854 102.004 161.883 102.028C161.947 102.081 162.024 102.15 162.111 102.233C162.2 102.318 162.314 102.429 162.457 102.573L162.983 103.113L162.99 103.12L162.997 103.128C163.635 103.818 164.641 104.941 165.732 105.975C166.816 107.001 167.958 107.91 169.342 109.001C169.775 109.343 169.85 109.972 169.508 110.405C169.167 110.838 168.538 110.913 168.104 110.572C166.727 109.487 165.515 108.525 164.356 107.427C163.204 106.335 162.138 105.146 161.528 104.486V104.485C161.125 104.067 160.877 103.819 160.731 103.681C160.684 103.636 160.651 103.606 160.631 103.588C160.361 103.409 160.183 103.103 160.182 102.755C160.183 102.203 160.63 101.755 161.182 101.755ZM296.182 101.755C296.417 101.755 296.589 101.84 296.621 101.855C296.682 101.885 296.73 101.915 296.756 101.932C296.808 101.967 296.854 102.004 296.883 102.028C296.947 102.081 297.024 102.15 297.111 102.233C297.2 102.318 297.314 102.429 297.457 102.573L297.983 103.113L297.99 103.12L297.997 103.128C298.635 103.818 299.642 104.941 300.732 105.975C301.816 107.001 302.958 107.91 304.342 109.001C304.775 109.343 304.85 109.972 304.508 110.405C304.167 110.838 303.538 110.913 303.104 110.572C301.727 109.487 300.515 108.525 299.356 107.427C298.204 106.335 297.138 105.146 296.528 104.486V104.485C296.125 104.067 295.877 103.819 295.731 103.681C295.684 103.636 295.651 103.606 295.631 103.588C295.361 103.409 295.183 103.103 295.182 102.755C295.183 102.203 295.63 101.755 296.182 101.755ZM90.3385 102.591C88.9299 102.616 87.5483 102.64 86.193 102.662C86.2205 102.723 86.2493 102.789 86.2809 102.858C86.5479 103.445 86.9633 104.327 87.5524 105.511C88.2232 106.679 89.0826 107.874 89.8092 108.755C90.4376 109.516 90.942 110.01 91.5602 110.598C92.9825 110.632 94.4309 110.664 95.903 110.698C95.8078 110.596 95.7 110.481 95.5817 110.349L95.5758 110.342L95.5709 110.336C93.616 108.079 91.7796 105.612 90.8873 104.016L90.8688 103.983L90.8532 103.949C90.6652 103.545 90.547 103.267 90.4743 103.078C90.4384 102.985 90.4095 102.902 90.3883 102.832C90.3828 102.814 90.3525 102.715 90.3385 102.591ZM84.0319 102.696C81.9869 102.729 80.0038 102.757 78.0807 102.784C78.171 102.873 78.2671 102.971 78.3737 103.074C79.5371 104.123 81.833 106.1 83.6286 108.047C84.3776 108.859 85.0264 109.658 85.6188 110.445C86.6274 110.471 87.6519 110.498 88.6911 110.524C88.5542 110.369 88.4125 110.205 88.2663 110.027C87.4743 109.067 86.5403 107.769 85.8024 106.479L85.7877 106.454L85.775 106.429C85.1698 105.214 84.74 104.301 84.4606 103.688C84.3212 103.381 84.2179 103.147 84.1491 102.986C84.115 102.907 84.0874 102.841 84.068 102.793C84.0588 102.77 84.0491 102.745 84.0407 102.722C84.0385 102.716 84.0354 102.707 84.0319 102.696ZM75.4059 102.821C74.0904 102.838 72.8042 102.853 71.5465 102.867C71.5792 102.918 71.6164 102.975 71.6579 103.038C71.8503 103.332 72.1342 103.762 72.4967 104.31C73.2198 105.402 74.2585 106.964 75.5309 108.862C75.9678 109.468 76.3054 109.892 76.5778 110.199C78.0525 110.241 79.57 110.288 81.1305 110.33C81.7505 110.347 82.3778 110.361 83.0114 110.378C82.7407 110.056 82.4589 109.729 82.1579 109.402C80.4402 107.54 78.2418 105.649 77.027 104.554L77.0133 104.542L77.0006 104.529C76.3402 103.889 75.9664 103.504 75.7555 103.273C75.6525 103.161 75.5739 103.068 75.5172 102.993C75.4934 102.962 75.4485 102.9 75.4079 102.824C75.4074 102.823 75.4065 102.822 75.4059 102.821ZM69.5465 102.891C68.0445 102.907 66.5847 102.92 65.1657 102.933C66.1403 103.687 67.6208 104.846 68.8746 105.917C70.3503 107.177 71.453 108.269 72.6022 109.428C72.7855 109.613 72.88 109.852 72.8893 110.094C73.2494 110.104 73.6126 110.114 73.9782 110.125C73.9538 110.092 73.9278 110.058 73.903 110.023L73.8922 110.009L73.8834 109.995C72.6034 108.085 71.5567 106.513 70.8288 105.414C70.4654 104.865 70.1802 104.432 69.985 104.134C69.888 103.986 69.8113 103.867 69.7584 103.785C69.7326 103.745 69.709 103.709 69.692 103.682C69.6841 103.669 69.674 103.652 69.6647 103.636C69.6603 103.628 69.6519 103.614 69.6432 103.598C69.6387 103.589 69.6297 103.573 69.6207 103.555C69.6155 103.544 69.5906 103.493 69.569 103.427C69.5106 103.247 69.5065 103.062 69.5465 102.891ZM62.1207 102.957C60.9701 102.965 59.848 102.973 58.7536 102.979C59.4307 103.747 60.6231 105.189 62.2155 107.075C63.1025 108.08 63.8717 108.861 64.8551 109.842C66.6131 109.9 68.4487 109.96 70.3649 110.019C69.5124 109.174 68.6463 108.353 67.5758 107.438C66.1538 106.224 64.4164 104.88 63.4977 104.172C62.5792 103.464 62.5154 103.419 62.4567 103.377C62.3028 103.266 62.19 103.12 62.1207 102.957ZM55.9577 102.989C54.2992 102.995 52.7084 102.999 51.1823 102.999C51.8764 103.735 53.0722 104.857 54.6022 106.235L56.3053 107.756L56.3219 107.771L56.3375 107.785C56.9831 108.41 57.5195 109.001 58.0231 109.6C59.2845 109.647 60.5939 109.695 61.9528 109.742C61.5449 109.315 61.1386 108.878 60.7077 108.39L60.6998 108.382L60.693 108.374C58.7033 106.017 57.4617 104.508 56.9821 104.002C56.8303 103.908 56.7234 103.848 56.6598 103.815C56.6586 103.815 56.657 103.813 56.6559 103.812C56.2871 103.7 56.01 103.38 55.9577 102.989ZM45.4059 103.113L45.4127 103.12L45.4196 103.128C46.058 103.818 47.0643 104.941 48.1549 105.975C49.2384 107.001 50.3808 107.91 51.7653 109.001C51.891 109.1 51.9856 109.225 52.0495 109.36C53.0672 109.404 54.1229 109.448 55.2174 109.491C55.134 109.408 55.0491 109.322 54.9616 109.237C52.6127 107.156 50.6802 105.39 49.6823 104.324C49.4326 104.106 49.2803 103.984 49.1998 103.925C49.1956 103.922 49.1917 103.918 49.1881 103.915C48.8618 103.751 48.6365 103.413 48.6364 103.022C48.6364 103.014 48.6371 103.005 48.6373 102.996C47.4789 102.994 46.3603 102.99 45.2799 102.984L45.4059 103.113ZM37.2194 102.903C38.7268 104.11 40.4729 105.579 41.4079 106.512C41.8339 106.889 42.1447 107.195 42.5377 107.562C42.8251 107.784 43.3102 108.106 43.8903 108.464C44.0956 108.591 44.2389 108.78 44.3112 108.992C45.7173 109.067 47.2221 109.143 48.8327 109.218C48.1176 108.633 47.4392 108.052 46.7789 107.427C45.6271 106.335 44.5611 105.146 43.9508 104.486V104.485C43.5476 104.067 43.2995 103.819 43.1539 103.681C43.1066 103.636 43.0734 103.606 43.0534 103.588C42.8406 103.447 42.6859 103.225 42.6295 102.968C40.6968 102.952 38.8972 102.929 37.2194 102.903ZM30.6715 103.186C31.8103 103.9 34.0591 105.316 36.3746 106.772C36.8416 107.066 36.9825 107.684 36.6891 108.151C36.598 108.296 36.4755 108.409 36.3366 108.488C37.7119 108.593 39.2385 108.697 40.9352 108.8C40.622 108.503 40.3919 108.282 40.0534 107.983L40.0299 107.962L40.0075 107.94C38.654 106.585 35.2581 103.852 33.8913 102.86C33.8837 102.855 33.8771 102.848 33.8698 102.843C32.473 102.813 31.1735 102.779 29.9625 102.742C30.1346 102.85 30.3639 102.992 30.6715 103.186ZM280.63 102.844C280.877 102.35 281.478 102.15 281.971 102.396C282.056 102.439 282.154 102.498 283.249 103.186C284.387 103.9 286.636 105.316 288.952 106.772C289.419 107.066 289.56 107.684 289.266 108.151C288.972 108.618 288.355 108.759 287.887 108.466C285.571 107.008 283.323 105.594 282.185 104.88C281.617 104.523 281.327 104.342 281.177 104.249L281.054 104.174C281.059 104.176 281.065 104.179 281.07 104.182L280.988 104.135C280.56 103.863 280.398 103.307 280.63 102.844ZM24.8297 102.543C25.5303 103.175 26.8238 104.35 27.5817 105.016C28.3079 105.653 28.5719 105.84 28.985 106.286C29.3597 106.691 29.3351 107.324 28.9303 107.699C28.918 107.711 28.9039 107.721 28.8913 107.731C30.0719 107.9 31.508 108.068 33.2731 108.232C33.8778 108.289 34.5207 108.343 35.2038 108.398C32.9253 106.965 30.7282 105.583 29.608 104.88C29.0394 104.523 28.7498 104.342 28.6002 104.249L28.4772 104.174C28.4815 104.176 28.4875 104.179 28.4928 104.182L28.4108 104.135C27.9831 103.863 27.8213 103.307 28.0524 102.844C28.0812 102.786 28.1152 102.732 28.153 102.683C26.9526 102.64 25.8485 102.592 24.8297 102.543ZM15.7799 101.825C17.8406 102.959 20.1864 104.32 22.818 105.945C23.6831 106.48 24.5963 106.992 27.3629 107.487C27.1413 107.266 26.9591 107.13 26.2623 106.519C25.469 105.822 24.1029 104.581 23.4303 103.975C23.0911 103.669 22.9276 103.523 22.8512 103.457C22.8476 103.454 22.8434 103.451 22.8405 103.448C22.5876 103.267 22.4218 102.971 22.4215 102.636V102.614C22.4218 102.601 22.4227 102.575 22.4254 102.545C22.4277 102.52 22.4325 102.473 22.4459 102.414C19.5116 102.236 17.421 102.032 15.7799 101.825ZM157.133 101.307C156.044 101.319 154.96 101.331 153.882 101.344C153.948 101.447 154.017 101.558 154.093 101.676C154.366 102.096 154.733 102.617 155.152 103.191C156.57 104.337 158.123 105.651 158.985 106.512C159.023 106.545 159.058 106.58 159.094 106.612C158.551 105.547 158.103 104.459 157.778 103.567C157.597 103.072 157.452 102.63 157.346 102.278C157.25 101.955 157.166 101.64 157.14 101.436C157.135 101.392 157.133 101.349 157.133 101.307ZM50.3932 103.675C50.3969 103.671 50.4022 103.666 50.4059 103.662L50.4079 103.659C50.4035 103.664 50.3977 103.67 50.3932 103.675ZM167.97 103.675C167.974 103.671 167.979 103.666 167.983 103.662L167.985 103.659C167.981 103.664 167.975 103.67 167.97 103.675ZM302.97 103.675C302.974 103.671 302.979 103.666 302.983 103.662L302.985 103.659C302.981 103.664 302.975 103.67 302.97 103.675ZM57.8053 103.365C57.8082 103.361 57.8132 103.355 57.8161 103.351C57.817 103.348 57.8179 103.345 57.819 103.343C57.8149 103.35 57.8096 103.358 57.8053 103.365ZM175.382 103.365C175.385 103.361 175.39 103.355 175.393 103.351C175.394 103.348 175.395 103.345 175.396 103.343C175.392 103.35 175.387 103.358 175.382 103.365ZM310.382 103.365C310.385 103.361 310.39 103.355 310.393 103.351C310.394 103.348 310.395 103.345 310.396 103.343C310.392 103.35 310.387 103.358 310.382 103.365ZM76.7907 103.201C76.7951 103.199 76.8008 103.197 76.8053 103.194C76.8085 103.192 76.812 103.189 76.8151 103.187C76.8072 103.191 76.7987 103.196 76.7907 103.201ZM194.368 103.201C194.372 103.199 194.378 103.197 194.382 103.194C194.386 103.192 194.389 103.189 194.392 103.187C194.384 103.191 194.376 103.196 194.368 103.201ZM329.368 103.201C329.372 103.199 329.378 103.197 329.382 103.194C329.386 103.192 329.389 103.189 329.392 103.187C329.384 103.191 329.376 103.196 329.368 103.201ZM24.32 103.07C24.3208 103.069 24.3229 103.067 24.3239 103.065C24.3246 103.064 24.3251 103.061 24.3258 103.059C24.3241 103.062 24.3217 103.067 24.32 103.07ZM141.897 103.07C141.898 103.069 141.9 103.067 141.901 103.065C141.902 103.064 141.902 103.061 141.903 103.059C141.901 103.062 141.899 103.067 141.897 103.07ZM189.002 102.693C189 102.689 188.998 102.685 188.998 102.683C188.989 102.666 188.982 102.651 188.978 102.645C188.977 102.642 188.975 102.639 188.973 102.637C188.983 102.655 188.993 102.674 189.002 102.693ZM324.002 102.693C324 102.689 323.998 102.685 323.998 102.683C323.989 102.666 323.982 102.651 323.978 102.645C323.977 102.642 323.975 102.639 323.973 102.637C323.983 102.655 323.993 102.674 324.002 102.693ZM203.543 102.243C203.539 102.209 203.535 102.183 203.533 102.172C203.532 102.169 203.531 102.164 203.53 102.161C203.535 102.188 203.54 102.216 203.543 102.243ZM338.543 102.243C338.539 102.209 338.535 102.183 338.533 102.172C338.532 102.169 338.531 102.164 338.53 102.161C338.535 102.188 338.54 102.216 338.543 102.243ZM203.527 102.149C203.523 102.13 203.52 102.114 203.517 102.104C203.516 102.099 203.513 102.093 203.511 102.088C203.517 102.108 203.523 102.129 203.527 102.149ZM338.527 102.149C338.523 102.13 338.52 102.114 338.517 102.104C338.516 102.099 338.513 102.093 338.511 102.088C338.517 102.108 338.523 102.129 338.527 102.149ZM215.137 101.824C215.137 101.819 215.137 101.781 215.133 101.736L215.132 101.734C215.135 101.764 215.137 101.794 215.137 101.824ZM350.137 101.824C350.137 101.819 350.138 101.781 350.133 101.736L350.132 101.734C350.135 101.764 350.137 101.794 350.137 101.824ZM223.608 101.519C223.607 101.516 223.602 101.506 223.596 101.495C223.589 101.481 223.58 101.464 223.571 101.449C223.568 101.445 223.564 101.44 223.561 101.436C223.577 101.462 223.594 101.49 223.608 101.519ZM358.608 101.519C358.607 101.516 358.602 101.506 358.596 101.495C358.596 101.494 358.595 101.493 358.594 101.492H358.593C358.598 101.501 358.604 101.51 358.608 101.519ZM239.973 101.088C239.982 101.124 239.99 101.161 239.995 101.198C239.994 101.193 239.995 101.187 239.995 101.185C239.992 101.163 239.988 101.144 239.986 101.134C239.982 101.115 239.979 101.099 239.977 101.093C239.977 101.091 239.976 101.089 239.975 101.088H239.973Z" fill="#671295"/>
</svg>
