<svg width="67" height="59" viewBox="0 0 67 59" fill="none" xmlns="http://www.w3.org/2000/svg">
<path d="M2.243 6.85443C3.51235 6.85443 6.41268 6.47386 7.24477 5.66344C7.62435 5.29375 7.63604 4.76597 7.57255 4.3016C7.44361 3.35861 6.62156 2.41079 5.72262 1.52378C5.31446 1.12103 4.87669 0.954275 4.47992 1.01121C2.71171 1.26494 1.7901 4.45572 1.13942 7.06507C0.320251 10.3501 3.33228 13.3835 4.71814 14.8107C8.55547 18.7627 17.586 18.6752 19.1981 19.7932C20.1846 20.4773 20.8024 22.0279 21.5472 23.9629C22.4629 26.3422 23.4819 33.9393 24.8572 43.5988C25.4571 47.8124 26.132 48.9152 26.8303 49.6937C27.5632 50.5107 29.0496 50.7005 33.7342 51.0292C37.6299 51.3025 44.6263 51.4979 48.8863 51.7863C56.9863 53.0898 60.2677 54.3683 62.2739 55.4828C63.3688 56.1426 64.6199 56.9935 65.9089 57.8703" stroke="#671295" stroke-width="2" stroke-linecap="round"/>
</svg>
